# Original VFX mesh; Unity Y-up, +Z forward
o Blade
v -0.0622141324 0 -0.268527031
v -3.40831718E-08 0.0228728279 -0.268527031
v 0.06221406 0 -0.268527031
v -3.40831718E-08 -0.0228728279 -0.268527031
v -0.07502291 0 -0.213632241
v -3.40831718E-08 0.0247026552 -0.213632241
v 0.07502285 0 -0.213632241
v -3.40831718E-08 -0.0247026552 -0.213632241
v -0.0622141324 0 0.2346752
v -3.40831718E-08 0.0192131754 0.2346752
v 0.06221406 0 0.2346752
v -3.40831718E-08 -0.0192131754 0.2346752
v -0.0393413 0 0.399359584
v -3.40831718E-08 0.0137236966 0.399359584
v 0.0393412337 0 0.399359584
v -3.40831718E-08 -0.0137236966 0.399359584
v -0.000914947246 0 0.5
v -3.40831718E-08 0.0009149132 0.5
v 0.0009148791 0 0.5
v -3.40831718E-08 -0.0009149132 0.5
v 0.0283622723 0 -0.460658759
v 0.020055145 0.02005518 -0.460658759
v -3.53229268E-08 0.0283623077 -0.460658759
v -0.0200552139 0.02005518 -0.460658759
v -0.0283623412 -2.47951171E-09 -0.460658759
v -0.02005521 -0.0200551841 -0.460658759
v -3.37449535E-08 -0.0283623077 -0.460658759
v 0.0200551525 -0.020055173 -0.460658759
v 0.0283622723 4.95902341E-09 -0.460658759
v 0.0283622723 0 -0.424062252
v 0.020055145 0.02005518 -0.424062252
v -3.53229268E-08 0.0283623077 -0.424062252
v -0.0200552139 0.02005518 -0.424062252
v -0.0283623412 -2.47951171E-09 -0.424062252
v -0.02005521 -0.0200551841 -0.424062252
v -3.37449535E-08 -0.0283623077 -0.424062252
v 0.0200551525 -0.020055173 -0.424062252
v 0.0283622723 4.95902341E-09 -0.424062252
v 0.0283622723 0 -0.387465715
v 0.020055145 0.02005518 -0.387465715
v -3.53229268E-08 0.0283623077 -0.387465715
v -0.0200552139 0.02005518 -0.387465715
v -0.0283623412 -2.47951171E-09 -0.387465715
v -0.02005521 -0.0200551841 -0.387465715
v -3.37449535E-08 -0.0283623077 -0.387465715
v 0.0200551525 -0.020055173 -0.387465715
v 0.0283622723 4.95902341E-09 -0.387465715
v 0.0283622723 0 -0.3508692
v 0.020055145 0.02005518 -0.3508692
v -3.53229268E-08 0.0283623077 -0.3508692
v -0.0200552139 0.02005518 -0.3508692
v -0.0283623412 -2.47951171E-09 -0.3508692
v -0.02005521 -0.0200551841 -0.3508692
v -3.37449535E-08 -0.0283623077 -0.3508692
v 0.0200551525 -0.020055173 -0.3508692
v 0.0283622723 4.95902341E-09 -0.3508692
v 0.0283622723 0 -0.314272672
v 0.020055145 0.02005518 -0.314272672
v -3.53229268E-08 0.0283623077 -0.314272672
v -0.0200552139 0.02005518 -0.314272672
v -0.0283623412 -2.47951171E-09 -0.314272672
v -0.02005521 -0.0200551841 -0.314272672
v -3.37449535E-08 -0.0283623077 -0.314272672
v 0.0200551525 -0.020055173 -0.314272672
v 0.0283622723 4.95902341E-09 -0.314272672
v 0.0283622723 0 -0.277676165
v 0.020055145 0.02005518 -0.277676165
v -3.53229268E-08 0.0283623077 -0.277676165
v -0.0200552139 0.02005518 -0.277676165
v -0.0283623412 -2.47951171E-09 -0.277676165
v -0.02005521 -0.0200551841 -0.277676165
v -3.37449535E-08 -0.0283623077 -0.277676165
v 0.0200551525 -0.020055173 -0.277676165
v 0.0283622723 4.95902341E-09 -0.277676165
v -3.40831718E-08 0 -0.460658759
v -3.40831718E-08 0 -0.277676165
v -0.15272072 0 -0.271725476
v -0.154128 0.00965662 -0.263264418
v -0.156942561 0.009656619 -0.246342242
v -0.158349812 -9.74808E-10 -0.237881169
v -0.156942561 -0.00965662 -0.246342242
v -0.154128 -0.00965662 -0.263264418
v -0.15272072 1.949616E-09 -0.271725476
v -0.108186819 0 -0.26707682
v -0.109641731 0.0110532371 -0.257367373
v -0.112551533 0.0110532362 -0.237948522
v -0.114006437 -1.11579235E-09 -0.228239074
v -0.112551533 -0.0110532371 -0.237948522
v -0.109641731 -0.0110532371 -0.257367373
v -0.108186819 2.23158469E-09 -0.26707682
v -0.06442753 0 -0.263437778
v -0.065542765 0.0121732363 -0.252682775
v -0.0677732155 0.0121732354 -0.231172815
v -0.06888845 -1.22885324E-09 -0.220417827
v -0.0677732155 -0.0121732363 -0.231172815
v -0.065542765 -0.0121732363 -0.252682775
v -0.06442753 2.45770648E-09 -0.263437778
v -0.02137867 0 -0.261461675
v -0.0217990112 0.0127947889 -0.250104725
v -0.0226396937 0.012794788 -0.227390841
v -0.0230600331 -1.29159716E-09 -0.216033876
v -0.0226396937 -0.0127947889 -0.227390841
v -0.0217990112 -0.0127947889 -0.250104725
v -0.02137867 2.58319433E-09 -0.261461675
v 0.0213790946 0 -0.2614617
v 0.0217991937 0.0127947889 -0.250104755
v 0.0226393919 0.012794788 -0.227390811
v 0.0230594911 -1.29159716E-09 -0.216033861
v 0.0226393919 -0.0127947889 -0.227390841
v 0.0217991937 -0.0127947889 -0.250104725
v 0.0213790946 2.58319433E-09 -0.2614617
v 0.0644274354 0 -0.263437778
v 0.06554268 0.0121732363 -0.252682775
v 0.06777318 0.0121732354 -0.231172815
v 0.06888842 -1.22885324E-09 -0.220417842
v 0.06777317 -0.0121732363 -0.231172815
v 0.06554268 -0.0121732363 -0.252682775
v 0.0644274354 2.45770648E-09 -0.263437778
v 0.108186714 0 -0.2670768
v 0.109641641 0.0110532371 -0.257367373
v 0.112551495 0.0110532362 -0.237948522
v 0.114006422 -1.11579235E-09 -0.228239089
v 0.112551495 -0.0110532371 -0.237948522
v 0.109641641 -0.0110532371 -0.257367373
v 0.108186714 2.23158469E-09 -0.2670768
v 0.152720585 0 -0.271725446
v 0.154127881 0.009656619 -0.263264418
v 0.1569425 0.009656618 -0.246342242
v 0.158349812 -9.748079E-10 -0.2378812
v 0.1569425 -0.009656619 -0.246342242
v 0.154127881 -0.009656619 -0.263264418
v 0.152720585 1.9496158E-09 -0.271725446
v -0.155535281 0 -0.25480333
v 0.155535191 0 -0.25480333
v -3.40831718E-08 0.0274473932 -0.47438243
v -3.40831718E-08 0.0274473932 -0.47438243
v -3.40831718E-08 0.0274473932 -0.47438243
v -3.40831718E-08 0.0274473932 -0.47438243
v -3.40831718E-08 0.0274473932 -0.47438243
v -3.40831718E-08 0.0274473932 -0.47438243
v -3.40831718E-08 0.0274473932 -0.47438243
v -3.40831718E-08 0.0274473932 -0.47438243
v -3.40831718E-08 0.0274473932 -0.47438243
v 0.0258776173 0.0194082372 -0.47438243
v 0.0182982273 0.0194082372 -0.46157372
v -3.52143168E-08 0.0194082372 -0.4562681
v -0.0182982944 0.0194082372 -0.46157372
v -0.0258776844 0.0194082372 -0.47438243
v -0.0182982925 0.0194082372 -0.48719126
v -3.37745831E-08 0.0194082372 -0.4924968
v 0.0182982348 0.0194082372 -0.48719126
v 0.0258776173 0.0194082372 -0.47438243
v 0.0365964919 -1.19976362E-09 -0.47438243
v 0.0258776173 -1.19976362E-09 -0.4562681
v -3.56828522E-08 -1.19976362E-09 -0.4487649
v -0.0258776844 -1.19976362E-09 -0.4562681
v -0.03659656 -1.19976362E-09 -0.47438243
v -0.0258776788 -1.19976362E-09 -0.4924968
v -3.36467636E-08 -1.19976362E-09 -0.5
v 0.0258776248 -1.19976362E-09 -0.4924968
v 0.0365964919 -1.19976362E-09 -0.47438243
v 0.0258776173 -0.0194082372 -0.47438243
v 0.0182982273 -0.0194082372 -0.46157372
v -3.52143168E-08 -0.0194082372 -0.4562681
v -0.0182982944 -0.0194082372 -0.46157372
v -0.0258776844 -0.0194082372 -0.47438243
v -0.0182982925 -0.0194082372 -0.48719126
v -3.37745831E-08 -0.0194082372 -0.4924968
v 0.0182982348 -0.0194082372 -0.48719126
v 0.0258776173 -0.0194082372 -0.47438243
v -3.728254E-08 -0.0274473932 -0.47438243
v -3.63454653E-08 -0.0274473932 -0.47438243
v -3.40831718E-08 -0.0274473932 -0.47438243
v -3.18208748E-08 -0.0274473932 -0.47438243
v -3.08838E-08 -0.0274473932 -0.47438243
v -3.18208748E-08 -0.0274473932 -0.47438243
v -3.40831718E-08 -0.0274473932 -0.47438243
v -3.63454653E-08 -0.0274473932 -0.47438243
v -3.728254E-08 -0.0274473932 -0.47438243
vt 0 0
vt 0.5 0
vt 1 0
vt 0.5 0
vt 0 0.25
vt 0.5 0.25
vt 1 0.25
vt 0.5 0.25
vt 0 0.5
vt 0.5 0.5
vt 1 0.5
vt 0.5 0.5
vt 0 0.75
vt 0.5 0.75
vt 1 0.75
vt 0.5 0.75
vt 0 1
vt 0.5 1
vt 1 1
vt 0.5 1
vt 0 0
vt 0.125 0
vt 0.25 0
vt 0.375 0
vt 0.5 0
vt 0.625 0
vt 0.75 0
vt 0.875 0
vt 1 0
vt 0 0.2
vt 0.125 0.2
vt 0.25 0.2
vt 0.375 0.2
vt 0.5 0.2
vt 0.625 0.2
vt 0.75 0.2
vt 0.875 0.2
vt 1 0.2
vt 0 0.4
vt 0.125 0.4
vt 0.25 0.4
vt 0.375 0.4
vt 0.5 0.4
vt 0.625 0.4
vt 0.75 0.4
vt 0.875 0.4
vt 1 0.4
vt 0 0.6
vt 0.125 0.6
vt 0.25 0.6
vt 0.375 0.6
vt 0.5 0.6
vt 0.625 0.6
vt 0.75 0.6
vt 0.875 0.6
vt 1 0.6
vt 0 0.8
vt 0.125 0.8
vt 0.25 0.8
vt 0.375 0.8
vt 0.5 0.8
vt 0.625 0.8
vt 0.75 0.8
vt 0.875 0.8
vt 1 0.8
vt 0 1
vt 0.125 1
vt 0.25 1
vt 0.375 1
vt 0.5 1
vt 0.625 1
vt 0.75 1
vt 0.875 1
vt 1 1
vt 0.5 0
vt 0.5 1
vt 0 0
vt 0.166666672 0
vt 0.333333343 0
vt 0.5 0
vt 0.6666667 0
vt 0.8333333 0
vt 1 0
vt 0 0.142857149
vt 0.166666672 0.142857149
vt 0.333333343 0.142857149
vt 0.5 0.142857149
vt 0.6666667 0.142857149
vt 0.8333333 0.142857149
vt 1 0.142857149
vt 0 0.2857143
vt 0.166666672 0.2857143
vt 0.333333343 0.2857143
vt 0.5 0.2857143
vt 0.6666667 0.2857143
vt 0.8333333 0.2857143
vt 1 0.2857143
vt 0 0.428571433
vt 0.166666672 0.428571433
vt 0.333333343 0.428571433
vt 0.5 0.428571433
vt 0.6666667 0.428571433
vt 0.8333333 0.428571433
vt 1 0.428571433
vt 0 0.5714286
vt 0.166666672 0.5714286
vt 0.333333343 0.5714286
vt 0.5 0.5714286
vt 0.6666667 0.5714286
vt 0.8333333 0.5714286
vt 1 0.5714286
vt 0 0.714285731
vt 0.166666672 0.714285731
vt 0.333333343 0.714285731
vt 0.5 0.714285731
vt 0.6666667 0.714285731
vt 0.8333333 0.714285731
vt 1 0.714285731
vt 0 0.857142866
vt 0.166666672 0.857142866
vt 0.333333343 0.857142866
vt 0.5 0.857142866
vt 0.6666667 0.857142866
vt 0.8333333 0.857142866
vt 1 0.857142866
vt 0 1
vt 0.166666672 1
vt 0.333333343 1
vt 0.5 1
vt 0.6666667 1
vt 0.8333333 1
vt 1 1
vt 0.5 0
vt 0.5 1
vt 0 0
vt 0.125 0
vt 0.25 0
vt 0.375 0
vt 0.5 0
vt 0.625 0
vt 0.75 0
vt 0.875 0
vt 1 0
vt 0 0.25
vt 0.125 0.25
vt 0.25 0.25
vt 0.375 0.25
vt 0.5 0.25
vt 0.625 0.25
vt 0.75 0.25
vt 0.875 0.25
vt 1 0.25
vt 0 0.5
vt 0.125 0.5
vt 0.25 0.5
vt 0.375 0.5
vt 0.5 0.5
vt 0.625 0.5
vt 0.75 0.5
vt 0.875 0.5
vt 1 0.5
vt 0 0.75
vt 0.125 0.75
vt 0.25 0.75
vt 0.375 0.75
vt 0.5 0.75
vt 0.625 0.75
vt 0.75 0.75
vt 0.875 0.75
vt 1 0.75
vt 0 1
vt 0.125 1
vt 0.25 1
vt 0.375 1
vt 0.5 1
vt 0.625 1
vt 0.75 1
vt 0.875 1
vt 1 1
vn -0.452402979 0.481779784 -0.7504797
vn 0.117492132 0.948640168 -0.293730319
vn 0.452402979 -0.481779784 -0.750479758
vn -0.117492132 -0.948640168 -0.293730319
vn -0.8173927 0.576056 0.00535866246
vn 0.0687235147 0.9976247 0.00469102664
vn 0.8173927 -0.576056 0.00535865873
vn -0.06872351 -0.997624636 0.004691024
vn -0.8045748 -0.592248857 0.0435971133
vn -0.07550631 0.996998668 0.0171018559
vn 0.8045748 0.592249 0.0435971059
vn 0.07550631 -0.9969987 0.0171018559
vn -0.7132719 -0.6872113 0.137782156
vn -0.0977626741 0.993343353 0.0609218627
vn 0.7132719 0.6872113 0.137782142
vn 0.0977626741 -0.993343353 0.0609218553
vn -0.3643408 -0.921568036 0.134046286
vn -0.3137129 0.941138744 0.125865459
vn 0.3643408 0.921568036 0.1340463
vn 0.3137129 -0.941138744 0.125865459
vn 0.869818747 0.360290676 -0.3370549
vn 0.5374456 0.7096309 -0.4556053
vn -0.121753417 0.881816268 -0.455605328
vn -0.7096309 0.537445545 -0.455605268
vn -0.8818162 -0.121753514 -0.455605328
vn -0.537445545 -0.7096309 -0.455605328
vn 0.12175367 -0.8818162 -0.455605239
vn 0.709631 -0.5374455 -0.455605328
vn 0.751179755 -0.311148554 -0.5821645
vn 0.9238796 0.382683456 0
vn 0.7071067 0.7071068 0
vn -5.28716058E-08 1 0
vn -0.7071069 0.7071067 0
vn -1 -1.45396911E-07 0
vn -0.7071067 -0.7071069 0
vn 3.30447534E-07 -1 0
vn 0.7071069 -0.7071066 0
vn 0.9238796 -0.382683128 0
vn 0.923879564 0.382683456 0
vn 0.7071068 0.7071067 0
vn 6.608951E-08 1 0
vn -0.7071068 0.7071068 0
vn -1 -2.64358E-08 0
vn -0.7071068 -0.707106769 0
vn 2.24704323E-07 -1 0
vn 0.7071069 -0.707106769 0
vn 0.9238796 -0.382683158 0
vn 0.9238796 0.382683456 0
vn 0.7071067 0.7071068 0
vn -5.28716058E-08 1 0
vn -0.7071069 0.7071067 0
vn -1 -1.45396911E-07 0
vn -0.7071067 -0.7071069 0
vn 3.30447534E-07 -1 0
vn 0.7071069 -0.7071066 0
vn 0.9238796 -0.382683128 0
vn 0.923879564 0.382683456 0
vn 0.7071068 0.7071067 0
vn 6.608951E-08 1 0
vn -0.7071068 0.7071068 0
vn -1 -2.64358E-08 0
vn -0.7071068 -0.707106769 0
vn 2.24704323E-07 -1 0
vn 0.7071069 -0.707106769 0
vn 0.9238796 -0.382683158 0
vn 0.7511797 0.3111488 0.5821645
vn 0.709630966 0.5374456 0.4556053
vn 0.1217534 0.8818162 0.455605268
vn -0.5374456 0.7096309 0.455605328
vn -0.8818162 0.121753342 0.455605328
vn -0.709630847 -0.5374456 0.455605268
vn -0.121753208 -0.8818163 0.455605328
vn 0.537445664 -0.709630847 0.455605239
vn 0.8698188 -0.360290438 0.337054938
vn 0 0 -1
vn 0 0 1
vn -0.0530950874 0.6538635 -0.7547472
vn -0.156399578 0.959973633 -0.2323572
vn -0.2889704 0.8443629 0.45116207
vn -0.413291454 -0.29574877 0.8612334
vn -0.221061036 -0.9601149 0.171205655
vn -0.134449124 -0.8435438 -0.519958854
vn -0.194831386 -0.6301682 -0.7516174
vn 0.0672081262 0.6637039 -0.744969964
vn 0.0152204707 0.941756964 -0.33594963
vn -0.08514107 0.9291958 0.3596473
vn -0.190820083 -0.03385428 0.981041
vn -0.0840040445 -0.9407877 0.328423381
vn 0.0154382912 -0.9303106 -0.3664477
vn 0.0723443553 -0.6634927 -0.744676948
vn 0.043536216 0.6639161 -0.746538758
vn 0.0127056269 0.940448344 -0.339699119
vn -0.0564913861 0.9313537 0.359706938
vn -0.132254124 -0.0209795255 0.990993857
vn -0.06110401 -0.9384779 0.33989054
vn 0.007875095 -0.933361232 -0.358852148
vn 0.0527405664 -0.66366297 -0.746170163
vn 0.0114167091 0.664001346 -0.747644246
vn 0.007526767 0.9386902 -0.344679683
vn -0.0169985555 0.9337212 0.3575974
vn -0.04731972 -0.007060454 0.998854935
vn -0.0251633041 -0.9361044 0.350820869
vn -0.000328926049 -0.936308444 -0.3511787
vn 0.0229054168 -0.663889349 -0.7474799
vn -0.0229055639 0.663889349 -0.74748
vn 0.000328777329 0.9363087 -0.351178
vn 0.0251632947 0.936104059 0.350821674
vn 0.0473193862 0.007058818 0.9988549
vn 0.0169983879 -0.933721 0.357597828
vn -0.00752679957 -0.9386904 -0.344679
vn -0.0114170918 -0.664001763 -0.7476438
vn -0.05274046 0.6636627 -0.746170342
vn -0.007874953 0.93336153 -0.358851254
vn 0.0611040443 0.9384777 0.339891076
vn 0.1322538 0.020979939 0.990993857
vn 0.0564912558 -0.931353331 0.359707654
vn -0.0127055859 -0.9404484 -0.33969897
vn -0.04353614 -0.6639162 -0.7465387
vn -0.07234432 0.663491547 -0.7446779
vn -0.0154382065 0.930310547 -0.366447717
vn 0.08400412 0.9407876 0.32842347
vn 0.190820143 0.03385441 0.981041
vn 0.08514109 -0.929195762 0.3596473
vn -0.0152205061 -0.9417569 -0.335949928
vn -0.06720805 -0.6637032 -0.7449706
vn 0.194831222 0.6301668 -0.7516186
vn 0.134449139 0.8435433 -0.519959748
vn 0.221060991 0.9601151 0.1712049
vn 0.4132917 0.295748651 0.8612333
vn 0.28897053 -0.8443632 0.451161534
vn 0.156399533 -0.9599735 -0.23235783
vn 0.0530949123 -0.6538622 -0.7547484
vn -0.986448765 0 -0.164069518
vn 0.9864482 0 -0.164073378
vn 0 0 0
vn 0.292205364 0.940594733 0.172908753
vn 0.116813011 0.9077721 0.402870178
vn -0.116813011 0.9077721 0.4028701
vn -0.292205364 0.940594733 0.172908753
vn -0.292205453 0.9405951 -0.172907248
vn -0.116810925 0.90777266 -0.4028697
vn 0.116810866 0.90777266 -0.4028697
vn 0.292205453 0.9405951 -0.17290704
vn 0.5654204 0.753893852 0.334580272
vn 0.5032578 0.671010435 0.544496536
vn 0.07704973 0.5987717 0.797205
vn -0.3613777 0.6362064 0.681650639
vn -0.675706267 0.725022435 0.133279547
vn -0.5032581 0.671010733 -0.54449594
vn -0.07704974 0.5987713 -0.7972052
vn 0.361377865 0.6362069 -0.681650162
vn 0.668297 0.6300764 -0.3954528
vn 0.8540581 0.123205669 0.5053763
vn 0.573461831 3.41003243E-07 0.8192322
vn -2.1405917E-08 -1.60544378E-08 1
vn -0.5734619 -3.224031E-07 0.819232166
vn -1 9.17397145E-08 -1.45254546E-07
vn -0.573462367 -2.2940209E-07 -0.819231868
vn 5.351479E-09 2.14059153E-08 -1
vn 0.5734623 1.92201753E-07 -0.819231868
vn 0.854059041 -0.123205528 -0.50537467
vn 0.6682963 -0.630075932 0.395454884
vn 0.361377627 -0.636206448 0.6816505
vn -0.07704973 -0.5987718 0.797205
vn -0.5032579 -0.671010554 0.544496536
vn -0.675706744 -0.725022137 -0.133279666
vn -0.3613779 -0.636206865 -0.6816501
vn 0.07704973 -0.598771334 -0.7972052
vn 0.503258 -0.6710109 -0.5444958
vn 0.5654209 -0.753894746 -0.334577143
vn 0.2922053 -0.9405948 0.172908738
vn 0.116812989 -0.9077721 0.402870119
vn -0.116813034 -0.907772243 0.402870178
vn -0.292205334 -0.940594733 0.172908753
vn -0.292205423 -0.9405951 -0.172907248
vn -0.116810933 -0.90777266 -0.4028697
vn 0.116810873 -0.90777266 -0.4028697
vn 0.292205423 -0.9405952 -0.172907025
vn 0 0 0
f 1/1/1 5/5/5 6/6/6
f 1/1/1 6/6/6 2/2/2
f 2/2/2 6/6/6 7/7/7
f 2/2/2 7/7/7 3/3/3
f 3/3/3 7/7/7 8/8/8
f 3/3/3 8/8/8 4/4/4
f 4/4/4 8/8/8 5/5/5
f 4/4/4 5/5/5 1/1/1
f 5/5/5 9/9/9 10/10/10
f 5/5/5 10/10/10 6/6/6
f 6/6/6 10/10/10 11/11/11
f 6/6/6 11/11/11 7/7/7
f 7/7/7 11/11/11 12/12/12
f 7/7/7 12/12/12 8/8/8
f 8/8/8 12/12/12 9/9/9
f 8/8/8 9/9/9 5/5/5
f 9/9/9 13/13/13 14/14/14
f 9/9/9 14/14/14 10/10/10
f 10/10/10 14/14/14 15/15/15
f 10/10/10 15/15/15 11/11/11
f 11/11/11 15/15/15 16/16/16
f 11/11/11 16/16/16 12/12/12
f 12/12/12 16/16/16 13/13/13
f 12/12/12 13/13/13 9/9/9
f 13/13/13 17/17/17 18/18/18
f 13/13/13 18/18/18 14/14/14
f 14/14/14 18/18/18 19/19/19
f 14/14/14 19/19/19 15/15/15
f 15/15/15 19/19/19 20/20/20
f 15/15/15 20/20/20 16/16/16
f 16/16/16 20/20/20 17/17/17
f 16/16/16 17/17/17 13/13/13
f 1/1/1 2/2/2 3/3/3
f 1/1/1 3/3/3 4/4/4
f 20/20/20 19/19/19 18/18/18
f 20/20/20 18/18/18 17/17/17
f 21/21/21 22/22/22 31/31/31
f 21/21/21 31/31/31 30/30/30
f 22/22/22 23/23/23 32/32/32
f 22/22/22 32/32/32 31/31/31
f 23/23/23 24/24/24 33/33/33
f 23/23/23 33/33/33 32/32/32
f 24/24/24 25/25/25 34/34/34
f 24/24/24 34/34/34 33/33/33
f 25/25/25 26/26/26 35/35/35
f 25/25/25 35/35/35 34/34/34
f 26/26/26 27/27/27 36/36/36
f 26/26/26 36/36/36 35/35/35
f 27/27/27 28/28/28 37/37/37
f 27/27/27 37/37/37 36/36/36
f 28/28/28 29/29/29 38/38/38
f 28/28/28 38/38/38 37/37/37
f 30/30/30 31/31/31 40/40/40
f 30/30/30 40/40/40 39/39/39
f 31/31/31 32/32/32 41/41/41
f 31/31/31 41/41/41 40/40/40
f 32/32/32 33/33/33 42/42/42
f 32/32/32 42/42/42 41/41/41
f 33/33/33 34/34/34 43/43/43
f 33/33/33 43/43/43 42/42/42
f 34/34/34 35/35/35 44/44/44
f 34/34/34 44/44/44 43/43/43
f 35/35/35 36/36/36 45/45/45
f 35/35/35 45/45/45 44/44/44
f 36/36/36 37/37/37 46/46/46
f 36/36/36 46/46/46 45/45/45
f 37/37/37 38/38/38 47/47/47
f 37/37/37 47/47/47 46/46/46
f 39/39/39 40/40/40 49/49/49
f 39/39/39 49/49/49 48/48/48
f 40/40/40 41/41/41 50/50/50
f 40/40/40 50/50/50 49/49/49
f 41/41/41 42/42/42 51/51/51
f 41/41/41 51/51/51 50/50/50
f 42/42/42 43/43/43 52/52/52
f 42/42/42 52/52/52 51/51/51
f 43/43/43 44/44/44 53/53/53
f 43/43/43 53/53/53 52/52/52
f 44/44/44 45/45/45 54/54/54
f 44/44/44 54/54/54 53/53/53
f 45/45/45 46/46/46 55/55/55
f 45/45/45 55/55/55 54/54/54
f 46/46/46 47/47/47 56/56/56
f 46/46/46 56/56/56 55/55/55
f 48/48/48 49/49/49 58/58/58
f 48/48/48 58/58/58 57/57/57
f 49/49/49 50/50/50 59/59/59
f 49/49/49 59/59/59 58/58/58
f 50/50/50 51/51/51 60/60/60
f 50/50/50 60/60/60 59/59/59
f 51/51/51 52/52/52 61/61/61
f 51/51/51 61/61/61 60/60/60
f 52/52/52 53/53/53 62/62/62
f 52/52/52 62/62/62 61/61/61
f 53/53/53 54/54/54 63/63/63
f 53/53/53 63/63/63 62/62/62
f 54/54/54 55/55/55 64/64/64
f 54/54/54 64/64/64 63/63/63
f 55/55/55 56/56/56 65/65/65
f 55/55/55 65/65/65 64/64/64
f 57/57/57 58/58/58 67/67/67
f 57/57/57 67/67/67 66/66/66
f 58/58/58 59/59/59 68/68/68
f 58/58/58 68/68/68 67/67/67
f 59/59/59 60/60/60 69/69/69
f 59/59/59 69/69/69 68/68/68
f 60/60/60 61/61/61 70/70/70
f 60/60/60 70/70/70 69/69/69
f 61/61/61 62/62/62 71/71/71
f 61/61/61 71/71/71 70/70/70
f 62/62/62 63/63/63 72/72/72
f 62/62/62 72/72/72 71/71/71
f 63/63/63 64/64/64 73/73/73
f 63/63/63 73/73/73 72/72/72
f 64/64/64 65/65/65 74/74/74
f 64/64/64 74/74/74 73/73/73
f 75/75/75 22/22/22 21/21/21
f 76/76/76 66/66/66 67/67/67
f 75/75/75 23/23/23 22/22/22
f 76/76/76 67/67/67 68/68/68
f 75/75/75 24/24/24 23/23/23
f 76/76/76 68/68/68 69/69/69
f 75/75/75 25/25/25 24/24/24
f 76/76/76 69/69/69 70/70/70
f 75/75/75 26/26/26 25/25/25
f 76/76/76 70/70/70 71/71/71
f 75/75/75 27/27/27 26/26/26
f 76/76/76 71/71/71 72/72/72
f 75/75/75 28/28/28 27/27/27
f 76/76/76 72/72/72 73/73/73
f 75/75/75 29/29/29 28/28/28
f 76/76/76 73/73/73 74/74/74
f 77/77/77 78/78/78 85/85/85
f 77/77/77 85/85/85 84/84/84
f 78/78/78 79/79/79 86/86/86
f 78/78/78 86/86/86 85/85/85
f 79/79/79 80/80/80 87/87/87
f 79/79/79 87/87/87 86/86/86
f 80/80/80 81/81/81 88/88/88
f 80/80/80 88/88/88 87/87/87
f 81/81/81 82/82/82 89/89/89
f 81/81/81 89/89/89 88/88/88
f 82/82/82 83/83/83 90/90/90
f 82/82/82 90/90/90 89/89/89
f 84/84/84 85/85/85 92/92/92
f 84/84/84 92/92/92 91/91/91
f 85/85/85 86/86/86 93/93/93
f 85/85/85 93/93/93 92/92/92
f 86/86/86 87/87/87 94/94/94
f 86/86/86 94/94/94 93/93/93
f 87/87/87 88/88/88 95/95/95
f 87/87/87 95/95/95 94/94/94
f 88/88/88 89/89/89 96/96/96
f 88/88/88 96/96/96 95/95/95
f 89/89/89 90/90/90 97/97/97
f 89/89/89 97/97/97 96/96/96
f 91/91/91 92/92/92 99/99/99
f 91/91/91 99/99/99 98/98/98
f 92/92/92 93/93/93 100/100/100
f 92/92/92 100/100/100 99/99/99
f 93/93/93 94/94/94 101/101/101
f 93/93/93 101/101/101 100/100/100
f 94/94/94 95/95/95 102/102/102
f 94/94/94 102/102/102 101/101/101
f 95/95/95 96/96/96 103/103/103
f 95/95/95 103/103/103 102/102/102
f 96/96/96 97/97/97 104/104/104
f 96/96/96 104/104/104 103/103/103
f 98/98/98 99/99/99 106/106/106
f 98/98/98 106/106/106 105/105/105
f 99/99/99 100/100/100 107/107/107
f 99/99/99 107/107/107 106/106/106
f 100/100/100 101/101/101 108/108/108
f 100/100/100 108/108/108 107/107/107
f 101/101/101 102/102/102 109/109/109
f 101/101/101 109/109/109 108/108/108
f 102/102/102 103/103/103 110/110/110
f 102/102/102 110/110/110 109/109/109
f 103/103/103 104/104/104 111/111/111
f 103/103/103 111/111/111 110/110/110
f 105/105/105 106/106/106 113/113/113
f 105/105/105 113/113/113 112/112/112
f 106/106/106 107/107/107 114/114/114
f 106/106/106 114/114/114 113/113/113
f 107/107/107 108/108/108 115/115/115
f 107/107/107 115/115/115 114/114/114
f 108/108/108 109/109/109 116/116/116
f 108/108/108 116/116/116 115/115/115
f 109/109/109 110/110/110 117/117/117
f 109/109/109 117/117/117 116/116/116
f 110/110/110 111/111/111 118/118/118
f 110/110/110 118/118/118 117/117/117
f 112/112/112 113/113/113 120/120/120
f 112/112/112 120/120/120 119/119/119
f 113/113/113 114/114/114 121/121/121
f 113/113/113 121/121/121 120/120/120
f 114/114/114 115/115/115 122/122/122
f 114/114/114 122/122/122 121/121/121
f 115/115/115 116/116/116 123/123/123
f 115/115/115 123/123/123 122/122/122
f 116/116/116 117/117/117 124/124/124
f 116/116/116 124/124/124 123/123/123
f 117/117/117 118/118/118 125/125/125
f 117/117/117 125/125/125 124/124/124
f 119/119/119 120/120/120 127/127/127
f 119/119/119 127/127/127 126/126/126
f 120/120/120 121/121/121 128/128/128
f 120/120/120 128/128/128 127/127/127
f 121/121/121 122/122/122 129/129/129
f 121/121/121 129/129/129 128/128/128
f 122/122/122 123/123/123 130/130/130
f 122/122/122 130/130/130 129/129/129
f 123/123/123 124/124/124 131/131/131
f 123/123/123 131/131/131 130/130/130
f 124/124/124 125/125/125 132/132/132
f 124/124/124 132/132/132 131/131/131
f 133/133/133 78/78/78 77/77/77
f 134/134/134 126/126/126 127/127/127
f 133/133/133 79/79/79 78/78/78
f 134/134/134 127/127/127 128/128/128
f 133/133/133 80/80/80 79/79/79
f 134/134/134 128/128/128 129/129/129
f 133/133/133 81/81/81 80/80/80
f 134/134/134 129/129/129 130/130/130
f 133/133/133 82/82/82 81/81/81
f 134/134/134 130/130/130 131/131/131
f 133/133/133 83/83/83 82/82/82
f 134/134/134 131/131/131 132/132/132
f 136/136/136 145/145/145 144/144/144
f 137/137/137 146/146/146 145/145/145
f 138/138/138 147/147/147 146/146/146
f 139/139/139 148/148/148 147/147/147
f 140/140/140 149/149/149 148/148/148
f 141/141/141 150/150/150 149/149/149
f 142/142/142 151/151/151 150/150/150
f 143/143/143 152/152/152 151/151/151
f 144/144/144 145/145/145 153/153/153
f 145/145/145 154/154/154 153/153/153
f 145/145/145 146/146/146 154/154/154
f 146/146/146 155/155/155 154/154/154
f 146/146/146 147/147/147 155/155/155
f 147/147/147 156/156/156 155/155/155
f 147/147/147 148/148/148 156/156/156
f 148/148/148 157/157/157 156/156/156
f 148/148/148 149/149/149 157/157/157
f 149/149/149 158/158/158 157/157/157
f 149/149/149 150/150/150 158/158/158
f 150/150/150 159/159/159 158/158/158
f 150/150/150 151/151/151 159/159/159
f 151/151/151 160/160/160 159/159/159
f 151/151/151 152/152/152 160/160/160
f 152/152/152 161/161/161 160/160/160
f 153/153/153 154/154/154 162/162/162
f 154/154/154 163/163/163 162/162/162
f 154/154/154 155/155/155 163/163/163
f 155/155/155 164/164/164 163/163/163
f 155/155/155 156/156/156 164/164/164
f 156/156/156 165/165/165 164/164/164
f 156/156/156 157/157/157 165/165/165
f 157/157/157 166/166/166 165/165/165
f 157/157/157 158/158/158 166/166/166
f 158/158/158 167/167/167 166/166/166
f 158/158/158 159/159/159 167/167/167
f 159/159/159 168/168/168 167/167/167
f 159/159/159 160/160/160 168/168/168
f 160/160/160 169/169/169 168/168/168
f 160/160/160 161/161/161 169/169/169
f 161/161/161 170/170/170 169/169/169
f 162/162/162 163/163/163 171/171/171
f 163/163/163 164/164/164 172/172/172
f 164/164/164 165/165/165 173/173/173
f 165/165/165 166/166/166 174/174/174
f 166/166/166 167/167/167 175/175/175
f 167/167/167 168/168/168 176/176/176
f 168/168/168 169/169/169 177/177/177
f 169/169/169 170/170/170 178/178/178
