# Original VFX mesh; Unity Y-up, +Z forward
o Cloud
v -0.341121554 -0.016355142 -0.252336442
v -0.275700957 -0.016355142 -0.196261689
v -0.294392556 -0.016355142 -0.130841121
v -0.322429955 -0.016355142 -0.186915889
v -0.378504723 -0.016355142 -0.1588785
v -0.378504723 -0.016355142 -0.08411215
v -0.303738356 -0.016355142 -0.0373831764
v -0.2383178 -0.016355142 -0.130841121
v -0.14485985 -0.016355142 -0.289719641
v -0.0327103063 -0.016355142 -0.3457944
v 0.0607476458 -0.016355142 -0.233644873
v 0.1261682 -0.016355142 -0.0373831764
v 0.210280374 -0.016355142 0.028037386
v 0.313084126 -0.016355142 0.0186915938
v 0.3691589 -0.016355142 -0.04672897
v 0.3504673 -0.016355142 -0.112149529
v 0.285046726 -0.016355142 -0.130841121
v 0.266355127 -0.016355142 -0.102803737
v 0.313084126 -0.016355142 -0.102803737
v 0.313084126 -0.016355142 -0.0560747646
v 0.247663558 -0.016355142 -0.0280373786
v 0.191588774 -0.016355142 -0.0934579447
v 0.228971958 -0.016355142 -0.186915889
v 0.3504673 -0.016355142 -0.224299073
v 0.453271031 -0.016355142 -0.1588785
v 0.5 -0.016355142 -0.0186915863
v 0.443925232 -0.016355142 0.112149544
v 0.313084126 -0.016355142 0.186915919
v 0.200934574 -0.016355142 0.140186936
v 0.135514 -0.016355142 0.280373871
v 0.00467287377 -0.016355142 0.3457944
v -0.0981308743 -0.016355142 0.31775704
v -0.2102804 -0.016355142 0.224299088
v -0.247663587 -0.016355142 0.08411216
v -0.322429955 -0.016355142 0.09345796
v -0.4439253 -0.016355142 0.0373831876
v -0.5 -0.016355142 -0.0934579447
v -0.4626169 -0.016355142 -0.214953274
v -0.341121554 0.016355142 -0.252336442
v -0.275700957 0.016355142 -0.196261689
v -0.294392556 0.016355142 -0.130841121
v -0.322429955 0.016355142 -0.186915889
v -0.378504723 0.016355142 -0.1588785
v -0.378504723 0.016355142 -0.08411215
v -0.303738356 0.016355142 -0.0373831764
v -0.2383178 0.016355142 -0.130841121
v -0.14485985 0.016355142 -0.289719641
v -0.0327103063 0.016355142 -0.3457944
v 0.0607476458 0.016355142 -0.233644873
v 0.1261682 0.016355142 -0.0373831764
v 0.210280374 0.016355142 0.028037386
v 0.313084126 0.016355142 0.0186915938
v 0.3691589 0.016355142 -0.04672897
v 0.3504673 0.016355142 -0.112149529
v 0.285046726 0.016355142 -0.130841121
v 0.266355127 0.016355142 -0.102803737
v 0.313084126 0.016355142 -0.102803737
v 0.313084126 0.016355142 -0.0560747646
v 0.247663558 0.016355142 -0.0280373786
v 0.191588774 0.016355142 -0.0934579447
v 0.228971958 0.016355142 -0.186915889
v 0.3504673 0.016355142 -0.224299073
v 0.453271031 0.016355142 -0.1588785
v 0.5 0.016355142 -0.0186915863
v 0.443925232 0.016355142 0.112149544
v 0.313084126 0.016355142 0.186915919
v 0.200934574 0.016355142 0.140186936
v 0.135514 0.016355142 0.280373871
v 0.00467287377 0.016355142 0.3457944
v -0.0981308743 0.016355142 0.31775704
v -0.2102804 0.016355142 0.224299088
v -0.247663587 0.016355142 0.08411216
v -0.322429955 0.016355142 0.09345796
v -0.4439253 0.016355142 0.0373831876
v -0.5 0.016355142 -0.0934579447
v -0.4626169 0.016355142 -0.214953274
vt 0.139999986 0.329999983
vt 0.210000008 0.39
vt 0.19 0.46
vt 0.16 0.4
vt 0.099999994 0.43
vt 0.099999994 0.51
vt 0.18 0.56
vt 0.25 0.46
vt 0.35 0.290000021
vt 0.47 0.229999989
vt 0.57 0.35
vt 0.64 0.56
vt 0.73 0.63
vt 0.840000033 0.62
vt 0.9 0.55
vt 0.88 0.48
vt 0.81 0.46
vt 0.789999962 0.49
vt 0.840000033 0.49
vt 0.840000033 0.54
vt 0.77 0.57
vt 0.71 0.5
vt 0.75 0.4
vt 0.88 0.36
vt 0.99 0.43
vt 1.04 0.58
vt 0.98 0.72
vt 0.840000033 0.8
vt 0.72 0.75
vt 0.65 0.9
vt 0.51 0.97
vt 0.4 0.94
vt 0.28 0.840000033
vt 0.24000001 0.69
vt 0.16 0.7
vt 0.0300000012 0.64
vt -0.0299999714 0.5
vt 0.00999999 0.37
vt 0.139999986 0.329999983
vt 0.210000008 0.39
vt 0.19 0.46
vt 0.16 0.4
vt 0.099999994 0.43
vt 0.099999994 0.51
vt 0.18 0.56
vt 0.25 0.46
vt 0.35 0.290000021
vt 0.47 0.229999989
vt 0.57 0.35
vt 0.64 0.56
vt 0.73 0.63
vt 0.840000033 0.62
vt 0.9 0.55
vt 0.88 0.48
vt 0.81 0.46
vt 0.789999962 0.49
vt 0.840000033 0.49
vt 0.840000033 0.54
vt 0.77 0.57
vt 0.71 0.5
vt 0.75 0.4
vt 0.88 0.36
vt 0.99 0.43
vt 1.04 0.58
vt 0.98 0.72
vt 0.840000033 0.8
vt 0.72 0.75
vt 0.65 0.9
vt 0.51 0.97
vt 0.4 0.94
vt 0.28 0.840000033
vt 0.24000001 0.69
vt 0.16 0.7
vt 0.0300000012 0.64
vt -0.0299999714 0.5
vt 0.00999999 0.37
vn 0.19344756 -0.7323373 -0.652886
vn 0.382044733 -0.922365248 -0.0573067553
vn -0.374873132 -0.706904 0.5997973
vn 0 -0.923076868 0.384615332
vn 0.437649161 -0.8884607 0.138205
vn 0.045600187 -0.998137057 -0.0405335054
vn -0.0131840287 -0.999726057 -0.0193365738
vn -0.566669643 -0.7469738 -0.347729117
vn -0.477419764 -0.6773247 -0.5597335
vn 0.07076088 -0.989529252 -0.125797123
vn 0.114064381 -0.992179036 -0.0506952778
vn 0.09446566 -0.9932388 -0.0674754754
vn 0.02261438 -0.989863634 -0.140209168
vn -0.103914067 -0.9817404 -0.159334913
vn -0.137352884 -0.9904358 -0.0130812181
vn -0.174427465 -0.951422632 0.253712684
vn 0.0985665 -0.9575031 0.2710579
vn 0.06489988 -0.9827696 -0.173066437
vn 0.7537345 -0.538382053 -0.3768675
vn 0.3948302 -0.7691499 0.5025112
vn -0.283452451 -0.8245889 0.489599735
vn -0.489938319 -0.871001363 -0.0362917148
vn -0.212500975 -0.910718441 -0.3541683
vn 0.08837249 -0.946848154 -0.309303731
vn 0.310209721 -0.934222162 -0.176064968
vn 0.256325036 -0.9656895 0.041727338
vn 0.06861619 -0.994607747 0.07776499
vn -0.0328910463 -0.7799878 0.624929845
vn 0.0494487472 -0.997451842 0.0514266975
vn 0.0529304631 -0.9965528 0.0638816
vn 0.00250412361 -0.9959252 0.09014844
vn -0.490247875 -0.450662881 0.746029437
vn -0.350890458 -0.919834137 0.175445214
vn -0.08252357 -0.988469064 0.126959369
vn -0.06446287 -0.977826357 0.199248865
vn -0.240148827 -0.95454067 0.176579937
vn -0.7219473 -0.691005766 -0.0360972062
vn -0.0874140561 -0.988314 -0.124877214
vn -0.04460747 0.675484657 -0.736023545
vn 0.356747776 0.9066225 -0.225314572
vn 0.563020051 0.6635597 0.49264282
vn -0.230769172 0.923076868 0.3076923
vn 0.3274681 0.9022081 0.280686975
vn 0.05321301 0.9983774 -0.0202716272
vn 6.694632E-10 0.9997956 -0.02021692
vn -0.507803 0.7960159 -0.329385668
vn -0.6088107 0.6262054 -0.487048566
vn 0 0.991000533 -0.133858189
vn 0.0952105448 0.9938166 -0.0571263246
vn 0.131734729 0.9893546 -0.0618346669
vn 0.0587829463 0.989620745 -0.131131217
vn -0.0621830337 0.979136 -0.193458378
vn -0.137071714 0.9884082 -0.06527225
vn -0.253712654 0.951422632 0.174427509
vn -0.023790136 0.9244163 0.3806421
vn 0.130907208 0.991154552 -0.0218178835
vn 0.376867145 0.5383819 -0.753734767
vn 0.49956274 0.823455334 0.268995345
vn -0.026490638 0.8477007 0.529813
vn -0.44232592 0.8846517 0.147442028
vn -0.287512362 0.9241469 -0.251573324
vn -0.008821768 0.9451887 -0.326405168
vn 0.2452146 0.9422036 -0.228303224
vn 0.2620348 0.964764357 -0.023821339
vn 0.0823575 0.9948263 0.0594804063
vn 0.174570918 0.752695262 0.634803057
vn 0.009895847 0.998067 0.06135427
vn 0.06752219 0.9964084 0.0510978773
vn 0.0275155865 0.9948496 0.09755531
vn -0.371088743 0.490367562 0.7885637
vn -0.306922823 0.919515848 0.245538235
vn -0.1821633 0.978118241 0.1005039
vn -0.0236119423 0.9849556 0.171186611
vn -0.184015423 0.9564753 0.226480469
vn -0.7235654 0.6756629 0.1411834
vn -0.124877244 0.988314 -0.08741401
f 38/38/38 1/1/1 2/2/2
f 40/40/40 39/39/39 76/76/76
f 2/2/2 3/3/3 4/4/4
f 42/42/42 41/41/41 40/40/40
f 38/38/38 2/2/2 4/4/4
f 42/42/42 40/40/40 76/76/76
f 38/38/38 4/4/4 5/5/5
f 43/43/43 42/42/42 76/76/76
f 38/38/38 5/5/5 6/6/6
f 44/44/44 43/43/43 76/76/76
f 8/8/8 9/9/9 10/10/10
f 48/48/48 47/47/47 46/46/46
f 7/7/7 8/8/8 10/10/10
f 48/48/48 46/46/46 45/45/45
f 7/7/7 10/10/10 11/11/11
f 49/49/49 48/48/48 45/45/45
f 7/7/7 11/11/11 12/12/12
f 50/50/50 49/49/49 45/45/45
f 7/7/7 12/12/12 13/13/13
f 51/51/51 50/50/50 45/45/45
f 18/18/18 19/19/19 20/20/20
f 58/58/58 57/57/57 56/56/56
f 18/18/18 20/20/20 21/21/21
f 59/59/59 58/58/58 56/56/56
f 18/18/18 21/21/21 22/22/22
f 60/60/60 59/59/59 56/56/56
f 17/17/17 18/18/18 22/22/22
f 60/60/60 56/56/56 55/55/55
f 17/17/17 22/22/22 23/23/23
f 61/61/61 60/60/60 55/55/55
f 16/16/16 17/17/17 23/23/23
f 61/61/61 55/55/55 54/54/54
f 16/16/16 23/23/23 24/24/24
f 62/62/62 61/61/61 54/54/54
f 15/15/15 16/16/16 24/24/24
f 62/62/62 54/54/54 53/53/53
f 15/15/15 24/24/24 25/25/25
f 63/63/63 62/62/62 53/53/53
f 15/15/15 25/25/25 26/26/26
f 64/64/64 63/63/63 53/53/53
f 14/14/14 15/15/15 26/26/26
f 64/64/64 53/53/53 52/52/52
f 14/14/14 26/26/26 27/27/27
f 65/65/65 64/64/64 52/52/52
f 13/13/13 14/14/14 27/27/27
f 65/65/65 52/52/52 51/51/51
f 7/7/7 13/13/13 27/27/27
f 65/65/65 51/51/51 45/45/45
f 27/27/27 28/28/28 29/29/29
f 67/67/67 66/66/66 65/65/65
f 7/7/7 27/27/27 29/29/29
f 67/67/67 65/65/65 45/45/45
f 7/7/7 29/29/29 30/30/30
f 68/68/68 67/67/67 45/45/45
f 6/6/6 7/7/7 30/30/30
f 68/68/68 45/45/45 44/44/44
f 6/6/6 30/30/30 31/31/31
f 69/69/69 68/68/68 44/44/44
f 31/31/31 32/32/32 33/33/33
f 71/71/71 70/70/70 69/69/69
f 31/31/31 33/33/33 34/34/34
f 72/72/72 71/71/71 69/69/69
f 6/6/6 31/31/31 34/34/34
f 72/72/72 69/69/69 44/44/44
f 6/6/6 34/34/34 35/35/35
f 73/73/73 72/72/72 44/44/44
f 38/38/38 6/6/6 35/35/35
f 73/73/73 44/44/44 76/76/76
f 38/38/38 35/35/35 36/36/36
f 74/74/74 73/73/73 76/76/76
f 38/38/38 36/36/36 37/37/37
f 75/75/75 74/74/74 76/76/76
f 1/1/1 39/39/39 40/40/40
f 1/1/1 40/40/40 2/2/2
f 2/2/2 40/40/40 41/41/41
f 2/2/2 41/41/41 3/3/3
f 3/3/3 41/41/41 42/42/42
f 3/3/3 42/42/42 4/4/4
f 4/4/4 42/42/42 43/43/43
f 4/4/4 43/43/43 5/5/5
f 5/5/5 43/43/43 44/44/44
f 5/5/5 44/44/44 6/6/6
f 6/6/6 44/44/44 45/45/45
f 6/6/6 45/45/45 7/7/7
f 7/7/7 45/45/45 46/46/46
f 7/7/7 46/46/46 8/8/8
f 8/8/8 46/46/46 47/47/47
f 8/8/8 47/47/47 9/9/9
f 9/9/9 47/47/47 48/48/48
f 9/9/9 48/48/48 10/10/10
f 10/10/10 48/48/48 49/49/49
f 10/10/10 49/49/49 11/11/11
f 11/11/11 49/49/49 50/50/50
f 11/11/11 50/50/50 12/12/12
f 12/12/12 50/50/50 51/51/51
f 12/12/12 51/51/51 13/13/13
f 13/13/13 51/51/51 52/52/52
f 13/13/13 52/52/52 14/14/14
f 14/14/14 52/52/52 53/53/53
f 14/14/14 53/53/53 15/15/15
f 15/15/15 53/53/53 54/54/54
f 15/15/15 54/54/54 16/16/16
f 16/16/16 54/54/54 55/55/55
f 16/16/16 55/55/55 17/17/17
f 17/17/17 55/55/55 56/56/56
f 17/17/17 56/56/56 18/18/18
f 18/18/18 56/56/56 57/57/57
f 18/18/18 57/57/57 19/19/19
f 19/19/19 57/57/57 58/58/58
f 19/19/19 58/58/58 20/20/20
f 20/20/20 58/58/58 59/59/59
f 20/20/20 59/59/59 21/21/21
f 21/21/21 59/59/59 60/60/60
f 21/21/21 60/60/60 22/22/22
f 22/22/22 60/60/60 61/61/61
f 22/22/22 61/61/61 23/23/23
f 23/23/23 61/61/61 62/62/62
f 23/23/23 62/62/62 24/24/24
f 24/24/24 62/62/62 63/63/63
f 24/24/24 63/63/63 25/25/25
f 25/25/25 63/63/63 64/64/64
f 25/25/25 64/64/64 26/26/26
f 26/26/26 64/64/64 65/65/65
f 26/26/26 65/65/65 27/27/27
f 27/27/27 65/65/65 66/66/66
f 27/27/27 66/66/66 28/28/28
f 28/28/28 66/66/66 67/67/67
f 28/28/28 67/67/67 29/29/29
f 29/29/29 67/67/67 68/68/68
f 29/29/29 68/68/68 30/30/30
f 30/30/30 68/68/68 69/69/69
f 30/30/30 69/69/69 31/31/31
f 31/31/31 69/69/69 70/70/70
f 31/31/31 70/70/70 32/32/32
f 32/32/32 70/70/70 71/71/71
f 32/32/32 71/71/71 33/33/33
f 33/33/33 71/71/71 72/72/72
f 33/33/33 72/72/72 34/34/34
f 34/34/34 72/72/72 73/73/73
f 34/34/34 73/73/73 35/35/35
f 35/35/35 73/73/73 74/74/74
f 35/35/35 74/74/74 36/36/36
f 36/36/36 74/74/74 75/75/75
f 36/36/36 75/75/75 37/37/37
f 37/37/37 75/75/75 76/76/76
f 37/37/37 76/76/76 38/38/38
f 38/38/38 76/76/76 39/39/39
f 38/38/38 39/39/39 1/1/1
