# Original VFX mesh; Unity Y-up, +Z forward
o Ember
v 0.008092267 0.02744091 -0.5
v 0.0067755 0.0284862984 -0.4995839
v 0.004644157 0.0280869957 -0.49891308
v 0.00464368332 0.0267948229 -0.49891457
v 0.00677473331 0.0263955183 -0.499586284
v 0.008092267 0.02744091 -0.5
v 0.11829412 0.0157494731 -0.363605738
v 0.06454279 0.0565691479 -0.352902263
v -0.0234732144 0.0409774147 -0.347375035
v -0.0241187625 -0.009478474 -0.354662448
v 0.06349827 -0.0250702 -0.3646936
v 0.11829412 0.01574948 -0.363605738
v 0.145984873 -0.005645775 -0.181833178
v 0.0604852661 0.0593496673 -0.19665128
v -0.07396524 0.03452361 -0.235301048
v -0.07156058 -0.0458151735 -0.24436985
v 0.06437608 -0.07064121 -0.211324871
v 0.145984873 -0.00564576266 -0.181833178
v 0.128079176 -0.0117122531 -0.03671228
v 0.0287918225 0.06608535 -0.063839
v -0.133444056 0.0363693051 -0.101061404
v -0.134423971 -0.05979383 -0.09693938
v 0.0272063 -0.08950986 -0.0571694374
v 0.128079176 -0.0117122382 -0.03671228
v 0.122006774 0.00464785937 0.0522060767
v 0.0184402 0.0815779343 0.0536328666
v -0.145984873 0.05219325 0.07989996
v -0.144038588 -0.04289755 0.09470711
v 0.0215893742 -0.0722822 0.07759136
v 0.122006774 0.004647874 0.052206073
v 0.130686447 0.02429312 0.177136838
v 0.0465631858 0.08950986 0.197733492
v -0.08635764 0.06459927 0.241306365
v -0.08438395 -0.016013043 0.247639179
v 0.0497566722 -0.0409236066 0.20798023
v 0.130686447 0.02429313 0.177136838
v 0.119596846 0.0242384486 0.3536559
v 0.06531933 0.06533052 0.359606117
v -0.0228160676 0.0496347435 0.362108082
v -0.0230092 -0.001157852 0.357704222
v 0.06500682 -0.0168536212 0.3524805
v 0.119596846 0.024238456 0.3536559
v 0.0210799687 0.00454781 0.5
v 0.0207372066 0.004806175 0.499943
v 0.0202042423 0.0047074887 0.499775052
v 0.0202176142 0.004388131 0.499728233
v 0.020758843 0.004289444 0.499867231
v 0.0210799687 0.00454781 0.5
v 0.00618606852 0.02744091 -0.499399573
v 0.0205995739 0.00454781 0.4998627
vt 0 0
vt 0.2 0
vt 0.4 0
vt 0.6 0
vt 0.8 0
vt 1 0
vt 0 0.142857149
vt 0.2 0.142857149
vt 0.4 0.142857149
vt 0.6 0.142857149
vt 0.8 0.142857149
vt 1 0.142857149
vt 0 0.2857143
vt 0.2 0.2857143
vt 0.4 0.2857143
vt 0.6 0.2857143
vt 0.8 0.2857143
vt 1 0.2857143
vt 0 0.428571433
vt 0.2 0.428571433
vt 0.4 0.428571433
vt 0.6 0.428571433
vt 0.8 0.428571433
vt 1 0.428571433
vt 0 0.5714286
vt 0.2 0.5714286
vt 0.4 0.5714286
vt 0.6 0.5714286
vt 0.8 0.5714286
vt 1 0.5714286
vt 0 0.714285731
vt 0.2 0.714285731
vt 0.4 0.714285731
vt 0.6 0.714285731
vt 0.8 0.714285731
vt 1 0.714285731
vt 0 0.857142866
vt 0.2 0.857142866
vt 0.4 0.857142866
vt 0.6 0.857142866
vt 0.8 0.857142866
vt 1 0.857142866
vt 0 1
vt 0.2 1
vt 0.4 1
vt 0.6 1
vt 0.8 1
vt 1 1
vt 0.5 0
vt 0.5 1
vn 0.519776762 0.7776603 -0.353661537
vn -0.16865398 0.9781316 -0.12171419
vn -0.9790395 0.07609766 -0.188919947
vn -0.213499889 -0.9367121 -0.2774676
vn 0.507352 -0.712666869 -0.484458268
vn 0.46450296 -0.7631938 -0.449190855
vn 0.589842141 0.801812 -0.09583178
vn 0.0691916049 0.9924743 -0.101030543
vn -0.717211068 0.646200657 -0.2608313
vn -0.414253324 -0.8386515 -0.353635371
vn 0.3032004 -0.9026461 -0.305449516
vn 0.5678209 -0.7554164 -0.326994658
vn 0.5982497 0.798508048 0.0669495
vn 0.157167643 0.9872078 -0.02681679
vn -0.618653953 0.744618 -0.250622064
vn -0.456568569 -0.8280059 -0.32550168
vn 0.262099326 -0.951673746 -0.160065934
vn 0.6273693 -0.7694747 -0.119651288
vn 0.6066524 0.794966757 0.0007775396
vn 0.1528677 0.987199664 -0.04547918
vn -0.6344288 0.757881 -0.15204069
vn -0.5800825 -0.807253659 -0.108838834
vn 0.162899956 -0.9866395 0.00248770625
vn 0.6013459 -0.795018852 0.07954964
vn 0.58606267 0.7968151 -0.1470247
vn 0.1389355 0.987035155 -0.08036436
vn -0.608680665 0.79268235 0.0340930745
vn -0.6225585 -0.7633243 0.1725025
vn 0.147645056 -0.9801077 0.1326268
vn 0.6103195 -0.782379031 0.124069504
vn 0.6057365 0.7953591 -0.0220700074
vn 0.2208393 0.9752223 0.0130916713
vn -0.49711436 0.8442342 0.20036459
vn -0.601933241 -0.711627662 0.362301618
vn 0.179802164 -0.969562054 0.1661947
vn 0.6309695 -0.7738345 0.05529568
vn 0.6013375 0.75843513 0.251335263
vn 0.3190369 0.9227498 0.216213569
vn -0.3916658 0.866416931 0.309708774
vn -0.6980095 -0.6139782 0.368528843
vn 0.09141345 -0.979632556 0.178783447
vn 0.612938762 -0.7817991 0.114439145
vn 0.49434045 0.752018154 0.4360003
vn 0.5590657 0.6820358 0.471458137
vn -0.158737 0.9230604 0.350373924
vn -0.9558884 -0.0313372351 0.292053849
vn -0.166557536 -0.9818255 0.09098022
vn 0.5727985 -0.769579768 0.282221526
vn -0.300429881 0.00120117492 -0.9538031
vn -0.271631658 -0.150728315 0.950524747
f 1/1/1 2/2/2 8/8/8
f 1/1/1 8/8/8 7/7/7
f 2/2/2 3/3/3 9/9/9
f 2/2/2 9/9/9 8/8/8
f 3/3/3 4/4/4 10/10/10
f 3/3/3 10/10/10 9/9/9
f 4/4/4 5/5/5 11/11/11
f 4/4/4 11/11/11 10/10/10
f 5/5/5 6/6/6 12/12/12
f 5/5/5 12/12/12 11/11/11
f 7/7/7 8/8/8 14/14/14
f 7/7/7 14/14/14 13/13/13
f 8/8/8 9/9/9 15/15/15
f 8/8/8 15/15/15 14/14/14
f 9/9/9 10/10/10 16/16/16
f 9/9/9 16/16/16 15/15/15
f 10/10/10 11/11/11 17/17/17
f 10/10/10 17/17/17 16/16/16
f 11/11/11 12/12/12 18/18/18
f 11/11/11 18/18/18 17/17/17
f 13/13/13 14/14/14 20/20/20
f 13/13/13 20/20/20 19/19/19
f 14/14/14 15/15/15 21/21/21
f 14/14/14 21/21/21 20/20/20
f 15/15/15 16/16/16 22/22/22
f 15/15/15 22/22/22 21/21/21
f 16/16/16 17/17/17 23/23/23
f 16/16/16 23/23/23 22/22/22
f 17/17/17 18/18/18 24/24/24
f 17/17/17 24/24/24 23/23/23
f 19/19/19 20/20/20 26/26/26
f 19/19/19 26/26/26 25/25/25
f 20/20/20 21/21/21 27/27/27
f 20/20/20 27/27/27 26/26/26
f 21/21/21 22/22/22 28/28/28
f 21/21/21 28/28/28 27/27/27
f 22/22/22 23/23/23 29/29/29
f 22/22/22 29/29/29 28/28/28
f 23/23/23 24/24/24 30/30/30
f 23/23/23 30/30/30 29/29/29
f 25/25/25 26/26/26 32/32/32
f 25/25/25 32/32/32 31/31/31
f 26/26/26 27/27/27 33/33/33
f 26/26/26 33/33/33 32/32/32
f 27/27/27 28/28/28 34/34/34
f 27/27/27 34/34/34 33/33/33
f 28/28/28 29/29/29 35/35/35
f 28/28/28 35/35/35 34/34/34
f 29/29/29 30/30/30 36/36/36
f 29/29/29 36/36/36 35/35/35
f 31/31/31 32/32/32 38/38/38
f 31/31/31 38/38/38 37/37/37
f 32/32/32 33/33/33 39/39/39
f 32/32/32 39/39/39 38/38/38
f 33/33/33 34/34/34 40/40/40
f 33/33/33 40/40/40 39/39/39
f 34/34/34 35/35/35 41/41/41
f 34/34/34 41/41/41 40/40/40
f 35/35/35 36/36/36 42/42/42
f 35/35/35 42/42/42 41/41/41
f 37/37/37 38/38/38 44/44/44
f 37/37/37 44/44/44 43/43/43
f 38/38/38 39/39/39 45/45/45
f 38/38/38 45/45/45 44/44/44
f 39/39/39 40/40/40 46/46/46
f 39/39/39 46/46/46 45/45/45
f 40/40/40 41/41/41 47/47/47
f 40/40/40 47/47/47 46/46/46
f 41/41/41 42/42/42 48/48/48
f 41/41/41 48/48/48 47/47/47
f 49/49/49 2/2/2 1/1/1
f 50/50/50 43/43/43 44/44/44
f 49/49/49 3/3/3 2/2/2
f 50/50/50 44/44/44 45/45/45
f 49/49/49 4/4/4 3/3/3
f 50/50/50 45/45/45 46/46/46
f 49/49/49 5/5/5 4/4/4
f 50/50/50 46/46/46 47/47/47
f 49/49/49 6/6/6 5/5/5
f 50/50/50 47/47/47 48/48/48
