# Original VFX mesh; Unity Y-up, +Z forward
o Flame
v -0.013898598 -0.01207699 -0.4999038
v -0.0141324839 -0.0117883859 -0.499966949
v -0.0147245526 -0.0116348239 -0.5
v -0.01539777 -0.0116881551 -0.499987483
v -0.0158371311 -0.0119234268 -0.49993524
v -0.015837051 -0.0122305527 -0.499867767
v -0.0153975682 -0.0124658244 -0.499816537
v -0.0147243235 -0.0125191556 -0.49980557
v -0.0141323339 -0.0123655926 -0.49984
v -0.013898598 -0.01207699 -0.4999038
v 0.06030142 0.00214999146 -0.438864678
v 0.0429887176 0.0232644454 -0.441774249
v -0.000199620976 0.0344992131 -0.440707982
v -0.04905529 0.03059742 -0.4361647
v -0.08071818 0.0133847557 -0.430270344
v -0.0803728849 -0.009084777 -0.425782919
v -0.048180934 -0.02629744 -0.4248021
v 0.0007946474 -0.0301992316 -0.4277869
v 0.0436376967 -0.01896446 -0.433340639
v 0.06030142 0.002149997 -0.438864678
v 0.100318693 0.0139169982 -0.381976247
v 0.0750666559 0.0450069867 -0.382870585
v 0.0124320472 0.0615496263 -0.37617594
v -0.0582777038 0.055804424 -0.3650248
v -0.103976719 0.03045963 -0.354634941
v -0.103281923 -0.00262564025 -0.349867851
v -0.0565184131 -0.0279704314 -0.352954119
v 0.0144326184 -0.0337156281 -0.362449676
v 0.07637245 -0.0171729811 -0.3739114
v 0.100318693 0.0139170075 -0.381976247
v 0.131603062 0.0211894065 -0.324856162
v 0.101907343 0.0587426871 -0.3215019
v 0.0276915953 0.07872437 -0.308098942
v -0.0563177839 0.07178481 -0.2909187
v -0.110811882 0.04117108 -0.278
v -0.110292293 0.001207722 -0.275387645
v -0.0550021529 -0.0294059981 -0.284304
v 0.0291876514 -0.0363455564 -0.300576955
v 0.102883846 -0.0163638648 -0.316592276
v 0.131603062 0.0211894177 -0.324856162
v 0.157069549 0.0227097552 -0.264670134
v 0.125486627 0.0639269948 -0.2564547
v 0.04510169 0.08585822 -0.23745209
v -0.0464722253 0.07824159 -0.216553837
v -0.106386684 0.0446409769 -0.203538463
v -0.10660702 0.0007785231 -0.204496026
v -0.04703016 -0.0328220762 -0.21897845
v 0.04446721 -0.0404387079 -0.240209252
v 0.125072509 -0.0185074676 -0.258254319
v 0.157069549 0.0227097664 -0.264670134
v 0.17736353 0.0182151571 -0.199791655
v 0.145525724 0.0606551766 -0.187645
v 0.06283151 0.0832370445 -0.1657332
v -0.0320255272 0.07539444 -0.144309044
v -0.09466076 0.0407970063 -0.133397132
v -0.09576645 -0.004366706 -0.138103262
v -0.03482522 -0.0389641263 -0.156225413
v 0.059647806 -0.04680672 -0.179283977
v 0.143447727 -0.0242248457 -0.196489632
v 0.17736353 0.0182151683 -0.199791655
v 0.1919647 0.008482772 -0.129715413
v 0.160684749 0.05019541 -0.1156938
v 0.07848273 0.07239025 -0.09439903
v -0.0161780939 0.06468206 -0.0757951662
v -0.07900489 0.0306775942 -0.06858717
v -0.0806003138 -0.0137120625 -0.0761477351
v -0.0202178173 -0.047716517 -0.0949391946
v 0.07388891 -0.055424694 -0.116168804
v 0.157686368 -0.033229854 -0.129903018
v 0.1919647 0.008482783 -0.129715413
v 0.199560061 -0.00480458234 -0.0549426079
v 0.169235215 0.0347989351 -0.04162146
v 0.0898178443 0.05587152 -0.0245116465
v -0.00153176149 0.0485530831 -0.0116190417
v -0.06207011 0.016268 -0.008976237
v -0.06347064 -0.0258771721 -0.0178198256
v -0.005078022 -0.05816225 -0.0340118036
v 0.0857851654 -0.06548068 -0.0499757566
v 0.166603088 -0.044408083 -0.05824198
v 0.199560061 -0.00480457162 -0.0549426042
v 0.1984499 -0.0193494111 0.02308123
v 0.16957505 0.017215183 0.0332410932
v 0.09521913 0.0366707966 0.0433354042
v 0.0101740686 0.0299139321 0.04864091
v -0.0457665958 0.000106196341 0.04667512
v -0.0464275964 -0.0388050228 0.0383578427
v 0.008500352 -0.0686127543 0.02758082
v 0.0933158249 -0.07536961 0.01938675
v 0.168332785 -0.0559139922 0.017609721
v 0.1984499 -0.0193494018 0.0230812319
v 0.187129185 -0.0326367654 0.102075242
v 0.16064097 0.00017856562 0.107361287
v 0.09381369 0.0176392365 0.1090749
v 0.01791658 0.0115752053 0.106414258
v -0.0315372571 -0.0151760988 0.100624308
v -0.0314078256 -0.0500974357 0.0944142342
v 0.0182443187 -0.07684874 0.09068979
v 0.0941863656 -0.08291276 0.09119369
v 0.160884231 -0.0654520839 0.09569015
v 0.187129185 -0.0326367542 0.102075242
v 0.164963663 -0.04236914 0.179340035
v 0.142160341 -0.0139836594 0.179366022
v 0.08525223 0.00111993775 0.173302531
v 0.0208672788 -0.00412549032 0.163986757
v -0.0208680835 -0.0272655468 0.155777633
v -0.0204254221 -0.05747274 0.152516335
v 0.02198815 -0.08061279 0.155728817
v 0.086526826 -0.08585822 0.163911939
v 0.142992288 -0.07075461 0.173236758
v 0.164963663 -0.04236913 0.179340035
v 0.132597223 -0.0468637347 0.252589822
v 0.114596218 -0.02354972 0.248504132
v 0.06927424 -0.0111445934 0.237153247
v 0.0178379659 -0.0154528525 0.223848432
v -0.0156450253 -0.03445861 0.21481511
v -0.0155076552 -0.059268862 0.214280069
v 0.0181857925 -0.0782746151 0.2224937
v 0.06966978 -0.08258287 0.2356127
v 0.114854395 -0.0701777339 0.2474986
v 0.132597223 -0.0468637273 0.252589822
v 0.09172853 -0.0453433841 0.320791066
v 0.07888629 -0.02751168 0.314771146
v 0.045572795 -0.018023625 0.301653832
v 0.007375799 -0.0213187952 0.287576735
v -0.017831903 -0.035855338 0.279126763
v -0.01825534 -0.0548314378 0.280257732
v 0.006303618 -0.06936798 0.29044044
v 0.0443535522 -0.07266314 0.304910332
v 0.07809049 -0.06317508 0.316896737
v 0.09172853 -0.04534338 0.320791066
v 0.0444313772 -0.038070973 0.384338379
v 0.0362877138 -0.02578011 0.378630251
v 0.0142582636 -0.0192402788 0.367119
v -0.0113491444 -0.02151154 0.355190963
v -0.0285525247 -0.0315311439 0.348427385
v -0.0293022189 -0.0446108058 0.349993
v -0.0132474368 -0.05463041 0.359155238
v 0.0120995995 -0.05690167 0.371626973
v 0.03487875 -0.0503618345 0.3815726
v 0.0444313772 -0.03807097 0.384338379
v -0.007509343 -0.0263039656 0.444434345
v -0.0117512075 -0.0194067135 0.4406707
v -0.0236740448 -0.0157367643 0.433249354
v -0.0376990326 -0.0170113258 0.4256429
v -0.04726371 -0.0226340163 0.4214104
v -0.0478926748 -0.0299739167 0.4225323
v -0.0392916128 -0.03559661 0.4284837
v -0.0254850667 -0.036871165 0.436479837
v -0.0129332636 -0.0332012139 0.4427792
v -0.007509343 -0.0263039637 0.444434345
v -0.06654554 -0.0120769832 0.5
v -0.06671667 -0.011786554 0.4998316
v -0.06720679 -0.0116320206 0.4994983
v -0.06778659 -0.011685689 0.499155968
v -0.0681847557 -0.01192245 0.498964816
v -0.06821498 -0.0122315176 0.499014318
v -0.067863144 -0.0124682784 0.4992813
v -0.06729385 -0.0125219468 0.4996408
v -0.06677348 -0.0123674124 0.49992466
v -0.06654554 -0.0120769832 0.5
v -0.0148979789 -0.01207699 -0.4999026
v -0.06739842 -0.0120769832 0.4994791
v -0.113953933 0.002913735 -0.3994949
v -0.1142861 0.00322627439 -0.3996717
v -0.115032464 0.003303465 -0.400068939
v -0.115631 0.0030871816 -0.4003875
v -0.115631 0.00274028862 -0.4003875
v -0.115032464 0.00252400548 -0.400068939
v -0.1142861 0.002601196 -0.3996717
v -0.113953933 0.002913735 -0.3994949
v -0.120505661 0.002913735 -0.324127674
v -0.130663887 0.0124277584 -0.3294202
v -0.153489217 0.0147775291 -0.3413124
v -0.171793729 0.008193619 -0.350849241
v -0.171793714 -0.0023661498 -0.350849241
v -0.153489232 -0.008950058 -0.3413124
v -0.130663887 -0.00660028728 -0.329420179
v -0.120505661 0.002913737 -0.324127674
v -0.129786476 0.002913735 -0.2525134
v -0.148225278 0.01995445 -0.261508644
v -0.189656869 0.0241631567 -0.2817208
v -0.222882435 0.0123706143 -0.297929674
v -0.222882435 -0.006543149 -0.297929674
v -0.189656869 -0.0183356889 -0.2817208
v -0.148225263 -0.0141269751 -0.261508644
v -0.129786476 0.00291373883 -0.2525134
v -0.1416447 0.002913735 -0.1861054
v -0.166379541 0.0253111031 -0.196843147
v -0.22195822 0.0308427978 -0.220970675
v -0.266528875 0.0153433336 -0.240319446
v -0.266528875 -0.009515867 -0.240319446
v -0.22195822 -0.0250153262 -0.220970675
v -0.166379526 -0.01948363 -0.196843147
v -0.1416447 0.00291373977 -0.1861054
v -0.155863971 0.002913735 -0.1252675
v -0.184538379 0.0282442942 -0.135650575
v -0.2489692 0.0345004275 -0.158981085
v -0.3006387 0.0169711318 -0.177690715
v -0.3006387 -0.0111436658 -0.177690715
v -0.2489692 -0.0286729559 -0.158981085
v -0.18453835 -0.0224168189 -0.13565056
v -0.155863971 0.0029137407 -0.1252675
v -0.17211169 0.002913735 -0.06917268
v -0.20210284 0.028748313 -0.07741522
v -0.2694923 0.035128925 -0.09593606
v -0.323534459 0.01725084 -0.110788614
v -0.323534459 -0.0114233727 -0.110788614
v -0.2694923 -0.0293014515 -0.09593606
v -0.20210281 -0.0229208376 -0.07741521
v -0.17211169 0.0029137407 -0.06917268
v -0.189742014 0.002913735 -0.0159093924
v -0.218356982 0.02704684 -0.0209453236
v -0.282654226 0.0330072269 -0.0322609581
v -0.334216654 0.016306594 -0.0413353927
v -0.334216654 -0.0104791289 -0.04133539
v -0.282654226 -0.0271797553 -0.0322609581
v -0.218356967 -0.0212193653 -0.02094532
v -0.189742014 0.0029137407 -0.0159093924
v -0.207521245 0.002913735 0.0370853953
v -0.232309937 0.0235534124 0.0353571661
v -0.2880096 0.0286509935 0.0314738639
v -0.3326773 0.0143678887 0.0283597
v -0.3326773 -0.008540423 0.0283597
v -0.2880096 -0.0228235219 0.0314738639
v -0.232309923 -0.01772594 0.0353571661
v -0.207521245 0.00291373977 0.0370853953
v -0.223488182 0.002913735 0.0922689
v -0.242618054 0.0188155621 0.093024306
v -0.28560254 0.02274299 0.0947217
v -0.3200734 0.0117385816 0.0960829
v -0.320073336 -0.00591111369 0.0960829
v -0.28560254 -0.01691552 0.0947217
v -0.242618039 -0.01298809 0.093024306
v -0.223488182 0.00291373883 0.0922689
v -0.23518531 0.002913735 0.151154742
v -0.247734249 0.0134490486 0.1529998
v -0.275931418 0.016051054 0.157145634
v -0.2985438 0.008760391 0.160470352
v -0.2985438 -0.00293292245 0.160470337
v -0.275931478 -0.0102235833 0.157145634
v -0.247734234 -0.007621574 0.1529998
v -0.23518531 0.002913738 0.151154742
v -0.2402589 0.002913735 0.21386148
v -0.2462827 0.008069157 0.215357617
v -0.259818017 0.009342441 0.2187194
v -0.27067253 0.005774777 0.221415326
v -0.27067253 5.26914337E-05 0.221415326
v -0.259818017 -0.00351497065 0.2187194
v -0.2462827 -0.00224168575 0.215357617
v -0.2402589 0.002913736 0.21386148
v -0.237095356 0.002913735 0.279294819
v -0.237451792 0.00322627346 0.2794154
v -0.23825267 0.003303464 0.2796864
v -0.238894925 0.00308718067 0.27990368
v -0.238894925 0.00274028955 0.27990368
v -0.23825267 0.00252400641 0.2796864
v -0.237451792 0.002601197 0.2794154
v -0.237095356 0.002913735 0.279294819
v -0.114836149 0.002913735 -0.399964452
v -0.238042012 0.002913735 0.2796151
v 0.10572543 -0.0220708065 -0.350710958
v 0.105462767 -0.02174264 -0.350441545
v 0.104872584 -0.0216615889 -0.349836081
v 0.1043993 -0.0218886863 -0.349350572
v 0.1043993 -0.0222529247 -0.349350572
v 0.104872584 -0.022480024 -0.349836081
v 0.105462767 -0.0223989729 -0.350441545
v 0.10572543 -0.0220708065 -0.350710958
v 0.178401336 -0.0220708065 -0.313595116
v 0.171366572 -0.01354916 -0.306814
v 0.1555596 -0.0114444876 -0.291576862
v 0.14288339 -0.017341651 -0.279357672
v 0.14288339 -0.0267999619 -0.279357672
v 0.1555596 -0.0326971263 -0.291576862
v 0.171366572 -0.030592449 -0.306814
v 0.178401336 -0.0220708046 -0.313595116
v 0.245468155 -0.0220708065 -0.2707661
v 0.231289566 -0.006343934 -0.259624273
v 0.199430585 -0.00245971978 -0.234588876
v 0.17388165 -0.0133430539 -0.21451202
v 0.17388165 -0.0307985619 -0.21451202
v 0.199430585 -0.04168189 -0.234588876
v 0.23128958 -0.03779768 -0.2596243
v 0.245468155 -0.0220708027 -0.2707661
v 0.3006126 -0.0220708065 -0.216053814
v 0.279111445 -0.0009960219 -0.205025524
v 0.230798841 0.00420901924 -0.180245176
v 0.192055136 -0.0103751877 -0.160372868
v 0.192055136 -0.03376643 -0.160372868
v 0.230798826 -0.0483506322 -0.180245176
v 0.2791115 -0.0431455858 -0.205025524
v 0.3006126 -0.0220708 -0.216053814
v 0.334216654 -0.0220708065 -0.145127162
v 0.307214439 0.00184954447 -0.140317276
v 0.2465411 0.007757381 -0.129509524
v 0.197884873 -0.008796018 -0.120842375
v 0.197884873 -0.0353456 -0.120842375
v 0.2465411 -0.0518989973 -0.129509524
v 0.307214439 -0.0459911525 -0.140317276
v 0.334216654 -0.0220708 -0.145127162
v 0.3342166 -0.0220708065 -0.0651663244
v 0.307214379 0.0018495426 -0.06997628
v 0.246541128 0.007757379 -0.08078415
v 0.1978849 -0.00879601948 -0.08945139
v 0.1978849 -0.0353456 -0.08945139
v 0.2465411 -0.0518989936 -0.08078416
v 0.307214439 -0.0459911525 -0.06997628
v 0.3342166 -0.0220708 -0.0651663244
v 0.300612718 -0.0220708065 0.005759883
v 0.279111564 -0.0009960219 -0.0052683
v 0.2307988 0.00420901924 -0.0300484039
v 0.192055 -0.0103751877 -0.0499205031
v 0.192055 -0.03376643 -0.0499205031
v 0.2307988 -0.0483506322 -0.0300484058
v 0.279111564 -0.0431455858 -0.0052682925
v 0.300612718 -0.0220708 0.005759883
v 0.245467857 -0.0220708065 0.0604727678
v 0.231289372 -0.00634394 0.049330838
v 0.199430615 -0.00245972537 0.0242951475
v 0.173881859 -0.0133430567 0.00421808474
v 0.173881859 -0.0307985581 0.0042180866
v 0.199430615 -0.0416818857 0.0242951475
v 0.231289372 -0.03779767 0.0493308455
v 0.245467857 -0.0220708027 0.0604727678
v 0.178401351 -0.0220708065 0.1033014
v 0.171366572 -0.0135491639 0.09652027
v 0.155559555 -0.0114444923 0.0812832
v 0.142883331 -0.0173416547 0.06906403
v 0.142883331 -0.0267999619 0.06906403
v 0.155559555 -0.0326971225 0.0812832
v 0.171366572 -0.0305924453 0.09652027
v 0.178401351 -0.0220708046 0.1033014
v 0.105725415 -0.0220708065 0.140417308
v 0.105462752 -0.0217426419 0.140147865
v 0.104872569 -0.0216615926 0.139542446
v 0.104399286 -0.0218886882 0.139056936
v 0.104399286 -0.0222529229 0.139056936
v 0.104872569 -0.02248002 0.139542446
v 0.105462752 -0.022398971 0.140147865
v 0.105725415 -0.0220708065 0.140417308
v 0.105027817 -0.0220708065 -0.349995345
v 0.1050278 -0.0220708065 0.1397017
vt 0 0
vt 0.111111112 0
vt 0.222222224 0
vt 0.333333343 0
vt 0.444444448 0
vt 0.5555556 0
vt 0.6666667 0
vt 0.7777778 0
vt 0.8888889 0
vt 1 0
vt 0 0.06666667
vt 0.111111112 0.06666667
vt 0.222222224 0.06666667
vt 0.333333343 0.06666667
vt 0.444444448 0.06666667
vt 0.5555556 0.06666667
vt 0.6666667 0.06666667
vt 0.7777778 0.06666667
vt 0.8888889 0.06666667
vt 1 0.06666667
vt 0 0.13333334
vt 0.111111112 0.13333334
vt 0.222222224 0.13333334
vt 0.333333343 0.13333334
vt 0.444444448 0.13333334
vt 0.5555556 0.13333334
vt 0.6666667 0.13333334
vt 0.7777778 0.13333334
vt 0.8888889 0.13333334
vt 1 0.13333334
vt 0 0.2
vt 0.111111112 0.2
vt 0.222222224 0.2
vt 0.333333343 0.2
vt 0.444444448 0.2
vt 0.5555556 0.2
vt 0.6666667 0.2
vt 0.7777778 0.2
vt 0.8888889 0.2
vt 1 0.2
vt 0 0.266666681
vt 0.111111112 0.266666681
vt 0.222222224 0.266666681
vt 0.333333343 0.266666681
vt 0.444444448 0.266666681
vt 0.5555556 0.266666681
vt 0.6666667 0.266666681
vt 0.7777778 0.266666681
vt 0.8888889 0.266666681
vt 1 0.266666681
vt 0 0.333333343
vt 0.111111112 0.333333343
vt 0.222222224 0.333333343
vt 0.333333343 0.333333343
vt 0.444444448 0.333333343
vt 0.5555556 0.333333343
vt 0.6666667 0.333333343
vt 0.7777778 0.333333343
vt 0.8888889 0.333333343
vt 1 0.333333343
vt 0 0.4
vt 0.111111112 0.4
vt 0.222222224 0.4
vt 0.333333343 0.4
vt 0.444444448 0.4
vt 0.5555556 0.4
vt 0.6666667 0.4
vt 0.7777778 0.4
vt 0.8888889 0.4
vt 1 0.4
vt 0 0.466666669
vt 0.111111112 0.466666669
vt 0.222222224 0.466666669
vt 0.333333343 0.466666669
vt 0.444444448 0.466666669
vt 0.5555556 0.466666669
vt 0.6666667 0.466666669
vt 0.7777778 0.466666669
vt 0.8888889 0.466666669
vt 1 0.466666669
vt 0 0.533333361
vt 0.111111112 0.533333361
vt 0.222222224 0.533333361
vt 0.333333343 0.533333361
vt 0.444444448 0.533333361
vt 0.5555556 0.533333361
vt 0.6666667 0.533333361
vt 0.7777778 0.533333361
vt 0.8888889 0.533333361
vt 1 0.533333361
vt 0 0.6
vt 0.111111112 0.6
vt 0.222222224 0.6
vt 0.333333343 0.6
vt 0.444444448 0.6
vt 0.5555556 0.6
vt 0.6666667 0.6
vt 0.7777778 0.6
vt 0.8888889 0.6
vt 1 0.6
vt 0 0.6666667
vt 0.111111112 0.6666667
vt 0.222222224 0.6666667
vt 0.333333343 0.6666667
vt 0.444444448 0.6666667
vt 0.5555556 0.6666667
vt 0.6666667 0.6666667
vt 0.7777778 0.6666667
vt 0.8888889 0.6666667
vt 1 0.6666667
vt 0 0.733333349
vt 0.111111112 0.733333349
vt 0.222222224 0.733333349
vt 0.333333343 0.733333349
vt 0.444444448 0.733333349
vt 0.5555556 0.733333349
vt 0.6666667 0.733333349
vt 0.7777778 0.733333349
vt 0.8888889 0.733333349
vt 1 0.733333349
vt 0 0.8
vt 0.111111112 0.8
vt 0.222222224 0.8
vt 0.333333343 0.8
vt 0.444444448 0.8
vt 0.5555556 0.8
vt 0.6666667 0.8
vt 0.7777778 0.8
vt 0.8888889 0.8
vt 1 0.8
vt 0 0.8666667
vt 0.111111112 0.8666667
vt 0.222222224 0.8666667
vt 0.333333343 0.8666667
vt 0.444444448 0.8666667
vt 0.5555556 0.8666667
vt 0.6666667 0.8666667
vt 0.7777778 0.8666667
vt 0.8888889 0.8666667
vt 1 0.8666667
vt 0 0.933333337
vt 0.111111112 0.933333337
vt 0.222222224 0.933333337
vt 0.333333343 0.933333337
vt 0.444444448 0.933333337
vt 0.5555556 0.933333337
vt 0.6666667 0.933333337
vt 0.7777778 0.933333337
vt 0.8888889 0.933333337
vt 1 0.933333337
vt 0 1
vt 0.111111112 1
vt 0.222222224 1
vt 0.333333343 1
vt 0.444444448 1
vt 0.5555556 1
vt 0.6666667 1
vt 0.7777778 1
vt 0.8888889 1
vt 1 1
vt 0.5 0
vt 0.5 1
vt 0 0
vt 0.142857149 0
vt 0.2857143 0
vt 0.428571433 0
vt 0.5714286 0
vt 0.714285731 0
vt 0.857142866 0
vt 1 0
vt 0 0.09090909
vt 0.142857149 0.09090909
vt 0.2857143 0.09090909
vt 0.428571433 0.09090909
vt 0.5714286 0.09090909
vt 0.714285731 0.09090909
vt 0.857142866 0.09090909
vt 1 0.09090909
vt 0 0.181818187
vt 0.142857149 0.181818187
vt 0.2857143 0.181818187
vt 0.428571433 0.181818187
vt 0.5714286 0.181818187
vt 0.714285731 0.181818187
vt 0.857142866 0.181818187
vt 1 0.181818187
vt 0 0.272727281
vt 0.142857149 0.272727281
vt 0.2857143 0.272727281
vt 0.428571433 0.272727281
vt 0.5714286 0.272727281
vt 0.714285731 0.272727281
vt 0.857142866 0.272727281
vt 1 0.272727281
vt 0 0.363636374
vt 0.142857149 0.363636374
vt 0.2857143 0.363636374
vt 0.428571433 0.363636374
vt 0.5714286 0.363636374
vt 0.714285731 0.363636374
vt 0.857142866 0.363636374
vt 1 0.363636374
vt 0 0.454545468
vt 0.142857149 0.454545468
vt 0.2857143 0.454545468
vt 0.428571433 0.454545468
vt 0.5714286 0.454545468
vt 0.714285731 0.454545468
vt 0.857142866 0.454545468
vt 1 0.454545468
vt 0 0.545454562
vt 0.142857149 0.545454562
vt 0.2857143 0.545454562
vt 0.428571433 0.545454562
vt 0.5714286 0.545454562
vt 0.714285731 0.545454562
vt 0.857142866 0.545454562
vt 1 0.545454562
vt 0 0.6363636
vt 0.142857149 0.6363636
vt 0.2857143 0.6363636
vt 0.428571433 0.6363636
vt 0.5714286 0.6363636
vt 0.714285731 0.6363636
vt 0.857142866 0.6363636
vt 1 0.6363636
vt 0 0.727272749
vt 0.142857149 0.727272749
vt 0.2857143 0.727272749
vt 0.428571433 0.727272749
vt 0.5714286 0.727272749
vt 0.714285731 0.727272749
vt 0.857142866 0.727272749
vt 1 0.727272749
vt 0 0.8181818
vt 0.142857149 0.8181818
vt 0.2857143 0.8181818
vt 0.428571433 0.8181818
vt 0.5714286 0.8181818
vt 0.714285731 0.8181818
vt 0.857142866 0.8181818
vt 1 0.8181818
vt 0 0.909090936
vt 0.142857149 0.909090936
vt 0.2857143 0.909090936
vt 0.428571433 0.909090936
vt 0.5714286 0.909090936
vt 0.714285731 0.909090936
vt 0.857142866 0.909090936
vt 1 0.909090936
vt 0 1
vt 0.142857149 1
vt 0.2857143 1
vt 0.428571433 1
vt 0.5714286 1
vt 0.714285731 1
vt 0.857142866 1
vt 1 1
vt 0.5 0
vt 0.5 1
vt 0 0
vt 0.142857149 0
vt 0.2857143 0
vt 0.428571433 0
vt 0.5714286 0
vt 0.714285731 0
vt 0.857142866 0
vt 1 0
vt 0 0.111111112
vt 0.142857149 0.111111112
vt 0.2857143 0.111111112
vt 0.428571433 0.111111112
vt 0.5714286 0.111111112
vt 0.714285731 0.111111112
vt 0.857142866 0.111111112
vt 1 0.111111112
vt 0 0.222222224
vt 0.142857149 0.222222224
vt 0.2857143 0.222222224
vt 0.428571433 0.222222224
vt 0.5714286 0.222222224
vt 0.714285731 0.222222224
vt 0.857142866 0.222222224
vt 1 0.222222224
vt 0 0.333333343
vt 0.142857149 0.333333343
vt 0.2857143 0.333333343
vt 0.428571433 0.333333343
vt 0.5714286 0.333333343
vt 0.714285731 0.333333343
vt 0.857142866 0.333333343
vt 1 0.333333343
vt 0 0.444444448
vt 0.142857149 0.444444448
vt 0.2857143 0.444444448
vt 0.428571433 0.444444448
vt 0.5714286 0.444444448
vt 0.714285731 0.444444448
vt 0.857142866 0.444444448
vt 1 0.444444448
vt 0 0.5555556
vt 0.142857149 0.5555556
vt 0.2857143 0.5555556
vt 0.428571433 0.5555556
vt 0.5714286 0.5555556
vt 0.714285731 0.5555556
vt 0.857142866 0.5555556
vt 1 0.5555556
vt 0 0.6666667
vt 0.142857149 0.6666667
vt 0.2857143 0.6666667
vt 0.428571433 0.6666667
vt 0.5714286 0.6666667
vt 0.714285731 0.6666667
vt 0.857142866 0.6666667
vt 1 0.6666667
vt 0 0.7777778
vt 0.142857149 0.7777778
vt 0.2857143 0.7777778
vt 0.428571433 0.7777778
vt 0.5714286 0.7777778
vt 0.714285731 0.7777778
vt 0.857142866 0.7777778
vt 1 0.7777778
vt 0 0.8888889
vt 0.142857149 0.8888889
vt 0.2857143 0.8888889
vt 0.428571433 0.8888889
vt 0.5714286 0.8888889
vt 0.714285731 0.8888889
vt 0.857142866 0.8888889
vt 1 0.8888889
vt 0 1
vt 0.142857149 1
vt 0.2857143 1
vt 0.428571433 1
vt 0.5714286 1
vt 0.714285731 1
vt 0.857142866 1
vt 1 1
vt 0.5 0
vt 0.5 1
vn 0.554410756 0.349607378 -0.755250633
vn 0.185260341 0.7509293 -0.6338643
vn -0.113938279 0.7975798 -0.592355
vn -0.4476755 0.6185165 -0.645774066
vn -0.7483393 -0.127279922 -0.6509901
vn -0.439054042 -0.8284765 -0.347646862
vn -0.0940746143 -0.9708569 -0.2204244
vn 0.206486523 -0.938924968 -0.275287718
vn 0.5692456 -0.6065856 -0.5549895
vn 0.573199332 -0.5899553 -0.568678558
vn 0.6310931 0.452713162 -0.6298986
vn 0.328486562 0.756998 -0.5648456
vn -0.009740387 0.882419944 -0.470361769
vn -0.338487 0.818895042 -0.463505626
vn -0.7985271 0.3188209 -0.510595262
vn -0.642679632 -0.711675167 -0.283692241
vn -0.2072216 -0.9689875 -0.134620041
vn 0.105777636 -0.9829031 -0.150706708
vn 0.47068283 -0.8164346 -0.334502965
vn 0.6275834 -0.6188152 -0.472447872
vn 0.68051964 0.55278033 -0.480964452
vn 0.382359684 0.825802565 -0.414549172
vn 0.0173206441 0.9504162 -0.31049794
vn -0.312982947 0.9110402 -0.268416435
vn -0.820361 0.5120726 -0.2545377
vn -0.747737467 -0.655386567 -0.106569827
vn -0.246137023 -0.9685988 -0.0351138972
vn 0.08212353 -0.994418859 -0.0662334859
vn 0.4610558 -0.862392247 -0.209062636
vn 0.6981328 -0.6296904 -0.340735137
vn 0.7132353 0.6021685 -0.3587318
vn 0.4110773 0.8667034 -0.282561034
vn 0.0372671522 0.983624935 -0.176332548
vn -0.292530417 0.9486884 -0.120067872
vn -0.809598863 0.582374156 -0.07341636
vn -0.7775498 -0.628737569 -0.0102703469
vn -0.259100825 -0.9656487 -0.0197315253
vn 0.07265009 -0.994717956 -0.0725135952
vn 0.458160937 -0.866750062 -0.1970609
vn 0.719319463 -0.6226493 -0.308038056
vn 0.748048067 0.621284664 -0.2333012
vn 0.446452469 0.882083237 -0.15036431
vn 0.06739996 0.996678352 -0.04571269
vn -0.261685252 0.964989543 0.01777554
vn -0.782224 0.6176992 0.08107632
vn -0.7880974 -0.613489866 0.05032616
vn -0.268993318 -0.9626058 -0.0321358964
vn 0.0632036 -0.9929182 -0.100592725
vn 0.4548786 -0.8667543 -0.204505637
vn 0.7324816 -0.6167557 -0.288241
vn 0.7780178 0.6176957 -0.114630662
vn 0.48150453 0.875947535 -0.0294849556
vn 0.09876845 0.9925191 0.07176775
vn -0.229301319 0.963301 0.139542565
vn -0.7505553 0.6269824 0.208710119
vn -0.789438546 -0.6080604 0.08395956
vn -0.2763167 -0.959385335 -0.056822
vn 0.05561464 -0.989810348 -0.131082147
vn 0.452341735 -0.8669171 -0.209384128
vn 0.7427976 -0.6155371 -0.263373882
vn 0.7969676 0.6039869 -0.0065036146
vn 0.5070739 0.8587787 0.07331587
vn 0.120574407 0.978551865 0.167027444
vn -0.206516042 0.949504256 0.236205176
vn -0.72593987 0.617243946 0.3033502
vn -0.786208153 -0.6102974 0.09702509
vn -0.278444529 -0.956951141 -0.08193457
vn 0.0537501834 -0.9870263 -0.151294127
vn 0.453381538 -0.8687528 -0.199283183
vn 0.753056467 -0.6188245 -0.2235228
vn 0.8013947 0.5908776 0.09289856
vn 0.5174174 0.84125644 0.156738073
vn 0.125798389 0.964078 0.233940825
vn -0.2014432 0.9327506 0.298993349
vn -0.7167167 0.5986836 0.3576241
vn -0.78102237 -0.6169402 0.09689519
vn -0.273455828 -0.957040131 -0.09641628
vn 0.0596318766 -0.9866369 -0.151630715
vn 0.45916 -0.8727429 -0.165807083
vn 0.7640003 -0.624713242 -0.161359459
vn 0.7899797 0.584522069 0.185110971
vn 0.5112986 0.830535352 0.220872581
vn 0.1137129 0.9566881 0.26798746
vn -0.215625644 0.9226775 0.319643021
vn -0.7259278 0.5835108 0.3640657
vn -0.7766216 -0.6233642 0.09097173
vn -0.263320923 -0.960460067 -0.09043524
vn 0.0706967041 -0.989662647 -0.124779105
vn 0.466594964 -0.8784065 -0.103398174
vn 0.772793233 -0.630571544 -0.0719037056
vn 0.764035165 0.58698535 0.267765522
vn 0.4920232 0.829471052 0.264369249
vn 0.09068359 0.95980376 0.265618861
vn -0.2418229 0.9255385 0.2913768
vn -0.748968661 0.5823663 0.316062331
vn -0.7776899 -0.6231737 0.082782954
vn -0.255645335 -0.9649887 -0.0586700439
vn 0.0787938 -0.9945985 -0.06756652
vn 0.4677163 -0.8838105 -0.0109771574
vn 0.7725652 -0.633317 0.0453051962
vn 0.7288986 0.59702307 0.335067719
vn 0.467399627 0.836809456 0.285109818
vn 0.06905744 0.9713739 0.227296591
vn -0.264518023 0.9401488 0.214827076
vn -0.7719152 0.5988053 0.2134926
vn -0.789118 -0.610482335 0.0678534955
vn -0.2609215 -0.96534127 -0.00602027727
vn 0.07290986 -0.997228861 0.0147931706
vn 0.452403069 -0.8856405 0.104748659
vn 0.7548135 -0.6298551 0.18313697
vn 0.6936164 0.6105752 0.382222682
vn 0.447892368 0.847609937 0.284516871
vn 0.0618309155 0.9846879 0.1629923
vn -0.267376274 0.957700968 0.106390819
vn -0.776296437 0.626182556 0.07252101
vn -0.8102683 -0.5849093 0.0366932265
vn -0.284510672 -0.957327068 0.0507786535
vn 0.04631725 -0.993258357 0.106266595
vn 0.414680421 -0.881094 0.227405936
vn 0.715122163 -0.6185727 0.3255273
vn 0.666443765 0.6224386 0.4103935
vn 0.4413397 0.855232835 0.2716545
vn 0.07412724 0.992950857 0.09248666
vn -0.24531427 0.9694326 -0.00463624252
vn -0.752425551 0.6544003 -0.07493974
vn -0.833810866 -0.55186516 -0.0142884078
vn -0.321167141 -0.942482531 0.09261867
vn 0.00284964521 -0.982617557 0.1856198
vn 0.358430117 -0.8712948 0.3352212
vn 0.6587692 -0.601514757 0.4518883
vn 0.649092 0.6294603 0.427152544
vn 0.448819965 0.854339838 0.26203835
vn 0.100416385 0.9942618 0.036878638
vn -0.206691056 0.9741028 -0.0916658342
vn -0.7047146 0.681506157 -0.197298288
vn -0.8545939 -0.5133703 -0.0782321
vn -0.360805243 -0.9261085 0.11019402
vn -0.046113193 -0.9702212 0.237790212
vn 0.294822544 -0.8626552 0.410981327
vn 0.5993188 -0.584283352 0.547201753
vn 0.624136865 0.6334474 0.457381248
vn 0.473995358 0.829167843 0.296326071
vn 0.135668486 0.9904412 0.024908673
vn -0.157052472 0.9794635 -0.126434535
vn -0.625753 0.7366352 -0.256518364
vn -0.897167563 -0.418492734 -0.141259164
vn -0.4148303 -0.9035405 0.107380383
vn -0.1040915 -0.9597973 0.260679781
vn 0.214686885 -0.86790067 0.447948575
vn 0.543417156 -0.5688834 0.6173084
vn 0.5988825 0.635484159 0.487339467
vn 0.58904916 0.6623369 0.462958932
vn 0.226046562 0.9700417 0.08900577
vn -0.0531114675 0.9942221 -0.09328205
vn -0.433357865 0.8696616 -0.2364096
vn -0.9671593 -0.008630223 -0.254024476
vn -0.551635861 -0.8325801 0.0500827134
vn -0.20803304 -0.9508173 0.229496673
vn 0.07820443 -0.910361648 0.406356722
vn 0.496804148 -0.5519061 0.6697651
vn -0.00113941566 -0.214726672 -0.9766735
vn -0.512300134 0.184436038 0.8387681
vn 0.666320264 0.743431866 0.0576751381
vn 0.160422221 0.9827859 -0.09163315
vn -0.168314561 0.940771 -0.294313133
vn -0.6569817 0.0568816774 -0.751757562
vn -0.189623743 -0.9311222 -0.311535448
vn 0.142092511 -0.984817743 -0.09971833
vn 0.6455212 -0.7620955 0.05012745
vn 0.6701241 -0.7405564 0.0500980951
vn 0.6578726 0.7490774 0.07801798
vn 0.274478853 0.9605835 -0.04405381
vn -0.06444399 0.976462841 -0.205833167
vn -0.537860632 0.591641247 -0.600555241
vn -0.3428999 -0.8380909 -0.42429167
vn 0.03826191 -0.9885891 -0.145697057
vn 0.431221068 -0.902246237 0.00047122757
vn 0.661901653 -0.746213257 0.07107616
vn 0.6447496 0.7570066 0.106014386
vn 0.29977867 0.9539752 -0.00799910352
vn -0.054123126 0.986045957 -0.157429174
vn -0.52605325 0.6971665 -0.487059325
vn -0.434172273 -0.797571957 -0.418775976
vn -0.008710088 -0.990673244 -0.13597995
vn 0.366005 -0.9305675 0.009197804
vn 0.650535166 -0.753315 0.09654262
vn 0.630394 0.7641648 0.136585042
vn 0.297839671 0.9542441 0.0266400911
vn -0.06647524 0.9915205 -0.111660726
vn -0.557984769 0.7358061 -0.383721769
vn -0.50889647 -0.782949 -0.357792318
vn -0.0433571227 -0.993502 -0.105233617
vn 0.3293165 -0.9436567 0.03259852
vn 0.6363809 -0.7609445 0.12642312
vn 0.6177558 0.768377364 0.16725491
vn 0.2906347 0.95479995 0.06235881
vn -0.08232392 0.994661868 -0.0622134432
vn -0.5951821 0.7569028 -0.269919455
vn -0.5761212 -0.772843957 -0.266076446
vn -0.0734696761 -0.995243549 -0.06397431
vn 0.30101648 -0.951648235 0.0612746
vn 0.622230351 -0.7667893 0.157681882
vn 0.610717058 0.7681378 0.192324728
vn 0.286538 0.953193545 0.09652946
vn -0.09399127 0.9955171 -0.010558187
vn -0.6221006 0.768945 -0.147358358
vn -0.6297077 -0.761390269 -0.15412049
vn -0.09687545 -0.99515 -0.0170772187
vn 0.280836582 -0.955514252 0.09012955
vn 0.611818135 -0.768931 0.185536772
vn 0.6127088 0.763945043 0.202425152
vn 0.290876 0.948777139 0.123341911
vn -0.096687 0.994547 0.03908978
vn -0.6300702 0.7761728 -0.023818776
vn -0.6638473 -0.7471716 -0.032270927
vn -0.110887982 -0.9933722 0.0302551985
vn 0.27060917 -0.9560748 0.112657964
vn 0.609293044 -0.766931534 0.201440334
vn 0.623752534 0.758644462 0.188125715
vn 0.305739433 0.9424275 0.135475621
vn -0.0884723142 0.992785752 0.08092638
vn -0.616105855 0.782474458 0.09026239
vn -0.677481055 -0.7302157 0.08834185
vn -0.115117215 -0.9907155 0.07232473
vn 0.269566983 -0.955226839 0.121964678
vn 0.616516948 -0.762688339 0.195482045
vn 0.6387341 0.755456567 0.145959213
vn 0.329552084 0.935486 0.127519786
vn -0.0705146 0.991518 0.109176509
vn -0.582167447 0.7920237 0.18379204
vn -0.676438332 -0.7095394 0.197446123
vn -0.112876862 -0.988114357 0.104349062
vn 0.2722798 -0.955428064 0.114108913
vn 0.630338 -0.759223759 0.162028477
vn 0.6498802 0.755670369 0.08135227
vn 0.3605715 0.927483261 0.09880759
vn -0.0451401025 0.991762459 0.119873486
vn -0.5314925 0.8104578 0.2463207
vn -0.675718367 -0.678023458 0.289289981
vn -0.111871 -0.985877454 0.124622084
vn 0.2687586 -0.958904266 0.0909474939
vn 0.643519461 -0.7583753 0.103680536
vn 0.651632 0.7584885 0.008430471
vn 0.414249539 0.90869987 0.0515924729
vn -0.006218028 0.9939627 0.109542221
vn -0.452374965 0.852172256 0.2629816
vn -0.715365648 -0.59040767 0.373725444
vn -0.130857721 -0.981612563 0.138971165
vn 0.23860456 -0.969109237 0.0624111556
vn 0.649166 -0.760041058 0.0303513426
vn 0.654895365 0.755396843 -0.0220798664
vn 0.6073254 0.7941319 -0.0225908291
vn 0.09235161 0.99350363 0.0664956346
vn -0.286148846 0.937189341 0.199486926
vn -0.8710249 -0.105590835 0.4797563
vn -0.240741432 -0.9536943 0.1803075
vn 0.126904443 -0.9902231 0.0579082444
vn 0.645949662 -0.7627601 -0.0307555422
vn 0.469834715 0 -0.882754445
vn 0.3204968 0 0.9472496
vn 0.308046728 0.7351345 -0.6038912
vn -0.01259745 0.985903 -0.166842669
vn -0.312643856 0.943953 0.105860822
vn -0.8765957 0.06432289 0.4769095
vn -0.338969648 -0.932406545 0.125370279
vn -0.0290083475 -0.9884816 -0.148535386
vn 0.291518629 -0.757844031 -0.5836859
vn 0.300265521 -0.737226665 -0.6052582
vn 0.347898424 0.737365663 -0.579015
vn 0.07825365 0.9603743 -0.2675025
vn -0.208337158 0.9780474 0.00436569
vn -0.740922332 0.581688464 0.335667431
vn -0.511246145 -0.8339028 0.207926884
vn -0.108700432 -0.991501749 -0.0714737847
vn 0.1863743 -0.899419069 -0.3953606
vn 0.333395422 -0.7401078 -0.5840274
vn 0.4380301 0.7416981 -0.507950246
vn 0.1506863 0.9484115 -0.278943032
vn -0.1661872 0.985550344 -0.03274802
vn -0.68350035 0.6915622 0.233600274
vn -0.586816251 -0.7850275 0.19844006
vn -0.118196361 -0.991728663 -0.0500378981
vn 0.207619369 -0.9254651 -0.316873074
vn 0.403660178 -0.744947135 -0.5311424
vn 0.562403858 0.74807024 -0.35226813
vn 0.23868373 0.9445817 -0.225378588
vn -0.124578595 0.9910442 -0.04807851
vn -0.657387137 0.742489755 0.1286505
vn -0.6258981 -0.7688806 0.1306677
vn -0.100351207 -0.9942133 -0.03833464
vn 0.274167955 -0.9357821 -0.221684352
vn 0.5194464 -0.751550734 -0.406628639
vn 0.649948359 0.7535385 -0.09872519
vn 0.3174521 0.943106055 -0.0988694057
vn -0.0832288638 0.9960674 -0.0303755421
vn -0.631672561 0.7744121 0.03571469
vn -0.632502854 -0.7734753 0.0409399346
vn -0.0769927 -0.9969657 -0.011460105
vn 0.330668479 -0.940917432 -0.0730261952
vn 0.628635943 -0.7552814 -0.185382709
vn 0.628635764 0.755281568 0.185382769
vn 0.33066842 0.9409174 0.07302634
vn -0.07699306 0.996965766 0.0114599383
vn -0.6325035 0.7734748 -0.04094073
vn -0.631672442 -0.7744124 -0.03571497
vn -0.08322893 -0.9960674 0.03037564
vn 0.317451924 -0.9431061 0.0988693461
vn 0.649948835 -0.753538132 0.09872546
vn 0.519446135 0.751550734 0.406628877
vn 0.274167746 0.935782 0.221684545
vn -0.10035111 0.9942133 0.0383349247
vn -0.6258971 0.7688817 -0.130666479
vn -0.65738827 -0.742488861 -0.1286503
vn -0.124578327 -0.9910442 0.04807846
vn 0.2386842 -0.9445815 0.225378975
vn 0.5624043 -0.7480695 0.352268964
vn 0.403659761 0.744948 0.5311415
vn 0.2076195 0.9254652 0.3168727
vn -0.118196674 0.9917287 0.0500374734
vn -0.5868172 0.7850267 -0.198440641
vn -0.68350023 -0.6915624 -0.233599961
vn -0.166187569 -0.985550165 0.0327481329
vn 0.1506858 -0.9484117 0.2789426
vn 0.4380308 -0.741697848 0.5079501
vn 0.333394438 0.7401085 0.584027
vn 0.186373666 0.899419248 0.395360559
vn -0.108700685 0.991501749 0.07147364
vn -0.5112462 0.8339027 -0.207927361
vn -0.7409221 -0.5816884 -0.3356681
vn -0.208337054 -0.9780473 -0.00436592
vn 0.07825318 -0.9603745 0.267502248
vn 0.34789747 -0.737365961 0.579015255
vn 0.3002522 0.7372548 0.6052305
vn 0.291519 0.7578442 0.5836856
vn -0.0290079284 0.9884815 0.148535669
vn -0.33896926 0.9324067 -0.125369832
vn -0.876595855 -0.06432295 -0.476909
vn -0.312644 -0.943953 -0.10586074
vn -0.0125970114 -0.985903 0.166842952
vn 0.308046043 -0.7351361 0.603889644
vn -0.7160714 0 -0.698026955
vn -0.716061652 0 0.698037
f 1/1/1 2/2/2 12/12/12
f 1/1/1 12/12/12 11/11/11
f 2/2/2 3/3/3 13/13/13
f 2/2/2 13/13/13 12/12/12
f 3/3/3 4/4/4 14/14/14
f 3/3/3 14/14/14 13/13/13
f 4/4/4 5/5/5 15/15/15
f 4/4/4 15/15/15 14/14/14
f 5/5/5 6/6/6 16/16/16
f 5/5/5 16/16/16 15/15/15
f 6/6/6 7/7/7 17/17/17
f 6/6/6 17/17/17 16/16/16
f 7/7/7 8/8/8 18/18/18
f 7/7/7 18/18/18 17/17/17
f 8/8/8 9/9/9 19/19/19
f 8/8/8 19/19/19 18/18/18
f 9/9/9 10/10/10 20/20/20
f 9/9/9 20/20/20 19/19/19
f 11/11/11 12/12/12 22/22/22
f 11/11/11 22/22/22 21/21/21
f 12/12/12 13/13/13 23/23/23
f 12/12/12 23/23/23 22/22/22
f 13/13/13 14/14/14 24/24/24
f 13/13/13 24/24/24 23/23/23
f 14/14/14 15/15/15 25/25/25
f 14/14/14 25/25/25 24/24/24
f 15/15/15 16/16/16 26/26/26
f 15/15/15 26/26/26 25/25/25
f 16/16/16 17/17/17 27/27/27
f 16/16/16 27/27/27 26/26/26
f 17/17/17 18/18/18 28/28/28
f 17/17/17 28/28/28 27/27/27
f 18/18/18 19/19/19 29/29/29
f 18/18/18 29/29/29 28/28/28
f 19/19/19 20/20/20 30/30/30
f 19/19/19 30/30/30 29/29/29
f 21/21/21 22/22/22 32/32/32
f 21/21/21 32/32/32 31/31/31
f 22/22/22 23/23/23 33/33/33
f 22/22/22 33/33/33 32/32/32
f 23/23/23 24/24/24 34/34/34
f 23/23/23 34/34/34 33/33/33
f 24/24/24 25/25/25 35/35/35
f 24/24/24 35/35/35 34/34/34
f 25/25/25 26/26/26 36/36/36
f 25/25/25 36/36/36 35/35/35
f 26/26/26 27/27/27 37/37/37
f 26/26/26 37/37/37 36/36/36
f 27/27/27 28/28/28 38/38/38
f 27/27/27 38/38/38 37/37/37
f 28/28/28 29/29/29 39/39/39
f 28/28/28 39/39/39 38/38/38
f 29/29/29 30/30/30 40/40/40
f 29/29/29 40/40/40 39/39/39
f 31/31/31 32/32/32 42/42/42
f 31/31/31 42/42/42 41/41/41
f 32/32/32 33/33/33 43/43/43
f 32/32/32 43/43/43 42/42/42
f 33/33/33 34/34/34 44/44/44
f 33/33/33 44/44/44 43/43/43
f 34/34/34 35/35/35 45/45/45
f 34/34/34 45/45/45 44/44/44
f 35/35/35 36/36/36 46/46/46
f 35/35/35 46/46/46 45/45/45
f 36/36/36 37/37/37 47/47/47
f 36/36/36 47/47/47 46/46/46
f 37/37/37 38/38/38 48/48/48
f 37/37/37 48/48/48 47/47/47
f 38/38/38 39/39/39 49/49/49
f 38/38/38 49/49/49 48/48/48
f 39/39/39 40/40/40 50/50/50
f 39/39/39 50/50/50 49/49/49
f 41/41/41 42/42/42 52/52/52
f 41/41/41 52/52/52 51/51/51
f 42/42/42 43/43/43 53/53/53
f 42/42/42 53/53/53 52/52/52
f 43/43/43 44/44/44 54/54/54
f 43/43/43 54/54/54 53/53/53
f 44/44/44 45/45/45 55/55/55
f 44/44/44 55/55/55 54/54/54
f 45/45/45 46/46/46 56/56/56
f 45/45/45 56/56/56 55/55/55
f 46/46/46 47/47/47 57/57/57
f 46/46/46 57/57/57 56/56/56
f 47/47/47 48/48/48 58/58/58
f 47/47/47 58/58/58 57/57/57
f 48/48/48 49/49/49 59/59/59
f 48/48/48 59/59/59 58/58/58
f 49/49/49 50/50/50 60/60/60
f 49/49/49 60/60/60 59/59/59
f 51/51/51 52/52/52 62/62/62
f 51/51/51 62/62/62 61/61/61
f 52/52/52 53/53/53 63/63/63
f 52/52/52 63/63/63 62/62/62
f 53/53/53 54/54/54 64/64/64
f 53/53/53 64/64/64 63/63/63
f 54/54/54 55/55/55 65/65/65
f 54/54/54 65/65/65 64/64/64
f 55/55/55 56/56/56 66/66/66
f 55/55/55 66/66/66 65/65/65
f 56/56/56 57/57/57 67/67/67
f 56/56/56 67/67/67 66/66/66
f 57/57/57 58/58/58 68/68/68
f 57/57/57 68/68/68 67/67/67
f 58/58/58 59/59/59 69/69/69
f 58/58/58 69/69/69 68/68/68
f 59/59/59 60/60/60 70/70/70
f 59/59/59 70/70/70 69/69/69
f 61/61/61 62/62/62 72/72/72
f 61/61/61 72/72/72 71/71/71
f 62/62/62 63/63/63 73/73/73
f 62/62/62 73/73/73 72/72/72
f 63/63/63 64/64/64 74/74/74
f 63/63/63 74/74/74 73/73/73
f 64/64/64 65/65/65 75/75/75
f 64/64/64 75/75/75 74/74/74
f 65/65/65 66/66/66 76/76/76
f 65/65/65 76/76/76 75/75/75
f 66/66/66 67/67/67 77/77/77
f 66/66/66 77/77/77 76/76/76
f 67/67/67 68/68/68 78/78/78
f 67/67/67 78/78/78 77/77/77
f 68/68/68 69/69/69 79/79/79
f 68/68/68 79/79/79 78/78/78
f 69/69/69 70/70/70 80/80/80
f 69/69/69 80/80/80 79/79/79
f 71/71/71 72/72/72 82/82/82
f 71/71/71 82/82/82 81/81/81
f 72/72/72 73/73/73 83/83/83
f 72/72/72 83/83/83 82/82/82
f 73/73/73 74/74/74 84/84/84
f 73/73/73 84/84/84 83/83/83
f 74/74/74 75/75/75 85/85/85
f 74/74/74 85/85/85 84/84/84
f 75/75/75 76/76/76 86/86/86
f 75/75/75 86/86/86 85/85/85
f 76/76/76 77/77/77 87/87/87
f 76/76/76 87/87/87 86/86/86
f 77/77/77 78/78/78 88/88/88
f 77/77/77 88/88/88 87/87/87
f 78/78/78 79/79/79 89/89/89
f 78/78/78 89/89/89 88/88/88
f 79/79/79 80/80/80 90/90/90
f 79/79/79 90/90/90 89/89/89
f 81/81/81 82/82/82 92/92/92
f 81/81/81 92/92/92 91/91/91
f 82/82/82 83/83/83 93/93/93
f 82/82/82 93/93/93 92/92/92
f 83/83/83 84/84/84 94/94/94
f 83/83/83 94/94/94 93/93/93
f 84/84/84 85/85/85 95/95/95
f 84/84/84 95/95/95 94/94/94
f 85/85/85 86/86/86 96/96/96
f 85/85/85 96/96/96 95/95/95
f 86/86/86 87/87/87 97/97/97
f 86/86/86 97/97/97 96/96/96
f 87/87/87 88/88/88 98/98/98
f 87/87/87 98/98/98 97/97/97
f 88/88/88 89/89/89 99/99/99
f 88/88/88 99/99/99 98/98/98
f 89/89/89 90/90/90 100/100/100
f 89/89/89 100/100/100 99/99/99
f 91/91/91 92/92/92 102/102/102
f 91/91/91 102/102/102 101/101/101
f 92/92/92 93/93/93 103/103/103
f 92/92/92 103/103/103 102/102/102
f 93/93/93 94/94/94 104/104/104
f 93/93/93 104/104/104 103/103/103
f 94/94/94 95/95/95 105/105/105
f 94/94/94 105/105/105 104/104/104
f 95/95/95 96/96/96 106/106/106
f 95/95/95 106/106/106 105/105/105
f 96/96/96 97/97/97 107/107/107
f 96/96/96 107/107/107 106/106/106
f 97/97/97 98/98/98 108/108/108
f 97/97/97 108/108/108 107/107/107
f 98/98/98 99/99/99 109/109/109
f 98/98/98 109/109/109 108/108/108
f 99/99/99 100/100/100 110/110/110
f 99/99/99 110/110/110 109/109/109
f 101/101/101 102/102/102 112/112/112
f 101/101/101 112/112/112 111/111/111
f 102/102/102 103/103/103 113/113/113
f 102/102/102 113/113/113 112/112/112
f 103/103/103 104/104/104 114/114/114
f 103/103/103 114/114/114 113/113/113
f 104/104/104 105/105/105 115/115/115
f 104/104/104 115/115/115 114/114/114
f 105/105/105 106/106/106 116/116/116
f 105/105/105 116/116/116 115/115/115
f 106/106/106 107/107/107 117/117/117
f 106/106/106 117/117/117 116/116/116
f 107/107/107 108/108/108 118/118/118
f 107/107/107 118/118/118 117/117/117
f 108/108/108 109/109/109 119/119/119
f 108/108/108 119/119/119 118/118/118
f 109/109/109 110/110/110 120/120/120
f 109/109/109 120/120/120 119/119/119
f 111/111/111 112/112/112 122/122/122
f 111/111/111 122/122/122 121/121/121
f 112/112/112 113/113/113 123/123/123
f 112/112/112 123/123/123 122/122/122
f 113/113/113 114/114/114 124/124/124
f 113/113/113 124/124/124 123/123/123
f 114/114/114 115/115/115 125/125/125
f 114/114/114 125/125/125 124/124/124
f 115/115/115 116/116/116 126/126/126
f 115/115/115 126/126/126 125/125/125
f 116/116/116 117/117/117 127/127/127
f 116/116/116 127/127/127 126/126/126
f 117/117/117 118/118/118 128/128/128
f 117/117/117 128/128/128 127/127/127
f 118/118/118 119/119/119 129/129/129
f 118/118/118 129/129/129 128/128/128
f 119/119/119 120/120/120 130/130/130
f 119/119/119 130/130/130 129/129/129
f 121/121/121 122/122/122 132/132/132
f 121/121/121 132/132/132 131/131/131
f 122/122/122 123/123/123 133/133/133
f 122/122/122 133/133/133 132/132/132
f 123/123/123 124/124/124 134/134/134
f 123/123/123 134/134/134 133/133/133
f 124/124/124 125/125/125 135/135/135
f 124/124/124 135/135/135 134/134/134
f 125/125/125 126/126/126 136/136/136
f 125/125/125 136/136/136 135/135/135
f 126/126/126 127/127/127 137/137/137
f 126/126/126 137/137/137 136/136/136
f 127/127/127 128/128/128 138/138/138
f 127/127/127 138/138/138 137/137/137
f 128/128/128 129/129/129 139/139/139
f 128/128/128 139/139/139 138/138/138
f 129/129/129 130/130/130 140/140/140
f 129/129/129 140/140/140 139/139/139
f 131/131/131 132/132/132 142/142/142
f 131/131/131 142/142/142 141/141/141
f 132/132/132 133/133/133 143/143/143
f 132/132/132 143/143/143 142/142/142
f 133/133/133 134/134/134 144/144/144
f 133/133/133 144/144/144 143/143/143
f 134/134/134 135/135/135 145/145/145
f 134/134/134 145/145/145 144/144/144
f 135/135/135 136/136/136 146/146/146
f 135/135/135 146/146/146 145/145/145
f 136/136/136 137/137/137 147/147/147
f 136/136/136 147/147/147 146/146/146
f 137/137/137 138/138/138 148/148/148
f 137/137/137 148/148/148 147/147/147
f 138/138/138 139/139/139 149/149/149
f 138/138/138 149/149/149 148/148/148
f 139/139/139 140/140/140 150/150/150
f 139/139/139 150/150/150 149/149/149
f 141/141/141 142/142/142 152/152/152
f 141/141/141 152/152/152 151/151/151
f 142/142/142 143/143/143 153/153/153
f 142/142/142 153/153/153 152/152/152
f 143/143/143 144/144/144 154/154/154
f 143/143/143 154/154/154 153/153/153
f 144/144/144 145/145/145 155/155/155
f 144/144/144 155/155/155 154/154/154
f 145/145/145 146/146/146 156/156/156
f 145/145/145 156/156/156 155/155/155
f 146/146/146 147/147/147 157/157/157
f 146/146/146 157/157/157 156/156/156
f 147/147/147 148/148/148 158/158/158
f 147/147/147 158/158/158 157/157/157
f 148/148/148 149/149/149 159/159/159
f 148/148/148 159/159/159 158/158/158
f 149/149/149 150/150/150 160/160/160
f 149/149/149 160/160/160 159/159/159
f 161/161/161 2/2/2 1/1/1
f 162/162/162 151/151/151 152/152/152
f 161/161/161 3/3/3 2/2/2
f 162/162/162 152/152/152 153/153/153
f 161/161/161 4/4/4 3/3/3
f 162/162/162 153/153/153 154/154/154
f 161/161/161 5/5/5 4/4/4
f 162/162/162 154/154/154 155/155/155
f 161/161/161 6/6/6 5/5/5
f 162/162/162 155/155/155 156/156/156
f 161/161/161 7/7/7 6/6/6
f 162/162/162 156/156/156 157/157/157
f 161/161/161 8/8/8 7/7/7
f 162/162/162 157/157/157 158/158/158
f 161/161/161 9/9/9 8/8/8
f 162/162/162 158/158/158 159/159/159
f 161/161/161 10/10/10 9/9/9
f 162/162/162 159/159/159 160/160/160
f 163/163/163 164/164/164 172/172/172
f 163/163/163 172/172/172 171/171/171
f 164/164/164 165/165/165 173/173/173
f 164/164/164 173/173/173 172/172/172
f 165/165/165 166/166/166 174/174/174
f 165/165/165 174/174/174 173/173/173
f 166/166/166 167/167/167 175/175/175
f 166/166/166 175/175/175 174/174/174
f 167/167/167 168/168/168 176/176/176
f 167/167/167 176/176/176 175/175/175
f 168/168/168 169/169/169 177/177/177
f 168/168/168 177/177/177 176/176/176
f 169/169/169 170/170/170 178/178/178
f 169/169/169 178/178/178 177/177/177
f 171/171/171 172/172/172 180/180/180
f 171/171/171 180/180/180 179/179/179
f 172/172/172 173/173/173 181/181/181
f 172/172/172 181/181/181 180/180/180
f 173/173/173 174/174/174 182/182/182
f 173/173/173 182/182/182 181/181/181
f 174/174/174 175/175/175 183/183/183
f 174/174/174 183/183/183 182/182/182
f 175/175/175 176/176/176 184/184/184
f 175/175/175 184/184/184 183/183/183
f 176/176/176 177/177/177 185/185/185
f 176/176/176 185/185/185 184/184/184
f 177/177/177 178/178/178 186/186/186
f 177/177/177 186/186/186 185/185/185
f 179/179/179 180/180/180 188/188/188
f 179/179/179 188/188/188 187/187/187
f 180/180/180 181/181/181 189/189/189
f 180/180/180 189/189/189 188/188/188
f 181/181/181 182/182/182 190/190/190
f 181/181/181 190/190/190 189/189/189
f 182/182/182 183/183/183 191/191/191
f 182/182/182 191/191/191 190/190/190
f 183/183/183 184/184/184 192/192/192
f 183/183/183 192/192/192 191/191/191
f 184/184/184 185/185/185 193/193/193
f 184/184/184 193/193/193 192/192/192
f 185/185/185 186/186/186 194/194/194
f 185/185/185 194/194/194 193/193/193
f 187/187/187 188/188/188 196/196/196
f 187/187/187 196/196/196 195/195/195
f 188/188/188 189/189/189 197/197/197
f 188/188/188 197/197/197 196/196/196
f 189/189/189 190/190/190 198/198/198
f 189/189/189 198/198/198 197/197/197
f 190/190/190 191/191/191 199/199/199
f 190/190/190 199/199/199 198/198/198
f 191/191/191 192/192/192 200/200/200
f 191/191/191 200/200/200 199/199/199
f 192/192/192 193/193/193 201/201/201
f 192/192/192 201/201/201 200/200/200
f 193/193/193 194/194/194 202/202/202
f 193/193/193 202/202/202 201/201/201
f 195/195/195 196/196/196 204/204/204
f 195/195/195 204/204/204 203/203/203
f 196/196/196 197/197/197 205/205/205
f 196/196/196 205/205/205 204/204/204
f 197/197/197 198/198/198 206/206/206
f 197/197/197 206/206/206 205/205/205
f 198/198/198 199/199/199 207/207/207
f 198/198/198 207/207/207 206/206/206
f 199/199/199 200/200/200 208/208/208
f 199/199/199 208/208/208 207/207/207
f 200/200/200 201/201/201 209/209/209
f 200/200/200 209/209/209 208/208/208
f 201/201/201 202/202/202 210/210/210
f 201/201/201 210/210/210 209/209/209
f 203/203/203 204/204/204 212/212/212
f 203/203/203 212/212/212 211/211/211
f 204/204/204 205/205/205 213/213/213
f 204/204/204 213/213/213 212/212/212
f 205/205/205 206/206/206 214/214/214
f 205/205/205 214/214/214 213/213/213
f 206/206/206 207/207/207 215/215/215
f 206/206/206 215/215/215 214/214/214
f 207/207/207 208/208/208 216/216/216
f 207/207/207 216/216/216 215/215/215
f 208/208/208 209/209/209 217/217/217
f 208/208/208 217/217/217 216/216/216
f 209/209/209 210/210/210 218/218/218
f 209/209/209 218/218/218 217/217/217
f 211/211/211 212/212/212 220/220/220
f 211/211/211 220/220/220 219/219/219
f 212/212/212 213/213/213 221/221/221
f 212/212/212 221/221/221 220/220/220
f 213/213/213 214/214/214 222/222/222
f 213/213/213 222/222/222 221/221/221
f 214/214/214 215/215/215 223/223/223
f 214/214/214 223/223/223 222/222/222
f 215/215/215 216/216/216 224/224/224
f 215/215/215 224/224/224 223/223/223
f 216/216/216 217/217/217 225/225/225
f 216/216/216 225/225/225 224/224/224
f 217/217/217 218/218/218 226/226/226
f 217/217/217 226/226/226 225/225/225
f 219/219/219 220/220/220 228/228/228
f 219/219/219 228/228/228 227/227/227
f 220/220/220 221/221/221 229/229/229
f 220/220/220 229/229/229 228/228/228
f 221/221/221 222/222/222 230/230/230
f 221/221/221 230/230/230 229/229/229
f 222/222/222 223/223/223 231/231/231
f 222/222/222 231/231/231 230/230/230
f 223/223/223 224/224/224 232/232/232
f 223/223/223 232/232/232 231/231/231
f 224/224/224 225/225/225 233/233/233
f 224/224/224 233/233/233 232/232/232
f 225/225/225 226/226/226 234/234/234
f 225/225/225 234/234/234 233/233/233
f 227/227/227 228/228/228 236/236/236
f 227/227/227 236/236/236 235/235/235
f 228/228/228 229/229/229 237/237/237
f 228/228/228 237/237/237 236/236/236
f 229/229/229 230/230/230 238/238/238
f 229/229/229 238/238/238 237/237/237
f 230/230/230 231/231/231 239/239/239
f 230/230/230 239/239/239 238/238/238
f 231/231/231 232/232/232 240/240/240
f 231/231/231 240/240/240 239/239/239
f 232/232/232 233/233/233 241/241/241
f 232/232/232 241/241/241 240/240/240
f 233/233/233 234/234/234 242/242/242
f 233/233/233 242/242/242 241/241/241
f 235/235/235 236/236/236 244/244/244
f 235/235/235 244/244/244 243/243/243
f 236/236/236 237/237/237 245/245/245
f 236/236/236 245/245/245 244/244/244
f 237/237/237 238/238/238 246/246/246
f 237/237/237 246/246/246 245/245/245
f 238/238/238 239/239/239 247/247/247
f 238/238/238 247/247/247 246/246/246
f 239/239/239 240/240/240 248/248/248
f 239/239/239 248/248/248 247/247/247
f 240/240/240 241/241/241 249/249/249
f 240/240/240 249/249/249 248/248/248
f 241/241/241 242/242/242 250/250/250
f 241/241/241 250/250/250 249/249/249
f 243/243/243 244/244/244 252/252/252
f 243/243/243 252/252/252 251/251/251
f 244/244/244 245/245/245 253/253/253
f 244/244/244 253/253/253 252/252/252
f 245/245/245 246/246/246 254/254/254
f 245/245/245 254/254/254 253/253/253
f 246/246/246 247/247/247 255/255/255
f 246/246/246 255/255/255 254/254/254
f 247/247/247 248/248/248 256/256/256
f 247/247/247 256/256/256 255/255/255
f 248/248/248 249/249/249 257/257/257
f 248/248/248 257/257/257 256/256/256
f 249/249/249 250/250/250 258/258/258
f 249/249/249 258/258/258 257/257/257
f 259/259/259 164/164/164 163/163/163
f 260/260/260 251/251/251 252/252/252
f 259/259/259 165/165/165 164/164/164
f 260/260/260 252/252/252 253/253/253
f 259/259/259 166/166/166 165/165/165
f 260/260/260 253/253/253 254/254/254
f 259/259/259 167/167/167 166/166/166
f 260/260/260 254/254/254 255/255/255
f 259/259/259 168/168/168 167/167/167
f 260/260/260 255/255/255 256/256/256
f 259/259/259 169/169/169 168/168/168
f 260/260/260 256/256/256 257/257/257
f 259/259/259 170/170/170 169/169/169
f 260/260/260 257/257/257 258/258/258
f 261/261/261 262/262/262 270/270/270
f 261/261/261 270/270/270 269/269/269
f 262/262/262 263/263/263 271/271/271
f 262/262/262 271/271/271 270/270/270
f 263/263/263 264/264/264 272/272/272
f 263/263/263 272/272/272 271/271/271
f 264/264/264 265/265/265 273/273/273
f 264/264/264 273/273/273 272/272/272
f 265/265/265 266/266/266 274/274/274
f 265/265/265 274/274/274 273/273/273
f 266/266/266 267/267/267 275/275/275
f 266/266/266 275/275/275 274/274/274
f 267/267/267 268/268/268 276/276/276
f 267/267/267 276/276/276 275/275/275
f 269/269/269 270/270/270 278/278/278
f 269/269/269 278/278/278 277/277/277
f 270/270/270 271/271/271 279/279/279
f 270/270/270 279/279/279 278/278/278
f 271/271/271 272/272/272 280/280/280
f 271/271/271 280/280/280 279/279/279
f 272/272/272 273/273/273 281/281/281
f 272/272/272 281/281/281 280/280/280
f 273/273/273 274/274/274 282/282/282
f 273/273/273 282/282/282 281/281/281
f 274/274/274 275/275/275 283/283/283
f 274/274/274 283/283/283 282/282/282
f 275/275/275 276/276/276 284/284/284
f 275/275/275 284/284/284 283/283/283
f 277/277/277 278/278/278 286/286/286
f 277/277/277 286/286/286 285/285/285
f 278/278/278 279/279/279 287/287/287
f 278/278/278 287/287/287 286/286/286
f 279/279/279 280/280/280 288/288/288
f 279/279/279 288/288/288 287/287/287
f 280/280/280 281/281/281 289/289/289
f 280/280/280 289/289/289 288/288/288
f 281/281/281 282/282/282 290/290/290
f 281/281/281 290/290/290 289/289/289
f 282/282/282 283/283/283 291/291/291
f 282/282/282 291/291/291 290/290/290
f 283/283/283 284/284/284 292/292/292
f 283/283/283 292/292/292 291/291/291
f 285/285/285 286/286/286 294/294/294
f 285/285/285 294/294/294 293/293/293
f 286/286/286 287/287/287 295/295/295
f 286/286/286 295/295/295 294/294/294
f 287/287/287 288/288/288 296/296/296
f 287/287/287 296/296/296 295/295/295
f 288/288/288 289/289/289 297/297/297
f 288/288/288 297/297/297 296/296/296
f 289/289/289 290/290/290 298/298/298
f 289/289/289 298/298/298 297/297/297
f 290/290/290 291/291/291 299/299/299
f 290/290/290 299/299/299 298/298/298
f 291/291/291 292/292/292 300/300/300
f 291/291/291 300/300/300 299/299/299
f 293/293/293 294/294/294 302/302/302
f 293/293/293 302/302/302 301/301/301
f 294/294/294 295/295/295 303/303/303
f 294/294/294 303/303/303 302/302/302
f 295/295/295 296/296/296 304/304/304
f 295/295/295 304/304/304 303/303/303
f 296/296/296 297/297/297 305/305/305
f 296/296/296 305/305/305 304/304/304
f 297/297/297 298/298/298 306/306/306
f 297/297/297 306/306/306 305/305/305
f 298/298/298 299/299/299 307/307/307
f 298/298/298 307/307/307 306/306/306
f 299/299/299 300/300/300 308/308/308
f 299/299/299 308/308/308 307/307/307
f 301/301/301 302/302/302 310/310/310
f 301/301/301 310/310/310 309/309/309
f 302/302/302 303/303/303 311/311/311
f 302/302/302 311/311/311 310/310/310
f 303/303/303 304/304/304 312/312/312
f 303/303/303 312/312/312 311/311/311
f 304/304/304 305/305/305 313/313/313
f 304/304/304 313/313/313 312/312/312
f 305/305/305 306/306/306 314/314/314
f 305/305/305 314/314/314 313/313/313
f 306/306/306 307/307/307 315/315/315
f 306/306/306 315/315/315 314/314/314
f 307/307/307 308/308/308 316/316/316
f 307/307/307 316/316/316 315/315/315
f 309/309/309 310/310/310 318/318/318
f 309/309/309 318/318/318 317/317/317
f 310/310/310 311/311/311 319/319/319
f 310/310/310 319/319/319 318/318/318
f 311/311/311 312/312/312 320/320/320
f 311/311/311 320/320/320 319/319/319
f 312/312/312 313/313/313 321/321/321
f 312/312/312 321/321/321 320/320/320
f 313/313/313 314/314/314 322/322/322
f 313/313/313 322/322/322 321/321/321
f 314/314/314 315/315/315 323/323/323
f 314/314/314 323/323/323 322/322/322
f 315/315/315 316/316/316 324/324/324
f 315/315/315 324/324/324 323/323/323
f 317/317/317 318/318/318 326/326/326
f 317/317/317 326/326/326 325/325/325
f 318/318/318 319/319/319 327/327/327
f 318/318/318 327/327/327 326/326/326
f 319/319/319 320/320/320 328/328/328
f 319/319/319 328/328/328 327/327/327
f 320/320/320 321/321/321 329/329/329
f 320/320/320 329/329/329 328/328/328
f 321/321/321 322/322/322 330/330/330
f 321/321/321 330/330/330 329/329/329
f 322/322/322 323/323/323 331/331/331
f 322/322/322 331/331/331 330/330/330
f 323/323/323 324/324/324 332/332/332
f 323/323/323 332/332/332 331/331/331
f 325/325/325 326/326/326 334/334/334
f 325/325/325 334/334/334 333/333/333
f 326/326/326 327/327/327 335/335/335
f 326/326/326 335/335/335 334/334/334
f 327/327/327 328/328/328 336/336/336
f 327/327/327 336/336/336 335/335/335
f 328/328/328 329/329/329 337/337/337
f 328/328/328 337/337/337 336/336/336
f 329/329/329 330/330/330 338/338/338
f 329/329/329 338/338/338 337/337/337
f 330/330/330 331/331/331 339/339/339
f 330/330/330 339/339/339 338/338/338
f 331/331/331 332/332/332 340/340/340
f 331/331/331 340/340/340 339/339/339
f 341/341/341 262/262/262 261/261/261
f 342/342/342 333/333/333 334/334/334
f 341/341/341 263/263/263 262/262/262
f 342/342/342 334/334/334 335/335/335
f 341/341/341 264/264/264 263/263/263
f 342/342/342 335/335/335 336/336/336
f 341/341/341 265/265/265 264/264/264
f 342/342/342 336/336/336 337/337/337
f 341/341/341 266/266/266 265/265/265
f 342/342/342 337/337/337 338/338/338
f 341/341/341 267/267/267 266/266/266
f 342/342/342 338/338/338 339/339/339
f 341/341/341 268/268/268 267/267/267
f 342/342/342 339/339/339 340/340/340
