# Original VFX mesh; Unity Y-up, +Z forward
o Leaf
v -0.0186413322 -0.055128742 -0.4977833
v -0.0182447322 -0.055128742 -0.497797161
v -0.0178481322 -0.055128742 -0.497811049
v -0.017451534 -0.055128742 -0.497824937
v -0.0170549341 -0.055128742 -0.497838825
v -0.0166583341 -0.055128742 -0.497852683
v -0.0162617359 -0.055128742 -0.4978666
v -0.0802509 -0.05121105 -0.424308926
v -0.0584867448 -0.04319782 -0.425070673
v -0.0367226 -0.0383898877 -0.425832421
v -0.0149584571 -0.0367872454 -0.426594168
v 0.00680569 -0.0383898877 -0.427355915
v 0.0285698324 -0.04319782 -0.428117663
v 0.050333973 -0.05121105 -0.4288794
v -0.127642184 -0.0472933576 -0.351332217
v -0.0892499 -0.0316687264 -0.352675945
v -0.0508576445 -0.0222939458 -0.3540197
v -0.01246538 -0.0191690214 -0.355363429
v 0.025926888 -0.0222939458 -0.356707156
v 0.06431915 -0.0316687264 -0.358050883
v 0.102711424 -0.0472933576 -0.3593946
v -0.16672051 -0.0433756672 -0.278646469
v -0.114471108 -0.02092311 -0.280475169
v -0.0622217059 -0.00745157525 -0.282303929
v -0.009972304 -0.00296106422 -0.28413263
v 0.04227711 -0.00745157525 -0.28596136
v 0.09452651 -0.02092311 -0.28779012
v 0.146775916 -0.0433756672 -0.28961882
v -0.197474942 -0.0394579731 -0.206252038
v -0.134143025 -0.0113033568 -0.208468661
v -0.07081112 0.005589408 -0.210685268
v -0.007479227 0.0112203341 -0.21290189
v 0.0558526777 0.005589408 -0.215118513
v 0.119184583 -0.0113033568 -0.21733512
v 0.1825165 -0.0394579731 -0.219551742
v -0.219325036 -0.0355402827 -0.134169281
v -0.147878721 -0.00309539749 -0.136669889
v -0.0764324442 0.0163715314 -0.139170513
v -0.004986151 0.0228605047 -0.141671136
v 0.06646015 0.0163715314 -0.144171759
v 0.137906432 -0.00309539749 -0.146672383
v 0.209352732 -0.0355402827 -0.149172992
v -0.231698155 -0.0316225924 -0.0624182038
v -0.15529646 0.00348564074 -0.0650922656
v -0.0788947642 0.024550572 -0.06776632
v -0.00249307416 0.0315722153 -0.07044038
v 0.0739086345 0.024550572 -0.07311445
v 0.150310308 0.00348564074 -0.0757885054
v 0.226712 -0.0316225924 -0.07846256
v -0.2342058 -0.027704902 0.00898757
v -0.156137183 0.008306205 0.0062551694
v -0.07806859 0.02991287 0.00352276862
v 1.85748672E-09 0.03711509 0.000790368
v 0.07806861 0.0299128629 -0.00194203306
v 0.156137183 0.008306205 -0.00467443326
v 0.2342058 -0.027704902 -0.007406834
v -0.226712 -0.02378721 0.08004333
v -0.150310308 0.011321025 0.07736927
v -0.07390861 0.0323859565 0.07469521
v 0.00249307975 0.0394076 0.07202115
v 0.07889479 0.0323859565 0.06934709
v 0.15529646 0.011321025 0.06667303
v 0.231698155 -0.02378721 0.06399897
v -0.209352717 -0.0198695175 0.150753722
v -0.137906417 0.0125753712 0.148253113
v -0.0664601251 0.03204229 0.14575249
v 0.004986154 0.0385312662 0.143251866
v 0.07643245 0.03204229 0.140751243
v 0.1478787 0.0125753712 0.138250634
v 0.219325021 -0.0198695175 0.135750026
v -0.182516471 -0.0159518253 0.2211325
v -0.119184561 0.0122027891 0.21891588
v -0.0558526628 0.0290955529 0.216699272
v 0.007479232 0.03472648 0.21448265
v 0.07081114 0.0290955454 0.212266028
v 0.134143025 0.0122027891 0.210049435
v 0.197474942 -0.0159518253 0.207832813
v -0.146775872 -0.0120341368 0.291199565
v -0.09452648 0.01041842 0.289370835
v -0.0422770865 0.0238899458 0.2875421
v 0.009972308 0.0283804573 0.285713375
v 0.06222171 0.0238899458 0.283884645
v 0.1144711 0.01041842 0.2820559
v 0.1667205 -0.0120341368 0.280227184
v -0.10271138 -0.008116445 0.360975355
v -0.06431911 0.0075081843 0.359631628
v -0.0259268619 0.016882956 0.358287871
v 0.0124653857 0.0200078879 0.356944174
v 0.0508576445 0.016882956 0.355600446
v 0.08924988 0.0075081843 0.3542567
v 0.127642155 -0.008116445 0.352912962
v -0.0503339656 -0.00419875234 0.430460125
v -0.028569825 0.00381447165 0.429698378
v -0.00680568255 0.008622409 0.42893663
v 0.01495846 0.0102250557 0.428174883
v 0.0367226042 0.008622409 0.427413136
v 0.0584867448 0.00381447165 0.4266514
v 0.08025089 -0.00419875234 0.425889641
v 0.01626174 -0.000281060027 0.499447316
v 0.0166583378 -0.000281063752 0.499433428
v 0.0170549378 -0.000281063752 0.49941957
v 0.0174515378 -0.000281067449 0.499405652
v 0.0178481359 -0.000281063752 0.499391824
v 0.0182447359 -0.000281063752 0.4993779
v 0.0186413359 -0.000281060027 0.499364
v -0.0084819505 -0.030197978 -0.498138875
v -0.0147525128 -0.0219193175 -0.5
v -0.0247530323 -0.0250814855 -0.498855263
v -0.0246631261 -0.03531447 -0.4962866
v -0.0146070449 -0.03847664 -0.495843828
v -0.0084819505 -0.0301979762 -0.498138875
v -0.006096586 -0.009549797 -0.415018
v -0.0119991656 -0.00173851836 -0.4167077
v -0.02141716 -0.004722162 -0.415653765
v -0.0213352218 -0.0143774338 -0.413312674
v -0.0118665872 -0.0173610747 -0.41291976
v -0.006096586 -0.009549797 -0.415018
v -0.003711224 0.009691244 -0.3318971
v -0.009242031 0.0170589127 -0.333307147
v -0.01807895 0.0142447166 -0.332385331
v -0.018009657 0.005137771 -0.330405563
v -0.009129914 0.00232357462 -0.330103844
v -0.003711224 0.009691244 -0.3318971
v -0.00132585911 0.0262139011 -0.248776287
v -0.006482144 0.0331474319 -0.249828011
v -0.0147390375 0.030499056 -0.24906835
v -0.0146857947 0.0219287369 -0.247547135
v -0.00639599469 0.01928037 -0.247366637
v -0.00132585911 0.0262139011 -0.248776287
v 0.001059503 0.0388921835 -0.1656554
v -0.003720688 0.0453852974 -0.166304037
v -0.0113981552 0.0429051481 -0.165723652
v -0.0113628991 0.03487922 -0.164716333
v -0.0036636428 0.03239907 -0.164674148
v 0.001059503 0.0388921835 -0.1656554
v 0.003444867 0.04686208 -0.08253456
v -0.0009589814 0.05289554 -0.0827728957
v -0.00805712 0.0505909622 -0.08237454
v -0.00804016 0.0431331955 -0.08189004
v -0.0009315426 0.04082862 -0.08198893
v 0.003444867 0.04686208 -0.08253456
v 0.005830231 0.049580466 0.000586311449
v 0.00180164143 0.055128742 0.000727311068
v -0.004716753 0.053009484 0.0009554533
v -0.004716752 0.04615144 0.000955453259
v 0.00180164329 0.04403219 0.000727311068
v 0.005830231 0.049580466 0.000586311449
v 0.008215593 0.04686208 0.08370715
v 0.00456000539 0.05190179 0.08416292
v -0.00137778337 0.0499767959 0.08424553
v -0.00139194855 0.0437473655 0.08384081
v 0.004537084 0.04182237 0.08350808
v 0.008215593 0.04686208 0.08370715
v 0.0106009571 0.0388921835 0.166828066
v 0.00731528969 0.04340913 0.167510673
v 0.0019592864 0.041683808 0.167481333
v 0.00193476 0.03610056 0.166780561
v 0.00727560837 0.0343752354 0.166376814
v 0.0106009571 0.0388921835 0.166828066
v 0.012986321 0.0262139011 0.249948889
v 0.0100671528 0.0302059371 0.2507605
v 0.005294238 0.02868111 0.250656575
v 0.005263584 0.02374669 0.249780729
v 0.0100175543 0.0222218633 0.249343365
v 0.012986321 0.0262139011 0.249948889
v 0.0153716831 0.009691251 0.333069742
v 0.012815698 0.013166572 0.3339156
v 0.00862714 0.0118391151 0.333773315
v 0.008594457 0.00754338736 0.332839459
v 0.0127628157 0.00621593464 0.332404643
v 0.0153716831 0.009691251 0.333069742
v 0.0177570488 -0.009549808 0.416190654
v 0.0155613851 -0.00657737162 0.416989058
v 0.011958275 -0.007712742 0.41683954
v 0.0119270952 -0.0113868732 0.415948719
v 0.0155109353 -0.012522243 0.415547669
v 0.0177570488 -0.009549808 0.416190654
v 0.0201424118 -0.0301979836 0.499311447
v 0.01830488 -0.0277143847 0.5
v 0.01528806 -0.0286630355 0.499867141
v 0.0152610885 -0.03173293 0.499096572
v 0.0182612464 -0.0326815844 0.49875313
v 0.0201424118 -0.0301979836 0.499311447
v -0.017451534 -0.030197978 -0.497824937
v 0.0174515378 -0.0301979836 0.499405652
vt 0 0
vt 0.166666672 0
vt 0.333333343 0
vt 0.5 0
vt 0.6666667 0
vt 0.8333333 0
vt 1 0
vt 0 0.0714285746
vt 0.166666672 0.0714285746
vt 0.333333343 0.0714285746
vt 0.5 0.0714285746
vt 0.6666667 0.0714285746
vt 0.8333333 0.0714285746
vt 1 0.0714285746
vt 0 0.142857149
vt 0.166666672 0.142857149
vt 0.333333343 0.142857149
vt 0.5 0.142857149
vt 0.6666667 0.142857149
vt 0.8333333 0.142857149
vt 1 0.142857149
vt 0 0.214285716
vt 0.166666672 0.214285716
vt 0.333333343 0.214285716
vt 0.5 0.214285716
vt 0.6666667 0.214285716
vt 0.8333333 0.214285716
vt 1 0.214285716
vt 0 0.2857143
vt 0.166666672 0.2857143
vt 0.333333343 0.2857143
vt 0.5 0.2857143
vt 0.6666667 0.2857143
vt 0.8333333 0.2857143
vt 1 0.2857143
vt 0 0.357142866
vt 0.166666672 0.357142866
vt 0.333333343 0.357142866
vt 0.5 0.357142866
vt 0.6666667 0.357142866
vt 0.8333333 0.357142866
vt 1 0.357142866
vt 0 0.428571433
vt 0.166666672 0.428571433
vt 0.333333343 0.428571433
vt 0.5 0.428571433
vt 0.6666667 0.428571433
vt 0.8333333 0.428571433
vt 1 0.428571433
vt 0 0.5
vt 0.166666672 0.5
vt 0.333333343 0.5
vt 0.5 0.5
vt 0.6666667 0.5
vt 0.8333333 0.5
vt 1 0.5
vt 0 0.5714286
vt 0.166666672 0.5714286
vt 0.333333343 0.5714286
vt 0.5 0.5714286
vt 0.6666667 0.5714286
vt 0.8333333 0.5714286
vt 1 0.5714286
vt 0 0.642857134
vt 0.166666672 0.642857134
vt 0.333333343 0.642857134
vt 0.5 0.642857134
vt 0.6666667 0.642857134
vt 0.8333333 0.642857134
vt 1 0.642857134
vt 0 0.714285731
vt 0.166666672 0.714285731
vt 0.333333343 0.714285731
vt 0.5 0.714285731
vt 0.6666667 0.714285731
vt 0.8333333 0.714285731
vt 1 0.714285731
vt 0 0.785714269
vt 0.166666672 0.785714269
vt 0.333333343 0.785714269
vt 0.5 0.785714269
vt 0.6666667 0.785714269
vt 0.8333333 0.785714269
vt 1 0.785714269
vt 0 0.857142866
vt 0.166666672 0.857142866
vt 0.333333343 0.857142866
vt 0.5 0.857142866
vt 0.6666667 0.857142866
vt 0.8333333 0.857142866
vt 1 0.857142866
vt 0 0.9285714
vt 0.166666672 0.9285714
vt 0.333333343 0.9285714
vt 0.5 0.9285714
vt 0.6666667 0.9285714
vt 0.8333333 0.9285714
vt 1 0.9285714
vt 0 1
vt 0.166666672 1
vt 0.333333343 1
vt 0.5 1
vt 0.6666667 1
vt 0.8333333 1
vt 1 1
vt 0 0
vt 0.2 0
vt 0.4 0
vt 0.6 0
vt 0.8 0
vt 1 0
vt 0 0.0833333358
vt 0.2 0.0833333358
vt 0.4 0.0833333358
vt 0.6 0.0833333358
vt 0.8 0.0833333358
vt 1 0.0833333358
vt 0 0.166666672
vt 0.2 0.166666672
vt 0.4 0.166666672
vt 0.6 0.166666672
vt 0.8 0.166666672
vt 1 0.166666672
vt 0 0.25
vt 0.2 0.25
vt 0.4 0.25
vt 0.6 0.25
vt 0.8 0.25
vt 1 0.25
vt 0 0.333333343
vt 0.2 0.333333343
vt 0.4 0.333333343
vt 0.6 0.333333343
vt 0.8 0.333333343
vt 1 0.333333343
vt 0 0.416666657
vt 0.2 0.416666657
vt 0.4 0.416666657
vt 0.6 0.416666657
vt 0.8 0.416666657
vt 1 0.416666657
vt 0 0.5
vt 0.2 0.5
vt 0.4 0.5
vt 0.6 0.5
vt 0.8 0.5
vt 1 0.5
vt 0 0.5833333
vt 0.2 0.5833333
vt 0.4 0.5833333
vt 0.6 0.5833333
vt 0.8 0.5833333
vt 1 0.5833333
vt 0 0.6666667
vt 0.2 0.6666667
vt 0.4 0.6666667
vt 0.6 0.6666667
vt 0.8 0.6666667
vt 1 0.6666667
vt 0 0.75
vt 0.2 0.75
vt 0.4 0.75
vt 0.6 0.75
vt 0.8 0.75
vt 1 0.75
vt 0 0.8333333
vt 0.2 0.8333333
vt 0.4 0.8333333
vt 0.6 0.8333333
vt 0.8 0.8333333
vt 1 0.8333333
vt 0 0.9166667
vt 0.2 0.9166667
vt 0.4 0.9166667
vt 0.6 0.9166667
vt 0.8 0.9166667
vt 1 0.9166667
vt 0 1
vt 0.2 1
vt 0.4 1
vt 0.6 1
vt 0.8 1
vt 1 1
vt 0.5 0
vt 0.5 1
vn 0.33146596 -0.885039 0.3268583
vn 0.209716618 -0.939385951 0.2712432
vn 0.07724445 -0.966349363 0.24536112
vn -0.0598818325 -0.96625787 0.250519216
vn -0.190141976 -0.939094 0.2862664
vn -0.30318296 -0.8876235 0.346705437
vn 0.001924662 -0.998493 0.0548451431
vn 0.353035033 -0.8866921 0.298568934
vn 0.2666072 -0.9234109 0.276103
vn 0.130316436 -0.9600706 0.247552261
vn -0.015574852 -0.9698759 0.243101567
vn -0.158567727 -0.9514162 0.263938427
vn -0.286845148 -0.9074995 0.306862324
vn -0.3145745 -0.8930419 0.3217437
vn 0.378184944 -0.886186838 0.267673433
vn 0.2978597 -0.9198565 0.255232841
vn 0.152890414 -0.960504353 0.232499182
vn -0.004335124 -0.973405063 0.229049861
vn -0.159736335 -0.9560405 0.245908439
vn -0.299719274 -0.9118163 0.280641049
vn -0.344403923 -0.890556455 0.2971449
vn 0.394987941 -0.88861 0.233145446
vn 0.317202419 -0.920694649 0.227385342
vn 0.165296882 -0.963843644 0.209003463
vn -0.0006537195 -0.978388369 0.2067744
vn -0.165274352 -0.9610549 0.221490264
vn -0.313568681 -0.9157595 0.25111568
vn -0.367608 -0.890071154 0.269513845
vn 0.4069176 -0.893423736 0.190295
vn 0.3303594 -0.924450934 0.190402344
vn 0.173247829 -0.9687892 0.177292228
vn 0.0009706191 -0.984247565 0.17679292
vn -0.170360863 -0.9670161 0.189359337
vn -0.324911922 -0.921358764 0.213378429
vn -0.385101527 -0.8932331 0.232015729
vn 0.414868355 -0.8990638 0.139887229
vn 0.339342 -0.9293414 0.145505592
vn 0.178440377 -0.974133849 0.13864401
vn 0.00167408423 -0.990109444 0.140286759
vn -0.174495086 -0.9730893 0.150494769
vn -0.333781362 -0.9275412 0.168099225
vn -0.398701161 -0.898088634 0.185672477
vn 0.418939769 -0.904130757 0.083886914
vn 0.34476018 -0.9339107 0.0946109
vn 0.181484357 -0.978811264 0.0948245
vn 0.00190321461 -0.995092154 0.09893407
vn -0.1774171 -0.9783473 0.106581748
vn -0.3399872 -0.9331181 0.11704383
vn -0.408759475 -0.90299654 0.132336244
vn 0.419021517 -0.9076304 0.0250605587
vn 0.3467793 -0.9370825 0.04025321
vn 0.18264538 -0.982003331 0.0480634421
vn 0.00191970973 -0.9984928 0.0548499376
vn -0.178877935 -0.9820506 0.0598276444
vn -0.343206048 -0.9371647 0.0627052262
vn -0.415109754 -0.906709254 0.0745808557
vn 0.415056378 -0.909184 -0.03335517
vn 0.3454869 -0.9383098 -0.0146072824
vn 0.1820928 -0.9832809 0.0009092869
vn 0.00193257176 -0.9999435 0.0104427608
vn -0.178632319 -0.983832955 0.0127782319
vn -0.343121946 -0.9392565 0.00803935
vn -0.4174928 -0.9085477 0.015521232
vn 0.407098025 -0.9091283 -0.0880731344
vn 0.3410308 -0.9376673 -0.0669172257
vn 0.179993987 -0.9826824 -0.0440156162
vn 0.00215336424 -0.999491751 -0.0318066142
vn -0.176427215 -0.9837955 -0.03193411
vn -0.339471966 -0.939592063 -0.04388189
vn -0.415743947 -0.9085323 -0.0415442
vn 0.39516145 -0.9084642 -0.136163279
vn 0.333604962 -0.935805559 -0.113911584
vn 0.176538691 -0.9806778 -0.08429199
vn 0.00285216328 -0.997571766 -0.06958763
vn -0.171919361 -0.9824868 -0.07185764
vn -0.3319391 -0.938975155 -0.09023292
vn -0.409781069 -0.907371342 -0.09357703
vn 0.37880376 -0.9087185 -0.175323561
vn 0.323323369 -0.933761656 -0.153464049
vn 0.171952441 -0.9780185 -0.1179495
vn 0.00449027 -0.9948807 -0.100957006
vn -0.164432049 -0.980792165 -0.104923554
vn -0.319797516 -0.9387041 -0.128702149
vn -0.399370849 -0.9063105 -0.1382175
vn 0.35615322 -0.9118711 -0.204073623
vn 0.31013757 -0.932601631 -0.184577644
vn 0.166733533 -0.9754691 -0.143735453
vn 0.008234054 -0.9921902 -0.124462731
vn -0.152198255 -0.979825735 -0.129527077
vn -0.300935835 -0.940525532 -0.157636628
vn -0.383547485 -0.9069243 -0.174297675
vn 0.326499581 -0.916887045 -0.229600221
vn 0.297757268 -0.9307005 -0.212455541
vn 0.165837467 -0.9725956 -0.1629592
vn 0.0197058786 -0.9900421 -0.139384881
vn -0.129373908 -0.980913639 -0.145158023
vn -0.269551426 -0.946210265 -0.178964257
vn -0.358911574 -0.910243 -0.206494778
vn 0.00191197428 -0.99849236 0.05485753
vn 0.315563977 -0.9135863 -0.256474823
vn 0.198477075 -0.961992443 -0.187556654
vn 0.0649587438 -0.986934066 -0.147450045
vn -0.07509889 -0.986989856 -0.142165825
vn -0.211108387 -0.9621898 -0.172116533
vn -0.337716848 -0.9110827 -0.236380413
vn 0.801710367 0.5606426 -0.207220525
vn 0.07484342 0.9497826 -0.303827882
vn -0.9241599 0.361736238 -0.122781828
vn -0.648856163 -0.747330844 0.143116519
vn 0.5201413 -0.84467566 0.12639609
vn 0.8080979 -0.5879593 0.0357986838
vn 0.803935766 0.5730599 -0.159027249
vn 0.315827 0.9216322 -0.225493655
vn -0.8039274 0.5849026 -0.107654862
vn -0.8128416 -0.557983637 0.1671611
vn 0.302148759 -0.9277243 0.219166279
vn 0.8135383 -0.5700068 0.1150989
vn 0.804460168 0.5762732 -0.144058913
vn 0.317786127 0.9261225 -0.203246385
vn -0.8025588 0.5888524 -0.09566727
vn -0.814278066 -0.5601085 0.15241316
vn 0.300210744 -0.933072 0.1981168
vn 0.8131272 -0.5728712 0.103163883
vn 0.805274844 0.5804638 -0.120806478
vn 0.320171237 0.9324273 -0.1675399
vn -0.800952554 0.5940333 -0.07482992
vn -0.815914154 -0.5634326 0.1297218
vn 0.297844529 -0.9405343 0.163352564
vn 0.812415063 -0.577182233 0.08271961
vn 0.806337535 0.584491 -0.0904982
vn 0.322910219 0.938763738 -0.120214678
vn -0.799159169 0.5993459 -0.0461407974
vn -0.817694068 -0.5668518 0.100276612
vn 0.2951204 -0.9483213 0.116578862
vn 0.811435938 -0.581872046 0.05474212
vn 0.8075804 0.5871794 -0.055084344
vn 0.325960934 0.9431977 -0.0642463341
vn -0.797207236 0.6035993 -0.0113330232
vn -0.819583833 -0.569152057 0.06594027
vn 0.292074829 -0.9544707 0.06064651
vn 0.810248256 -0.5857144 0.02089045
vn 0.8089111 0.5876795 -0.0171938874
vn 0.32932362 0.944209754 -0.003733627
vn -0.7950931 0.6058812 0.0271082576
vn -0.8215826 -0.569339037 0.0292399451
vn 0.288699925 -0.9574195 -0.000426709972
vn 0.808936954 -0.5876653 -0.0164495148
vn 0.810222745 0.585775137 0.0201653112
vn 0.3330347 0.941219151 0.0565185472
vn -0.792780757 0.6059022 0.06619024
vn -0.823721 -0.56695354 -0.006885761
vn 0.284950435 -0.9565449 -0.061847128
vn 0.807604969 -0.5872126 -0.05436571
vn 0.8114121 0.581967 0.05407993
vn 0.337161183 0.9347928 0.111734957
vn -0.7902068 0.604144335 0.102872819
vn -0.826055169 -0.5622013 -0.03953105
vn 0.280751765 -0.9524027 -0.118775167
vn 0.80636 -0.5845603 -0.0898482054
vn 0.8123948 0.5772906 0.08216052
vn 0.3418034 0.9264118 0.1578971
vn -0.7872821 0.6017352 0.134542778
vn -0.8286616 -0.5558141 -0.06626198
vn 0.2760007 -0.9465255 -0.1670721
vn 0.805294156 -0.5805497 -0.120263413
vn 0.8131117 0.5729683 0.1027459
vn 0.3471223 0.917926133 0.1921403
vn -0.783873439 0.6001413 0.15928854
vn -0.8316497 -0.5487014 -0.08535564
vn 0.270532 -0.9409072 -0.203730375
vn 0.804475 -0.5763527 -0.14365761
vn 0.8135298 0.5700664 0.1148631
vn 0.3534156 0.9109548 0.212741047
vn -0.7797556 0.600861967 0.175914884
vn -0.8352006 -0.5415386 -0.09579097
vn 0.264032364 -0.9374469 -0.22689265
vn 0.803944647 -0.5731094 -0.158803612
vn 0.814170837 0.5628306 0.1426445
vn 0.5549118 0.8058836 0.206456959
vn -0.618651152 0.750111639 0.233673066
vn -0.936103761 -0.350552171 -0.0286887
vn 0.0412363671 -0.9750633 -0.218062
vn 0.804005 -0.574384153 -0.1538142
vn -0.0339258276 -0.243604481 -0.969281137
vn 0.0339294225 -0.243604258 0.9692811
f 1/1/1 2/2/2 9/9/9
f 1/1/1 9/9/9 8/8/8
f 2/2/2 3/3/3 10/10/10
f 2/2/2 10/10/10 9/9/9
f 3/3/3 4/4/4 11/11/11
f 3/3/3 11/11/11 10/10/10
f 4/4/4 5/5/5 12/12/12
f 4/4/4 12/12/12 11/11/11
f 5/5/5 6/6/6 13/13/13
f 5/5/5 13/13/13 12/12/12
f 6/6/6 7/7/7 14/14/14
f 6/6/6 14/14/14 13/13/13
f 8/8/8 9/9/9 16/16/16
f 8/8/8 16/16/16 15/15/15
f 9/9/9 10/10/10 17/17/17
f 9/9/9 17/17/17 16/16/16
f 10/10/10 11/11/11 18/18/18
f 10/10/10 18/18/18 17/17/17
f 11/11/11 12/12/12 19/19/19
f 11/11/11 19/19/19 18/18/18
f 12/12/12 13/13/13 20/20/20
f 12/12/12 20/20/20 19/19/19
f 13/13/13 14/14/14 21/21/21
f 13/13/13 21/21/21 20/20/20
f 15/15/15 16/16/16 23/23/23
f 15/15/15 23/23/23 22/22/22
f 16/16/16 17/17/17 24/24/24
f 16/16/16 24/24/24 23/23/23
f 17/17/17 18/18/18 25/25/25
f 17/17/17 25/25/25 24/24/24
f 18/18/18 19/19/19 26/26/26
f 18/18/18 26/26/26 25/25/25
f 19/19/19 20/20/20 27/27/27
f 19/19/19 27/27/27 26/26/26
f 20/20/20 21/21/21 28/28/28
f 20/20/20 28/28/28 27/27/27
f 22/22/22 23/23/23 30/30/30
f 22/22/22 30/30/30 29/29/29
f 23/23/23 24/24/24 31/31/31
f 23/23/23 31/31/31 30/30/30
f 24/24/24 25/25/25 32/32/32
f 24/24/24 32/32/32 31/31/31
f 25/25/25 26/26/26 33/33/33
f 25/25/25 33/33/33 32/32/32
f 26/26/26 27/27/27 34/34/34
f 26/26/26 34/34/34 33/33/33
f 27/27/27 28/28/28 35/35/35
f 27/27/27 35/35/35 34/34/34
f 29/29/29 30/30/30 37/37/37
f 29/29/29 37/37/37 36/36/36
f 30/30/30 31/31/31 38/38/38
f 30/30/30 38/38/38 37/37/37
f 31/31/31 32/32/32 39/39/39
f 31/31/31 39/39/39 38/38/38
f 32/32/32 33/33/33 40/40/40
f 32/32/32 40/40/40 39/39/39
f 33/33/33 34/34/34 41/41/41
f 33/33/33 41/41/41 40/40/40
f 34/34/34 35/35/35 42/42/42
f 34/34/34 42/42/42 41/41/41
f 36/36/36 37/37/37 44/44/44
f 36/36/36 44/44/44 43/43/43
f 37/37/37 38/38/38 45/45/45
f 37/37/37 45/45/45 44/44/44
f 38/38/38 39/39/39 46/46/46
f 38/38/38 46/46/46 45/45/45
f 39/39/39 40/40/40 47/47/47
f 39/39/39 47/47/47 46/46/46
f 40/40/40 41/41/41 48/48/48
f 40/40/40 48/48/48 47/47/47
f 41/41/41 42/42/42 49/49/49
f 41/41/41 49/49/49 48/48/48
f 43/43/43 44/44/44 51/51/51
f 43/43/43 51/51/51 50/50/50
f 44/44/44 45/45/45 52/52/52
f 44/44/44 52/52/52 51/51/51
f 45/45/45 46/46/46 53/53/53
f 45/45/45 53/53/53 52/52/52
f 46/46/46 47/47/47 54/54/54
f 46/46/46 54/54/54 53/53/53
f 47/47/47 48/48/48 55/55/55
f 47/47/47 55/55/55 54/54/54
f 48/48/48 49/49/49 56/56/56
f 48/48/48 56/56/56 55/55/55
f 50/50/50 51/51/51 58/58/58
f 50/50/50 58/58/58 57/57/57
f 51/51/51 52/52/52 59/59/59
f 51/51/51 59/59/59 58/58/58
f 52/52/52 53/53/53 60/60/60
f 52/52/52 60/60/60 59/59/59
f 53/53/53 54/54/54 61/61/61
f 53/53/53 61/61/61 60/60/60
f 54/54/54 55/55/55 62/62/62
f 54/54/54 62/62/62 61/61/61
f 55/55/55 56/56/56 63/63/63
f 55/55/55 63/63/63 62/62/62
f 57/57/57 58/58/58 65/65/65
f 57/57/57 65/65/65 64/64/64
f 58/58/58 59/59/59 66/66/66
f 58/58/58 66/66/66 65/65/65
f 59/59/59 60/60/60 67/67/67
f 59/59/59 67/67/67 66/66/66
f 60/60/60 61/61/61 68/68/68
f 60/60/60 68/68/68 67/67/67
f 61/61/61 62/62/62 69/69/69
f 61/61/61 69/69/69 68/68/68
f 62/62/62 63/63/63 70/70/70
f 62/62/62 70/70/70 69/69/69
f 64/64/64 65/65/65 72/72/72
f 64/64/64 72/72/72 71/71/71
f 65/65/65 66/66/66 73/73/73
f 65/65/65 73/73/73 72/72/72
f 66/66/66 67/67/67 74/74/74
f 66/66/66 74/74/74 73/73/73
f 67/67/67 68/68/68 75/75/75
f 67/67/67 75/75/75 74/74/74
f 68/68/68 69/69/69 76/76/76
f 68/68/68 76/76/76 75/75/75
f 69/69/69 70/70/70 77/77/77
f 69/69/69 77/77/77 76/76/76
f 71/71/71 72/72/72 79/79/79
f 71/71/71 79/79/79 78/78/78
f 72/72/72 73/73/73 80/80/80
f 72/72/72 80/80/80 79/79/79
f 73/73/73 74/74/74 81/81/81
f 73/73/73 81/81/81 80/80/80
f 74/74/74 75/75/75 82/82/82
f 74/74/74 82/82/82 81/81/81
f 75/75/75 76/76/76 83/83/83
f 75/75/75 83/83/83 82/82/82
f 76/76/76 77/77/77 84/84/84
f 76/76/76 84/84/84 83/83/83
f 78/78/78 79/79/79 86/86/86
f 78/78/78 86/86/86 85/85/85
f 79/79/79 80/80/80 87/87/87
f 79/79/79 87/87/87 86/86/86
f 80/80/80 81/81/81 88/88/88
f 80/80/80 88/88/88 87/87/87
f 81/81/81 82/82/82 89/89/89
f 81/81/81 89/89/89 88/88/88
f 82/82/82 83/83/83 90/90/90
f 82/82/82 90/90/90 89/89/89
f 83/83/83 84/84/84 91/91/91
f 83/83/83 91/91/91 90/90/90
f 85/85/85 86/86/86 93/93/93
f 85/85/85 93/93/93 92/92/92
f 86/86/86 87/87/87 94/94/94
f 86/86/86 94/94/94 93/93/93
f 87/87/87 88/88/88 95/95/95
f 87/87/87 95/95/95 94/94/94
f 88/88/88 89/89/89 96/96/96
f 88/88/88 96/96/96 95/95/95
f 89/89/89 90/90/90 97/97/97
f 89/89/89 97/97/97 96/96/96
f 90/90/90 91/91/91 98/98/98
f 90/90/90 98/98/98 97/97/97
f 92/92/92 93/93/93 100/100/100
f 92/92/92 100/100/100 99/99/99
f 93/93/93 94/94/94 101/101/101
f 93/93/93 101/101/101 100/100/100
f 94/94/94 95/95/95 102/102/102
f 94/94/94 102/102/102 101/101/101
f 95/95/95 96/96/96 103/103/103
f 95/95/95 103/103/103 102/102/102
f 96/96/96 97/97/97 104/104/104
f 96/96/96 104/104/104 103/103/103
f 97/97/97 98/98/98 105/105/105
f 97/97/97 105/105/105 104/104/104
f 106/106/106 107/107/107 113/113/113
f 106/106/106 113/113/113 112/112/112
f 107/107/107 108/108/108 114/114/114
f 107/107/107 114/114/114 113/113/113
f 108/108/108 109/109/109 115/115/115
f 108/108/108 115/115/115 114/114/114
f 109/109/109 110/110/110 116/116/116
f 109/109/109 116/116/116 115/115/115
f 110/110/110 111/111/111 117/117/117
f 110/110/110 117/117/117 116/116/116
f 112/112/112 113/113/113 119/119/119
f 112/112/112 119/119/119 118/118/118
f 113/113/113 114/114/114 120/120/120
f 113/113/113 120/120/120 119/119/119
f 114/114/114 115/115/115 121/121/121
f 114/114/114 121/121/121 120/120/120
f 115/115/115 116/116/116 122/122/122
f 115/115/115 122/122/122 121/121/121
f 116/116/116 117/117/117 123/123/123
f 116/116/116 123/123/123 122/122/122
f 118/118/118 119/119/119 125/125/125
f 118/118/118 125/125/125 124/124/124
f 119/119/119 120/120/120 126/126/126
f 119/119/119 126/126/126 125/125/125
f 120/120/120 121/121/121 127/127/127
f 120/120/120 127/127/127 126/126/126
f 121/121/121 122/122/122 128/128/128
f 121/121/121 128/128/128 127/127/127
f 122/122/122 123/123/123 129/129/129
f 122/122/122 129/129/129 128/128/128
f 124/124/124 125/125/125 131/131/131
f 124/124/124 131/131/131 130/130/130
f 125/125/125 126/126/126 132/132/132
f 125/125/125 132/132/132 131/131/131
f 126/126/126 127/127/127 133/133/133
f 126/126/126 133/133/133 132/132/132
f 127/127/127 128/128/128 134/134/134
f 127/127/127 134/134/134 133/133/133
f 128/128/128 129/129/129 135/135/135
f 128/128/128 135/135/135 134/134/134
f 130/130/130 131/131/131 137/137/137
f 130/130/130 137/137/137 136/136/136
f 131/131/131 132/132/132 138/138/138
f 131/131/131 138/138/138 137/137/137
f 132/132/132 133/133/133 139/139/139
f 132/132/132 139/139/139 138/138/138
f 133/133/133 134/134/134 140/140/140
f 133/133/133 140/140/140 139/139/139
f 134/134/134 135/135/135 141/141/141
f 134/134/134 141/141/141 140/140/140
f 136/136/136 137/137/137 143/143/143
f 136/136/136 143/143/143 142/142/142
f 137/137/137 138/138/138 144/144/144
f 137/137/137 144/144/144 143/143/143
f 138/138/138 139/139/139 145/145/145
f 138/138/138 145/145/145 144/144/144
f 139/139/139 140/140/140 146/146/146
f 139/139/139 146/146/146 145/145/145
f 140/140/140 141/141/141 147/147/147
f 140/140/140 147/147/147 146/146/146
f 142/142/142 143/143/143 149/149/149
f 142/142/142 149/149/149 148/148/148
f 143/143/143 144/144/144 150/150/150
f 143/143/143 150/150/150 149/149/149
f 144/144/144 145/145/145 151/151/151
f 144/144/144 151/151/151 150/150/150
f 145/145/145 146/146/146 152/152/152
f 145/145/145 152/152/152 151/151/151
f 146/146/146 147/147/147 153/153/153
f 146/146/146 153/153/153 152/152/152
f 148/148/148 149/149/149 155/155/155
f 148/148/148 155/155/155 154/154/154
f 149/149/149 150/150/150 156/156/156
f 149/149/149 156/156/156 155/155/155
f 150/150/150 151/151/151 157/157/157
f 150/150/150 157/157/157 156/156/156
f 151/151/151 152/152/152 158/158/158
f 151/151/151 158/158/158 157/157/157
f 152/152/152 153/153/153 159/159/159
f 152/152/152 159/159/159 158/158/158
f 154/154/154 155/155/155 161/161/161
f 154/154/154 161/161/161 160/160/160
f 155/155/155 156/156/156 162/162/162
f 155/155/155 162/162/162 161/161/161
f 156/156/156 157/157/157 163/163/163
f 156/156/156 163/163/163 162/162/162
f 157/157/157 158/158/158 164/164/164
f 157/157/157 164/164/164 163/163/163
f 158/158/158 159/159/159 165/165/165
f 158/158/158 165/165/165 164/164/164
f 160/160/160 161/161/161 167/167/167
f 160/160/160 167/167/167 166/166/166
f 161/161/161 162/162/162 168/168/168
f 161/161/161 168/168/168 167/167/167
f 162/162/162 163/163/163 169/169/169
f 162/162/162 169/169/169 168/168/168
f 163/163/163 164/164/164 170/170/170
f 163/163/163 170/170/170 169/169/169
f 164/164/164 165/165/165 171/171/171
f 164/164/164 171/171/171 170/170/170
f 166/166/166 167/167/167 173/173/173
f 166/166/166 173/173/173 172/172/172
f 167/167/167 168/168/168 174/174/174
f 167/167/167 174/174/174 173/173/173
f 168/168/168 169/169/169 175/175/175
f 168/168/168 175/175/175 174/174/174
f 169/169/169 170/170/170 176/176/176
f 169/169/169 176/176/176 175/175/175
f 170/170/170 171/171/171 177/177/177
f 170/170/170 177/177/177 176/176/176
f 172/172/172 173/173/173 179/179/179
f 172/172/172 179/179/179 178/178/178
f 173/173/173 174/174/174 180/180/180
f 173/173/173 180/180/180 179/179/179
f 174/174/174 175/175/175 181/181/181
f 174/174/174 181/181/181 180/180/180
f 175/175/175 176/176/176 182/182/182
f 175/175/175 182/182/182 181/181/181
f 176/176/176 177/177/177 183/183/183
f 176/176/176 183/183/183 182/182/182
f 184/184/184 107/107/107 106/106/106
f 185/185/185 178/178/178 179/179/179
f 184/184/184 108/108/108 107/107/107
f 185/185/185 179/179/179 180/180/180
f 184/184/184 109/109/109 108/108/108
f 185/185/185 180/180/180 181/181/181
f 184/184/184 110/110/110 109/109/109
f 185/185/185 181/181/181 182/182/182
f 184/184/184 111/111/111 110/110/110
f 185/185/185 182/182/182 183/183/183
