# Original VFX mesh; Unity Y-up, +Z forward
o Lotus
v 0 -0.0007872779 -0.265603483
v 0 -0.00039363894 -0.265603483
v 0 0 -0.265603483
v 0 0.00039363894 -0.265603483
v 0 0.0007872779 -0.265603483
v 0.0625 -0.06811736 -0.214639366
v 0.0625 -0.03405868 -0.2404705
v 0.0625 0 -0.249080881
v 0.0625 0.03405868 -0.2404705
v 0.0625 0.06811736 -0.214639366
v 0.125 -0.107954755 -0.163897634
v 0.125 -0.0539773777 -0.211627334
v 0.125 0 -0.227537245
v 0.125 0.0539773777 -0.211627334
v 0.125 0.107954755 -0.163897634
v 0.1875 -0.131928787 -0.115156315
v 0.1875 -0.06596439 -0.177518189
v 0.1875 0 -0.198305473
v 0.1875 0.06596439 -0.177518189
v 0.1875 0.131928787 -0.115156315
v 0.25 -0.14 -0.06960348
v 0.25 -0.07 -0.137103483
v 0.25 0 -0.159603477
v 0.25 0.07 -0.137103483
v 0.25 0.14 -0.06960348
v 0.3125 -0.131928787 -0.0276563168
v 0.3125 -0.06596439 -0.09001818
v 0.3125 0 -0.110805474
v 0.3125 0.06596439 -0.09001818
v 0.3125 0.131928787 -0.0276563168
v 0.375 -0.107954755 0.0111023635
v 0.375 -0.0539773777 -0.0366273373
v 0.375 0 -0.05253724
v 0.375 0.0539773777 -0.0366273373
v 0.375 0.107954755 0.0111023635
v 0.4375 -0.0681173354 0.0478606224
v 0.4375 -0.0340586677 0.0220295042
v 0.4375 0 0.0134191364
v 0.4375 0.0340586677 0.0220295042
v 0.4375 0.0681173354 0.0478606224
v 0.5 -0.0007872779 0.0843965262
v 0.5 -0.00039363894 0.0843965262
v 0.5 0 0.0843965262
v 0.5 0.00039363894 0.0843965262
v 0.5 0.0007872779 0.0843965262
v 0.0005566895 -0.0005566895 -0.265603483
v 0.000278344756 -0.000278344756 -0.265603483
v 0 0 -0.265603483
v -0.000278344756 0.000278344756 -0.265603483
v -0.0005566895 0.0005566895 -0.265603483
v 0.09236042 -0.003972072 -0.214639366
v 0.0682773 0.02011105 -0.2404705
v 0.0441941731 0.0441941731 -0.249080881
v 0.02011105 0.0682773 -0.2404705
v -0.003972072 0.09236042 -0.214639366
v 0.164723888 0.0120528042 -0.163897634
v 0.126556113 0.0502205752 -0.211627334
v 0.0883883461 0.0883883461 -0.227537245
v 0.0502205752 0.126556113 -0.211627334
v 0.0120528042 0.164723888 -0.163897634
v 0.225870252 0.03929478 -0.115156315
v 0.179226384 0.08593865 -0.177518189
v 0.132582515 0.132582515 -0.198305473
v 0.08593865 0.179226384 -0.177518189
v 0.03929478 0.225870252 -0.115156315
v 0.275771648 0.0777817443 -0.06960348
v 0.226274163 0.127279222 -0.137103483
v 0.176776692 0.176776692 -0.159603477
v 0.127279222 0.226274163 -0.137103483
v 0.0777817443 0.275771648 -0.06960348
v 0.3142586 0.127683133 -0.0276563168
v 0.267614722 0.174327 -0.09001818
v 0.220970869 0.220970869 -0.110805474
v 0.174327 0.267614722 -0.09001818
v 0.127683133 0.3142586 -0.0276563168
v 0.34150058 0.188829482 0.0111023635
v 0.3033328 0.226997256 -0.0366273373
v 0.265165031 0.265165031 -0.05253724
v 0.226997256 0.3033328 -0.0366273373
v 0.188829482 0.34150058 0.0111023635
v 0.357525468 0.261192977 0.0478606224
v 0.33344233 0.285276115 0.0220295042
v 0.309359223 0.309359223 0.0134191364
v 0.285276115 0.33344233 0.0220295042
v 0.261192977 0.357525468 0.0478606224
v 0.354110062 0.3529967 0.0843965262
v 0.353831738 0.353275031 0.0843965262
v 0.353553385 0.353553385 0.0843965262
v 0.353275031 0.353831738 0.0843965262
v 0.3529967 0.354110062 0.0843965262
v 0.0007872779 3.441301E-11 -0.265603483
v 0.00039363894 1.72065053E-11 -0.265603483
v 0 0 -0.265603483
v -0.00039363894 -1.72065053E-11 -0.265603483
v -0.0007872779 -3.441301E-11 -0.265603483
v 0.06811736 0.0625 -0.214639366
v 0.0340586752 0.0625 -0.2404705
v -2.73196177E-09 0.0625 -0.249080881
v -0.0340586826 0.0625 -0.2404705
v -0.06811736 0.0624999963 -0.214639366
v 0.107954748 0.125 -0.163897634
v 0.053977374 0.125 -0.211627334
v -5.46392354E-09 0.125 -0.227537245
v -0.05397738 0.125 -0.211627334
v -0.107954763 0.124999993 -0.163897634
v 0.131928772 0.1875 -0.115156315
v 0.0659643859 0.1875 -0.177518189
v -8.195885E-09 0.1875 -0.198305473
v -0.0659644 0.1875 -0.177518189
v -0.1319288 0.1875 -0.115156315
v 0.139999986 0.25 -0.06960348
v 0.06999999 0.25 -0.137103483
v -1.09278471E-08 0.25 -0.159603477
v -0.07000001 0.25 -0.137103483
v -0.140000015 0.25 -0.06960348
v 0.131928772 0.3125 -0.0276563168
v 0.06596438 0.3125 -0.09001818
v -1.36598093E-08 0.3125 -0.110805474
v -0.06596441 0.3125 -0.09001818
v -0.1319288 0.3125 -0.0276563168
v 0.107954741 0.375 0.0111023635
v 0.0539773628 0.375 -0.0366273373
v -1.639177E-08 0.375 -0.05253724
v -0.0539773926 0.375 -0.0366273373
v -0.10795477 0.375 0.0111023635
v 0.06811731 0.4375 0.0478606224
v 0.03405865 0.4375 0.0220295042
v -1.91237319E-08 0.4375 0.0134191364
v -0.0340586863 0.4375 0.0220295042
v -0.06811736 0.4375 0.0478606224
v 0.000787256053 0.5 0.0843965262
v 0.000393617083 0.5 0.0843965262
v -2.18556941E-08 0.5 0.0843965262
v -0.0003936608 0.5 0.0843965262
v -0.0007872997 0.5 0.0843965262
v 0.0005566895 0.0005566895 -0.265603483
v 0.000278344756 0.000278344756 -0.265603483
v 0 0 -0.265603483
v -0.000278344756 -0.000278344756 -0.265603483
v -0.0005566895 -0.0005566895 -0.265603483
v 0.003972072 0.09236042 -0.214639366
v -0.02011105 0.0682773 -0.2404705
v -0.0441941731 0.0441941731 -0.249080881
v -0.0682773 0.02011105 -0.2404705
v -0.09236042 -0.003972072 -0.214639366
v -0.0120528042 0.164723888 -0.163897634
v -0.0502205752 0.126556113 -0.211627334
v -0.0883883461 0.0883883461 -0.227537245
v -0.126556113 0.0502205752 -0.211627334
v -0.164723888 0.0120528042 -0.163897634
v -0.03929478 0.225870252 -0.115156315
v -0.08593865 0.179226384 -0.177518189
v -0.132582515 0.132582515 -0.198305473
v -0.179226384 0.08593865 -0.177518189
v -0.225870252 0.03929478 -0.115156315
v -0.0777817443 0.275771648 -0.06960348
v -0.127279222 0.226274163 -0.137103483
v -0.176776692 0.176776692 -0.159603477
v -0.226274163 0.127279222 -0.137103483
v -0.275771648 0.0777817443 -0.06960348
v -0.127683133 0.3142586 -0.0276563168
v -0.174327 0.267614722 -0.09001818
v -0.220970869 0.220970869 -0.110805474
v -0.267614722 0.174327 -0.09001818
v -0.3142586 0.127683133 -0.0276563168
v -0.188829482 0.34150058 0.0111023635
v -0.226997256 0.3033328 -0.0366273373
v -0.265165031 0.265165031 -0.05253724
v -0.3033328 0.226997256 -0.0366273373
v -0.34150058 0.188829482 0.0111023635
v -0.261192977 0.357525468 0.0478606224
v -0.285276115 0.33344233 0.0220295042
v -0.309359223 0.309359223 0.0134191364
v -0.33344233 0.285276115 0.0220295042
v -0.357525468 0.261192977 0.0478606224
v -0.3529967 0.354110062 0.0843965262
v -0.353275031 0.353831738 0.0843965262
v -0.353553385 0.353553385 0.0843965262
v -0.353831738 0.353275031 0.0843965262
v -0.354110062 0.3529967 0.0843965262
v -6.882602E-11 0.0007872779 -0.265603483
v -3.441301E-11 0.00039363894 -0.265603483
v 0 0 -0.265603483
v 3.441301E-11 -0.00039363894 -0.265603483
v 6.882602E-11 -0.0007872779 -0.265603483
v -0.06250001 0.06811735 -0.214639366
v -0.0625 0.0340586752 -0.2404705
v -0.0625 -5.46392354E-09 -0.249080881
v -0.0624999963 -0.0340586826 -0.2404705
v -0.0624999925 -0.0681173652 -0.214639366
v -0.125000015 0.107954748 -0.163897634
v -0.125 0.0539773665 -0.211627334
v -0.125 -1.09278471E-08 -0.227537245
v -0.124999993 -0.05397739 -0.211627334
v -0.124999993 -0.107954763 -0.163897634
v -0.187500015 0.131928772 -0.115156315
v -0.1875 0.06596438 -0.177518189
v -0.1875 -1.639177E-08 -0.198305473
v -0.1875 -0.06596441 -0.177518189
v -0.187499985 -0.1319288 -0.115156315
v -0.25 0.139999986 -0.06960348
v -0.25 0.06999998 -0.137103483
v -0.25 -2.18556941E-08 -0.159603477
v -0.25 -0.07000002 -0.137103483
v -0.249999985 -0.140000015 -0.06960348
v -0.3125 0.131928757 -0.0276563168
v -0.3125 0.06596436 -0.09001818
v -0.3125 -2.73196186E-08 -0.110805474
v -0.3125 -0.06596442 -0.09001818
v -0.3125 -0.131928816 -0.0276563168
v -0.375 0.107954726 0.0111023635
v -0.375 0.0539773442 -0.0366273373
v -0.375 -3.278354E-08 -0.05253724
v -0.375 -0.05397741 -0.0366273373
v -0.375 -0.107954785 0.0111023635
v -0.4375 0.0681173 0.0478606224
v -0.4375 0.03405863 0.0220295042
v -0.4375 -3.82474639E-08 0.0134191364
v -0.4375 -0.034058705 0.0220295042
v -0.4375 -0.06811737 0.0478606224
v -0.5 0.000787234167 0.0843965262
v -0.5 0.000393595226 0.0843965262
v -0.5 -4.371139E-08 0.0843965262
v -0.5 -0.000393682654 0.0843965262
v -0.5 -0.0007873216 0.0843965262
v -0.0005566896 0.0005566894 -0.265603483
v -0.0002783448 0.0002783447 -0.265603483
v 0 0 -0.265603483
v 0.0002783448 -0.0002783447 -0.265603483
v 0.0005566896 -0.0005566894 -0.265603483
v -0.09236042 0.00397205725 -0.214639366
v -0.06827729 -0.0201110616 -0.2404705
v -0.0441941656 -0.04419418 -0.249080881
v -0.02011104 -0.0682773 -0.2404705
v 0.003972087 -0.09236042 -0.214639366
v -0.164723873 -0.012052834 -0.163897634
v -0.1265561 -0.0502205975 -0.211627334
v -0.08838833 -0.08838836 -0.227537245
v -0.0502205566 -0.126556128 -0.211627334
v -0.0120527819 -0.164723888 -0.163897634
v -0.225870252 -0.039294824 -0.115156315
v -0.179226369 -0.0859386846 -0.177518189
v -0.1325825 -0.132582545 -0.198305473
v -0.085938625 -0.1792264 -0.177518189
v -0.03929475 -0.225870267 -0.115156315
v -0.275771618 -0.07778179 -0.06960348
v -0.226274148 -0.127279252 -0.137103483
v -0.176776662 -0.176776722 -0.159603477
v -0.127279177 -0.226274192 -0.137103483
v -0.0777817 -0.275771648 -0.06960348
v -0.314258575 -0.127683178 -0.0276563168
v -0.2676147 -0.174327046 -0.09001818
v -0.220970824 -0.2209709 -0.110805474
v -0.174326956 -0.267614752 -0.09001818
v -0.127683073 -0.314258635 -0.0276563168
v -0.341500551 -0.188829571 0.0111023635
v -0.303332776 -0.226997331 -0.0366273373
v -0.265165 -0.2651651 -0.05253724
v -0.226997226 -0.303332865 -0.0366273373
v -0.188829452 -0.3415006 0.0111023635
v -0.3575254 -0.261193037 0.0478606224
v -0.333442271 -0.285276145 0.0220295042
v -0.309359163 -0.309359252 0.0134191364
v -0.285276055 -0.33344236 0.0220295042
v -0.261192918 -0.357525468 0.0478606224
v -0.35411 -0.352996767 0.0843965262
v -0.353831679 -0.3532751 0.0843965262
v -0.353553325 -0.353553444 0.0843965262
v -0.353274971 -0.3538318 0.0843965262
v -0.352996647 -0.354110122 0.0843965262
v -0.0007872779 -9.388195E-12 -0.265603483
v -0.00039363894 -4.69409754E-12 -0.265603483
v 0 0 -0.265603483
v 0.00039363894 4.69409754E-12 -0.265603483
v 0.0007872779 9.388195E-12 -0.265603483
v -0.06811736 -0.0625 -0.214639366
v -0.03405868 -0.0625 -0.2404705
v 7.4530504E-10 -0.0625 -0.249080881
v 0.03405868 -0.0625 -0.2404705
v 0.06811736 -0.0625 -0.214639366
v -0.107954755 -0.125 -0.163897634
v -0.0539773777 -0.125 -0.211627334
v 1.49061008E-09 -0.125 -0.227537245
v 0.0539773777 -0.125 -0.211627334
v 0.107954755 -0.125 -0.163897634
v -0.131928787 -0.1875 -0.115156315
v -0.06596439 -0.1875 -0.177518189
v 2.235915E-09 -0.1875 -0.198305473
v 0.06596439 -0.1875 -0.177518189
v 0.131928787 -0.1875 -0.115156315
v -0.14 -0.25 -0.06960348
v -0.07 -0.25 -0.137103483
v 2.98122016E-09 -0.25 -0.159603477
v 0.07 -0.25 -0.137103483
v 0.14 -0.25 -0.06960348
v -0.131928787 -0.3125 -0.0276563168
v -0.0659643859 -0.3125 -0.09001818
v 3.72652531E-09 -0.3125 -0.110805474
v 0.0659644 -0.3125 -0.09001818
v 0.131928787 -0.3125 -0.0276563168
v -0.107954748 -0.375 0.0111023635
v -0.053977374 -0.375 -0.0366273373
v 4.47183E-09 -0.375 -0.05253724
v 0.05397738 -0.375 -0.0366273373
v 0.107954763 -0.375 0.0111023635
v -0.06811733 -0.4375 0.0478606224
v -0.034058664 -0.4375 0.0220295042
v 5.217135E-09 -0.4375 0.0134191364
v 0.03405867 -0.4375 0.0220295042
v 0.06811734 -0.4375 0.0478606224
v -0.000787271943 -0.5 0.0843965262
v -0.000393632974 -0.5 0.0843965262
v 5.96244032E-09 -0.5 0.0843965262
v 0.0003936449 -0.5 0.0843965262
v 0.0007872838 -0.5 0.0843965262
v -0.000556689338 -0.0005566897 -0.265603483
v -0.000278344669 -0.000278344844 -0.265603483
v 0 0 -0.265603483
v 0.000278344669 0.000278344844 -0.265603483
v 0.000556689338 0.0005566897 -0.265603483
v -0.00397204235 -0.09236042 -0.214639366
v 0.0201110728 -0.0682772845 -0.2404705
v 0.044194188 -0.04419416 -0.249080881
v 0.0682773 -0.0201110281 -0.2404705
v 0.09236042 0.003972102 -0.214639366
v 0.0120528638 -0.164723873 -0.163897634
v 0.05022062 -0.1265561 -0.211627334
v 0.0883883759 -0.08838832 -0.227537245
v 0.126556128 -0.0502205342 -0.211627334
v 0.164723888 -0.0120527521 -0.163897634
v 0.0392948538 -0.225870237 -0.115156315
v 0.08593871 -0.179226354 -0.177518189
v 0.13258256 -0.132582471 -0.198305473
v 0.179226413 -0.08593859 -0.177518189
v 0.225870267 -0.0392947048 -0.115156315
v 0.07778183 -0.275771618 -0.06960348
v 0.1272793 -0.226274118 -0.137103483
v 0.176776752 -0.176776633 -0.159603477
v 0.2262742 -0.127279148 -0.137103483
v 0.275771677 -0.0777816549 -0.06960348
v 0.127683237 -0.314258575 -0.0276563168
v 0.17432709 -0.267614663 -0.09001818
v 0.220970944 -0.2209708 -0.110805474
v 0.267614782 -0.174326912 -0.09001818
v 0.314258635 -0.127683029 -0.0276563168
v 0.1888296 -0.341500521 0.0111023635
v 0.226997361 -0.303332716 -0.0366273373
v 0.26516512 -0.265164942 -0.05253724
v 0.303332865 -0.226997167 -0.0366273373
v 0.34150064 -0.188829377 0.0111023635
v 0.2611931 -0.357525349 0.0478606224
v 0.2852762 -0.3334422 0.0220295042
v 0.3093593 -0.3093591 0.0134191364
v 0.33344242 -0.285276 0.0220295042
v 0.357525527 -0.261192858 0.0478606224
v 0.352996826 -0.354109943 0.0843965262
v 0.35327515 -0.353831619 0.0843965262
v 0.3535535 -0.353553265 0.0843965262
v 0.353831857 -0.3532749 0.0843965262
v 0.354110181 -0.3529966 0.0843965262
v 0.000184923163 -0.0006196891 -0.265603483
v 9.246158E-05 -0.00030984456 -0.265603483
v 0 0 -0.265603483
v -9.246158E-05 0.00030984456 -0.265603483
v -0.000184923163 0.0006196891 -0.265603483
v 0.0543297939 -0.0421790555 -0.189639375
v 0.046329774 -0.0153704826 -0.215470508
v 0.038329754 0.0114380885 -0.22408089
v 0.0303297341 0.03824666 -0.215470508
v 0.0223297141 0.06505523 -0.189639375
v 0.102016926 -0.0620981343 -0.113897637
v 0.08933822 -0.0196109787 -0.161627337
v 0.07665951 0.022876177 -0.177537248
v 0.0639807954 0.06536333 -0.161627337
v 0.05130209 0.107850492 -0.113897637
v 0.145977929 -0.06953069 -0.0401563123
v 0.1304836 -0.01760821 -0.102518179
v 0.114989266 0.0343142673 -0.12330547
v 0.0994949341 0.0862367451 -0.102518179
v 0.0840006 0.138159215 -0.0401563123
v 0.186203524 -0.06444569 0.0303965211
v 0.16976127 -0.009346668 -0.03710348
v 0.153319016 0.045752354 -0.0596034825
v 0.136876762 0.100851372 -0.03710348
v 0.120434508 0.1559504 0.0303965211
v 0.22263743 -0.046654515 0.09734368
v 0.2071431 0.005267963 0.034981817
v 0.191648766 0.05719044 0.0141945183
v 0.176154435 0.109112918 0.034981817
v 0.1606601 0.161035389 0.09734368
v 0.255335957 -0.0163457766 0.161102355
v 0.242657244 0.026141379 0.113372654
v 0.229978532 0.0686285347 0.09746276
v 0.217299819 0.111115694 0.113372654
v 0.2046211 0.153602839 0.161102355
v 0.2843083 0.0264495015 0.222860634
v 0.2763083 0.05325806 0.1970295
v 0.268308282 0.08006662 0.188419133
v 0.260308266 0.106875181 0.1970295
v 0.252308249 0.133683741 0.222860634
v 0.306822956 0.09088502 0.284396529
v 0.306730479 0.09119486 0.284396529
v 0.306638032 0.09150471 0.284396529
v 0.3065456 0.0918145552 0.284396529
v 0.3064531 0.0921243951 0.284396529
v 0.000629128132 -0.000149696425 -0.265603483
v 0.000314564066 -7.484821E-05 -0.265603483
v 0 0 -0.265603483
v -0.000314564066 7.484821E-05 -0.265603483
v -0.000629128132 0.000149696425 -0.265603483
v 0.06369303 0.025961455 -0.189639375
v 0.0364761166 0.03243752 -0.215470508
v 0.00925920252 0.0389135852 -0.22408089
v -0.0179577135 0.0453896523 -0.215470508
v -0.04517463 0.0518657155 -0.189639375
v 0.104787022 0.0573001839 -0.113897637
v 0.0616527125 0.0675636753 -0.161627337
v 0.018518405 0.07782717 -0.177537248
v -0.0246159043 0.0880906656 -0.161627337
v -0.0677502155 0.09835416 -0.113897637
v 0.133204311 0.09165525 -0.0401563123
v 0.08049096 0.104198 -0.102518179
v 0.0277776085 0.116740756 -0.12330547
v -0.0249357447 0.129283518 -0.102518179
v -0.0776491 0.141826272 -0.0401563123
v 0.148913369 0.129034132 0.0303965211
v 0.0929750949 0.142344236 -0.03710348
v 0.03703681 0.155654341 -0.0596034825
v -0.018901471 0.168964446 -0.03710348
v -0.0748397559 0.18227455 0.0303965211
v 0.151722714 0.16948241 0.09734368
v 0.0990093648 0.182025164 0.034981817
v 0.04629601 0.194567919 0.0141945183
v -0.00641734153 0.207110673 0.034981817
v -0.0591306947 0.219653428 0.09734368
v 0.141823828 0.212954521 0.161102355
v 0.09868953 0.223218024 0.113372654
v 0.055555217 0.233481511 0.09746276
v 0.0124209076 0.243745 0.113372654
v -0.0307134017 0.2540085 0.161102355
v 0.119248226 0.259442985 0.222860634
v 0.09203132 0.26591903 0.1970295
v 0.06481442 0.2723951 0.188419133
v 0.0375975147 0.278871179 0.1970295
v 0.0103806108 0.285347223 0.222860634
v 0.07470275 0.311158985 0.284396529
v 0.07438818 0.311233848 0.284396529
v 0.07407362 0.311308682 0.284396529
v 0.07375906 0.311383516 0.284396529
v 0.07344449 0.311458379 0.284396529
v 0.000444204925 0.000469992752 -0.265603483
v 0.000222102462 0.000234996376 -0.265603483
v 0 0 -0.265603483
v -0.000222102462 -0.000234996376 -0.265603483
v -0.000444204925 -0.000469992752 -0.265603483
v 0.009363234 0.06814051 -0.189639375
v -0.009853659 0.0478080027 -0.215470508
v -0.0290705524 0.0274754949 -0.22408089
v -0.0482874438 0.007142987 -0.215470508
v -0.06750434 -0.0131895207 -0.189639375
v 0.00277009234 0.119398318 -0.113897637
v -0.0276855063 0.087174654 -0.161627337
v -0.0581411049 0.05495099 -0.177537248
v -0.0885967 0.0227273256 -0.161627337
v -0.119052306 -0.009496339 -0.113897637
v -0.0127736181 0.16118595 -0.0401563123
v -0.0499926358 0.121806219 -0.102518179
v -0.08721165 0.08242649 -0.12330547
v -0.124430671 0.04304676 -0.102518179
v -0.161649689 0.00366703421 -0.0401563123
v -0.0372901559 0.193479821 0.0303965211
v -0.07678618 0.1516909 -0.03710348
v -0.11628221 0.10990198 -0.0596034825
v -0.155778229 0.06811306 -0.03710348
v -0.195274264 0.026324138 0.0303965211
v -0.07091473 0.216136932 0.09734368
v -0.108133748 0.1767572 0.034981817
v -0.145352766 0.137377471 0.0141945183
v -0.182571784 0.09799774 0.034981817
v -0.2197908 0.0586180165 0.09734368
v -0.113512114 0.2293003 0.161102355
v -0.1439677 0.197076648 0.113372654
v -0.1744233 0.164852977 0.09746276
v -0.204878911 0.1326293 0.113372654
v -0.2353345 0.100405648 0.161102355
v -0.165060088 0.232993469 0.222860634
v -0.184276983 0.212660968 0.1970295
v -0.203493863 0.192328468 0.188419133
v -0.222710744 0.171995968 0.1970295
v -0.241927639 0.151663467 0.222860634
v -0.232120216 0.220273957 0.284396529
v -0.232342318 0.22003895 0.284396529
v -0.23256442 0.219803959 0.284396529
v -0.232786521 0.219568968 0.284396529
v -0.233008623 0.219333962 0.284396529
v -0.000184923192 0.0006196891 -0.265603483
v -9.24615961E-05 0.00030984456 -0.265603483
v 0 0 -0.265603483
v 9.24615961E-05 -0.00030984456 -0.265603483
v 0.000184923192 -0.0006196891 -0.265603483
v -0.0543297976 0.04217905 -0.189639375
v -0.046329774 0.0153704807 -0.215470508
v -0.038329754 -0.01143809 -0.22408089
v -0.0303297322 -0.03824666 -0.215470508
v -0.02232971 -0.0650552362 -0.189639375
v -0.102016933 0.06209813 -0.113897637
v -0.08933822 0.0196109749 -0.161627337
v -0.07665951 -0.02287618 -0.177537248
v -0.0639807954 -0.06536333 -0.161627337
v -0.0513020828 -0.107850492 -0.113897637
v -0.145977929 0.06953068 -0.0401563123
v -0.1304836 0.0176082067 -0.102518179
v -0.114989266 -0.03431427 -0.12330547
v -0.0994949341 -0.0862367451 -0.102518179
v -0.0840005949 -0.13815923 -0.0401563123
v -0.186203524 0.06444568 0.0303965211
v -0.16976127 0.00934666 -0.03710348
v -0.153319016 -0.04575236 -0.0596034825
v -0.136876762 -0.100851387 -0.03710348
v -0.120434508 -0.1559504 0.0303965211
v -0.22263743 0.0466545038 0.09734368
v -0.2071431 -0.005267974 0.034981817
v -0.191648766 -0.05719045 0.0141945183
v -0.176154435 -0.109112933 0.034981817
v -0.1606601 -0.1610354 0.09734368
v -0.255335957 0.01634577 0.161102355
v -0.242657244 -0.0261413865 0.113372654
v -0.229978532 -0.06862854 0.09746276
v -0.217299819 -0.111115694 0.113372654
v -0.2046211 -0.153602853 0.161102355
v -0.2843083 -0.0264495164 0.222860634
v -0.2763083 -0.0532580763 0.1970295
v -0.268308282 -0.0800666362 0.188419133
v -0.260308266 -0.106875196 0.1970295
v -0.252308249 -0.133683756 0.222860634
v -0.306822956 -0.0908850357 0.284396529
v -0.306730479 -0.0911948755 0.284396529
v -0.306638032 -0.09150472 0.284396529
v -0.3065456 -0.09181457 0.284396529
v -0.3064531 -0.09212441 0.284396529
v -0.000629128132 0.000149696367 -0.265603483
v -0.000314564066 7.484818E-05 -0.265603483
v 0 0 -0.265603483
v 0.000314564066 -7.484818E-05 -0.265603483
v 0.000629128132 -0.000149696367 -0.265603483
v -0.06369303 -0.0259614587 -0.189639375
v -0.0364761129 -0.032437522 -0.215470508
v -0.009259199 -0.0389135852 -0.22408089
v 0.0179577172 -0.04538965 -0.215470508
v 0.0451746322 -0.05186571 -0.189639375
v -0.104787014 -0.0573001951 -0.113897637
v -0.0616527051 -0.06756368 -0.161627337
v -0.0185183976 -0.07782717 -0.177537248
v 0.0246159118 -0.08809066 -0.161627337
v 0.06775022 -0.0983541459 -0.113897637
v -0.133204311 -0.0916552544 -0.0401563123
v -0.08049095 -0.104198009 -0.102518179
v -0.0277775973 -0.116740756 -0.12330547
v 0.0249357559 -0.1292835 -0.102518179
v 0.07764911 -0.141826257 -0.0401563123
v -0.148913354 -0.129034147 0.0303965211
v -0.09297508 -0.142344236 -0.03710348
v -0.0370367952 -0.155654341 -0.0596034825
v 0.0189014859 -0.168964446 -0.03710348
v 0.07483977 -0.182274535 0.0303965211
v -0.1517227 -0.16948241 0.09734368
v -0.09900935 -0.182025164 0.034981817
v -0.046295993 -0.194567919 0.0141945183
v 0.00641736 -0.207110673 0.034981817
v 0.0591307133 -0.219653428 0.09734368
v -0.141823813 -0.212954536 0.161102355
v -0.098689504 -0.223218024 0.113372654
v -0.0555551946 -0.233481511 0.09746276
v -0.0124208853 -0.243745 0.113372654
v 0.0307134241 -0.2540085 0.161102355
v -0.1192482 -0.259442985 0.222860634
v -0.09203129 -0.26591903 0.1970295
v -0.06481439 -0.2723951 0.188419133
v -0.0375974849 -0.278871179 0.1970295
v -0.010380581 -0.285347223 0.222860634
v -0.07470272 -0.311158985 0.284396529
v -0.0743881539 -0.311233848 0.284396529
v -0.07407359 -0.311308682 0.284396529
v -0.07375903 -0.311383516 0.284396529
v -0.07344446 -0.311458379 0.284396529
v -0.0004442048 -0.0004699929 -0.265603483
v -0.0002221024 -0.000234996449 -0.265603483
v 0 0 -0.265603483
v 0.0002221024 0.000234996449 -0.265603483
v 0.0004442048 0.0004699929 -0.265603483
v -0.009363214 -0.0681405142 -0.189639375
v 0.009853674 -0.047808 -0.215470508
v 0.0290705618 -0.0274754874 -0.22408089
v 0.04828745 -0.007142974 -0.215470508
v 0.06750434 0.0131895393 -0.189639375
v -0.00277005881 -0.119398326 -0.113897637
v 0.0276855323 -0.087174654 -0.161627337
v 0.0581411235 -0.0549509749 -0.177537248
v 0.08859672 -0.0227273 -0.161627337
v 0.119052306 0.009496376 -0.113897637
v 0.01277367 -0.161185935 -0.0401563123
v 0.0499926768 -0.1218062 -0.102518179
v 0.08721168 -0.08242646 -0.12330547
v 0.124430686 -0.04304672 -0.102518179
v 0.1616497 -0.003666982 -0.0401563123
v 0.0372902155 -0.193479821 0.0303965211
v 0.076786235 -0.151690885 -0.03710348
v 0.116282247 -0.10990195 -0.0596034825
v 0.155778259 -0.0681130141 -0.03710348
v 0.195274279 -0.0263240784 0.0303965211
v 0.0709148 -0.216136917 0.09734368
v 0.108133808 -0.176757187 0.034981817
v 0.145352811 -0.137377441 0.0141945183
v 0.182571813 -0.0979977 0.034981817
v 0.219790816 -0.0586179644 0.09734368
v 0.113512188 -0.229300261 0.161102355
v 0.143967777 -0.197076589 0.113372654
v 0.174423367 -0.164852917 0.09746276
v 0.204878956 -0.132629246 0.113372654
v 0.235334545 -0.100405566 0.161102355
v 0.165060177 -0.232993424 0.222860634
v 0.184277058 -0.212660909 0.1970295
v 0.203493938 -0.192328408 0.188419133
v 0.222710818 -0.171995908 0.1970295
v 0.2419277 -0.1516634 0.222860634
v 0.23212029 -0.2202739 0.284396529
v 0.232342392 -0.220038891 0.284396529
v 0.2325645 -0.2198039 0.284396529
v 0.2327866 -0.219568908 0.284396529
v 0.2330087 -0.2193339 0.284396529
v 0 0.12 -0.225603476
v 0 0.12 -0.225603476
v 0 0.12 -0.225603476
v 0 0.12 -0.225603476
v 0 0.12 -0.225603476
v 0 0.12 -0.225603476
v 0 0.12 -0.225603476
v 0 0.12 -0.225603476
v 0 0.12 -0.225603476
v 0 0.12 -0.225603476
v 0 0.12 -0.225603476
v 0.07053423 0.09708204 -0.225603476
v 0.05706339 0.09708204 -0.203146532
v 0.0217962731 0.09708204 -0.189267367
v -0.0217962861 0.09708204 -0.189267367
v -0.0570633933 0.09708204 -0.203146532
v -0.07053423 0.09708204 -0.225603476
v -0.0570633747 0.09708204 -0.248060435
v -0.0217962824 0.09708204 -0.2619396
v 0.0217962842 0.09708204 -0.2619396
v 0.0570633821 0.09708204 -0.24806042
v 0.07053423 0.09708204 -0.225603461
v 0.114126779 0.0370820351 -0.225603476
v 0.09233051 0.0370820351 -0.189267367
v 0.0352671146 0.0370820351 -0.166810423
v -0.0352671333 0.0370820351 -0.166810423
v -0.0923305154 0.0370820351 -0.189267367
v -0.114126779 0.0370820351 -0.225603491
v -0.09233048 0.0370820351 -0.2619396
v -0.03526713 0.0370820351 -0.284396529
v 0.03526713 0.0370820351 -0.284396529
v 0.0923305 0.0370820351 -0.2619396
v 0.114126779 0.0370820351 -0.225603461
v 0.114126772 -0.0370820574 -0.225603476
v 0.0923305 -0.0370820574 -0.189267367
v 0.03526711 -0.0370820574 -0.166810423
v -0.0352671333 -0.0370820574 -0.166810423
v -0.09233051 -0.0370820574 -0.189267382
v -0.114126772 -0.0370820574 -0.225603491
v -0.09233047 -0.0370820574 -0.2619396
v -0.0352671258 -0.0370820574 -0.284396529
v 0.03526713 -0.0370820574 -0.284396529
v 0.09233049 -0.0370820574 -0.2619396
v 0.114126772 -0.0370820574 -0.225603461
v 0.07053422 -0.09708205 -0.225603476
v 0.0570633821 -0.09708205 -0.203146532
v 0.0217962712 -0.09708205 -0.189267367
v -0.0217962842 -0.09708205 -0.189267382
v -0.0570633858 -0.09708205 -0.203146532
v -0.07053422 -0.09708205 -0.225603476
v -0.0570633672 -0.09708205 -0.248060435
v -0.0217962787 -0.09708205 -0.2619396
v 0.0217962824 -0.09708205 -0.2619396
v 0.0570633821 -0.09708205 -0.24806042
v 0.07053422 -0.09708205 -0.225603461
v -1.04907327E-08 -0.12 -0.225603476
v -8.487182E-09 -0.12 -0.225603476
v -3.24181459E-09 -0.12 -0.225603491
v 3.24181637E-09 -0.12 -0.225603491
v 8.487182E-09 -0.12 -0.225603476
v 1.04907327E-08 -0.12 -0.225603476
v 8.487179E-09 -0.12 -0.225603476
v 3.2418157E-09 -0.12 -0.225603461
v -3.24181615E-09 -0.12 -0.225603461
v -8.487181E-09 -0.12 -0.225603476
v -1.04907327E-08 -0.12 -0.225603476
vt 0 0
vt 0.25 0
vt 0.5 0
vt 0.75 0
vt 1 0
vt 0 0.125
vt 0.25 0.125
vt 0.5 0.125
vt 0.75 0.125
vt 1 0.125
vt 0 0.25
vt 0.25 0.25
vt 0.5 0.25
vt 0.75 0.25
vt 1 0.25
vt 0 0.375
vt 0.25 0.375
vt 0.5 0.375
vt 0.75 0.375
vt 1 0.375
vt 0 0.5
vt 0.25 0.5
vt 0.5 0.5
vt 0.75 0.5
vt 1 0.5
vt 0 0.625
vt 0.25 0.625
vt 0.5 0.625
vt 0.75 0.625
vt 1 0.625
vt 0 0.75
vt 0.25 0.75
vt 0.5 0.75
vt 0.75 0.75
vt 1 0.75
vt 0 0.875
vt 0.25 0.875
vt 0.5 0.875
vt 0.75 0.875
vt 1 0.875
vt 0 1
vt 0.25 1
vt 0.5 1
vt 0.75 1
vt 1 1
vt 0 0
vt 0.25 0
vt 0.5 0
vt 0.75 0
vt 1 0
vt 0 0.125
vt 0.25 0.125
vt 0.5 0.125
vt 0.75 0.125
vt 1 0.125
vt 0 0.25
vt 0.25 0.25
vt 0.5 0.25
vt 0.75 0.25
vt 1 0.25
vt 0 0.375
vt 0.25 0.375
vt 0.5 0.375
vt 0.75 0.375
vt 1 0.375
vt 0 0.5
vt 0.25 0.5
vt 0.5 0.5
vt 0.75 0.5
vt 1 0.5
vt 0 0.625
vt 0.25 0.625
vt 0.5 0.625
vt 0.75 0.625
vt 1 0.625
vt 0 0.75
vt 0.25 0.75
vt 0.5 0.75
vt 0.75 0.75
vt 1 0.75
vt 0 0.875
vt 0.25 0.875
vt 0.5 0.875
vt 0.75 0.875
vt 1 0.875
vt 0 1
vt 0.25 1
vt 0.5 1
vt 0.75 1
vt 1 1
vt 0 0
vt 0.25 0
vt 0.5 0
vt 0.75 0
vt 1 0
vt 0 0.125
vt 0.25 0.125
vt 0.5 0.125
vt 0.75 0.125
vt 1 0.125
vt 0 0.25
vt 0.25 0.25
vt 0.5 0.25
vt 0.75 0.25
vt 1 0.25
vt 0 0.375
vt 0.25 0.375
vt 0.5 0.375
vt 0.75 0.375
vt 1 0.375
vt 0 0.5
vt 0.25 0.5
vt 0.5 0.5
vt 0.75 0.5
vt 1 0.5
vt 0 0.625
vt 0.25 0.625
vt 0.5 0.625
vt 0.75 0.625
vt 1 0.625
vt 0 0.75
vt 0.25 0.75
vt 0.5 0.75
vt 0.75 0.75
vt 1 0.75
vt 0 0.875
vt 0.25 0.875
vt 0.5 0.875
vt 0.75 0.875
vt 1 0.875
vt 0 1
vt 0.25 1
vt 0.5 1
vt 0.75 1
vt 1 1
vt 0 0
vt 0.25 0
vt 0.5 0
vt 0.75 0
vt 1 0
vt 0 0.125
vt 0.25 0.125
vt 0.5 0.125
vt 0.75 0.125
vt 1 0.125
vt 0 0.25
vt 0.25 0.25
vt 0.5 0.25
vt 0.75 0.25
vt 1 0.25
vt 0 0.375
vt 0.25 0.375
vt 0.5 0.375
vt 0.75 0.375
vt 1 0.375
vt 0 0.5
vt 0.25 0.5
vt 0.5 0.5
vt 0.75 0.5
vt 1 0.5
vt 0 0.625
vt 0.25 0.625
vt 0.5 0.625
vt 0.75 0.625
vt 1 0.625
vt 0 0.75
vt 0.25 0.75
vt 0.5 0.75
vt 0.75 0.75
vt 1 0.75
vt 0 0.875
vt 0.25 0.875
vt 0.5 0.875
vt 0.75 0.875
vt 1 0.875
vt 0 1
vt 0.25 1
vt 0.5 1
vt 0.75 1
vt 1 1
vt 0 0
vt 0.25 0
vt 0.5 0
vt 0.75 0
vt 1 0
vt 0 0.125
vt 0.25 0.125
vt 0.5 0.125
vt 0.75 0.125
vt 1 0.125
vt 0 0.25
vt 0.25 0.25
vt 0.5 0.25
vt 0.75 0.25
vt 1 0.25
vt 0 0.375
vt 0.25 0.375
vt 0.5 0.375
vt 0.75 0.375
vt 1 0.375
vt 0 0.5
vt 0.25 0.5
vt 0.5 0.5
vt 0.75 0.5
vt 1 0.5
vt 0 0.625
vt 0.25 0.625
vt 0.5 0.625
vt 0.75 0.625
vt 1 0.625
vt 0 0.75
vt 0.25 0.75
vt 0.5 0.75
vt 0.75 0.75
vt 1 0.75
vt 0 0.875
vt 0.25 0.875
vt 0.5 0.875
vt 0.75 0.875
vt 1 0.875
vt 0 1
vt 0.25 1
vt 0.5 1
vt 0.75 1
vt 1 1
vt 0 0
vt 0.25 0
vt 0.5 0
vt 0.75 0
vt 1 0
vt 0 0.125
vt 0.25 0.125
vt 0.5 0.125
vt 0.75 0.125
vt 1 0.125
vt 0 0.25
vt 0.25 0.25
vt 0.5 0.25
vt 0.75 0.25
vt 1 0.25
vt 0 0.375
vt 0.25 0.375
vt 0.5 0.375
vt 0.75 0.375
vt 1 0.375
vt 0 0.5
vt 0.25 0.5
vt 0.5 0.5
vt 0.75 0.5
vt 1 0.5
vt 0 0.625
vt 0.25 0.625
vt 0.5 0.625
vt 0.75 0.625
vt 1 0.625
vt 0 0.75
vt 0.25 0.75
vt 0.5 0.75
vt 0.75 0.75
vt 1 0.75
vt 0 0.875
vt 0.25 0.875
vt 0.5 0.875
vt 0.75 0.875
vt 1 0.875
vt 0 1
vt 0.25 1
vt 0.5 1
vt 0.75 1
vt 1 1
vt 0 0
vt 0.25 0
vt 0.5 0
vt 0.75 0
vt 1 0
vt 0 0.125
vt 0.25 0.125
vt 0.5 0.125
vt 0.75 0.125
vt 1 0.125
vt 0 0.25
vt 0.25 0.25
vt 0.5 0.25
vt 0.75 0.25
vt 1 0.25
vt 0 0.375
vt 0.25 0.375
vt 0.5 0.375
vt 0.75 0.375
vt 1 0.375
vt 0 0.5
vt 0.25 0.5
vt 0.5 0.5
vt 0.75 0.5
vt 1 0.5
vt 0 0.625
vt 0.25 0.625
vt 0.5 0.625
vt 0.75 0.625
vt 1 0.625
vt 0 0.75
vt 0.25 0.75
vt 0.5 0.75
vt 0.75 0.75
vt 1 0.75
vt 0 0.875
vt 0.25 0.875
vt 0.5 0.875
vt 0.75 0.875
vt 1 0.875
vt 0 1
vt 0.25 1
vt 0.5 1
vt 0.75 1
vt 1 1
vt 0 0
vt 0.25 0
vt 0.5 0
vt 0.75 0
vt 1 0
vt 0 0.125
vt 0.25 0.125
vt 0.5 0.125
vt 0.75 0.125
vt 1 0.125
vt 0 0.25
vt 0.25 0.25
vt 0.5 0.25
vt 0.75 0.25
vt 1 0.25
vt 0 0.375
vt 0.25 0.375
vt 0.5 0.375
vt 0.75 0.375
vt 1 0.375
vt 0 0.5
vt 0.25 0.5
vt 0.5 0.5
vt 0.75 0.5
vt 1 0.5
vt 0 0.625
vt 0.25 0.625
vt 0.5 0.625
vt 0.75 0.625
vt 1 0.625
vt 0 0.75
vt 0.25 0.75
vt 0.5 0.75
vt 0.75 0.75
vt 1 0.75
vt 0 0.875
vt 0.25 0.875
vt 0.5 0.875
vt 0.75 0.875
vt 1 0.875
vt 0 1
vt 0.25 1
vt 0.5 1
vt 0.75 1
vt 1 1
vt 0 0
vt 0.25 0
vt 0.5 0
vt 0.75 0
vt 1 0
vt 0 0.125
vt 0.25 0.125
vt 0.5 0.125
vt 0.75 0.125
vt 1 0.125
vt 0 0.25
vt 0.25 0.25
vt 0.5 0.25
vt 0.75 0.25
vt 1 0.25
vt 0 0.375
vt 0.25 0.375
vt 0.5 0.375
vt 0.75 0.375
vt 1 0.375
vt 0 0.5
vt 0.25 0.5
vt 0.5 0.5
vt 0.75 0.5
vt 1 0.5
vt 0 0.625
vt 0.25 0.625
vt 0.5 0.625
vt 0.75 0.625
vt 1 0.625
vt 0 0.75
vt 0.25 0.75
vt 0.5 0.75
vt 0.75 0.75
vt 1 0.75
vt 0 0.875
vt 0.25 0.875
vt 0.5 0.875
vt 0.75 0.875
vt 1 0.875
vt 0 1
vt 0.25 1
vt 0.5 1
vt 0.75 1
vt 1 1
vt 0 0
vt 0.25 0
vt 0.5 0
vt 0.75 0
vt 1 0
vt 0 0.125
vt 0.25 0.125
vt 0.5 0.125
vt 0.75 0.125
vt 1 0.125
vt 0 0.25
vt 0.25 0.25
vt 0.5 0.25
vt 0.75 0.25
vt 1 0.25
vt 0 0.375
vt 0.25 0.375
vt 0.5 0.375
vt 0.75 0.375
vt 1 0.375
vt 0 0.5
vt 0.25 0.5
vt 0.5 0.5
vt 0.75 0.5
vt 1 0.5
vt 0 0.625
vt 0.25 0.625
vt 0.5 0.625
vt 0.75 0.625
vt 1 0.625
vt 0 0.75
vt 0.25 0.75
vt 0.5 0.75
vt 0.75 0.75
vt 1 0.75
vt 0 0.875
vt 0.25 0.875
vt 0.5 0.875
vt 0.75 0.875
vt 1 0.875
vt 0 1
vt 0.25 1
vt 0.5 1
vt 0.75 1
vt 1 1
vt 0 0
vt 0.25 0
vt 0.5 0
vt 0.75 0
vt 1 0
vt 0 0.125
vt 0.25 0.125
vt 0.5 0.125
vt 0.75 0.125
vt 1 0.125
vt 0 0.25
vt 0.25 0.25
vt 0.5 0.25
vt 0.75 0.25
vt 1 0.25
vt 0 0.375
vt 0.25 0.375
vt 0.5 0.375
vt 0.75 0.375
vt 1 0.375
vt 0 0.5
vt 0.25 0.5
vt 0.5 0.5
vt 0.75 0.5
vt 1 0.5
vt 0 0.625
vt 0.25 0.625
vt 0.5 0.625
vt 0.75 0.625
vt 1 0.625
vt 0 0.75
vt 0.25 0.75
vt 0.5 0.75
vt 0.75 0.75
vt 1 0.75
vt 0 0.875
vt 0.25 0.875
vt 0.5 0.875
vt 0.75 0.875
vt 1 0.875
vt 0 1
vt 0.25 1
vt 0.5 1
vt 0.75 1
vt 1 1
vt 0 0
vt 0.25 0
vt 0.5 0
vt 0.75 0
vt 1 0
vt 0 0.125
vt 0.25 0.125
vt 0.5 0.125
vt 0.75 0.125
vt 1 0.125
vt 0 0.25
vt 0.25 0.25
vt 0.5 0.25
vt 0.75 0.25
vt 1 0.25
vt 0 0.375
vt 0.25 0.375
vt 0.5 0.375
vt 0.75 0.375
vt 1 0.375
vt 0 0.5
vt 0.25 0.5
vt 0.5 0.5
vt 0.75 0.5
vt 1 0.5
vt 0 0.625
vt 0.25 0.625
vt 0.5 0.625
vt 0.75 0.625
vt 1 0.625
vt 0 0.75
vt 0.25 0.75
vt 0.5 0.75
vt 0.75 0.75
vt 1 0.75
vt 0 0.875
vt 0.25 0.875
vt 0.5 0.875
vt 0.75 0.875
vt 1 0.875
vt 0 1
vt 0.25 1
vt 0.5 1
vt 0.75 1
vt 1 1
vt 0 0
vt 0.25 0
vt 0.5 0
vt 0.75 0
vt 1 0
vt 0 0.125
vt 0.25 0.125
vt 0.5 0.125
vt 0.75 0.125
vt 1 0.125
vt 0 0.25
vt 0.25 0.25
vt 0.5 0.25
vt 0.75 0.25
vt 1 0.25
vt 0 0.375
vt 0.25 0.375
vt 0.5 0.375
vt 0.75 0.375
vt 1 0.375
vt 0 0.5
vt 0.25 0.5
vt 0.5 0.5
vt 0.75 0.5
vt 1 0.5
vt 0 0.625
vt 0.25 0.625
vt 0.5 0.625
vt 0.75 0.625
vt 1 0.625
vt 0 0.75
vt 0.25 0.75
vt 0.5 0.75
vt 0.75 0.75
vt 1 0.75
vt 0 0.875
vt 0.25 0.875
vt 0.5 0.875
vt 0.75 0.875
vt 1 0.875
vt 0 1
vt 0.25 1
vt 0.5 1
vt 0.75 1
vt 1 1
vt 0 0
vt 0.25 0
vt 0.5 0
vt 0.75 0
vt 1 0
vt 0 0.125
vt 0.25 0.125
vt 0.5 0.125
vt 0.75 0.125
vt 1 0.125
vt 0 0.25
vt 0.25 0.25
vt 0.5 0.25
vt 0.75 0.25
vt 1 0.25
vt 0 0.375
vt 0.25 0.375
vt 0.5 0.375
vt 0.75 0.375
vt 1 0.375
vt 0 0.5
vt 0.25 0.5
vt 0.5 0.5
vt 0.75 0.5
vt 1 0.5
vt 0 0.625
vt 0.25 0.625
vt 0.5 0.625
vt 0.75 0.625
vt 1 0.625
vt 0 0.75
vt 0.25 0.75
vt 0.5 0.75
vt 0.75 0.75
vt 1 0.75
vt 0 0.875
vt 0.25 0.875
vt 0.5 0.875
vt 0.75 0.875
vt 1 0.875
vt 0 1
vt 0.25 1
vt 0.5 1
vt 0.75 1
vt 1 1
vt 0 0
vt 0.1 0
vt 0.2 0
vt 0.3 0
vt 0.4 0
vt 0.5 0
vt 0.6 0
vt 0.7 0
vt 0.8 0
vt 0.9 0
vt 1 0
vt 0 0.2
vt 0.1 0.2
vt 0.2 0.2
vt 0.3 0.2
vt 0.4 0.2
vt 0.5 0.2
vt 0.6 0.2
vt 0.7 0.2
vt 0.8 0.2
vt 0.9 0.2
vt 1 0.2
vt 0 0.4
vt 0.1 0.4
vt 0.2 0.4
vt 0.3 0.4
vt 0.4 0.4
vt 0.5 0.4
vt 0.6 0.4
vt 0.7 0.4
vt 0.8 0.4
vt 0.9 0.4
vt 1 0.4
vt 0 0.6
vt 0.1 0.6
vt 0.2 0.6
vt 0.3 0.6
vt 0.4 0.6
vt 0.5 0.6
vt 0.6 0.6
vt 0.7 0.6
vt 0.8 0.6
vt 0.9 0.6
vt 1 0.6
vt 0 0.8
vt 0.1 0.8
vt 0.2 0.8
vt 0.3 0.8
vt 0.4 0.8
vt 0.5 0.8
vt 0.6 0.8
vt 0.7 0.8
vt 0.8 0.8
vt 0.9 0.8
vt 1 0.8
vt 0 1
vt 0.1 1
vt 0.2 1
vt 0.3 1
vt 0.4 1
vt 0.5 1
vt 0.6 1
vt 0.7 1
vt 0.8 1
vt 0.9 1
vt 1 1
vn 0.00239717751 -0.599877834 -0.800088
vn 0.251329571 -0.23218371 -0.9396404
vn 0.249958843 0.232268855 -0.939985
vn 0.0060290196 0.595504165 -0.8033296
vn 0.631957531 0 -0.775003
vn 0.131165117 -0.625865 -0.768822849
vn 0.22523281 -0.396011919 -0.890193641
vn 0.3060373 0.0791899338 -0.9487203
vn 0.18813628 0.512559 -0.8377875
vn 0.130446836 0.5969345 -0.7916141
vn 0.252266526 -0.65026927 -0.7165972
vn 0.311664432 -0.458187968 -0.8324236
vn 0.3869835 0.03551336 -0.9214025
vn 0.2958312 0.507737041 -0.809127331
vn 0.232630342 0.631629348 -0.739545345
vn 0.362542748 -0.6425793 -0.675022
vn 0.408198148 -0.475322425 -0.779386163
vn 0.482398778 0.0148820048 -0.875825346
vn 0.403705865 0.4952743 -0.769236565
vn 0.3273554 0.6426114 -0.692740142
vn 0.4695843 -0.610841334 -0.637466431
vn 0.5070117 -0.4640243 -0.726375
vn 0.573462367 1.48174966E-08 -0.819231868
vn 0.5091627 0.463341147 -0.7253056
vn 0.431969285 0.6239873 -0.651185334
vn 0.5622788 -0.5623932 -0.6062643
vn 0.592683434 -0.436021835 -0.6772084
vn 0.647243 -0.0129508544 -0.7621738
vn 0.5990298 0.416919917 -0.683623552
vn 0.530004561 0.5846814 -0.614201
vn 0.636556149 -0.500873148 -0.586449
vn 0.659000337 -0.399785 -0.637095451
vn 0.699665844 -0.0275172517 -0.7139402
vn 0.6683399 0.3586915 -0.651661158
vn 0.6130993 0.5308866 -0.5850374
vn 0.7021914 -0.4286732 -0.5684775
vn 0.708049238 -0.368531048 -0.6023712
vn 0.7317715 -0.056691993 -0.6791881
vn 0.723469734 0.280599147 -0.630758047
vn 0.690051 0.45692414 -0.561293244
vn 0.5046714 0 -0.8633115
vn 0.745539248 -0.396887869 -0.535398245
vn 0.740234733 -0.161285177 -0.6527172
vn 0.739774942 0.1614065 -0.653208137
vn 0.7452657 0.3999802 -0.5334744
vn 0.425872684 -0.422482669 -0.8000881
vn 0.341895521 0.0135382013 -0.939640462
vn 0.0125087574 0.340986431 -0.939985
vn -0.416822046 0.425348133 -0.8033296
vn 0.446861416 0.446861416 -0.775003
vn 0.5353012 -0.349805623 -0.768822968
vn 0.439286321 -0.12075904 -0.890193641
vn 0.160405338 0.272396773 -0.9487203
vn -0.229401484 0.4954664 -0.8377875
vn -0.329856664 0.5143362 -0.7916141
vn 0.638189137 -0.2814304 -0.7165972
vn 0.5443678 -0.103607759 -0.8324236
vn 0.2485269 0.298750371 -0.9214025
vn -0.149840012 0.5682086 -0.809127331
vn -0.282134831 0.611124 -0.7395455
vn 0.7107286 -0.198015735 -0.675022
vn 0.6247435 -0.0474640243 -0.7793862
vn 0.330584258 0.3516306 -0.8758253
vn -0.06474865 0.635675 -0.769236565
vn -0.222919613 0.6858701 -0.692740142
vn 0.7639763 -0.0998837352 -0.637466431
vn 0.686626136 0.0303966254 -0.726375
vn 0.4054991 0.40549916 -0.819232
vn 0.0324007943 0.6876641 -0.725305736
vn -0.135777175 0.746674 -0.6511854
vn 0.795263231 -8.08052937E-05 -0.6062644
vn 0.727404535 0.110776551 -0.677208364
vn 0.4668276 0.448512316 -0.7621737
vn 0.128771126 0.718384862 -0.6836235
vn -0.0386622623 0.788202 -0.614201
vn 0.804283857 0.09594236 -0.5864491
vn 0.7486742 0.183292925 -0.6370955
vn 0.5141961 0.4752808 -0.713940263
vn 0.2189544 0.726220846 -0.6516612
vn 0.0581331663 0.808920145 -0.58503747
vn 0.799641848 0.193406567 -0.5684775
vn 0.7612572 0.2400756 -0.6023713
vn 0.5575279 0.477353275 -0.6791881
vn 0.313156784 0.709983766 -0.6307581
vn 0.16484569 0.8110337 -0.561293244
vn 0.3568577 0.356855124 -0.863311648
vn 0.8078179 0.246533945 -0.5353982
vn 0.6374708 0.4093793 -0.652717054
vn 0.408968329 0.6372318 -0.653207958
vn 0.244153872 0.8098111 -0.5334742
vn 0.5998778 0.00239722058 -0.800088048
vn 0.23218374 0.251329571 -0.9396404
vn -0.232268855 0.249958843 -0.939985
vn -0.5955042 0.00602897676 -0.8033296
vn -2.76237415E-08 0.631957531 -0.775003
vn 0.625865 0.131165177 -0.7688229
vn 0.396011919 0.22523281 -0.890193641
vn -0.0791899338 0.3060373 -0.9487202
vn -0.512559 0.188136235 -0.8377875
vn -0.596934557 0.130446732 -0.7916141
vn 0.65026927 0.252266556 -0.7165972
vn 0.458187968 0.311664462 -0.8324236
vn -0.03551336 0.3869835 -0.9214025
vn -0.5077371 0.295831233 -0.809127331
vn -0.6316294 0.232630283 -0.7395454
vn 0.6425793 0.362542748 -0.6750219
vn 0.475322485 0.4081982 -0.779386163
vn -0.0148820048 0.482398748 -0.875825346
vn -0.4952743 0.403705865 -0.769236565
vn -0.642611444 0.327355444 -0.6927402
vn 0.610841334 0.4695843 -0.637466431
vn 0.4640243 0.507011652 -0.726375
vn -1.48174966E-08 0.573462367 -0.819231868
vn -0.463341147 0.5091627 -0.725305736
vn -0.6239872 0.4319693 -0.651185334
vn 0.5623932 0.5622788 -0.6062643
vn 0.436021835 0.592683434 -0.6772084
vn 0.0129508544 0.647243 -0.7621738
vn -0.416919917 0.5990297 -0.683623552
vn -0.5846814 0.530004561 -0.614201
vn 0.500873148 0.636556149 -0.586449
vn 0.399785 0.659000337 -0.637095451
vn 0.0275172517 0.699665844 -0.7139402
vn -0.3586915 0.6683399 -0.651661158
vn -0.5308866 0.6130993 -0.5850374
vn 0.4286732 0.7021914 -0.5684775
vn 0.368531048 0.7080493 -0.6023712
vn 0.056691993 0.7317715 -0.6791881
vn -0.280599147 0.723469734 -0.6307581
vn -0.456924081 0.69005096 -0.5612932
vn 0 0.5046714 -0.8633115
vn 0.396887869 0.745539248 -0.5353982
vn 0.161285177 0.740234733 -0.6527172
vn -0.1614065 0.739774942 -0.653208137
vn -0.399980158 0.745265663 -0.5334744
vn 0.422482669 0.425872684 -0.8000881
vn -0.0135382013 0.341895521 -0.939640462
vn -0.340986431 0.0125087574 -0.939985
vn -0.425348133 -0.416822046 -0.8033296
vn -0.446861416 0.446861416 -0.775003
vn 0.349805623 0.5353012 -0.768822968
vn 0.12075904 0.439286321 -0.890193641
vn -0.272396773 0.160405338 -0.9487203
vn -0.4954664 -0.229401484 -0.8377875
vn -0.5143362 -0.329856664 -0.7916141
vn 0.2814304 0.638189137 -0.7165972
vn 0.103607759 0.5443678 -0.8324236
vn -0.298750371 0.2485269 -0.9214025
vn -0.5682086 -0.149840012 -0.809127331
vn -0.611124 -0.282134831 -0.7395455
vn 0.198015735 0.7107286 -0.675022
vn 0.0474640243 0.6247435 -0.7793862
vn -0.3516306 0.330584258 -0.8758253
vn -0.635675 -0.06474865 -0.769236565
vn -0.6858701 -0.222919613 -0.692740142
vn 0.0998837352 0.7639763 -0.637466431
vn -0.0303966254 0.686626136 -0.726375
vn -0.40549916 0.4054991 -0.819232
vn -0.6876641 0.0324007943 -0.725305736
vn -0.746674 -0.135777175 -0.6511854
vn 8.08052937E-05 0.795263231 -0.6062644
vn -0.110776551 0.727404535 -0.677208364
vn -0.448512316 0.4668276 -0.7621737
vn -0.718384862 0.128771126 -0.6836235
vn -0.788202 -0.0386622623 -0.614201
vn -0.09594236 0.804283857 -0.5864491
vn -0.183292925 0.7486742 -0.6370955
vn -0.4752808 0.5141961 -0.713940263
vn -0.726220846 0.2189544 -0.6516612
vn -0.808920145 0.0581331663 -0.58503747
vn -0.193406567 0.799641848 -0.5684775
vn -0.2400756 0.7612572 -0.6023713
vn -0.477353275 0.5575279 -0.6791881
vn -0.709983766 0.313156784 -0.6307581
vn -0.8110337 0.16484569 -0.561293244
vn -0.356855124 0.3568577 -0.863311648
vn -0.246533945 0.8078179 -0.5353982
vn -0.4093793 0.6374708 -0.652717054
vn -0.6372318 0.408968329 -0.653207958
vn -0.8098111 0.244153872 -0.5334742
vn -0.00239713467 0.599877834 -0.800088
vn -0.251329571 0.23218371 -0.9396404
vn -0.249958828 -0.2322689 -0.939985
vn -0.0060290196 -0.595504165 -0.8033296
vn -0.631957531 -5.5247483E-08 -0.775002956
vn -0.131165162 0.625865 -0.7688229
vn -0.22523284 0.396011919 -0.890193641
vn -0.3060373 -0.07918995 -0.9487203
vn -0.18813625 -0.512559 -0.8377875
vn -0.130446851 -0.5969344 -0.7916141
vn -0.252266616 0.6502692 -0.7165972
vn -0.311664432 0.458187848 -0.8324236
vn -0.386983484 -0.03551338 -0.9214026
vn -0.2958311 -0.5077371 -0.809127331
vn -0.232630283 -0.6316294 -0.7395454
vn -0.362542838 0.6425792 -0.675021946
vn -0.4081982 0.475322366 -0.779386163
vn -0.482398778 -0.0148820048 -0.875825346
vn -0.403705865 -0.495274365 -0.769236565
vn -0.327355355 -0.642611444 -0.692740142
vn -0.469584376 0.610841334 -0.637466431
vn -0.5070117 0.464024246 -0.726375
vn -0.573462367 -1.48174966E-08 -0.819231868
vn -0.5091626 -0.463341236 -0.7253057
vn -0.431969166 -0.623987436 -0.6511854
vn -0.562278867 0.5623932 -0.6062643
vn -0.592683554 0.436021835 -0.6772084
vn -0.647243 0.0129508544 -0.7621738
vn -0.5990297 -0.416919917 -0.683623552
vn -0.530004442 -0.5846815 -0.614201
vn -0.6365561 0.5008731 -0.586448967
vn -0.659000337 0.399784982 -0.637095451
vn -0.699665844 0.0275172517 -0.713940263
vn -0.668339849 -0.3586915 -0.651661158
vn -0.6130993 -0.5308866 -0.5850374
vn -0.702191353 0.428673118 -0.5684774
vn -0.7080493 0.368531048 -0.6023712
vn -0.7317715 0.056691993 -0.6791881
vn -0.723469734 -0.280599147 -0.630758047
vn -0.69005096 -0.45692414 -0.561293244
vn -0.5046714 0 -0.8633115
vn -0.745539248 0.3968878 -0.5353982
vn -0.740234733 0.161285177 -0.6527172
vn -0.739774942 -0.161406487 -0.653208137
vn -0.7452657 -0.3999802 -0.533474445
vn -0.425872773 0.4224825 -0.8000881
vn -0.341895521 -0.0135382535 -0.9396404
vn -0.0125086578 -0.34098646 -0.939985
vn 0.416822076 -0.425348133 -0.8033296
vn -0.4468613 -0.4468615 -0.775003
vn -0.535301268 0.3498055 -0.7688229
vn -0.439286321 0.120758958 -0.8901936
vn -0.160405248 -0.272396773 -0.9487203
vn 0.229401633 -0.495466381 -0.8377875
vn 0.329856664 -0.5143362 -0.7916141
vn -0.6381892 0.2814303 -0.71659714
vn -0.5443679 0.103607707 -0.8324236
vn -0.248526856 -0.29875043 -0.9214025
vn 0.149840131 -0.5682086 -0.809127331
vn 0.282135 -0.61112386 -0.739545345
vn -0.7107286 0.19801563 -0.675021946
vn -0.6247435 0.0474639721 -0.7793862
vn -0.330584258 -0.351630658 -0.8758253
vn 0.06474873 -0.635674953 -0.769236565
vn 0.222919673 -0.6858702 -0.692740142
vn -0.7639764 0.09988369 -0.637466431
vn -0.6866262 -0.0303967763 -0.726375
vn -0.4054991 -0.40549922 -0.8192319
vn -0.0324006267 -0.6876641 -0.7253057
vn 0.135777429 -0.746674061 -0.6511854
vn -0.7952632 8.080527E-05 -0.606264353
vn -0.7274045 -0.110776596 -0.6772085
vn -0.466827422 -0.4485123 -0.7621737
vn -0.128771 -0.7183849 -0.683623552
vn 0.03866242 -0.788202 -0.614201
vn -0.8042838 -0.09594254 -0.586449
vn -0.7486742 -0.183293015 -0.6370955
vn -0.514196038 -0.475280851 -0.713940263
vn -0.218954265 -0.726220846 -0.651661158
vn -0.05813302 -0.8089202 -0.5850374
vn -0.799641848 -0.193406776 -0.5684776
vn -0.7612572 -0.240075871 -0.602371335
vn -0.557527959 -0.477353424 -0.679188
vn -0.313156754 -0.709983945 -0.630758
vn -0.164845541 -0.811034 -0.561293
vn -0.3568577 -0.356855124 -0.863311648
vn -0.8078179 -0.24653402 -0.535398364
vn -0.6374707 -0.4093792 -0.6527172
vn -0.408968121 -0.637231648 -0.6532081
vn -0.244153291 -0.809811532 -0.5334741
vn -0.599877834 -0.00239717751 -0.800088
vn -0.23218371 -0.251329571 -0.9396404
vn 0.232268855 -0.249958843 -0.939985
vn 0.595504165 -0.0060290196 -0.8033296
vn 7.536018E-09 -0.631957531 -0.775003
vn -0.625865 -0.131165117 -0.768822849
vn -0.396011919 -0.22523281 -0.890193641
vn 0.0791899338 -0.3060373 -0.9487203
vn 0.512559 -0.18813628 -0.8377875
vn 0.5969345 -0.130446836 -0.7916141
vn -0.65026927 -0.252266526 -0.7165972
vn -0.458187968 -0.311664432 -0.8324236
vn 0.03551336 -0.3869835 -0.9214025
vn 0.507737041 -0.2958312 -0.809127331
vn 0.631629348 -0.232630342 -0.739545345
vn -0.6425793 -0.362542748 -0.675022
vn -0.475322425 -0.408198148 -0.779386163
vn 0.0148820048 -0.482398778 -0.875825346
vn 0.4952743 -0.403705865 -0.769236565
vn 0.6426114 -0.3273554 -0.692740142
vn -0.610841334 -0.469584346 -0.637466431
vn -0.4640243 -0.5070117 -0.726375
vn 1.48174966E-08 -0.573462367 -0.819231868
vn 0.463341147 -0.5091627 -0.7253056
vn 0.6239873 -0.431969285 -0.651185334
vn -0.5623932 -0.562278867 -0.6062643
vn -0.436021835 -0.5926835 -0.6772084
vn -0.0129508544 -0.647243 -0.7621738
vn 0.416919917 -0.5990298 -0.683623433
vn 0.5846814 -0.530004442 -0.61420095
vn -0.500873148 -0.636556149 -0.586448967
vn -0.399784982 -0.6590003 -0.637095451
vn -0.0275172517 -0.699665844 -0.7139402
vn 0.358691484 -0.668339849 -0.651661158
vn 0.5308866 -0.6130993 -0.5850374
vn -0.428673238 -0.702191353 -0.5684774
vn -0.368531048 -0.708049238 -0.6023712
vn -0.056691993 -0.7317715 -0.6791881
vn 0.280599147 -0.723469734 -0.6307581
vn 0.456924051 -0.690051 -0.5612931
vn 0 -0.5046663 -0.86331445
vn -0.396887928 -0.7455392 -0.5353982
vn -0.161285177 -0.740234733 -0.6527172
vn 0.161406487 -0.739774942 -0.653208137
vn 0.3999801 -0.7452656 -0.5334743
vn -0.422482342 -0.4258729 -0.800088048
vn 0.0135382535 -0.341895521 -0.9396404
vn 0.34098652 -0.0125085581 -0.939985
vn 0.425348043 0.416822046 -0.8033296
vn 0.446861535 -0.446861267 -0.775002956
vn -0.349805444 -0.5353014 -0.7688229
vn -0.1207589 -0.439286381 -0.890193641
vn 0.272396833 -0.160405189 -0.9487202
vn 0.495466322 0.229401648 -0.8377875
vn 0.514336169 0.3298567 -0.7916142
vn -0.281430244 -0.6381894 -0.71659714
vn -0.10360761 -0.5443679 -0.832423568
vn 0.29875046 -0.248526782 -0.921402454
vn 0.5682085 0.149840251 -0.809127331
vn 0.61112386 0.28213504 -0.7395454
vn -0.198015526 -0.710728645 -0.675022
vn -0.0474638455 -0.6247435 -0.7793862
vn 0.351630718 -0.330584139 -0.8758253
vn 0.635674953 0.0647488758 -0.769236565
vn 0.68587 0.2229199 -0.692740142
vn -0.0998835042 -0.763976336 -0.63746655
vn 0.0303968582 -0.686626136 -0.726375043
vn 0.405499279 -0.405498981 -0.819232
vn 0.687664151 -0.03240059 -0.7253056
vn 0.746674 0.135777384 -0.651185334
vn -8.04256342E-05 -0.7952631 -0.6062645
vn 0.1107768 -0.7274045 -0.6772084
vn 0.448512435 -0.466827422 -0.762173653
vn 0.7183849 -0.128770918 -0.683623433
vn 0.788202 0.0386625342 -0.61420095
vn 0.09594287 -0.8042838 -0.5864491
vn 0.183293268 -0.748674154 -0.637095451
vn 0.4752809 -0.5141959 -0.713940144
vn 0.7262209 -0.218954191 -0.6516612
vn 0.808920145 -0.0581330173 -0.58503747
vn 0.19340682 -0.7996418 -0.568477452
vn 0.240075916 -0.7612572 -0.6023713
vn 0.4773533 -0.55752784 -0.6791881
vn 0.709984 -0.313156515 -0.6307581
vn 0.8110339 -0.164845362 -0.561293244
vn 0.356855124 -0.3568577 -0.863311648
vn 0.24653402 -0.8078179 -0.535398364
vn 0.4093792 -0.6374707 -0.6527172
vn 0.637231648 -0.408968121 -0.6532081
vn 0.809811532 -0.244153291 -0.5334741
vn 0.578889251 -0.465167761 -0.669706047
vn 0.735430062 0.00675740838 -0.6775669
vn 0.6180033 0.3973722 -0.67835623
vn 0.236311182 0.702617943 -0.6711819
vn 0.8478806 0.2530184 -0.46591875
vn 0.682728767 -0.4168744 -0.6000809
vn 0.741290152 -0.1486958 -0.6545064
vn 0.696484268 0.277991742 -0.6615362
vn 0.456085533 0.626988053 -0.631563067
vn 0.3601526 0.6991625 -0.617626
vn 0.759818852 -0.380769283 -0.526963234
vn 0.7916003 -0.173483 -0.5858947
vn 0.7468302 0.252978832 -0.6150175
vn 0.534406662 0.61862576 -0.5759442
vn 0.4235101 0.7211978 -0.5481908
vn 0.818817735 -0.326595575 -0.472094
vn 0.8368431 -0.1566891 -0.52454
vn 0.7915749 0.248269647 -0.558364868
vn 0.6031397 0.605088234 -0.519702435
vn 0.4837146 0.723966658 -0.4918256
vn 0.866723835 -0.259743035 -0.425820738
vn 0.875143766 -0.119398318 -0.468900234
vn 0.8282565 0.247162372 -0.502893567
vn 0.667823136 0.5789449 -0.467798084
vn 0.556127 0.703891754 -0.441881269
vn 0.900889754 -0.190685049 -0.389918864
vn 0.9027954 -0.07673605 -0.4231691
vn 0.855492651 0.245447248 -0.45594728
vn 0.722448349 0.5451301 -0.4253253
vn 0.6244624 0.67060554 -0.400418252
vn 0.922649264 -0.121720143 -0.3659267
vn 0.9205325 -0.03546075 -0.389053136
vn 0.8747828 0.2404491 -0.4206415
vn 0.767342746 0.505169749 -0.3949539
vn 0.683659852 0.629564762 -0.369130641
vn 0.9369546 -0.0515180752 -0.345632583
vn 0.9320171 -0.00354973064 -0.362397164
vn 0.890113235 0.22350353 -0.3971707
vn 0.8091001 0.453014374 -0.374346048
vn 0.7411588 0.5766582 -0.343728
vn 0.803393066 0.239787638 -0.545033455
vn 0.9465963 -0.0205532275 -0.3217656
vn 0.9113962 0.151905522 -0.382468
vn 0.8454266 0.3724542 -0.382794559
vn 0.77940625 0.5381573 -0.320799947
vn 0.6922917 0.268749 -0.669706047
vn 0.361863077 0.6402798 -0.6775669
vn -0.03513275 0.7338926 -0.6783563
vn -0.490329146 0.5559606 -0.671181858
vn 0.204819918 0.860795259 -0.4659187
vn 0.7023881 0.382823378 -0.6000809
vn 0.499419451 0.5676282 -0.654506266
vn 0.10749431 0.7421689 -0.6615363
vn -0.314944774 0.708475769 -0.6315631
vn -0.425416 0.6614827 -0.6176261
vn 0.709665239 0.467637718 -0.526963234
vn 0.546040833 0.5988044 -0.585894763
vn 0.154329136 0.7732633 -0.6150174
vn -0.268542349 0.772122562 -0.575944245
vn -0.4128206 0.7273692 -0.548190832
vn 0.69224906 0.545819163 -0.472094059
vn 0.5541183 0.6463828 -0.524540067
vn 0.180779636 0.8096588 -0.558364868
vn -0.222451866 0.824878454 -0.5197025
vn -0.3851162 0.780892432 -0.4918257
vn 0.658306062 0.6207333 -0.425820678
vn 0.5409739 0.698197544 -0.4689002
vn 0.200079381 0.840872347 -0.5028935
vn -0.167469308 0.867824256 -0.467798144
vn -0.331524551 0.83356607 -0.441881269
vn 0.6155831 0.684850931 -0.389918774
vn 0.517853141 0.7434757 -0.4231691
vn 0.215182751 0.863602 -0.45594725
vn -0.110872217 0.898223758 -0.4253253
vn -0.26853016 0.876103163 -0.400418222
vn 0.566737533 0.738177657 -0.365926743
vn 0.490976334 0.7794742 -0.389053166
vn 0.22915633 0.87780863 -0.420641571
vn -0.0538184 0.917123258 -0.3949539
vn -0.203388855 0.906849265 -0.3691307
vn 0.513093352 0.7856673 -0.345632821
vn 0.469082654 0.805375457 -0.362397343
vn 0.251496971 0.8826124 -0.3971707
vn 0.01222813 0.9272084 -0.374346077
vn -0.128821343 0.930191457 -0.343727976
vn 0.194120437 0.815666854 -0.5449814
vn 0.4910973 0.8094999 -0.32176584
vn 0.3241426 0.8652454 -0.382468283
vn 0.100158922 0.918388069 -0.382794529
vn -0.07635435 0.94406426 -0.320799917
vn 0.113402449 0.7339167 -0.669706047
vn -0.3735671 0.6335224 -0.6775669
vn -0.653136134 0.336520433 -0.6783563
vn -0.7266406 -0.146657065 -0.671181858
vn -0.6430607 0.6077769 -0.4659187
vn 0.0196593981 0.799697638 -0.600080967
vn -0.241870746 0.716324031 -0.6545063
vn -0.588990152 0.464177221 -0.6615362
vn -0.771030366 0.081487745 -0.631563
vn -0.7855688 -0.037679594 -0.617625952
vn -0.0501535721 0.848407 -0.5269633
vn -0.245559484 0.7722874 -0.585894763
vn -0.5925013 0.5202846 -0.615017354
vn -0.802949 0.153496847 -0.5759441
vn -0.836330533 0.006171657 -0.5481908
vn -0.126568913 0.8724147 -0.47209394
vn -0.282724857 0.803071856 -0.524539948
vn -0.6107953 0.5613891 -0.5583649
vn -0.8255917 0.219790176 -0.519702435
vn -0.8688308 0.0569258258 -0.4918257
vn -0.208417848 0.880476356 -0.425820678
vn -0.334169984 0.8175959 -0.468900234
vn -0.628177166 0.5937099 -0.5028935
vn -0.8352925 0.2888793 -0.4677981
vn -0.8876517 0.129674241 -0.4418814
vn -0.285306841 0.8755359 -0.389918834
vn -0.384942323 0.8202117 -0.423169136
vn -0.64030993 0.6181547 -0.45594722
vn -0.8333207 0.353093654 -0.425325245
vn -0.892992735 0.2054976 -0.400418282
vn -0.35591194 0.859897852 -0.3659267
vn -0.429556429 0.81493485 -0.389053136
vn -0.645626545 0.63735956 -0.4206415
vn -0.8211612 0.411953628 -0.394953817
vn -0.88704896 0.2772846 -0.369130582
vn -0.423861235 0.837185562 -0.345632643
vn -0.4629344 0.8089253 -0.362397254
vn -0.638616443 0.6591087 -0.397170722
vn -0.796872 0.47419408 -0.374346048
vn -0.8699799 0.3535334 -0.343728125
vn -0.60935235 0.575888038 -0.5450162
vn -0.455498666 0.830053 -0.3217657
vn -0.5872528 0.713338733 -0.382468164
vn -0.7452682 0.5459336 -0.382794619
vn -0.8557607 0.4059072 -0.320800155
vn -0.5788893 0.465167731 -0.669706047
vn -0.735430062 -0.006757409 -0.6775669
vn -0.618003249 -0.397372276 -0.6783563
vn -0.2363114 -0.7026178 -0.6711819
vn -0.847880542 -0.2530184 -0.4659187
vn -0.682728767 0.416874349 -0.600081
vn -0.741290152 0.148695767 -0.6545064
vn -0.6964843 -0.2779918 -0.6615363
vn -0.4560856 -0.626988 -0.631563067
vn -0.3601529 -0.699162364 -0.617626
vn -0.7598188 0.380769134 -0.526963234
vn -0.7916003 0.173482984 -0.585894763
vn -0.7468302 -0.252978832 -0.6150174
vn -0.5344066 -0.6186259 -0.5759442
vn -0.423510045 -0.7211976 -0.5481908
vn -0.818817735 0.326595575 -0.472094059
vn -0.836843133 0.156689063 -0.524539948
vn -0.7915749 -0.248269647 -0.558364868
vn -0.6031397 -0.6050883 -0.5197025
vn -0.4837146 -0.7239666 -0.49182567
vn -0.866723835 0.259743035 -0.425820738
vn -0.8751438 0.119398318 -0.468900234
vn -0.8282565 -0.247162327 -0.502893567
vn -0.667823136 -0.578945 -0.467798144
vn -0.556126952 -0.7038919 -0.441881329
vn -0.9008898 0.190685079 -0.389918834
vn -0.9027954 0.07673605 -0.4231691
vn -0.855492651 -0.245447248 -0.45594725
vn -0.7224484 -0.5451301 -0.4253253
vn -0.6244624 -0.670605659 -0.400418252
vn -0.922649264 0.121720143 -0.3659267
vn -0.9205326 0.0354607552 -0.389053226
vn -0.8747828 -0.2404491 -0.420641541
vn -0.7673428 -0.505169749 -0.3949539
vn -0.6836599 -0.6295646 -0.369130641
vn -0.9369546 0.0515180752 -0.345632643
vn -0.9320171 0.00354973064 -0.3623972
vn -0.890113235 -0.22350353 -0.397170722
vn -0.8091001 -0.453014433 -0.374346077
vn -0.741158843 -0.5766581 -0.343728065
vn -0.803393066 -0.239787638 -0.545033455
vn -0.9465963 0.0205532275 -0.3217656
vn -0.9113962 -0.151905522 -0.382468
vn -0.8454266 -0.3724542 -0.382794559
vn -0.77940625 -0.5381573 -0.320799947
vn -0.692291737 -0.2687491 -0.669706047
vn -0.361862957 -0.6402799 -0.6775669
vn 0.0351328924 -0.7338926 -0.67835623
vn 0.490329146 -0.5559606 -0.671181858
vn -0.204819873 -0.8607954 -0.46591875
vn -0.7023881 -0.382823437 -0.600080967
vn -0.499419361 -0.567628264 -0.6545062
vn -0.107494168 -0.742168963 -0.6615362
vn 0.3149448 -0.7084757 -0.631563067
vn 0.425415933 -0.6614827 -0.617625952
vn -0.7096651 -0.467637867 -0.526963234
vn -0.5460408 -0.5988044 -0.5858947
vn -0.154329017 -0.7732634 -0.615017354
vn 0.2685424 -0.772122562 -0.5759442
vn 0.4128207 -0.727369249 -0.548190832
vn -0.6922488 -0.5458193 -0.472094059
vn -0.5541182 -0.646382868 -0.52454
vn -0.180779546 -0.8096589 -0.5583649
vn 0.222452015 -0.8248784 -0.519702435
vn 0.3851162 -0.7808924 -0.49182564
vn -0.658305943 -0.62073344 -0.4258207
vn -0.5409738 -0.6981976 -0.468900234
vn -0.200079381 -0.8408724 -0.502893567
vn 0.167469472 -0.867824256 -0.467798144
vn 0.331524819 -0.8335659 -0.441881329
vn -0.615582943 -0.684850931 -0.3899188
vn -0.5178531 -0.743475735 -0.4231691
vn -0.215182751 -0.863602 -0.45594725
vn 0.110872217 -0.898223758 -0.4253253
vn 0.268530279 -0.876103163 -0.400418252
vn -0.5667374 -0.7381777 -0.365926832
vn -0.490976155 -0.7794742 -0.389053136
vn -0.22915633 -0.87780863 -0.420641541
vn 0.0538184 -0.9171232 -0.3949539
vn 0.203388855 -0.9068492 -0.369130671
vn -0.513093352 -0.7856675 -0.345632762
vn -0.469082534 -0.8053755 -0.3623973
vn -0.251496941 -0.882612467 -0.397170663
vn -0.01222813 -0.9272084 -0.374346077
vn 0.128821358 -0.930191457 -0.343727976
vn -0.194120437 -0.815666854 -0.5449814
vn -0.4910973 -0.8094999 -0.32176584
vn -0.3241426 -0.8652454 -0.382468283
vn -0.100158922 -0.918388069 -0.382794529
vn 0.07635435 -0.94406426 -0.320799917
vn -0.113402031 -0.733916759 -0.669706047
vn 0.373567343 -0.633522332 -0.6775668
vn 0.653136134 -0.336520225 -0.6783563
vn 0.7266405 0.146657333 -0.671181858
vn 0.643060863 -0.607776642 -0.465918779
vn -0.0196591374 -0.799697638 -0.600080967
vn 0.24187097 -0.7163239 -0.6545064
vn 0.5889902 -0.464177042 -0.6615362
vn 0.771030366 -0.08148746 -0.6315631
vn 0.7855688 0.03767989 -0.617626
vn 0.05015394 -0.8484069 -0.526963234
vn 0.245559737 -0.772287369 -0.5858947
vn 0.592501342 -0.520284355 -0.615017354
vn 0.802949 -0.153496623 -0.5759442
vn 0.836330533 -0.00617120555 -0.548190832
vn 0.126569062 -0.8724147 -0.472094029
vn 0.2827251 -0.803071856 -0.524540067
vn 0.610795557 -0.56138885 -0.5583649
vn 0.8255917 -0.219789982 -0.5197025
vn 0.8688308 -0.05692567 -0.49182567
vn 0.208418 -0.880476356 -0.4258208
vn 0.3341701 -0.8175958 -0.4689003
vn 0.6281773 -0.5937097 -0.5028937
vn 0.8352927 -0.2888791 -0.467798173
vn 0.8876516 -0.129674017 -0.441881359
vn 0.285307169 -0.8755359 -0.389918685
vn 0.384942621 -0.820211649 -0.423169047
vn 0.640310168 -0.6181545 -0.45594728
vn 0.8333208 -0.353093326 -0.425325274
vn 0.892992735 -0.2054973 -0.400418222
vn 0.355912238 -0.8598977 -0.3659268
vn 0.429556727 -0.81493485 -0.3890531
vn 0.6456267 -0.6373594 -0.420641452
vn 0.8211614 -0.4119533 -0.394953847
vn 0.8870491 -0.277284354 -0.369130641
vn 0.423861563 -0.837185264 -0.345632851
vn 0.462934583 -0.8089251 -0.362397343
vn 0.638616562 -0.6591087 -0.397170752
vn 0.796872139 -0.474193782 -0.374346077
vn 0.8699801 -0.3535329 -0.343728065
vn 0.6093508 -0.575888932 -0.545017064
vn 0.455499083 -0.8300526 -0.321765929
vn 0.5872528 -0.713338733 -0.382468164
vn 0.7452682 -0.5459336 -0.382794619
vn 0.855761051 -0.4059069 -0.3208
vn 0 0 0
vn 0.303841054 0.9351268 0.18225956
vn 0.176076248 0.8768237 0.447411776
vn 0 0.8458163 0.5334743
vn -0.176076263 0.8768237 0.447411656
vn -0.303841054 0.9351268 0.18225956
vn -0.303841054 0.9351267 -0.182259634
vn -0.176076189 0.8768238 -0.447411776
vn 0 0.8458163 -0.5334743
vn 0.176076323 0.8768237 -0.447411716
vn 0.303841084 0.935126662 -0.182259589
vn 0.5543379 0.76298064 0.3325206
vn 0.517751038 0.668974161 0.5332988
vn 0.203629434 0.5469133 0.812047362
vn -0.090317674 0.5265922 0.845306635
vn -0.3984378 0.6131327 0.6821405
vn -0.6536462 0.7428229 0.144778624
vn -0.5177509 0.668974 -0.5332989
vn -0.2036294 0.546913266 -0.812047362
vn 0.09031767 0.5265922 -0.8453067
vn 0.3984379 0.6131328 -0.68214047
vn 0.643851936 0.66052413 -0.386215657
vn 0.8085911 0.33304894 0.4850347
vn 0.608134866 0.220917836 0.7624745
vn 0.188884839 0.167426571 0.967621267
vn -0.153144643 0.165141523 0.974307537
vn -0.559184 0.212726116 0.801287
vn -0.9561449 0.2874844 0.0560313
vn -0.6081347 0.220917672 -0.7624745
vn -0.1888849 0.167426616 -0.967621267
vn 0.153144643 0.165141523 -0.974307537
vn 0.559184 0.212726191 -0.801287
vn 0.8440675 0.176620558 -0.5063152
vn 0.8440676 -0.1766207 0.506315231
vn 0.5591838 -0.212726191 0.8012871
vn 0.153144628 -0.165141523 0.9743074
vn -0.188884959 -0.167426676 0.967621148
vn -0.608135 -0.220918015 0.7624743
vn -0.956144869 -0.287484556 -0.0560323149
vn -0.559183836 -0.212726131 -0.8012871
vn -0.153144628 -0.165141478 -0.9743075
vn 0.188884884 -0.1674266 -0.967621267
vn 0.608135 -0.220917955 -0.7624744
vn 0.8085912 -0.3330491 -0.485034674
vn 0.643851936 -0.6605242 0.386215657
vn 0.398437768 -0.6131327 0.68214047
vn 0.09031756 -0.5265923 0.8453066
vn -0.203629524 -0.5469135 0.8120472
vn -0.517751 -0.6689742 0.5332987
vn -0.653646 -0.742822945 -0.14477922
vn -0.3984379 -0.6131327 -0.6821404
vn -0.09031758 -0.5265922 -0.8453066
vn 0.203629449 -0.546913564 -0.812047243
vn 0.517751 -0.6689742 -0.533298552
vn 0.5543379 -0.7629808 -0.3325204
vn 0.303840965 -0.9351268 0.18225956
vn 0.176076248 -0.8768239 0.447411656
vn -1.82356445E-07 -0.845816433 0.5334741
vn -0.176076114 -0.876823843 0.4474117
vn -0.303840965 -0.935126841 0.182259515
vn -0.303840965 -0.9351268 -0.182259649
vn -0.176076144 -0.876823843 -0.447411656
vn 0 -0.8458165 -0.533474
vn 0.1760762 -0.8768239 -0.447411418
vn 0.303840965 -0.9351267 -0.18225944
vn 0 0 0
f 1/1/1 2/2/2 7/7/7
f 1/1/1 7/7/7 6/6/6
f 2/2/2 3/3/3 8/8/8
f 2/2/2 8/8/8 7/7/7
f 3/3/3 4/4/4 9/9/9
f 3/3/3 9/9/9 8/8/8
f 4/4/4 5/5/5 10/10/10
f 4/4/4 10/10/10 9/9/9
f 6/6/6 7/7/7 12/12/12
f 6/6/6 12/12/12 11/11/11
f 7/7/7 8/8/8 13/13/13
f 7/7/7 13/13/13 12/12/12
f 8/8/8 9/9/9 14/14/14
f 8/8/8 14/14/14 13/13/13
f 9/9/9 10/10/10 15/15/15
f 9/9/9 15/15/15 14/14/14
f 11/11/11 12/12/12 17/17/17
f 11/11/11 17/17/17 16/16/16
f 12/12/12 13/13/13 18/18/18
f 12/12/12 18/18/18 17/17/17
f 13/13/13 14/14/14 19/19/19
f 13/13/13 19/19/19 18/18/18
f 14/14/14 15/15/15 20/20/20
f 14/14/14 20/20/20 19/19/19
f 16/16/16 17/17/17 22/22/22
f 16/16/16 22/22/22 21/21/21
f 17/17/17 18/18/18 23/23/23
f 17/17/17 23/23/23 22/22/22
f 18/18/18 19/19/19 24/24/24
f 18/18/18 24/24/24 23/23/23
f 19/19/19 20/20/20 25/25/25
f 19/19/19 25/25/25 24/24/24
f 21/21/21 22/22/22 27/27/27
f 21/21/21 27/27/27 26/26/26
f 22/22/22 23/23/23 28/28/28
f 22/22/22 28/28/28 27/27/27
f 23/23/23 24/24/24 29/29/29
f 23/23/23 29/29/29 28/28/28
f 24/24/24 25/25/25 30/30/30
f 24/24/24 30/30/30 29/29/29
f 26/26/26 27/27/27 32/32/32
f 26/26/26 32/32/32 31/31/31
f 27/27/27 28/28/28 33/33/33
f 27/27/27 33/33/33 32/32/32
f 28/28/28 29/29/29 34/34/34
f 28/28/28 34/34/34 33/33/33
f 29/29/29 30/30/30 35/35/35
f 29/29/29 35/35/35 34/34/34
f 31/31/31 32/32/32 37/37/37
f 31/31/31 37/37/37 36/36/36
f 32/32/32 33/33/33 38/38/38
f 32/32/32 38/38/38 37/37/37
f 33/33/33 34/34/34 39/39/39
f 33/33/33 39/39/39 38/38/38
f 34/34/34 35/35/35 40/40/40
f 34/34/34 40/40/40 39/39/39
f 36/36/36 37/37/37 42/42/42
f 36/36/36 42/42/42 41/41/41
f 37/37/37 38/38/38 43/43/43
f 37/37/37 43/43/43 42/42/42
f 38/38/38 39/39/39 44/44/44
f 38/38/38 44/44/44 43/43/43
f 39/39/39 40/40/40 45/45/45
f 39/39/39 45/45/45 44/44/44
f 46/46/46 47/47/47 52/52/52
f 46/46/46 52/52/52 51/51/51
f 47/47/47 48/48/48 53/53/53
f 47/47/47 53/53/53 52/52/52
f 48/48/48 49/49/49 54/54/54
f 48/48/48 54/54/54 53/53/53
f 49/49/49 50/50/50 55/55/55
f 49/49/49 55/55/55 54/54/54
f 51/51/51 52/52/52 57/57/57
f 51/51/51 57/57/57 56/56/56
f 52/52/52 53/53/53 58/58/58
f 52/52/52 58/58/58 57/57/57
f 53/53/53 54/54/54 59/59/59
f 53/53/53 59/59/59 58/58/58
f 54/54/54 55/55/55 60/60/60
f 54/54/54 60/60/60 59/59/59
f 56/56/56 57/57/57 62/62/62
f 56/56/56 62/62/62 61/61/61
f 57/57/57 58/58/58 63/63/63
f 57/57/57 63/63/63 62/62/62
f 58/58/58 59/59/59 64/64/64
f 58/58/58 64/64/64 63/63/63
f 59/59/59 60/60/60 65/65/65
f 59/59/59 65/65/65 64/64/64
f 61/61/61 62/62/62 67/67/67
f 61/61/61 67/67/67 66/66/66
f 62/62/62 63/63/63 68/68/68
f 62/62/62 68/68/68 67/67/67
f 63/63/63 64/64/64 69/69/69
f 63/63/63 69/69/69 68/68/68
f 64/64/64 65/65/65 70/70/70
f 64/64/64 70/70/70 69/69/69
f 66/66/66 67/67/67 72/72/72
f 66/66/66 72/72/72 71/71/71
f 67/67/67 68/68/68 73/73/73
f 67/67/67 73/73/73 72/72/72
f 68/68/68 69/69/69 74/74/74
f 68/68/68 74/74/74 73/73/73
f 69/69/69 70/70/70 75/75/75
f 69/69/69 75/75/75 74/74/74
f 71/71/71 72/72/72 77/77/77
f 71/71/71 77/77/77 76/76/76
f 72/72/72 73/73/73 78/78/78
f 72/72/72 78/78/78 77/77/77
f 73/73/73 74/74/74 79/79/79
f 73/73/73 79/79/79 78/78/78
f 74/74/74 75/75/75 80/80/80
f 74/74/74 80/80/80 79/79/79
f 76/76/76 77/77/77 82/82/82
f 76/76/76 82/82/82 81/81/81
f 77/77/77 78/78/78 83/83/83
f 77/77/77 83/83/83 82/82/82
f 78/78/78 79/79/79 84/84/84
f 78/78/78 84/84/84 83/83/83
f 79/79/79 80/80/80 85/85/85
f 79/79/79 85/85/85 84/84/84
f 81/81/81 82/82/82 87/87/87
f 81/81/81 87/87/87 86/86/86
f 82/82/82 83/83/83 88/88/88
f 82/82/82 88/88/88 87/87/87
f 83/83/83 84/84/84 89/89/89
f 83/83/83 89/89/89 88/88/88
f 84/84/84 85/85/85 90/90/90
f 84/84/84 90/90/90 89/89/89
f 91/91/91 92/92/92 97/97/97
f 91/91/91 97/97/97 96/96/96
f 92/92/92 93/93/93 98/98/98
f 92/92/92 98/98/98 97/97/97
f 93/93/93 94/94/94 99/99/99
f 93/93/93 99/99/99 98/98/98
f 94/94/94 95/95/95 100/100/100
f 94/94/94 100/100/100 99/99/99
f 96/96/96 97/97/97 102/102/102
f 96/96/96 102/102/102 101/101/101
f 97/97/97 98/98/98 103/103/103
f 97/97/97 103/103/103 102/102/102
f 98/98/98 99/99/99 104/104/104
f 98/98/98 104/104/104 103/103/103
f 99/99/99 100/100/100 105/105/105
f 99/99/99 105/105/105 104/104/104
f 101/101/101 102/102/102 107/107/107
f 101/101/101 107/107/107 106/106/106
f 102/102/102 103/103/103 108/108/108
f 102/102/102 108/108/108 107/107/107
f 103/103/103 104/104/104 109/109/109
f 103/103/103 109/109/109 108/108/108
f 104/104/104 105/105/105 110/110/110
f 104/104/104 110/110/110 109/109/109
f 106/106/106 107/107/107 112/112/112
f 106/106/106 112/112/112 111/111/111
f 107/107/107 108/108/108 113/113/113
f 107/107/107 113/113/113 112/112/112
f 108/108/108 109/109/109 114/114/114
f 108/108/108 114/114/114 113/113/113
f 109/109/109 110/110/110 115/115/115
f 109/109/109 115/115/115 114/114/114
f 111/111/111 112/112/112 117/117/117
f 111/111/111 117/117/117 116/116/116
f 112/112/112 113/113/113 118/118/118
f 112/112/112 118/118/118 117/117/117
f 113/113/113 114/114/114 119/119/119
f 113/113/113 119/119/119 118/118/118
f 114/114/114 115/115/115 120/120/120
f 114/114/114 120/120/120 119/119/119
f 116/116/116 117/117/117 122/122/122
f 116/116/116 122/122/122 121/121/121
f 117/117/117 118/118/118 123/123/123
f 117/117/117 123/123/123 122/122/122
f 118/118/118 119/119/119 124/124/124
f 118/118/118 124/124/124 123/123/123
f 119/119/119 120/120/120 125/125/125
f 119/119/119 125/125/125 124/124/124
f 121/121/121 122/122/122 127/127/127
f 121/121/121 127/127/127 126/126/126
f 122/122/122 123/123/123 128/128/128
f 122/122/122 128/128/128 127/127/127
f 123/123/123 124/124/124 129/129/129
f 123/123/123 129/129/129 128/128/128
f 124/124/124 125/125/125 130/130/130
f 124/124/124 130/130/130 129/129/129
f 126/126/126 127/127/127 132/132/132
f 126/126/126 132/132/132 131/131/131
f 127/127/127 128/128/128 133/133/133
f 127/127/127 133/133/133 132/132/132
f 128/128/128 129/129/129 134/134/134
f 128/128/128 134/134/134 133/133/133
f 129/129/129 130/130/130 135/135/135
f 129/129/129 135/135/135 134/134/134
f 136/136/136 137/137/137 142/142/142
f 136/136/136 142/142/142 141/141/141
f 137/137/137 138/138/138 143/143/143
f 137/137/137 143/143/143 142/142/142
f 138/138/138 139/139/139 144/144/144
f 138/138/138 144/144/144 143/143/143
f 139/139/139 140/140/140 145/145/145
f 139/139/139 145/145/145 144/144/144
f 141/141/141 142/142/142 147/147/147
f 141/141/141 147/147/147 146/146/146
f 142/142/142 143/143/143 148/148/148
f 142/142/142 148/148/148 147/147/147
f 143/143/143 144/144/144 149/149/149
f 143/143/143 149/149/149 148/148/148
f 144/144/144 145/145/145 150/150/150
f 144/144/144 150/150/150 149/149/149
f 146/146/146 147/147/147 152/152/152
f 146/146/146 152/152/152 151/151/151
f 147/147/147 148/148/148 153/153/153
f 147/147/147 153/153/153 152/152/152
f 148/148/148 149/149/149 154/154/154
f 148/148/148 154/154/154 153/153/153
f 149/149/149 150/150/150 155/155/155
f 149/149/149 155/155/155 154/154/154
f 151/151/151 152/152/152 157/157/157
f 151/151/151 157/157/157 156/156/156
f 152/152/152 153/153/153 158/158/158
f 152/152/152 158/158/158 157/157/157
f 153/153/153 154/154/154 159/159/159
f 153/153/153 159/159/159 158/158/158
f 154/154/154 155/155/155 160/160/160
f 154/154/154 160/160/160 159/159/159
f 156/156/156 157/157/157 162/162/162
f 156/156/156 162/162/162 161/161/161
f 157/157/157 158/158/158 163/163/163
f 157/157/157 163/163/163 162/162/162
f 158/158/158 159/159/159 164/164/164
f 158/158/158 164/164/164 163/163/163
f 159/159/159 160/160/160 165/165/165
f 159/159/159 165/165/165 164/164/164
f 161/161/161 162/162/162 167/167/167
f 161/161/161 167/167/167 166/166/166
f 162/162/162 163/163/163 168/168/168
f 162/162/162 168/168/168 167/167/167
f 163/163/163 164/164/164 169/169/169
f 163/163/163 169/169/169 168/168/168
f 164/164/164 165/165/165 170/170/170
f 164/164/164 170/170/170 169/169/169
f 166/166/166 167/167/167 172/172/172
f 166/166/166 172/172/172 171/171/171
f 167/167/167 168/168/168 173/173/173
f 167/167/167 173/173/173 172/172/172
f 168/168/168 169/169/169 174/174/174
f 168/168/168 174/174/174 173/173/173
f 169/169/169 170/170/170 175/175/175
f 169/169/169 175/175/175 174/174/174
f 171/171/171 172/172/172 177/177/177
f 171/171/171 177/177/177 176/176/176
f 172/172/172 173/173/173 178/178/178
f 172/172/172 178/178/178 177/177/177
f 173/173/173 174/174/174 179/179/179
f 173/173/173 179/179/179 178/178/178
f 174/174/174 175/175/175 180/180/180
f 174/174/174 180/180/180 179/179/179
f 181/181/181 182/182/182 187/187/187
f 181/181/181 187/187/187 186/186/186
f 182/182/182 183/183/183 188/188/188
f 182/182/182 188/188/188 187/187/187
f 183/183/183 184/184/184 189/189/189
f 183/183/183 189/189/189 188/188/188
f 184/184/184 185/185/185 190/190/190
f 184/184/184 190/190/190 189/189/189
f 186/186/186 187/187/187 192/192/192
f 186/186/186 192/192/192 191/191/191
f 187/187/187 188/188/188 193/193/193
f 187/187/187 193/193/193 192/192/192
f 188/188/188 189/189/189 194/194/194
f 188/188/188 194/194/194 193/193/193
f 189/189/189 190/190/190 195/195/195
f 189/189/189 195/195/195 194/194/194
f 191/191/191 192/192/192 197/197/197
f 191/191/191 197/197/197 196/196/196
f 192/192/192 193/193/193 198/198/198
f 192/192/192 198/198/198 197/197/197
f 193/193/193 194/194/194 199/199/199
f 193/193/193 199/199/199 198/198/198
f 194/194/194 195/195/195 200/200/200
f 194/194/194 200/200/200 199/199/199
f 196/196/196 197/197/197 202/202/202
f 196/196/196 202/202/202 201/201/201
f 197/197/197 198/198/198 203/203/203
f 197/197/197 203/203/203 202/202/202
f 198/198/198 199/199/199 204/204/204
f 198/198/198 204/204/204 203/203/203
f 199/199/199 200/200/200 205/205/205
f 199/199/199 205/205/205 204/204/204
f 201/201/201 202/202/202 207/207/207
f 201/201/201 207/207/207 206/206/206
f 202/202/202 203/203/203 208/208/208
f 202/202/202 208/208/208 207/207/207
f 203/203/203 204/204/204 209/209/209
f 203/203/203 209/209/209 208/208/208
f 204/204/204 205/205/205 210/210/210
f 204/204/204 210/210/210 209/209/209
f 206/206/206 207/207/207 212/212/212
f 206/206/206 212/212/212 211/211/211
f 207/207/207 208/208/208 213/213/213
f 207/207/207 213/213/213 212/212/212
f 208/208/208 209/209/209 214/214/214
f 208/208/208 214/214/214 213/213/213
f 209/209/209 210/210/210 215/215/215
f 209/209/209 215/215/215 214/214/214
f 211/211/211 212/212/212 217/217/217
f 211/211/211 217/217/217 216/216/216
f 212/212/212 213/213/213 218/218/218
f 212/212/212 218/218/218 217/217/217
f 213/213/213 214/214/214 219/219/219
f 213/213/213 219/219/219 218/218/218
f 214/214/214 215/215/215 220/220/220
f 214/214/214 220/220/220 219/219/219
f 216/216/216 217/217/217 222/222/222
f 216/216/216 222/222/222 221/221/221
f 217/217/217 218/218/218 223/223/223
f 217/217/217 223/223/223 222/222/222
f 218/218/218 219/219/219 224/224/224
f 218/218/218 224/224/224 223/223/223
f 219/219/219 220/220/220 225/225/225
f 219/219/219 225/225/225 224/224/224
f 226/226/226 227/227/227 232/232/232
f 226/226/226 232/232/232 231/231/231
f 227/227/227 228/228/228 233/233/233
f 227/227/227 233/233/233 232/232/232
f 228/228/228 229/229/229 234/234/234
f 228/228/228 234/234/234 233/233/233
f 229/229/229 230/230/230 235/235/235
f 229/229/229 235/235/235 234/234/234
f 231/231/231 232/232/232 237/237/237
f 231/231/231 237/237/237 236/236/236
f 232/232/232 233/233/233 238/238/238
f 232/232/232 238/238/238 237/237/237
f 233/233/233 234/234/234 239/239/239
f 233/233/233 239/239/239 238/238/238
f 234/234/234 235/235/235 240/240/240
f 234/234/234 240/240/240 239/239/239
f 236/236/236 237/237/237 242/242/242
f 236/236/236 242/242/242 241/241/241
f 237/237/237 238/238/238 243/243/243
f 237/237/237 243/243/243 242/242/242
f 238/238/238 239/239/239 244/244/244
f 238/238/238 244/244/244 243/243/243
f 239/239/239 240/240/240 245/245/245
f 239/239/239 245/245/245 244/244/244
f 241/241/241 242/242/242 247/247/247
f 241/241/241 247/247/247 246/246/246
f 242/242/242 243/243/243 248/248/248
f 242/242/242 248/248/248 247/247/247
f 243/243/243 244/244/244 249/249/249
f 243/243/243 249/249/249 248/248/248
f 244/244/244 245/245/245 250/250/250
f 244/244/244 250/250/250 249/249/249
f 246/246/246 247/247/247 252/252/252
f 246/246/246 252/252/252 251/251/251
f 247/247/247 248/248/248 253/253/253
f 247/247/247 253/253/253 252/252/252
f 248/248/248 249/249/249 254/254/254
f 248/248/248 254/254/254 253/253/253
f 249/249/249 250/250/250 255/255/255
f 249/249/249 255/255/255 254/254/254
f 251/251/251 252/252/252 257/257/257
f 251/251/251 257/257/257 256/256/256
f 252/252/252 253/253/253 258/258/258
f 252/252/252 258/258/258 257/257/257
f 253/253/253 254/254/254 259/259/259
f 253/253/253 259/259/259 258/258/258
f 254/254/254 255/255/255 260/260/260
f 254/254/254 260/260/260 259/259/259
f 256/256/256 257/257/257 262/262/262
f 256/256/256 262/262/262 261/261/261
f 257/257/257 258/258/258 263/263/263
f 257/257/257 263/263/263 262/262/262
f 258/258/258 259/259/259 264/264/264
f 258/258/258 264/264/264 263/263/263
f 259/259/259 260/260/260 265/265/265
f 259/259/259 265/265/265 264/264/264
f 261/261/261 262/262/262 267/267/267
f 261/261/261 267/267/267 266/266/266
f 262/262/262 263/263/263 268/268/268
f 262/262/262 268/268/268 267/267/267
f 263/263/263 264/264/264 269/269/269
f 263/263/263 269/269/269 268/268/268
f 264/264/264 265/265/265 270/270/270
f 264/264/264 270/270/270 269/269/269
f 271/271/271 272/272/272 277/277/277
f 271/271/271 277/277/277 276/276/276
f 272/272/272 273/273/273 278/278/278
f 272/272/272 278/278/278 277/277/277
f 273/273/273 274/274/274 279/279/279
f 273/273/273 279/279/279 278/278/278
f 274/274/274 275/275/275 280/280/280
f 274/274/274 280/280/280 279/279/279
f 276/276/276 277/277/277 282/282/282
f 276/276/276 282/282/282 281/281/281
f 277/277/277 278/278/278 283/283/283
f 277/277/277 283/283/283 282/282/282
f 278/278/278 279/279/279 284/284/284
f 278/278/278 284/284/284 283/283/283
f 279/279/279 280/280/280 285/285/285
f 279/279/279 285/285/285 284/284/284
f 281/281/281 282/282/282 287/287/287
f 281/281/281 287/287/287 286/286/286
f 282/282/282 283/283/283 288/288/288
f 282/282/282 288/288/288 287/287/287
f 283/283/283 284/284/284 289/289/289
f 283/283/283 289/289/289 288/288/288
f 284/284/284 285/285/285 290/290/290
f 284/284/284 290/290/290 289/289/289
f 286/286/286 287/287/287 292/292/292
f 286/286/286 292/292/292 291/291/291
f 287/287/287 288/288/288 293/293/293
f 287/287/287 293/293/293 292/292/292
f 288/288/288 289/289/289 294/294/294
f 288/288/288 294/294/294 293/293/293
f 289/289/289 290/290/290 295/295/295
f 289/289/289 295/295/295 294/294/294
f 291/291/291 292/292/292 297/297/297
f 291/291/291 297/297/297 296/296/296
f 292/292/292 293/293/293 298/298/298
f 292/292/292 298/298/298 297/297/297
f 293/293/293 294/294/294 299/299/299
f 293/293/293 299/299/299 298/298/298
f 294/294/294 295/295/295 300/300/300
f 294/294/294 300/300/300 299/299/299
f 296/296/296 297/297/297 302/302/302
f 296/296/296 302/302/302 301/301/301
f 297/297/297 298/298/298 303/303/303
f 297/297/297 303/303/303 302/302/302
f 298/298/298 299/299/299 304/304/304
f 298/298/298 304/304/304 303/303/303
f 299/299/299 300/300/300 305/305/305
f 299/299/299 305/305/305 304/304/304
f 301/301/301 302/302/302 307/307/307
f 301/301/301 307/307/307 306/306/306
f 302/302/302 303/303/303 308/308/308
f 302/302/302 308/308/308 307/307/307
f 303/303/303 304/304/304 309/309/309
f 303/303/303 309/309/309 308/308/308
f 304/304/304 305/305/305 310/310/310
f 304/304/304 310/310/310 309/309/309
f 306/306/306 307/307/307 312/312/312
f 306/306/306 312/312/312 311/311/311
f 307/307/307 308/308/308 313/313/313
f 307/307/307 313/313/313 312/312/312
f 308/308/308 309/309/309 314/314/314
f 308/308/308 314/314/314 313/313/313
f 309/309/309 310/310/310 315/315/315
f 309/309/309 315/315/315 314/314/314
f 316/316/316 317/317/317 322/322/322
f 316/316/316 322/322/322 321/321/321
f 317/317/317 318/318/318 323/323/323
f 317/317/317 323/323/323 322/322/322
f 318/318/318 319/319/319 324/324/324
f 318/318/318 324/324/324 323/323/323
f 319/319/319 320/320/320 325/325/325
f 319/319/319 325/325/325 324/324/324
f 321/321/321 322/322/322 327/327/327
f 321/321/321 327/327/327 326/326/326
f 322/322/322 323/323/323 328/328/328
f 322/322/322 328/328/328 327/327/327
f 323/323/323 324/324/324 329/329/329
f 323/323/323 329/329/329 328/328/328
f 324/324/324 325/325/325 330/330/330
f 324/324/324 330/330/330 329/329/329
f 326/326/326 327/327/327 332/332/332
f 326/326/326 332/332/332 331/331/331
f 327/327/327 328/328/328 333/333/333
f 327/327/327 333/333/333 332/332/332
f 328/328/328 329/329/329 334/334/334
f 328/328/328 334/334/334 333/333/333
f 329/329/329 330/330/330 335/335/335
f 329/329/329 335/335/335 334/334/334
f 331/331/331 332/332/332 337/337/337
f 331/331/331 337/337/337 336/336/336
f 332/332/332 333/333/333 338/338/338
f 332/332/332 338/338/338 337/337/337
f 333/333/333 334/334/334 339/339/339
f 333/333/333 339/339/339 338/338/338
f 334/334/334 335/335/335 340/340/340
f 334/334/334 340/340/340 339/339/339
f 336/336/336 337/337/337 342/342/342
f 336/336/336 342/342/342 341/341/341
f 337/337/337 338/338/338 343/343/343
f 337/337/337 343/343/343 342/342/342
f 338/338/338 339/339/339 344/344/344
f 338/338/338 344/344/344 343/343/343
f 339/339/339 340/340/340 345/345/345
f 339/339/339 345/345/345 344/344/344
f 341/341/341 342/342/342 347/347/347
f 341/341/341 347/347/347 346/346/346
f 342/342/342 343/343/343 348/348/348
f 342/342/342 348/348/348 347/347/347
f 343/343/343 344/344/344 349/349/349
f 343/343/343 349/349/349 348/348/348
f 344/344/344 345/345/345 350/350/350
f 344/344/344 350/350/350 349/349/349
f 346/346/346 347/347/347 352/352/352
f 346/346/346 352/352/352 351/351/351
f 347/347/347 348/348/348 353/353/353
f 347/347/347 353/353/353 352/352/352
f 348/348/348 349/349/349 354/354/354
f 348/348/348 354/354/354 353/353/353
f 349/349/349 350/350/350 355/355/355
f 349/349/349 355/355/355 354/354/354
f 351/351/351 352/352/352 357/357/357
f 351/351/351 357/357/357 356/356/356
f 352/352/352 353/353/353 358/358/358
f 352/352/352 358/358/358 357/357/357
f 353/353/353 354/354/354 359/359/359
f 353/353/353 359/359/359 358/358/358
f 354/354/354 355/355/355 360/360/360
f 354/354/354 360/360/360 359/359/359
f 361/361/361 362/362/362 367/367/367
f 361/361/361 367/367/367 366/366/366
f 362/362/362 363/363/363 368/368/368
f 362/362/362 368/368/368 367/367/367
f 363/363/363 364/364/364 369/369/369
f 363/363/363 369/369/369 368/368/368
f 364/364/364 365/365/365 370/370/370
f 364/364/364 370/370/370 369/369/369
f 366/366/366 367/367/367 372/372/372
f 366/366/366 372/372/372 371/371/371
f 367/367/367 368/368/368 373/373/373
f 367/367/367 373/373/373 372/372/372
f 368/368/368 369/369/369 374/374/374
f 368/368/368 374/374/374 373/373/373
f 369/369/369 370/370/370 375/375/375
f 369/369/369 375/375/375 374/374/374
f 371/371/371 372/372/372 377/377/377
f 371/371/371 377/377/377 376/376/376
f 372/372/372 373/373/373 378/378/378
f 372/372/372 378/378/378 377/377/377
f 373/373/373 374/374/374 379/379/379
f 373/373/373 379/379/379 378/378/378
f 374/374/374 375/375/375 380/380/380
f 374/374/374 380/380/380 379/379/379
f 376/376/376 377/377/377 382/382/382
f 376/376/376 382/382/382 381/381/381
f 377/377/377 378/378/378 383/383/383
f 377/377/377 383/383/383 382/382/382
f 378/378/378 379/379/379 384/384/384
f 378/378/378 384/384/384 383/383/383
f 379/379/379 380/380/380 385/385/385
f 379/379/379 385/385/385 384/384/384
f 381/381/381 382/382/382 387/387/387
f 381/381/381 387/387/387 386/386/386
f 382/382/382 383/383/383 388/388/388
f 382/382/382 388/388/388 387/387/387
f 383/383/383 384/384/384 389/389/389
f 383/383/383 389/389/389 388/388/388
f 384/384/384 385/385/385 390/390/390
f 384/384/384 390/390/390 389/389/389
f 386/386/386 387/387/387 392/392/392
f 386/386/386 392/392/392 391/391/391
f 387/387/387 388/388/388 393/393/393
f 387/387/387 393/393/393 392/392/392
f 388/388/388 389/389/389 394/394/394
f 388/388/388 394/394/394 393/393/393
f 389/389/389 390/390/390 395/395/395
f 389/389/389 395/395/395 394/394/394
f 391/391/391 392/392/392 397/397/397
f 391/391/391 397/397/397 396/396/396
f 392/392/392 393/393/393 398/398/398
f 392/392/392 398/398/398 397/397/397
f 393/393/393 394/394/394 399/399/399
f 393/393/393 399/399/399 398/398/398
f 394/394/394 395/395/395 400/400/400
f 394/394/394 400/400/400 399/399/399
f 396/396/396 397/397/397 402/402/402
f 396/396/396 402/402/402 401/401/401
f 397/397/397 398/398/398 403/403/403
f 397/397/397 403/403/403 402/402/402
f 398/398/398 399/399/399 404/404/404
f 398/398/398 404/404/404 403/403/403
f 399/399/399 400/400/400 405/405/405
f 399/399/399 405/405/405 404/404/404
f 406/406/406 407/407/407 412/412/412
f 406/406/406 412/412/412 411/411/411
f 407/407/407 408/408/408 413/413/413
f 407/407/407 413/413/413 412/412/412
f 408/408/408 409/409/409 414/414/414
f 408/408/408 414/414/414 413/413/413
f 409/409/409 410/410/410 415/415/415
f 409/409/409 415/415/415 414/414/414
f 411/411/411 412/412/412 417/417/417
f 411/411/411 417/417/417 416/416/416
f 412/412/412 413/413/413 418/418/418
f 412/412/412 418/418/418 417/417/417
f 413/413/413 414/414/414 419/419/419
f 413/413/413 419/419/419 418/418/418
f 414/414/414 415/415/415 420/420/420
f 414/414/414 420/420/420 419/419/419
f 416/416/416 417/417/417 422/422/422
f 416/416/416 422/422/422 421/421/421
f 417/417/417 418/418/418 423/423/423
f 417/417/417 423/423/423 422/422/422
f 418/418/418 419/419/419 424/424/424
f 418/418/418 424/424/424 423/423/423
f 419/419/419 420/420/420 425/425/425
f 419/419/419 425/425/425 424/424/424
f 421/421/421 422/422/422 427/427/427
f 421/421/421 427/427/427 426/426/426
f 422/422/422 423/423/423 428/428/428
f 422/422/422 428/428/428 427/427/427
f 423/423/423 424/424/424 429/429/429
f 423/423/423 429/429/429 428/428/428
f 424/424/424 425/425/425 430/430/430
f 424/424/424 430/430/430 429/429/429
f 426/426/426 427/427/427 432/432/432
f 426/426/426 432/432/432 431/431/431
f 427/427/427 428/428/428 433/433/433
f 427/427/427 433/433/433 432/432/432
f 428/428/428 429/429/429 434/434/434
f 428/428/428 434/434/434 433/433/433
f 429/429/429 430/430/430 435/435/435
f 429/429/429 435/435/435 434/434/434
f 431/431/431 432/432/432 437/437/437
f 431/431/431 437/437/437 436/436/436
f 432/432/432 433/433/433 438/438/438
f 432/432/432 438/438/438 437/437/437
f 433/433/433 434/434/434 439/439/439
f 433/433/433 439/439/439 438/438/438
f 434/434/434 435/435/435 440/440/440
f 434/434/434 440/440/440 439/439/439
f 436/436/436 437/437/437 442/442/442
f 436/436/436 442/442/442 441/441/441
f 437/437/437 438/438/438 443/443/443
f 437/437/437 443/443/443 442/442/442
f 438/438/438 439/439/439 444/444/444
f 438/438/438 444/444/444 443/443/443
f 439/439/439 440/440/440 445/445/445
f 439/439/439 445/445/445 444/444/444
f 441/441/441 442/442/442 447/447/447
f 441/441/441 447/447/447 446/446/446
f 442/442/442 443/443/443 448/448/448
f 442/442/442 448/448/448 447/447/447
f 443/443/443 444/444/444 449/449/449
f 443/443/443 449/449/449 448/448/448
f 444/444/444 445/445/445 450/450/450
f 444/444/444 450/450/450 449/449/449
f 451/451/451 452/452/452 457/457/457
f 451/451/451 457/457/457 456/456/456
f 452/452/452 453/453/453 458/458/458
f 452/452/452 458/458/458 457/457/457
f 453/453/453 454/454/454 459/459/459
f 453/453/453 459/459/459 458/458/458
f 454/454/454 455/455/455 460/460/460
f 454/454/454 460/460/460 459/459/459
f 456/456/456 457/457/457 462/462/462
f 456/456/456 462/462/462 461/461/461
f 457/457/457 458/458/458 463/463/463
f 457/457/457 463/463/463 462/462/462
f 458/458/458 459/459/459 464/464/464
f 458/458/458 464/464/464 463/463/463
f 459/459/459 460/460/460 465/465/465
f 459/459/459 465/465/465 464/464/464
f 461/461/461 462/462/462 467/467/467
f 461/461/461 467/467/467 466/466/466
f 462/462/462 463/463/463 468/468/468
f 462/462/462 468/468/468 467/467/467
f 463/463/463 464/464/464 469/469/469
f 463/463/463 469/469/469 468/468/468
f 464/464/464 465/465/465 470/470/470
f 464/464/464 470/470/470 469/469/469
f 466/466/466 467/467/467 472/472/472
f 466/466/466 472/472/472 471/471/471
f 467/467/467 468/468/468 473/473/473
f 467/467/467 473/473/473 472/472/472
f 468/468/468 469/469/469 474/474/474
f 468/468/468 474/474/474 473/473/473
f 469/469/469 470/470/470 475/475/475
f 469/469/469 475/475/475 474/474/474
f 471/471/471 472/472/472 477/477/477
f 471/471/471 477/477/477 476/476/476
f 472/472/472 473/473/473 478/478/478
f 472/472/472 478/478/478 477/477/477
f 473/473/473 474/474/474 479/479/479
f 473/473/473 479/479/479 478/478/478
f 474/474/474 475/475/475 480/480/480
f 474/474/474 480/480/480 479/479/479
f 476/476/476 477/477/477 482/482/482
f 476/476/476 482/482/482 481/481/481
f 477/477/477 478/478/478 483/483/483
f 477/477/477 483/483/483 482/482/482
f 478/478/478 479/479/479 484/484/484
f 478/478/478 484/484/484 483/483/483
f 479/479/479 480/480/480 485/485/485
f 479/479/479 485/485/485 484/484/484
f 481/481/481 482/482/482 487/487/487
f 481/481/481 487/487/487 486/486/486
f 482/482/482 483/483/483 488/488/488
f 482/482/482 488/488/488 487/487/487
f 483/483/483 484/484/484 489/489/489
f 483/483/483 489/489/489 488/488/488
f 484/484/484 485/485/485 490/490/490
f 484/484/484 490/490/490 489/489/489
f 486/486/486 487/487/487 492/492/492
f 486/486/486 492/492/492 491/491/491
f 487/487/487 488/488/488 493/493/493
f 487/487/487 493/493/493 492/492/492
f 488/488/488 489/489/489 494/494/494
f 488/488/488 494/494/494 493/493/493
f 489/489/489 490/490/490 495/495/495
f 489/489/489 495/495/495 494/494/494
f 496/496/496 497/497/497 502/502/502
f 496/496/496 502/502/502 501/501/501
f 497/497/497 498/498/498 503/503/503
f 497/497/497 503/503/503 502/502/502
f 498/498/498 499/499/499 504/504/504
f 498/498/498 504/504/504 503/503/503
f 499/499/499 500/500/500 505/505/505
f 499/499/499 505/505/505 504/504/504
f 501/501/501 502/502/502 507/507/507
f 501/501/501 507/507/507 506/506/506
f 502/502/502 503/503/503 508/508/508
f 502/502/502 508/508/508 507/507/507
f 503/503/503 504/504/504 509/509/509
f 503/503/503 509/509/509 508/508/508
f 504/504/504 505/505/505 510/510/510
f 504/504/504 510/510/510 509/509/509
f 506/506/506 507/507/507 512/512/512
f 506/506/506 512/512/512 511/511/511
f 507/507/507 508/508/508 513/513/513
f 507/507/507 513/513/513 512/512/512
f 508/508/508 509/509/509 514/514/514
f 508/508/508 514/514/514 513/513/513
f 509/509/509 510/510/510 515/515/515
f 509/509/509 515/515/515 514/514/514
f 511/511/511 512/512/512 517/517/517
f 511/511/511 517/517/517 516/516/516
f 512/512/512 513/513/513 518/518/518
f 512/512/512 518/518/518 517/517/517
f 513/513/513 514/514/514 519/519/519
f 513/513/513 519/519/519 518/518/518
f 514/514/514 515/515/515 520/520/520
f 514/514/514 520/520/520 519/519/519
f 516/516/516 517/517/517 522/522/522
f 516/516/516 522/522/522 521/521/521
f 517/517/517 518/518/518 523/523/523
f 517/517/517 523/523/523 522/522/522
f 518/518/518 519/519/519 524/524/524
f 518/518/518 524/524/524 523/523/523
f 519/519/519 520/520/520 525/525/525
f 519/519/519 525/525/525 524/524/524
f 521/521/521 522/522/522 527/527/527
f 521/521/521 527/527/527 526/526/526
f 522/522/522 523/523/523 528/528/528
f 522/522/522 528/528/528 527/527/527
f 523/523/523 524/524/524 529/529/529
f 523/523/523 529/529/529 528/528/528
f 524/524/524 525/525/525 530/530/530
f 524/524/524 530/530/530 529/529/529
f 526/526/526 527/527/527 532/532/532
f 526/526/526 532/532/532 531/531/531
f 527/527/527 528/528/528 533/533/533
f 527/527/527 533/533/533 532/532/532
f 528/528/528 529/529/529 534/534/534
f 528/528/528 534/534/534 533/533/533
f 529/529/529 530/530/530 535/535/535
f 529/529/529 535/535/535 534/534/534
f 531/531/531 532/532/532 537/537/537
f 531/531/531 537/537/537 536/536/536
f 532/532/532 533/533/533 538/538/538
f 532/532/532 538/538/538 537/537/537
f 533/533/533 534/534/534 539/539/539
f 533/533/533 539/539/539 538/538/538
f 534/534/534 535/535/535 540/540/540
f 534/534/534 540/540/540 539/539/539
f 541/541/541 542/542/542 547/547/547
f 541/541/541 547/547/547 546/546/546
f 542/542/542 543/543/543 548/548/548
f 542/542/542 548/548/548 547/547/547
f 543/543/543 544/544/544 549/549/549
f 543/543/543 549/549/549 548/548/548
f 544/544/544 545/545/545 550/550/550
f 544/544/544 550/550/550 549/549/549
f 546/546/546 547/547/547 552/552/552
f 546/546/546 552/552/552 551/551/551
f 547/547/547 548/548/548 553/553/553
f 547/547/547 553/553/553 552/552/552
f 548/548/548 549/549/549 554/554/554
f 548/548/548 554/554/554 553/553/553
f 549/549/549 550/550/550 555/555/555
f 549/549/549 555/555/555 554/554/554
f 551/551/551 552/552/552 557/557/557
f 551/551/551 557/557/557 556/556/556
f 552/552/552 553/553/553 558/558/558
f 552/552/552 558/558/558 557/557/557
f 553/553/553 554/554/554 559/559/559
f 553/553/553 559/559/559 558/558/558
f 554/554/554 555/555/555 560/560/560
f 554/554/554 560/560/560 559/559/559
f 556/556/556 557/557/557 562/562/562
f 556/556/556 562/562/562 561/561/561
f 557/557/557 558/558/558 563/563/563
f 557/557/557 563/563/563 562/562/562
f 558/558/558 559/559/559 564/564/564
f 558/558/558 564/564/564 563/563/563
f 559/559/559 560/560/560 565/565/565
f 559/559/559 565/565/565 564/564/564
f 561/561/561 562/562/562 567/567/567
f 561/561/561 567/567/567 566/566/566
f 562/562/562 563/563/563 568/568/568
f 562/562/562 568/568/568 567/567/567
f 563/563/563 564/564/564 569/569/569
f 563/563/563 569/569/569 568/568/568
f 564/564/564 565/565/565 570/570/570
f 564/564/564 570/570/570 569/569/569
f 566/566/566 567/567/567 572/572/572
f 566/566/566 572/572/572 571/571/571
f 567/567/567 568/568/568 573/573/573
f 567/567/567 573/573/573 572/572/572
f 568/568/568 569/569/569 574/574/574
f 568/568/568 574/574/574 573/573/573
f 569/569/569 570/570/570 575/575/575
f 569/569/569 575/575/575 574/574/574
f 571/571/571 572/572/572 577/577/577
f 571/571/571 577/577/577 576/576/576
f 572/572/572 573/573/573 578/578/578
f 572/572/572 578/578/578 577/577/577
f 573/573/573 574/574/574 579/579/579
f 573/573/573 579/579/579 578/578/578
f 574/574/574 575/575/575 580/580/580
f 574/574/574 580/580/580 579/579/579
f 576/576/576 577/577/577 582/582/582
f 576/576/576 582/582/582 581/581/581
f 577/577/577 578/578/578 583/583/583
f 577/577/577 583/583/583 582/582/582
f 578/578/578 579/579/579 584/584/584
f 578/578/578 584/584/584 583/583/583
f 579/579/579 580/580/580 585/585/585
f 579/579/579 585/585/585 584/584/584
f 586/586/586 587/587/587 592/592/592
f 586/586/586 592/592/592 591/591/591
f 587/587/587 588/588/588 593/593/593
f 587/587/587 593/593/593 592/592/592
f 588/588/588 589/589/589 594/594/594
f 588/588/588 594/594/594 593/593/593
f 589/589/589 590/590/590 595/595/595
f 589/589/589 595/595/595 594/594/594
f 591/591/591 592/592/592 597/597/597
f 591/591/591 597/597/597 596/596/596
f 592/592/592 593/593/593 598/598/598
f 592/592/592 598/598/598 597/597/597
f 593/593/593 594/594/594 599/599/599
f 593/593/593 599/599/599 598/598/598
f 594/594/594 595/595/595 600/600/600
f 594/594/594 600/600/600 599/599/599
f 596/596/596 597/597/597 602/602/602
f 596/596/596 602/602/602 601/601/601
f 597/597/597 598/598/598 603/603/603
f 597/597/597 603/603/603 602/602/602
f 598/598/598 599/599/599 604/604/604
f 598/598/598 604/604/604 603/603/603
f 599/599/599 600/600/600 605/605/605
f 599/599/599 605/605/605 604/604/604
f 601/601/601 602/602/602 607/607/607
f 601/601/601 607/607/607 606/606/606
f 602/602/602 603/603/603 608/608/608
f 602/602/602 608/608/608 607/607/607
f 603/603/603 604/604/604 609/609/609
f 603/603/603 609/609/609 608/608/608
f 604/604/604 605/605/605 610/610/610
f 604/604/604 610/610/610 609/609/609
f 606/606/606 607/607/607 612/612/612
f 606/606/606 612/612/612 611/611/611
f 607/607/607 608/608/608 613/613/613
f 607/607/607 613/613/613 612/612/612
f 608/608/608 609/609/609 614/614/614
f 608/608/608 614/614/614 613/613/613
f 609/609/609 610/610/610 615/615/615
f 609/609/609 615/615/615 614/614/614
f 611/611/611 612/612/612 617/617/617
f 611/611/611 617/617/617 616/616/616
f 612/612/612 613/613/613 618/618/618
f 612/612/612 618/618/618 617/617/617
f 613/613/613 614/614/614 619/619/619
f 613/613/613 619/619/619 618/618/618
f 614/614/614 615/615/615 620/620/620
f 614/614/614 620/620/620 619/619/619
f 616/616/616 617/617/617 622/622/622
f 616/616/616 622/622/622 621/621/621
f 617/617/617 618/618/618 623/623/623
f 617/617/617 623/623/623 622/622/622
f 618/618/618 619/619/619 624/624/624
f 618/618/618 624/624/624 623/623/623
f 619/619/619 620/620/620 625/625/625
f 619/619/619 625/625/625 624/624/624
f 621/621/621 622/622/622 627/627/627
f 621/621/621 627/627/627 626/626/626
f 622/622/622 623/623/623 628/628/628
f 622/622/622 628/628/628 627/627/627
f 623/623/623 624/624/624 629/629/629
f 623/623/623 629/629/629 628/628/628
f 624/624/624 625/625/625 630/630/630
f 624/624/624 630/630/630 629/629/629
f 632/632/632 643/643/643 642/642/642
f 633/633/633 644/644/644 643/643/643
f 634/634/634 645/645/645 644/644/644
f 635/635/635 646/646/646 645/645/645
f 636/636/636 647/647/647 646/646/646
f 637/637/637 648/648/648 647/647/647
f 638/638/638 649/649/649 648/648/648
f 639/639/639 650/650/650 649/649/649
f 640/640/640 651/651/651 650/650/650
f 641/641/641 652/652/652 651/651/651
f 642/642/642 643/643/643 653/653/653
f 643/643/643 654/654/654 653/653/653
f 643/643/643 644/644/644 654/654/654
f 644/644/644 655/655/655 654/654/654
f 644/644/644 645/645/645 655/655/655
f 645/645/645 656/656/656 655/655/655
f 645/645/645 646/646/646 656/656/656
f 646/646/646 657/657/657 656/656/656
f 646/646/646 647/647/647 657/657/657
f 647/647/647 658/658/658 657/657/657
f 647/647/647 648/648/648 658/658/658
f 648/648/648 659/659/659 658/658/658
f 648/648/648 649/649/649 659/659/659
f 649/649/649 660/660/660 659/659/659
f 649/649/649 650/650/650 660/660/660
f 650/650/650 661/661/661 660/660/660
f 650/650/650 651/651/651 661/661/661
f 651/651/651 662/662/662 661/661/661
f 651/651/651 652/652/652 662/662/662
f 652/652/652 663/663/663 662/662/662
f 653/653/653 654/654/654 664/664/664
f 654/654/654 665/665/665 664/664/664
f 654/654/654 655/655/655 665/665/665
f 655/655/655 666/666/666 665/665/665
f 655/655/655 656/656/656 666/666/666
f 656/656/656 667/667/667 666/666/666
f 656/656/656 657/657/657 667/667/667
f 657/657/657 668/668/668 667/667/667
f 657/657/657 658/658/658 668/668/668
f 658/658/658 669/669/669 668/668/668
f 658/658/658 659/659/659 669/669/669
f 659/659/659 670/670/670 669/669/669
f 659/659/659 660/660/660 670/670/670
f 660/660/660 671/671/671 670/670/670
f 660/660/660 661/661/661 671/671/671
f 661/661/661 672/672/672 671/671/671
f 661/661/661 662/662/662 672/672/672
f 662/662/662 673/673/673 672/672/672
f 662/662/662 663/663/663 673/673/673
f 663/663/663 674/674/674 673/673/673
f 664/664/664 665/665/665 675/675/675
f 665/665/665 676/676/676 675/675/675
f 665/665/665 666/666/666 676/676/676
f 666/666/666 677/677/677 676/676/676
f 666/666/666 667/667/667 677/677/677
f 667/667/667 678/678/678 677/677/677
f 667/667/667 668/668/668 678/678/678
f 668/668/668 679/679/679 678/678/678
f 668/668/668 669/669/669 679/679/679
f 669/669/669 680/680/680 679/679/679
f 669/669/669 670/670/670 680/680/680
f 670/670/670 681/681/681 680/680/680
f 670/670/670 671/671/671 681/681/681
f 671/671/671 682/682/682 681/681/681
f 671/671/671 672/672/672 682/682/682
f 672/672/672 683/683/683 682/682/682
f 672/672/672 673/673/673 683/683/683
f 673/673/673 684/684/684 683/683/683
f 673/673/673 674/674/674 684/684/684
f 674/674/674 685/685/685 684/684/684
f 675/675/675 676/676/676 686/686/686
f 676/676/676 677/677/677 687/687/687
f 677/677/677 678/678/678 688/688/688
f 678/678/678 679/679/679 689/689/689
f 679/679/679 680/680/680 690/690/690
f 680/680/680 681/681/681 691/691/691
f 681/681/681 682/682/682 692/692/692
f 682/682/682 683/683/683 693/693/693
f 683/683/683 684/684/684 694/694/694
f 684/684/684 685/685/685 695/695/695
