# Original VFX mesh; Unity Y-up, +Z forward
o Ring
v 0.472428143 0 0.03183753
v 0.499999732 0.000173284177 0.0159187634
v 0.499999732 0.000173284177 -0.0159187671
v 0.472428143 -1.749254E-11 -0.03183753
v 0.444856584 -0.000173284177 -0.0159187615
v 0.444856584 -0.000173284177 0.0159187615
v 0.472428143 3.498508E-11 0.03183753
v 0.470153272 0.04630603 0.03183753
v 0.497592628 0.0490084775 0.0159187634
v 0.497592628 0.0490084775 -0.0159187671
v 0.470153272 0.04630603 -0.03183753
v 0.442713946 0.0436035842 -0.0159187615
v 0.442713946 0.0436035842 0.0159187615
v 0.470153272 0.04630603 0.03183753
v 0.4633506 0.09216611 0.03183753
v 0.490392923 0.09754513 0.0159187634
v 0.490392923 0.09754513 -0.0159187671
v 0.4633506 0.09216611 -0.03183753
v 0.436308265 0.08678708 -0.0159187615
v 0.436308265 0.08678708 0.0159187615
v 0.4633506 0.09216611 0.03183753
v 0.452085584 0.13713856 0.03183753
v 0.478470445 0.145142347 0.0159187634
v 0.478470445 0.145142347 -0.0159187671
v 0.452085584 0.13713856 -0.03183753
v 0.425700724 0.129134789 -0.0159187615
v 0.425700724 0.129134789 0.0159187615
v 0.452085584 0.13713856 0.03183753
v 0.4364667 0.180790335 0.03183753
v 0.46194002 0.191341743 0.0159187634
v 0.46194002 0.191341743 -0.0159187671
v 0.4364667 0.180790335 -0.03183753
v 0.4109934 0.170238912 -0.0159187615
v 0.4109934 0.170238912 0.0159187615
v 0.4364667 0.180790335 0.03183753
v 0.416644454 0.222700953 0.03183753
v 0.440960884 0.235698342 0.0159187634
v 0.440960884 0.235698342 -0.0159187671
v 0.416644454 0.222700953 -0.03183753
v 0.392328024 0.20970358 -0.0159187615
v 0.392328024 0.20970358 0.0159187615
v 0.416644454 0.222700953 0.03183753
v 0.392809719 0.262466848 0.03183753
v 0.415735066 0.277785122 0.0159187634
v 0.415735066 0.277785122 -0.0159187671
v 0.392809719 0.262466848 -0.03183753
v 0.369884342 0.2471486 -0.0159187615
v 0.369884342 0.2471486 0.0159187615
v 0.392809719 0.262466848 0.03183753
v 0.365191936 0.2997051 0.03183753
v 0.3865055 0.317196637 0.0159187634
v 0.3865055 0.317196637 -0.0159187671
v 0.365191936 0.2997051 -0.03183753
v 0.3438784 0.282213569 -0.0159187615
v 0.3438784 0.282213569 0.0159187615
v 0.365191936 0.2997051 0.03183753
v 0.334057242 0.334056973 0.03183753
v 0.353553653 0.353553385 0.0159187634
v 0.353553653 0.353553385 -0.0159187671
v 0.334057242 0.334056973 -0.03183753
v 0.314560831 0.314560533 -0.0159187615
v 0.314560831 0.314560533 0.0159187615
v 0.334057242 0.334056973 0.03183753
v 0.299705356 0.365191668 0.03183753
v 0.317196846 0.386505246 0.0159187634
v 0.317196846 0.386505246 -0.0159187671
v 0.299705356 0.365191668 -0.03183753
v 0.282213837 0.34387812 -0.0159187615
v 0.282213837 0.34387812 0.0159187615
v 0.299705356 0.365191668 0.03183753
v 0.262467116 0.392809451 0.03183753
v 0.277785331 0.415734828 0.0159187634
v 0.277785331 0.415734828 -0.0159187671
v 0.262467116 0.392809451 -0.03183753
v 0.247148886 0.369884074 -0.0159187615
v 0.247148886 0.369884074 0.0159187615
v 0.262467116 0.392809451 0.03183753
v 0.2227012 0.416644216 0.03183753
v 0.235698551 0.440960675 0.0159187634
v 0.235698551 0.440960675 -0.0159187671
v 0.2227012 0.416644216 -0.03183753
v 0.209703863 0.392327756 -0.0159187615
v 0.209703863 0.392327756 0.0159187615
v 0.2227012 0.416644216 0.03183753
v 0.180790588 0.436466426 0.03183753
v 0.191342071 0.4619397 0.0159187634
v 0.191342071 0.4619397 -0.0159187671
v 0.180790588 0.436466426 -0.03183753
v 0.170239121 0.410993159 -0.0159187615
v 0.170239121 0.410993159 0.0159187615
v 0.180790588 0.436466426 0.03183753
v 0.137138829 0.452085316 0.03183753
v 0.14514257 0.4784702 0.0159187634
v 0.14514257 0.4784702 -0.0159187671
v 0.137138829 0.452085316 -0.03183753
v 0.129135087 0.425700426 -0.0159187615
v 0.129135087 0.425700426 0.0159187615
v 0.137138829 0.452085316 0.03183753
v 0.0921663344 0.463350326 0.03183753
v 0.0975453556 0.490392685 0.0159187634
v 0.0975453556 0.490392685 -0.0159187671
v 0.0921663344 0.463350326 -0.03183753
v 0.08678732 0.436308 -0.0159187615
v 0.08678732 0.436308 0.0159187615
v 0.0921663344 0.463350326 0.03183753
v 0.0463063 0.470153 0.03183753
v 0.0490087457 0.49759236 0.0159187634
v 0.0490087457 0.49759236 -0.0159187671
v 0.0463063 0.470153 -0.03183753
v 0.04360386 0.442713678 -0.0159187615
v 0.04360386 0.442713678 0.0159187615
v 0.0463063 0.470153 0.03183753
v 2.54816968E-07 0.472427875 0.03183753
v 2.54816968E-07 0.5 0.0159187634
v 2.54816968E-07 0.5 -0.0159187671
v 2.54816968E-07 0.472427875 -0.03183753
v 2.54816968E-07 0.44485575 -0.0159187615
v 2.54816968E-07 0.44485575 0.0159187615
v 2.54816968E-07 0.472427875 0.03183753
v -0.0463057943 0.470153 0.03183753
v -0.0490083061 0.49759236 0.0159187634
v -0.0490083061 0.49759236 -0.0159187671
v -0.0463057943 0.470153 -0.03183753
v -0.04360328 0.442713678 -0.0159187615
v -0.04360328 0.442713678 0.0159187615
v -0.0463057943 0.470153 0.03183753
v -0.0921658352 0.4633503 0.03183753
v -0.097544916 0.490392625 0.0159187634
v -0.097544916 0.490392625 -0.0159187671
v -0.0921658352 0.4633503 -0.03183753
v -0.08678675 0.436308 -0.0159187615
v -0.08678675 0.436308 0.0159187615
v -0.0921658352 0.4633503 0.03183753
v -0.137138322 0.4520853 0.03183753
v -0.145142063 0.478470176 0.0159187634
v -0.145142063 0.478470176 -0.0159187671
v -0.137138322 0.4520853 -0.03183753
v -0.12913458 0.4257004 -0.0159187615
v -0.12913458 0.4257004 0.0159187615
v -0.137138322 0.4520853 0.03183753
v -0.180790082 0.436466426 0.03183753
v -0.1913415 0.461939722 0.0159187634
v -0.19134149 0.461939722 -0.0159187671
v -0.180790082 0.436466426 -0.03183753
v -0.170238674 0.410993129 -0.0159187615
v -0.170238674 0.410993129 0.0159187615
v -0.180790082 0.436466426 0.03183753
v -0.22270073 0.4166442 0.03183753
v -0.2356981 0.440960646 0.0159187634
v -0.2356981 0.440960646 -0.0159187671
v -0.22270073 0.4166442 -0.03183753
v -0.209703371 0.392327726 -0.0159187615
v -0.209703371 0.392327726 0.0159187615
v -0.22270073 0.4166442 0.03183753
v -0.262466639 0.3928094 0.03183753
v -0.277784884 0.415734768 0.0159187634
v -0.277784884 0.415734768 -0.0159187671
v -0.262466639 0.3928094 -0.03183753
v -0.247148439 0.369884 -0.0159187615
v -0.247148439 0.369884 0.0159187615
v -0.262466639 0.3928094 0.03183753
v -0.2997048 0.3651917 0.03183753
v -0.3171963 0.386505276 0.0159187634
v -0.3171963 0.386505276 -0.0159187671
v -0.2997048 0.3651917 -0.03183753
v -0.2822133 0.34387815 -0.0159187615
v -0.2822133 0.34387815 0.0159187615
v -0.2997048 0.3651917 0.03183753
v -0.3340567 0.334056973 0.03183753
v -0.353553116 0.353553385 0.0159187634
v -0.353553116 0.353553385 -0.0159187671
v -0.3340567 0.334056973 -0.03183753
v -0.314560264 0.314560533 -0.0159187615
v -0.314560264 0.314560533 0.0159187615
v -0.3340567 0.334056973 0.03183753
v -0.36519143 0.299705058 0.03183753
v -0.386505 0.317196578 0.0159187634
v -0.386505 0.317196548 -0.0159187671
v -0.36519143 0.299705058 -0.03183753
v -0.343877852 0.282213569 -0.0159187615
v -0.343877852 0.282213569 0.0159187615
v -0.36519143 0.299705058 0.03183753
v -0.392809182 0.262466818 0.03183753
v -0.415734559 0.2777851 0.0159187634
v -0.415734559 0.2777851 -0.0159187671
v -0.392809182 0.262466818 -0.03183753
v -0.3698838 0.247148588 -0.0159187615
v -0.3698838 0.247148588 0.0159187615
v -0.392809182 0.262466818 0.03183753
v -0.416643947 0.222700909 0.03183753
v -0.4409604 0.235698283 0.0159187634
v -0.4409604 0.235698283 -0.0159187671
v -0.416643947 0.222700909 -0.03183753
v -0.3923275 0.20970355 -0.0159187615
v -0.3923275 0.20970355 0.0159187615
v -0.416643947 0.222700909 0.03183753
v -0.436466217 0.18079026 0.03183753
v -0.4619395 0.191341683 0.0159187634
v -0.4619395 0.191341683 -0.0159187671
v -0.436466217 0.18079026 -0.03183753
v -0.41099292 0.170238823 -0.0159187615
v -0.41099292 0.170238823 0.0159187615
v -0.436466217 0.18079026 0.03183753
v -0.452085048 0.13713859 -0.03183753
v -0.4257002 0.1291348 -0.0159187634
v -0.4257002 0.1291348 0.0159187671
v -0.452085048 0.13713859 0.03183753
v -0.478469878 0.145142391 0.0159187615
v -0.478469878 0.145142391 -0.0159187615
v -0.452085048 0.13713859 -0.03183753
v -0.463350058 0.0921661 -0.03183753
v -0.436307728 0.08678711 -0.0159187634
v -0.436307728 0.08678711 0.0159187671
v -0.463350058 0.0921661 0.03183753
v -0.4903924 0.0975450948 0.0159187615
v -0.4903924 0.0975450948 -0.0159187615
v -0.463350058 0.0921661 -0.03183753
v -0.470152736 0.04630601 -0.03183753
v -0.44271338 0.04360355 -0.0159187634
v -0.44271338 0.04360355 0.0159187671
v -0.470152736 0.04630601 0.03183753
v -0.4975921 0.04900847 0.0159187615
v -0.4975921 0.04900847 -0.0159187615
v -0.470152736 0.04630601 -0.03183753
v -0.4724276 -4.13009573E-08 -0.03183753
v -0.444855481 -4.13009573E-08 -0.0159187634
v -0.444855481 -4.13009573E-08 0.0159187671
v -0.4724276 -4.13009573E-08 0.03183753
v -0.499999732 -4.13009573E-08 0.0159187615
v -0.499999732 -4.13009573E-08 -0.0159187615
v -0.4724276 -4.13009573E-08 -0.03183753
v -0.470152736 -0.0463060923 -0.03183753
v -0.44271338 -0.0436036065 -0.0159187634
v -0.44271338 -0.0436036065 0.0159187671
v -0.470152736 -0.0463060923 0.03183753
v -0.4975921 -0.0490085743 0.0159187615
v -0.4975921 -0.0490085743 -0.0159187615
v -0.470152736 -0.0463060923 -0.03183753
v -0.463350028 -0.0921661854 -0.03183753
v -0.4363077 -0.0867871642 -0.0159187634
v -0.4363077 -0.0867871642 0.0159187671
v -0.463350028 -0.0921661854 0.03183753
v -0.490392357 -0.09754521 0.0159187615
v -0.490392357 -0.09754521 -0.0159187615
v -0.463350028 -0.0921661854 -0.03183753
v -0.452085018 -0.13713868 -0.03183753
v -0.425700128 -0.129134938 -0.0159187634
v -0.425700158 -0.129134938 0.0159187671
v -0.452085018 -0.13713868 0.03183753
v -0.478469878 -0.1451424 0.0159187615
v -0.478469878 -0.1451424 -0.0159187615
v -0.452085018 -0.13713868 -0.03183753
v -0.436466157 -0.18079032 -0.03183753
v -0.410992861 -0.170238882 -0.0159187634
v -0.410992861 -0.170238882 0.0159187671
v -0.436466157 -0.18079032 0.03183753
v -0.461939454 -0.191341743 0.0159187615
v -0.461939454 -0.191341743 -0.0159187615
v -0.436466157 -0.18079032 -0.03183753
v -0.416643918 -0.222700983 -0.03183753
v -0.3923275 -0.20970358 -0.0159187634
v -0.3923275 -0.20970358 0.0159187671
v -0.416643918 -0.222700983 0.03183753
v -0.440960348 -0.235698372 0.0159187615
v -0.440960348 -0.235698372 -0.0159187615
v -0.416643918 -0.222700983 -0.03183753
v -0.392809123 -0.262466878 -0.03183753
v -0.369883776 -0.247148633 -0.0159187634
v -0.369883776 -0.247148633 0.0159187671
v -0.392809123 -0.262466878 0.03183753
v -0.41573447 -0.277785152 0.0159187615
v -0.41573447 -0.277785152 -0.0159187615
v -0.392809123 -0.262466878 -0.03183753
v -0.36519137 -0.299705148 -0.03183753
v -0.343877852 -0.282213569 -0.0159187634
v -0.343877852 -0.282213569 0.0159187671
v -0.36519137 -0.299705148 0.03183753
v -0.3865049 -0.3171967 0.0159187615
v -0.3865049 -0.3171967 -0.0159187615
v -0.36519137 -0.299705148 -0.03183753
v -0.334056616 -0.334057 -0.03183753
v -0.314560235 -0.314560533 -0.0159187634
v -0.314560235 -0.314560533 0.0159187671
v -0.334056616 -0.334057 0.03183753
v -0.353553027 -0.353553444 0.0159187615
v -0.353553027 -0.353553444 -0.0159187615
v -0.334056616 -0.334057 -0.03183753
v -0.29970482 -0.365191668 -0.03183753
v -0.282213271 -0.34387815 -0.0159187634
v -0.282213271 -0.34387815 0.0159187671
v -0.29970482 -0.365191668 0.03183753
v -0.3171964 -0.386505216 0.0159187615
v -0.3171964 -0.386505216 -0.0159187615
v -0.29970482 -0.365191668 -0.03183753
v -0.2624665 -0.39280948 -0.03183753
v -0.2471482 -0.369884133 -0.0159187634
v -0.2471482 -0.369884133 0.0159187671
v -0.2624665 -0.39280948 0.03183753
v -0.2777848 -0.415734828 0.0159187615
v -0.2777848 -0.415734828 -0.0159187615
v -0.2624665 -0.39280948 -0.03183753
v -0.222700655 -0.416644216 -0.03183753
v -0.209703222 -0.3923278 -0.0159187634
v -0.209703222 -0.3923278 0.0159187671
v -0.222700655 -0.416644216 0.03183753
v -0.235698089 -0.440960646 0.0159187615
v -0.235698089 -0.440960646 -0.0159187615
v -0.222700655 -0.416644216 -0.03183753
v -0.1807899 -0.436466515 -0.03183753
v -0.17023854 -0.4109932 -0.0159187634
v -0.17023854 -0.410993218 0.0159187671
v -0.1807899 -0.436466515 0.03183753
v -0.191341266 -0.461939842 0.0159187615
v -0.191341266 -0.461939842 -0.0159187615
v -0.1807899 -0.436466515 -0.03183753
v -0.137138247 -0.452085316 -0.03183753
v -0.129134491 -0.425700456 -0.0159187634
v -0.129134491 -0.425700456 0.0159187671
v -0.137138247 -0.452085316 0.03183753
v -0.145142 -0.478470176 0.0159187615
v -0.145142 -0.478470176 -0.0159187615
v -0.137138247 -0.452085316 -0.03183753
v -0.092165865 -0.4633503 -0.03183753
v -0.08678682 -0.436307967 -0.0159187634
v -0.08678682 -0.436307967 0.0159187671
v -0.092165865 -0.4633503 0.03183753
v -0.09754491 -0.490392655 0.0159187615
v -0.09754491 -0.490392655 -0.0159187615
v -0.092165865 -0.4633503 -0.03183753
v -0.0463056564 -0.470153 -0.03183753
v -0.04360315 -0.442713678 -0.0159187634
v -0.04360315 -0.442713678 0.0159187671
v -0.0463056564 -0.470153 0.03183753
v -0.04900816 -0.49759236 0.0159187615
v -0.04900816 -0.49759236 -0.0159187615
v -0.0463056564 -0.470153 -0.03183753
v 2.811011E-07 -0.472427875 -0.03183753
v 2.811011E-07 -0.44485575 -0.0159187634
v 2.811011E-07 -0.44485575 0.0159187671
v 2.811011E-07 -0.472427875 0.03183753
v 2.811011E-07 -0.5 0.0159187615
v 2.811011E-07 -0.5 -0.0159187615
v 2.811011E-07 -0.472427875 -0.03183753
v 0.0463064425 -0.470153 -0.03183753
v 0.0436039865 -0.442713678 -0.0159187634
v 0.0436039865 -0.442713678 0.0159187671
v 0.0463064425 -0.470153 0.03183753
v 0.0490089022 -0.49759236 0.0159187615
v 0.0490089022 -0.49759236 -0.0159187615
v 0.0463064425 -0.470153 -0.03183753
v 0.09216643 -0.4633503 -0.03183753
v 0.08678735 -0.436308 -0.0159187634
v 0.08678735 -0.436308 0.0159187671
v 0.09216643 -0.4633503 0.03183753
v 0.0975455046 -0.490392625 0.0159187615
v 0.0975455046 -0.490392625 -0.0159187615
v 0.09216643 -0.4633503 -0.03183753
v 0.137139 -0.452085257 -0.03183753
v 0.129135266 -0.425700366 -0.0159187634
v 0.129135266 -0.425700366 0.0159187671
v 0.137139 -0.452085257 0.03183753
v 0.145142749 -0.478470147 0.0159187615
v 0.145142749 -0.478470147 -0.0159187615
v 0.137139 -0.452085257 -0.03183753
v 0.180790678 -0.4364664 -0.03183753
v 0.1702393 -0.4109931 -0.0159187634
v 0.170239314 -0.4109931 0.0159187671
v 0.180790678 -0.4364664 0.03183753
v 0.191342071 -0.4619397 0.0159187615
v 0.191342071 -0.4619397 -0.0159187615
v 0.180790678 -0.4364664 -0.03183753
v 0.222701222 -0.416644216 -0.03183753
v 0.209703818 -0.3923278 -0.0159187634
v 0.209703818 -0.3923278 0.0159187671
v 0.222701222 -0.416644216 0.03183753
v 0.235698611 -0.440960646 0.0159187615
v 0.235698611 -0.440960646 -0.0159187615
v 0.222701222 -0.416644216 -0.03183753
v 0.262467235 -0.392809361 -0.03183753
v 0.24714902 -0.369883984 -0.0159187634
v 0.24714902 -0.369883984 0.0159187671
v 0.262467235 -0.392809361 0.03183753
v 0.27778545 -0.415734738 0.0159187615
v 0.27778545 -0.415734738 -0.0159187615
v 0.262467235 -0.392809361 -0.03183753
v 0.2997054 -0.365191668 -0.03183753
v 0.282213748 -0.3438782 -0.0159187634
v 0.282213748 -0.3438782 0.0159187671
v 0.2997054 -0.365191668 0.03183753
v 0.317197025 -0.386505157 0.0159187615
v 0.317197025 -0.386505157 -0.0159187615
v 0.2997054 -0.365191668 -0.03183753
v 0.334057331 -0.334056854 -0.03183753
v 0.31456092 -0.3145604 -0.0159187634
v 0.31456092 -0.3145604 0.0159187671
v 0.334057331 -0.334056854 0.03183753
v 0.353553742 -0.353553265 0.0159187615
v 0.353553742 -0.353553265 -0.0159187615
v 0.334057331 -0.334056854 -0.03183753
v 0.365192026 -0.299705 -0.03183753
v 0.3438785 -0.282213449 -0.0159187634
v 0.3438785 -0.282213449 0.0159187671
v 0.365192026 -0.299705 0.03183753
v 0.3865055 -0.317196578 0.0159187615
v 0.3865055 -0.317196578 -0.0159187615
v 0.365192026 -0.299705 -0.03183753
v 0.392809719 -0.262466878 -0.03183753
v 0.369884282 -0.2471487 -0.0159187634
v 0.369884282 -0.2471487 0.0159187671
v 0.392809719 -0.262466878 0.03183753
v 0.415735126 -0.2777851 0.0159187615
v 0.415735126 -0.2777851 -0.0159187615
v 0.392809719 -0.262466878 -0.03183753
v 0.416644484 -0.222700864 -0.03183753
v 0.392328054 -0.209703445 -0.0159187634
v 0.392328054 -0.209703445 0.0159187671
v 0.416644484 -0.222700864 0.03183753
v 0.4409609 -0.2356983 0.0159187615
v 0.4409609 -0.2356983 -0.0159187615
v 0.416644484 -0.222700864 -0.03183753
v 0.436466724 -0.18079032 -0.03183753
v 0.410993427 -0.170238927 -0.0159187634
v 0.410993427 -0.170238927 0.0159187671
v 0.436466724 -0.18079032 0.03183753
v 0.46194005 -0.1913417 0.0159187615
v 0.46194005 -0.1913417 -0.0159187615
v 0.436466724 -0.18079032 -0.03183753
v 0.4520856 -0.137138441 0.03183753
v 0.4784705 -0.145142183 0.0159187634
v 0.4784705 -0.145142183 -0.0159187671
v 0.4520856 -0.137138441 -0.03183753
v 0.425700724 -0.1291347 -0.0159187615
v 0.425700724 -0.1291347 0.0159187615
v 0.4520856 -0.137138441 0.03183753
v 0.463350624 -0.09216606 0.03183753
v 0.490392953 -0.097545065 0.0159187634
v 0.490392953 -0.097545065 -0.0159187671
v 0.463350624 -0.09216606 -0.03183753
v 0.4363083 -0.08678706 -0.0159187615
v 0.4363083 -0.08678706 0.0159187615
v 0.463350624 -0.09216606 0.03183753
v 0.4701533 -0.0463058539 0.03183753
v 0.497592658 -0.0490083136 0.0159187634
v 0.497592658 -0.0490083136 -0.0159187671
v 0.4701533 -0.0463058539 -0.03183753
v 0.442713976 -0.0436033942 -0.0159187615
v 0.442713976 -0.0436033942 0.0159187615
v 0.4701533 -0.0463058539 0.03183753
v 0.472428143 8.26019146E-08 0.03183753
v 0.499999732 -0.000173205481 0.0159187634
v 0.499999732 -0.000173205466 -0.0159187671
v 0.472428143 8.26194E-08 -0.03183753
v 0.444856584 0.000173370689 -0.0159187615
v 0.444856584 0.000173370689 0.0159187615
v 0.472428143 8.256693E-08 0.03183753
vt 0 0
vt 0.166666672 0
vt 0.333333343 0
vt 0.5 0
vt 0.6666667 0
vt 0.8333333 0
vt 1 0
vt 0 0.015625
vt 0.166666672 0.015625
vt 0.333333343 0.015625
vt 0.5 0.015625
vt 0.6666667 0.015625
vt 0.8333333 0.015625
vt 1 0.015625
vt 0 0.03125
vt 0.166666672 0.03125
vt 0.333333343 0.03125
vt 0.5 0.03125
vt 0.6666667 0.03125
vt 0.8333333 0.03125
vt 1 0.03125
vt 0 0.046875
vt 0.166666672 0.046875
vt 0.333333343 0.046875
vt 0.5 0.046875
vt 0.6666667 0.046875
vt 0.8333333 0.046875
vt 1 0.046875
vt 0 0.0625
vt 0.166666672 0.0625
vt 0.333333343 0.0625
vt 0.5 0.0625
vt 0.6666667 0.0625
vt 0.8333333 0.0625
vt 1 0.0625
vt 0 0.078125
vt 0.166666672 0.078125
vt 0.333333343 0.078125
vt 0.5 0.078125
vt 0.6666667 0.078125
vt 0.8333333 0.078125
vt 1 0.078125
vt 0 0.09375
vt 0.166666672 0.09375
vt 0.333333343 0.09375
vt 0.5 0.09375
vt 0.6666667 0.09375
vt 0.8333333 0.09375
vt 1 0.09375
vt 0 0.109375
vt 0.166666672 0.109375
vt 0.333333343 0.109375
vt 0.5 0.109375
vt 0.6666667 0.109375
vt 0.8333333 0.109375
vt 1 0.109375
vt 0 0.125
vt 0.166666672 0.125
vt 0.333333343 0.125
vt 0.5 0.125
vt 0.6666667 0.125
vt 0.8333333 0.125
vt 1 0.125
vt 0 0.140625
vt 0.166666672 0.140625
vt 0.333333343 0.140625
vt 0.5 0.140625
vt 0.6666667 0.140625
vt 0.8333333 0.140625
vt 1 0.140625
vt 0 0.15625
vt 0.166666672 0.15625
vt 0.333333343 0.15625
vt 0.5 0.15625
vt 0.6666667 0.15625
vt 0.8333333 0.15625
vt 1 0.15625
vt 0 0.171875
vt 0.166666672 0.171875
vt 0.333333343 0.171875
vt 0.5 0.171875
vt 0.6666667 0.171875
vt 0.8333333 0.171875
vt 1 0.171875
vt 0 0.1875
vt 0.166666672 0.1875
vt 0.333333343 0.1875
vt 0.5 0.1875
vt 0.6666667 0.1875
vt 0.8333333 0.1875
vt 1 0.1875
vt 0 0.203125
vt 0.166666672 0.203125
vt 0.333333343 0.203125
vt 0.5 0.203125
vt 0.6666667 0.203125
vt 0.8333333 0.203125
vt 1 0.203125
vt 0 0.21875
vt 0.166666672 0.21875
vt 0.333333343 0.21875
vt 0.5 0.21875
vt 0.6666667 0.21875
vt 0.8333333 0.21875
vt 1 0.21875
vt 0 0.234375
vt 0.166666672 0.234375
vt 0.333333343 0.234375
vt 0.5 0.234375
vt 0.6666667 0.234375
vt 0.8333333 0.234375
vt 1 0.234375
vt 0 0.25
vt 0.166666672 0.25
vt 0.333333343 0.25
vt 0.5 0.25
vt 0.6666667 0.25
vt 0.8333333 0.25
vt 1 0.25
vt 0 0.265625
vt 0.166666672 0.265625
vt 0.333333343 0.265625
vt 0.5 0.265625
vt 0.6666667 0.265625
vt 0.8333333 0.265625
vt 1 0.265625
vt 0 0.28125
vt 0.166666672 0.28125
vt 0.333333343 0.28125
vt 0.5 0.28125
vt 0.6666667 0.28125
vt 0.8333333 0.28125
vt 1 0.28125
vt 0 0.296875
vt 0.166666672 0.296875
vt 0.333333343 0.296875
vt 0.5 0.296875
vt 0.6666667 0.296875
vt 0.8333333 0.296875
vt 1 0.296875
vt 0 0.3125
vt 0.166666672 0.3125
vt 0.333333343 0.3125
vt 0.5 0.3125
vt 0.6666667 0.3125
vt 0.8333333 0.3125
vt 1 0.3125
vt 0 0.328125
vt 0.166666672 0.328125
vt 0.333333343 0.328125
vt 0.5 0.328125
vt 0.6666667 0.328125
vt 0.8333333 0.328125
vt 1 0.328125
vt 0 0.34375
vt 0.166666672 0.34375
vt 0.333333343 0.34375
vt 0.5 0.34375
vt 0.6666667 0.34375
vt 0.8333333 0.34375
vt 1 0.34375
vt 0 0.359375
vt 0.166666672 0.359375
vt 0.333333343 0.359375
vt 0.5 0.359375
vt 0.6666667 0.359375
vt 0.8333333 0.359375
vt 1 0.359375
vt 0 0.375
vt 0.166666672 0.375
vt 0.333333343 0.375
vt 0.5 0.375
vt 0.6666667 0.375
vt 0.8333333 0.375
vt 1 0.375
vt 0 0.390625
vt 0.166666672 0.390625
vt 0.333333343 0.390625
vt 0.5 0.390625
vt 0.6666667 0.390625
vt 0.8333333 0.390625
vt 1 0.390625
vt 0 0.40625
vt 0.166666672 0.40625
vt 0.333333343 0.40625
vt 0.5 0.40625
vt 0.6666667 0.40625
vt 0.8333333 0.40625
vt 1 0.40625
vt 0 0.421875
vt 0.166666672 0.421875
vt 0.333333343 0.421875
vt 0.5 0.421875
vt 0.6666667 0.421875
vt 0.8333333 0.421875
vt 1 0.421875
vt 0 0.4375
vt 0.166666672 0.4375
vt 0.333333343 0.4375
vt 0.5 0.4375
vt 0.6666667 0.4375
vt 0.8333333 0.4375
vt 1 0.4375
vt 0 0.453125
vt 0.166666672 0.453125
vt 0.333333343 0.453125
vt 0.5 0.453125
vt 0.6666667 0.453125
vt 0.8333333 0.453125
vt 1 0.453125
vt 0 0.46875
vt 0.166666672 0.46875
vt 0.333333343 0.46875
vt 0.5 0.46875
vt 0.6666667 0.46875
vt 0.8333333 0.46875
vt 1 0.46875
vt 0 0.484375
vt 0.166666672 0.484375
vt 0.333333343 0.484375
vt 0.5 0.484375
vt 0.6666667 0.484375
vt 0.8333333 0.484375
vt 1 0.484375
vt 0 0.5
vt 0.166666672 0.5
vt 0.333333343 0.5
vt 0.5 0.5
vt 0.6666667 0.5
vt 0.8333333 0.5
vt 1 0.5
vt 0 0.515625
vt 0.166666672 0.515625
vt 0.333333343 0.515625
vt 0.5 0.515625
vt 0.6666667 0.515625
vt 0.8333333 0.515625
vt 1 0.515625
vt 0 0.53125
vt 0.166666672 0.53125
vt 0.333333343 0.53125
vt 0.5 0.53125
vt 0.6666667 0.53125
vt 0.8333333 0.53125
vt 1 0.53125
vt 0 0.546875
vt 0.166666672 0.546875
vt 0.333333343 0.546875
vt 0.5 0.546875
vt 0.6666667 0.546875
vt 0.8333333 0.546875
vt 1 0.546875
vt 0 0.5625
vt 0.166666672 0.5625
vt 0.333333343 0.5625
vt 0.5 0.5625
vt 0.6666667 0.5625
vt 0.8333333 0.5625
vt 1 0.5625
vt 0 0.578125
vt 0.166666672 0.578125
vt 0.333333343 0.578125
vt 0.5 0.578125
vt 0.6666667 0.578125
vt 0.8333333 0.578125
vt 1 0.578125
vt 0 0.59375
vt 0.166666672 0.59375
vt 0.333333343 0.59375
vt 0.5 0.59375
vt 0.6666667 0.59375
vt 0.8333333 0.59375
vt 1 0.59375
vt 0 0.609375
vt 0.166666672 0.609375
vt 0.333333343 0.609375
vt 0.5 0.609375
vt 0.6666667 0.609375
vt 0.8333333 0.609375
vt 1 0.609375
vt 0 0.625
vt 0.166666672 0.625
vt 0.333333343 0.625
vt 0.5 0.625
vt 0.6666667 0.625
vt 0.8333333 0.625
vt 1 0.625
vt 0 0.640625
vt 0.166666672 0.640625
vt 0.333333343 0.640625
vt 0.5 0.640625
vt 0.6666667 0.640625
vt 0.8333333 0.640625
vt 1 0.640625
vt 0 0.65625
vt 0.166666672 0.65625
vt 0.333333343 0.65625
vt 0.5 0.65625
vt 0.6666667 0.65625
vt 0.8333333 0.65625
vt 1 0.65625
vt 0 0.671875
vt 0.166666672 0.671875
vt 0.333333343 0.671875
vt 0.5 0.671875
vt 0.6666667 0.671875
vt 0.8333333 0.671875
vt 1 0.671875
vt 0 0.6875
vt 0.166666672 0.6875
vt 0.333333343 0.6875
vt 0.5 0.6875
vt 0.6666667 0.6875
vt 0.8333333 0.6875
vt 1 0.6875
vt 0 0.703125
vt 0.166666672 0.703125
vt 0.333333343 0.703125
vt 0.5 0.703125
vt 0.6666667 0.703125
vt 0.8333333 0.703125
vt 1 0.703125
vt 0 0.71875
vt 0.166666672 0.71875
vt 0.333333343 0.71875
vt 0.5 0.71875
vt 0.6666667 0.71875
vt 0.8333333 0.71875
vt 1 0.71875
vt 0 0.734375
vt 0.166666672 0.734375
vt 0.333333343 0.734375
vt 0.5 0.734375
vt 0.6666667 0.734375
vt 0.8333333 0.734375
vt 1 0.734375
vt 0 0.75
vt 0.166666672 0.75
vt 0.333333343 0.75
vt 0.5 0.75
vt 0.6666667 0.75
vt 0.8333333 0.75
vt 1 0.75
vt 0 0.765625
vt 0.166666672 0.765625
vt 0.333333343 0.765625
vt 0.5 0.765625
vt 0.6666667 0.765625
vt 0.8333333 0.765625
vt 1 0.765625
vt 0 0.78125
vt 0.166666672 0.78125
vt 0.333333343 0.78125
vt 0.5 0.78125
vt 0.6666667 0.78125
vt 0.8333333 0.78125
vt 1 0.78125
vt 0 0.796875
vt 0.166666672 0.796875
vt 0.333333343 0.796875
vt 0.5 0.796875
vt 0.6666667 0.796875
vt 0.8333333 0.796875
vt 1 0.796875
vt 0 0.8125
vt 0.166666672 0.8125
vt 0.333333343 0.8125
vt 0.5 0.8125
vt 0.6666667 0.8125
vt 0.8333333 0.8125
vt 1 0.8125
vt 0 0.828125
vt 0.166666672 0.828125
vt 0.333333343 0.828125
vt 0.5 0.828125
vt 0.6666667 0.828125
vt 0.8333333 0.828125
vt 1 0.828125
vt 0 0.84375
vt 0.166666672 0.84375
vt 0.333333343 0.84375
vt 0.5 0.84375
vt 0.6666667 0.84375
vt 0.8333333 0.84375
vt 1 0.84375
vt 0 0.859375
vt 0.166666672 0.859375
vt 0.333333343 0.859375
vt 0.5 0.859375
vt 0.6666667 0.859375
vt 0.8333333 0.859375
vt 1 0.859375
vt 0 0.875
vt 0.166666672 0.875
vt 0.333333343 0.875
vt 0.5 0.875
vt 0.6666667 0.875
vt 0.8333333 0.875
vt 1 0.875
vt 0 0.890625
vt 0.166666672 0.890625
vt 0.333333343 0.890625
vt 0.5 0.890625
vt 0.6666667 0.890625
vt 0.8333333 0.890625
vt 1 0.890625
vt 0 0.90625
vt 0.166666672 0.90625
vt 0.333333343 0.90625
vt 0.5 0.90625
vt 0.6666667 0.90625
vt 0.8333333 0.90625
vt 1 0.90625
vt 0 0.921875
vt 0.166666672 0.921875
vt 0.333333343 0.921875
vt 0.5 0.921875
vt 0.6666667 0.921875
vt 0.8333333 0.921875
vt 1 0.921875
vt 0 0.9375
vt 0.166666672 0.9375
vt 0.333333343 0.9375
vt 0.5 0.9375
vt 0.6666667 0.9375
vt 0.8333333 0.9375
vt 1 0.9375
vt 0 0.953125
vt 0.166666672 0.953125
vt 0.333333343 0.953125
vt 0.5 0.953125
vt 0.6666667 0.953125
vt 0.8333333 0.953125
vt 1 0.953125
vt 0 0.96875
vt 0.166666672 0.96875
vt 0.333333343 0.96875
vt 0.5 0.96875
vt 0.6666667 0.96875
vt 0.8333333 0.96875
vt 1 0.96875
vt 0 0.984375
vt 0.166666672 0.984375
vt 0.333333343 0.984375
vt 0.5 0.984375
vt 0.6666667 0.984375
vt 0.8333333 0.984375
vt 1 0.984375
vt 0 1
vt 0.166666672 1
vt 0.333333343 1
vt 0.5 1
vt 0.6666667 1
vt 0.8333333 1
vt 1 1
vn 0.499792784 0.0245952 0.865795732
vn 0.9438586 0.046523124 0.327057332
vn 0.759606242 0.0374114364 -0.6493063
vn -0.182169691 -0.008916211 -0.9832266
vn -0.9438732 -0.046197433 -0.327061385
vn -0.75077194 -0.03678186 0.6595367
vn -0.499741137 -0.024550721 0.8658268
vn 0.496741265 0.0574657023 0.865994155
vn 0.8639762 0.09025672 0.49537757
vn 0.864811361 0.08027308 -0.4956384
vn 0.0117497751 -0.008313058 -0.999896348
vn -0.858458042 -0.08884678 -0.505129635
vn -0.859536 -0.08007524 0.504763246
vn -0.498316079 -0.0411290042 0.8660193
vn 0.4887167 0.105878219 0.865994155
vn 0.851006269 0.174408108 0.495348632
vn 0.852970541 0.1645334 -0.495348632
vn 0.0128593091 -0.007080827 -0.9998923
vn -0.8456111 -0.172677249 -0.505098641
vn -0.847323358 -0.16406846 0.5050987
vn -0.49191162 -0.08983057 0.865998566
vn 0.475985318 0.153271213 0.865994155
vn 0.8298133 0.25698182 0.4953486
vn 0.8327358 0.247347236 -0.4953488
vn 0.0134912385 -0.00578638865 -0.9998923
vn -0.82461375 -0.2547305 -0.505098462
vn -0.82716167 -0.246330723 0.5050987
vn -0.480737835 -0.137613863 0.865998566
vn 0.45867008 0.19918786 0.8659942
vn 0.800628543 0.337080419 0.49534902
vn 0.804481566 0.327778667 -0.495348722
vn 0.013993335 -0.00443603052 -0.999892235
vn -0.7956752 -0.334329873 -0.5050986
vn -0.7990342 -0.3262207 0.5050984
vn -0.464934379 -0.184071854 0.865998566
vn 0.436938 0.2431861 0.865994036
vn 0.763734043 0.413932323 0.495348543
vn 0.7684801 0.405053258 -0.495348573
vn 0.0143608022 -0.00304307835 -0.9998922
vn -0.7590739 -0.41070962 -0.5050985
vn -0.7632118 -0.402968436 0.505098343
vn -0.44465372 -0.228756756 0.865998566
vn 0.410997421 0.2848425 0.8659942
vn 0.71948427 0.486797959 0.495348573
vn 0.7250776 0.478426546 -0.495348781
vn 0.0145898443 -0.00162101618 -0.9998923
vn -0.715162039 -0.483134419 -0.5050983
vn -0.7200384 -0.4758361 0.5050988
vn -0.420090318 -0.271239 0.865998566
vn 0.3810988 0.323755682 0.865994155
vn 0.6683046 0.554975867 0.4953489
vn 0.674692035 0.54719305 -0.495348841
vn 0.0146786422 -0.000182919 -0.999892235
vn -0.6643629 -0.5509058 -0.50509876
vn -0.6699316 -0.544120848 0.5050982
vn -0.391481519 -0.311108977 0.865998566
vn 0.347530365 0.359551281 0.865994
vn 0.61068964 0.617809236 0.495348454
vn 0.6178087 0.610690057 -0.4953483
vn 0.0146259023 0.001256737 -0.9998922
vn -0.6071656 -0.613372266 -0.5050986
vn -0.613372147 -0.6071655 0.5050986
vn -0.359102368 -0.3479828 0.865998566
vn 0.3106147 0.3918838 0.8659941
vn 0.54719317 0.674692154 0.495348424
vn 0.5549759 0.668305039 -0.4953485
vn 0.0144321322 0.00268412824 -0.9998923
vn -0.5441209 -0.669931531 -0.5050983
vn -0.5509059 -0.6643629 0.5050985
vn -0.3232648 -0.3815055 0.8659985
vn 0.270707726 0.420442253 0.865994036
vn 0.478427023 0.7250775 0.4953485
vn 0.486798316 0.719484031 -0.495348483
vn 0.0140996827 0.00408588024 -0.999892235
vn -0.475836158 -0.7200384 -0.5050987
vn -0.483134538 -0.715162 0.505098343
vn -0.284314275 -0.4113538 0.8659985
vn 0.228193343 0.444951653 0.865994036
vn 0.405052841 0.768480062 0.4953489
vn 0.4139323 0.763734162 -0.495348543
vn 0.0136312451 0.005447979 -0.9998923
vn -0.4029684 -0.7632118 -0.505098343
vn -0.4107095 -0.7590739 0.5050985
vn -0.242625281 -0.43724075 0.865998566
vn 0.183482051 0.4651758 0.8659942
vn 0.327778816 0.8044819 0.495348275
vn 0.337080061 0.8006287 -0.495349139
vn 0.0130314194 0.006757831 -0.9998923
vn -0.326220363 -0.7990343 -0.5050986
vn -0.334329844 -0.795675337 0.5050984
vn -0.198599979 -0.458916724 0.865998566
vn 0.1370031 0.480920017 0.8659943
vn 0.247347534 0.832735658 0.495348752
vn 0.256982267 0.829813 -0.495348752
vn 0.0123066436 0.00800302252 -0.999892235
vn -0.2463307 -0.8271617 -0.5050987
vn -0.254730135 -0.824613631 0.505098939
vn -0.152662084 -0.476172954 0.8659987
vn 0.0892046541 0.492032975 0.865994334
vn 0.164533108 0.8529702 0.49534902
vn 0.174407959 0.8510061 -0.495348781
vn 0.0114627834 0.009170787 -0.999892235
vn -0.1640686 -0.847323239 -0.5050989
vn -0.172677487 -0.845611155 0.505098343
vn -0.105253667 -0.48884353 0.8659986
vn 0.0405477 0.498407483 0.865994155
vn 0.08013545 0.864990056 0.495348841
vn 0.09015487 0.864003241 -0.495348722
vn 0.0105086789 0.010249678 -0.9998923
vn -0.0802257359 -0.85932523 -0.505098045
vn -0.088961266 -0.8584645 0.5050986
vn -0.0568318963 -0.4968066 0.8659984
vn -0.008500005 0.4999818 0.8659943
vn -0.00503405742 0.8686796 0.495348841
vn 0.00503405975 0.868679464 -0.495349079
vn 0.00945339 0.011230316 -0.999892235
vn 0.00438864 -0.8630505 -0.5050986
vn -0.00438863644 -0.86305064 0.5050984
vn -0.007862551 -0.4999846 0.8659986
vn -0.0574659258 0.496741176 0.8659942
vn -0.09015541 0.8640032 0.495348722
vn -0.08013581 0.864990056 -0.495348781
vn 0.008307148 0.012103281 -0.999892235
vn 0.08896131 -0.8584644 -0.505098641
vn 0.08022586 -0.8593252 0.505098164
vn 0.0411821865 -0.498347878 0.865998566
vn -0.105878234 0.4887165 0.8659943
vn -0.174408227 0.85100615 0.495348781
vn -0.164533615 0.852970243 -0.495348841
vn 0.00708088744 0.0128589366 -0.999892235
vn 0.17267774 -0.8456112 -0.505098164
vn 0.164068729 -0.8473233 0.50509876
vn 0.08983072 -0.491911739 0.865998566
vn -0.153271139 0.4759853 0.8659942
vn -0.25698182 0.8298132 0.495348752
vn -0.247347176 0.8327357 -0.4953489
vn 0.005786327 0.01349116 -0.9998923
vn 0.254730076 -0.82461375 -0.50509876
vn 0.246330649 -0.827161849 0.5050986
vn 0.1376138 -0.480737776 0.8659986
vn -0.199187636 0.4586703 0.865994155
vn -0.337079972 0.800628841 0.495348781
vn -0.327778459 0.8044818 -0.4953486
vn 0.00443602959 0.0139933089 -0.9998922
vn 0.334329784 -0.795675337 -0.505098462
vn 0.326220274 -0.799034238 0.505098641
vn 0.184071586 -0.4649345 0.865998566
vn -0.243186235 0.4369377 0.865994155
vn -0.413932443 0.763734 0.495348662
vn -0.405053 0.768479943 -0.49534896
vn 0.00304325833 0.01436073 -0.999892235
vn 0.41070962 -0.759073734 -0.5050986
vn 0.4029686 -0.763211548 0.505098343
vn 0.228756815 -0.444653451 0.865998566
vn -0.284842551 0.410997421 0.8659942
vn -0.4867981 0.7194838 0.49534896
vn -0.478427082 0.7250775 -0.4953485
vn 0.00162070256 0.01459008 -0.9998922
vn 0.4831343 -0.715162039 -0.5050985
vn 0.475836128 -0.7200388 0.5050981
vn 0.271239132 -0.4200904 0.865998447
vn -0.323755741 0.381099 0.8659941
vn -0.554976 0.6683049 0.495348454
vn -0.54719305 0.674692 -0.49534896
vn 0.000183162367 0.0146784782 -0.9998923
vn 0.55090636 -0.664362848 -0.505098164
vn 0.544120967 -0.669931352 0.505098462
vn 0.3111091 -0.391481757 0.865998268
vn -0.359551162 0.3475304 0.865994036
vn -0.617809057 0.6106898 0.495348215
vn -0.610689938 0.6178089 -0.495348334
vn -0.00125685765 0.0146260271 -0.999892235
vn 0.6133722 -0.607165456 -0.50509876
vn 0.6071657 -0.613371849 0.5050988
vn 0.347982824 -0.35910216 0.865998566
vn -0.391883552 0.3106144 0.8659942
vn -0.674692035 0.5471933 0.4953486
vn -0.668304861 0.5549759 -0.4953488
vn -0.002684127 0.0144322012 -0.9998922
vn 0.6699315 -0.5441208 -0.5050984
vn 0.664362848 -0.5509059 0.505098641
vn 0.38150543 -0.323264748 0.8659986
vn -0.420442045 0.270707428 0.8659943
vn -0.7250775 0.478426725 0.4953488
vn -0.7194838 0.486798078 -0.49534902
vn -0.00408573542 0.01409962 -0.999892235
vn 0.720038533 -0.475835949 -0.505098641
vn 0.7151621 -0.483134329 0.505098343
vn 0.411353827 -0.284314126 0.8659985
vn -0.444951445 0.228193477 0.865994155
vn -0.76848 0.405053 0.4953489
vn -0.763734043 0.4139323 -0.495348722
vn -0.00544806477 0.0136311632 -0.999892235
vn 0.7632116 -0.402968645 -0.5050984
vn 0.7590737 -0.41070962 0.5050987
vn 0.43724066 -0.242625356 0.8659986
vn -0.532244563 0.242279723 0.811182
vn -0.731644332 -0.0125381909 0.6815712
vn -0.970714748 0.09643394 -0.220030352
vn -0.379529357 -0.1722338 -0.909006536
vn 0.469196647 -0.55470866 -0.6871337
vn 0.707830966 -0.6655537 0.236672
vn 0.2810178 -0.5293166 0.800533
vn 0.553025365 0.230891377 -0.80053246
vn 0.9693836 0.06543711 -0.236671343
vn 0.714597464 0.131140709 0.6871336
vn -0.18411614 0.373909 0.9090067
vn -0.8115501 0.5412699 0.220030636
vn -0.557614863 0.4738421 -0.6815711
vn -0.565131843 0.1503671 -0.811181664
vn 0.4919115 -0.08983035 -0.8659986
vn 0.8473235 -0.164068 -0.5050985
vn 0.8456109 -0.172676951 0.505098641
vn -0.0128594749 -0.00708078826 0.9998923
vn -0.8529704 0.164533511 0.495348573
vn -0.8510062 0.174408227 -0.495348424
vn -0.48871693 0.105878271 -0.865994
vn 0.498347551 -0.04118212 -0.8659987
vn 0.859325 -0.08022578 -0.5050984
vn 0.8584645 -0.08896105 0.50509876
vn -0.0121032028 -0.00830706 0.999892235
vn -0.864990056 0.0801356062 0.495348841
vn -0.864003241 0.0901551247 -0.495348722
vn -0.4967413 0.057465706 -0.8659941
vn 0.4999844 0.00786266 -0.865998745
vn 0.8630505 0.00438876962 -0.5050985
vn 0.863050461 -0.004388768 0.5050985
vn -0.0112304911 -0.009453439 0.999892235
vn -0.868679464 -0.00503405649 0.495349
vn -0.8686794 0.005034057 -0.49534902
vn -0.49998188 0.008500009 -0.8659942
vn 0.496806234 0.0568319038 -0.8659987
vn 0.8584645 0.08896139 -0.50509876
vn 0.8593249 0.08022606 0.5050985
vn -0.01025002 -0.0105087506 0.999892235
vn -0.8640032 -0.09015539 0.495348722
vn -0.864990056 -0.08013581 -0.495348841
vn -0.498407453 -0.0405477732 -0.8659941
vn 0.488843471 0.105253711 -0.8659986
vn 0.8456111 0.172677264 -0.5050984
vn 0.8473234 0.164068222 0.5050986
vn -0.009170761 -0.0114628216 0.999892235
vn -0.8510061 -0.174408346 0.495348752
vn -0.852970362 -0.164533719 -0.495348632
vn -0.492033243 -0.0892049745 -0.865994155
vn 0.476172745 0.152662143 -0.8659987
vn 0.824613631 0.254730552 -0.50509876
vn 0.8271618 0.246330887 0.5050986
vn -0.008002888 -0.0123066064 0.9998922
vn -0.8298132 -0.256981969 0.4953487
vn -0.8327361 -0.247347474 -0.495348334
vn -0.480920523 -0.137003273 -0.865994036
vn 0.458916545 0.198599949 -0.865998566
vn 0.7956753 0.33433 -0.505098343
vn 0.799033761 0.326220751 0.5050991
vn -0.00675852224 -0.013031628 0.999892235
vn -0.8006289 -0.3370803 0.495348483
vn -0.8044817 -0.327778667 -0.495348752
vn -0.4651759 -0.1834821 -0.865994036
vn 0.43724066 0.24262546 -0.8659985
vn 0.759073853 0.4107096 -0.505098641
vn 0.7632117 0.4029684 0.5050983
vn -0.00544823566 -0.0136314575 0.999892235
vn -0.7637339 -0.413932532 0.495348543
vn -0.768480062 -0.405053258 -0.495348662
vn -0.4449517 -0.228193536 -0.8659941
vn 0.411353856 0.284314245 -0.865998447
vn 0.7151621 0.4831345 -0.505098164
vn 0.720038533 0.475836128 0.5050985
vn -0.004086055 -0.0140997265 0.999892235
vn -0.719484 -0.486798316 0.4953485
vn -0.7250775 -0.478427142 -0.495348632
vn -0.420442224 -0.270707816 -0.8659941
vn 0.3815052 0.3232649 -0.865998566
vn 0.6643627 0.5509061 -0.505098641
vn 0.6699312 0.5441211 0.5050984
vn -0.00268422719 -0.014432326 0.9998923
vn -0.6683048 -0.5549759 0.4953486
vn -0.674692035 -0.5471933 -0.495348483
vn -0.391883761 -0.3106147 -0.865994
vn 0.347982824 0.359102249 -0.8659986
vn 0.6071656 0.6133722 -0.5050986
vn 0.613372266 0.6071657 0.505098343
vn -0.00125675311 -0.0146257458 0.9998923
vn -0.6106898 -0.6178087 0.495348841
vn -0.617809 -0.61068964 -0.495348543
vn -0.359551042 -0.347530425 -0.865994036
vn 0.311108828 0.391481519 -0.865998566
vn 0.544120967 0.6699318 -0.5050978
vn 0.550905943 0.664362848 0.5050988
vn 0.000182797361 -0.0146789923 0.999892235
vn -0.54719317 -0.674692154 0.495348632
vn -0.5549757 -0.6683045 -0.4953495
vn -0.323755771 -0.381098837 -0.8659943
vn 0.271238953 0.420090139 -0.8659987
vn 0.4758358 0.7200385 -0.5050989
vn 0.48313427 0.715162337 0.5050981
vn 0.00162096159 -0.0145896273 0.9998922
vn -0.478426784 -0.7250772 0.4953492
vn -0.4867982 -0.719484031 -0.495348543
vn -0.284842461 -0.410997361 -0.8659942
vn 0.228756741 0.4446534 -0.8659986
vn 0.4029687 0.7632116 -0.505098164
vn 0.410709679 0.759073555 0.505099058
vn 0.00304279616 -0.0143615231 0.999892235
vn -0.405053049 -0.7684803 0.4953484
vn -0.413932234 -0.7637338 -0.495349079
vn -0.243186146 -0.436937749 -0.8659941
vn 0.18407163 0.4649344 -0.8659986
vn 0.3262203 0.7990341 -0.5050987
vn 0.334329933 0.795675337 0.5050983
vn 0.00443626568 -0.0139932008 0.999892235
vn -0.3277781 -0.804481566 0.495349258
vn -0.3370801 -0.800629258 -0.495348275
vn -0.199187681 -0.458670229 -0.8659941
vn 0.137613565 0.4807379 -0.8659986
vn 0.246330231 0.8271619 -0.5050985
vn 0.254729778 0.824614 0.505098641
vn 0.00578615768 -0.0134913623 0.999892235
vn -0.247347191 -0.832735956 0.4953486
vn -0.2569815 -0.8298132 -0.495348841
vn -0.153270945 -0.475985616 -0.8659941
vn 0.08983049 0.491911471 -0.865998566
vn 0.164068267 0.847323656 -0.505098164
vn 0.172676936 0.845610857 0.505099
vn 0.007080719 -0.0128597347 0.9998922
vn -0.164533317 -0.8529704 0.495348632
vn -0.174408108 -0.851005733 -0.495349377
vn -0.105878212 -0.488716453 -0.8659942
vn 0.0411821939 0.498347819 -0.865998566
vn 0.08022597 0.8593247 -0.5050987
vn 0.08896154 0.8584648 0.505098045
vn 0.00830719 -0.012102792 0.999892235
vn -0.08013562 -0.8649897 0.495349348
vn -0.0901550949 -0.86400336 -0.495348364
vn -0.05746574 -0.496741116 -0.8659942
vn -0.007862547 0.499984533 -0.8659986
vn -0.004388639 0.8630509 -0.505098
vn 0.00438864157 0.8630502 0.505098939
vn 0.009453387 -0.0112310145 0.9998923
vn 0.00503405649 -0.8686797 0.495348573
vn -0.005034056 -0.868679345 -0.495349258
vn -0.0085000135 -0.49998188 -0.8659943
vn -0.056832023 0.4968066 -0.8659984
vn -0.08896127 0.85846436 -0.505098939
vn -0.08022578 0.8593254 0.5050976
vn 0.010508812 -0.0102496464 0.999892235
vn 0.09015534 -0.8640032 0.49534896
vn 0.08013578 -0.8649902 -0.495348543
vn 0.04054775 -0.498407483 -0.865994155
vn -0.105253987 0.4888436 -0.8659986
vn -0.172678083 0.8456114 -0.505097747
vn -0.164069 0.8473231 0.5050991
vn 0.0114628309 -0.009171254 0.9998922
vn 0.174408361 -0.8510062 0.495348543
vn 0.16453369 -0.8529701 -0.495349079
vn 0.08920508 -0.492033124 -0.8659941
vn -0.152662054 0.476172835 -0.8659987
vn -0.2547302 0.824613631 -0.505098939
vn -0.2463309 0.8271621 0.505098164
vn 0.0123064695 -0.008002524 0.999892235
vn 0.256982118 -0.8298129 0.495349139
vn 0.247347459 -0.8327358 -0.495348543
vn 0.137003124 -0.480920136 -0.8659942
vn -0.198600024 0.458916724 -0.865998566
vn -0.334329844 0.795675159 -0.5050985
vn -0.326220423 0.799034357 0.505098343
vn 0.0130315786 -0.00675813528 0.9998922
vn 0.33708024 -0.8006288 0.495348841
vn 0.327778876 -0.804481745 -0.495348364
vn 0.183482081 -0.465175837 -0.8659941
vn -0.242625415 0.437240571 -0.865998566
vn -0.410710037 0.759074032 -0.5050979
vn -0.4029686 0.763211131 0.505099
vn 0.0136316512 -0.00544879353 0.999892235
vn 0.4139326 -0.7637342 0.495348155
vn 0.40505302 -0.768479943 -0.495349079
vn 0.228193536 -0.4449518 -0.865994036
vn -0.284314245 0.4113539 -0.865998566
vn -0.4831341 0.7151618 -0.505099
vn -0.475836247 0.72003895 0.5050979
vn 0.0140995421 -0.0040858 0.999892235
vn 0.4867981 -0.719484031 0.4953487
vn 0.478427082 -0.7250777 -0.495348334
vn 0.2707078 -0.420442283 -0.865994
vn -0.323265 0.3815052 -0.865998566
vn -0.5509066 0.664362967 -0.505097866
vn -0.544121 0.6699308 0.505099058
vn 0.0144327171 -0.002684571 0.9998922
vn 0.5549763 -0.6683046 0.4953486
vn 0.5471932 -0.674691856 -0.495348871
vn 0.310614556 -0.3918836 -0.865994155
vn -0.359102339 0.347982764 -0.8659986
vn -0.613372 0.6071654 -0.50509876
vn -0.607165754 0.6133724 0.505097866
vn 0.0146254618 -0.0012563027 0.999892235
vn 0.617809057 -0.610689342 0.49534893
vn 0.610690236 -0.6178086 -0.495348245
vn 0.3475305 -0.359550923 -0.865994
vn -0.39148137 0.311108947 -0.8659985
vn -0.6699313 0.5441208 -0.5050986
vn -0.664362848 0.5509061 0.505098462
vn 0.0146787679 0.0001827408 0.999892235
vn 0.6746919 -0.547193646 0.495348334
vn 0.6683048 -0.554976165 -0.495348573
vn 0.381099224 -0.323756039 -0.865994
vn -0.4200902 0.2712385 -0.8659987
vn -0.72003907 0.4758356 -0.505098045
vn -0.715162 0.4831335 0.505099356
vn 0.0145904757 0.001620603 0.999892235
vn 0.7250778 -0.478426754 0.4953485
vn 0.719483733 -0.486798137 -0.495349079
vn 0.41099748 -0.284842581 -0.865994036
vn -0.444653422 0.22875692 -0.8659986
vn -0.763211131 0.402968735 -0.505099
vn -0.759074 0.410709947 0.505098
vn 0.01436049 0.00304316473 0.999892235
vn 0.76848 -0.405052871 0.495349139
vn 0.7637342 -0.4139321 -0.4953487
vn 0.436937869 -0.243185863 -0.8659942
vn -0.367985457 0.18349506 -0.9115461
vn -0.4691962 0.554709 -0.687133849
vn -0.707830846 0.6655542 0.236670911
vn -0.09771231 0.3919396 0.914787233
vn 0.731643856 0.0125381853 0.681571662
vn 0.970714748 -0.09643429 -0.2200304
vn 0.567898035 0.1500311 -0.8093099
vn 0.3438127 -0.476246625 0.8093096
vn 0.8115498 -0.541270435 0.220030412
vn 0.557614267 -0.473842353 -0.6815715
vn -0.324176162 -0.240985647 -0.9147873
vn -0.969383657 -0.06543667 -0.236671358
vn -0.7145969 -0.131140545 0.6871342
vn -0.400865048 0.0916034058 0.911546
vn 0.492033243 -0.08920467 0.865994036
vn 0.8529707 -0.164533213 0.495348334
vn 0.851006031 -0.1744078 -0.49534902
vn 0.009170169 -0.0114627155 -0.9998923
vn -0.847323537 0.164068431 -0.5050983
vn -0.845610857 0.172677353 0.5050989
vn -0.48884353 0.105253726 0.8659986
vn 0.498367578 -0.0405921862 0.866015
vn 0.864811242 -0.08027277 0.495638758
vn 0.8639763 -0.0902564749 -0.495377272
vn 0.009883606 -0.0105006341 -0.999896
vn -0.8595357 0.08007487 -0.504763663
vn -0.8584584 0.08884646 0.505129158
vn -0.4968066 0.05683168 0.8659984
vn 0.49974075 -0.0245504323 0.8658271
vn 0.759606361 -0.03741104 0.6493063
vn 0.9438586 -0.0465226248 -0.3270573
vn 0.195440724 -0.009633243 -0.980668247
vn -0.75077194 0.03678144 -0.6595367
vn -0.9438732 0.04619689 0.327061385
vn -0.499797672 0.0245089326 0.8657954
f 1/1/1 2/2/2 9/9/9
f 1/1/1 9/9/9 8/8/8
f 2/2/2 3/3/3 10/10/10
f 2/2/2 10/10/10 9/9/9
f 3/3/3 4/4/4 11/11/11
f 3/3/3 11/11/11 10/10/10
f 4/4/4 5/5/5 12/12/12
f 4/4/4 12/12/12 11/11/11
f 5/5/5 6/6/6 13/13/13
f 5/5/5 13/13/13 12/12/12
f 6/6/6 7/7/7 14/14/14
f 6/6/6 14/14/14 13/13/13
f 8/8/8 9/9/9 16/16/16
f 8/8/8 16/16/16 15/15/15
f 9/9/9 10/10/10 17/17/17
f 9/9/9 17/17/17 16/16/16
f 10/10/10 11/11/11 18/18/18
f 10/10/10 18/18/18 17/17/17
f 11/11/11 12/12/12 19/19/19
f 11/11/11 19/19/19 18/18/18
f 12/12/12 13/13/13 20/20/20
f 12/12/12 20/20/20 19/19/19
f 13/13/13 14/14/14 21/21/21
f 13/13/13 21/21/21 20/20/20
f 15/15/15 16/16/16 23/23/23
f 15/15/15 23/23/23 22/22/22
f 16/16/16 17/17/17 24/24/24
f 16/16/16 24/24/24 23/23/23
f 17/17/17 18/18/18 25/25/25
f 17/17/17 25/25/25 24/24/24
f 18/18/18 19/19/19 26/26/26
f 18/18/18 26/26/26 25/25/25
f 19/19/19 20/20/20 27/27/27
f 19/19/19 27/27/27 26/26/26
f 20/20/20 21/21/21 28/28/28
f 20/20/20 28/28/28 27/27/27
f 22/22/22 23/23/23 30/30/30
f 22/22/22 30/30/30 29/29/29
f 23/23/23 24/24/24 31/31/31
f 23/23/23 31/31/31 30/30/30
f 24/24/24 25/25/25 32/32/32
f 24/24/24 32/32/32 31/31/31
f 25/25/25 26/26/26 33/33/33
f 25/25/25 33/33/33 32/32/32
f 26/26/26 27/27/27 34/34/34
f 26/26/26 34/34/34 33/33/33
f 27/27/27 28/28/28 35/35/35
f 27/27/27 35/35/35 34/34/34
f 29/29/29 30/30/30 37/37/37
f 29/29/29 37/37/37 36/36/36
f 30/30/30 31/31/31 38/38/38
f 30/30/30 38/38/38 37/37/37
f 31/31/31 32/32/32 39/39/39
f 31/31/31 39/39/39 38/38/38
f 32/32/32 33/33/33 40/40/40
f 32/32/32 40/40/40 39/39/39
f 33/33/33 34/34/34 41/41/41
f 33/33/33 41/41/41 40/40/40
f 34/34/34 35/35/35 42/42/42
f 34/34/34 42/42/42 41/41/41
f 36/36/36 37/37/37 44/44/44
f 36/36/36 44/44/44 43/43/43
f 37/37/37 38/38/38 45/45/45
f 37/37/37 45/45/45 44/44/44
f 38/38/38 39/39/39 46/46/46
f 38/38/38 46/46/46 45/45/45
f 39/39/39 40/40/40 47/47/47
f 39/39/39 47/47/47 46/46/46
f 40/40/40 41/41/41 48/48/48
f 40/40/40 48/48/48 47/47/47
f 41/41/41 42/42/42 49/49/49
f 41/41/41 49/49/49 48/48/48
f 43/43/43 44/44/44 51/51/51
f 43/43/43 51/51/51 50/50/50
f 44/44/44 45/45/45 52/52/52
f 44/44/44 52/52/52 51/51/51
f 45/45/45 46/46/46 53/53/53
f 45/45/45 53/53/53 52/52/52
f 46/46/46 47/47/47 54/54/54
f 46/46/46 54/54/54 53/53/53
f 47/47/47 48/48/48 55/55/55
f 47/47/47 55/55/55 54/54/54
f 48/48/48 49/49/49 56/56/56
f 48/48/48 56/56/56 55/55/55
f 50/50/50 51/51/51 58/58/58
f 50/50/50 58/58/58 57/57/57
f 51/51/51 52/52/52 59/59/59
f 51/51/51 59/59/59 58/58/58
f 52/52/52 53/53/53 60/60/60
f 52/52/52 60/60/60 59/59/59
f 53/53/53 54/54/54 61/61/61
f 53/53/53 61/61/61 60/60/60
f 54/54/54 55/55/55 62/62/62
f 54/54/54 62/62/62 61/61/61
f 55/55/55 56/56/56 63/63/63
f 55/55/55 63/63/63 62/62/62
f 57/57/57 58/58/58 65/65/65
f 57/57/57 65/65/65 64/64/64
f 58/58/58 59/59/59 66/66/66
f 58/58/58 66/66/66 65/65/65
f 59/59/59 60/60/60 67/67/67
f 59/59/59 67/67/67 66/66/66
f 60/60/60 61/61/61 68/68/68
f 60/60/60 68/68/68 67/67/67
f 61/61/61 62/62/62 69/69/69
f 61/61/61 69/69/69 68/68/68
f 62/62/62 63/63/63 70/70/70
f 62/62/62 70/70/70 69/69/69
f 64/64/64 65/65/65 72/72/72
f 64/64/64 72/72/72 71/71/71
f 65/65/65 66/66/66 73/73/73
f 65/65/65 73/73/73 72/72/72
f 66/66/66 67/67/67 74/74/74
f 66/66/66 74/74/74 73/73/73
f 67/67/67 68/68/68 75/75/75
f 67/67/67 75/75/75 74/74/74
f 68/68/68 69/69/69 76/76/76
f 68/68/68 76/76/76 75/75/75
f 69/69/69 70/70/70 77/77/77
f 69/69/69 77/77/77 76/76/76
f 71/71/71 72/72/72 79/79/79
f 71/71/71 79/79/79 78/78/78
f 72/72/72 73/73/73 80/80/80
f 72/72/72 80/80/80 79/79/79
f 73/73/73 74/74/74 81/81/81
f 73/73/73 81/81/81 80/80/80
f 74/74/74 75/75/75 82/82/82
f 74/74/74 82/82/82 81/81/81
f 75/75/75 76/76/76 83/83/83
f 75/75/75 83/83/83 82/82/82
f 76/76/76 77/77/77 84/84/84
f 76/76/76 84/84/84 83/83/83
f 78/78/78 79/79/79 86/86/86
f 78/78/78 86/86/86 85/85/85
f 79/79/79 80/80/80 87/87/87
f 79/79/79 87/87/87 86/86/86
f 80/80/80 81/81/81 88/88/88
f 80/80/80 88/88/88 87/87/87
f 81/81/81 82/82/82 89/89/89
f 81/81/81 89/89/89 88/88/88
f 82/82/82 83/83/83 90/90/90
f 82/82/82 90/90/90 89/89/89
f 83/83/83 84/84/84 91/91/91
f 83/83/83 91/91/91 90/90/90
f 85/85/85 86/86/86 93/93/93
f 85/85/85 93/93/93 92/92/92
f 86/86/86 87/87/87 94/94/94
f 86/86/86 94/94/94 93/93/93
f 87/87/87 88/88/88 95/95/95
f 87/87/87 95/95/95 94/94/94
f 88/88/88 89/89/89 96/96/96
f 88/88/88 96/96/96 95/95/95
f 89/89/89 90/90/90 97/97/97
f 89/89/89 97/97/97 96/96/96
f 90/90/90 91/91/91 98/98/98
f 90/90/90 98/98/98 97/97/97
f 92/92/92 93/93/93 100/100/100
f 92/92/92 100/100/100 99/99/99
f 93/93/93 94/94/94 101/101/101
f 93/93/93 101/101/101 100/100/100
f 94/94/94 95/95/95 102/102/102
f 94/94/94 102/102/102 101/101/101
f 95/95/95 96/96/96 103/103/103
f 95/95/95 103/103/103 102/102/102
f 96/96/96 97/97/97 104/104/104
f 96/96/96 104/104/104 103/103/103
f 97/97/97 98/98/98 105/105/105
f 97/97/97 105/105/105 104/104/104
f 99/99/99 100/100/100 107/107/107
f 99/99/99 107/107/107 106/106/106
f 100/100/100 101/101/101 108/108/108
f 100/100/100 108/108/108 107/107/107
f 101/101/101 102/102/102 109/109/109
f 101/101/101 109/109/109 108/108/108
f 102/102/102 103/103/103 110/110/110
f 102/102/102 110/110/110 109/109/109
f 103/103/103 104/104/104 111/111/111
f 103/103/103 111/111/111 110/110/110
f 104/104/104 105/105/105 112/112/112
f 104/104/104 112/112/112 111/111/111
f 106/106/106 107/107/107 114/114/114
f 106/106/106 114/114/114 113/113/113
f 107/107/107 108/108/108 115/115/115
f 107/107/107 115/115/115 114/114/114
f 108/108/108 109/109/109 116/116/116
f 108/108/108 116/116/116 115/115/115
f 109/109/109 110/110/110 117/117/117
f 109/109/109 117/117/117 116/116/116
f 110/110/110 111/111/111 118/118/118
f 110/110/110 118/118/118 117/117/117
f 111/111/111 112/112/112 119/119/119
f 111/111/111 119/119/119 118/118/118
f 113/113/113 114/114/114 121/121/121
f 113/113/113 121/121/121 120/120/120
f 114/114/114 115/115/115 122/122/122
f 114/114/114 122/122/122 121/121/121
f 115/115/115 116/116/116 123/123/123
f 115/115/115 123/123/123 122/122/122
f 116/116/116 117/117/117 124/124/124
f 116/116/116 124/124/124 123/123/123
f 117/117/117 118/118/118 125/125/125
f 117/117/117 125/125/125 124/124/124
f 118/118/118 119/119/119 126/126/126
f 118/118/118 126/126/126 125/125/125
f 120/120/120 121/121/121 128/128/128
f 120/120/120 128/128/128 127/127/127
f 121/121/121 122/122/122 129/129/129
f 121/121/121 129/129/129 128/128/128
f 122/122/122 123/123/123 130/130/130
f 122/122/122 130/130/130 129/129/129
f 123/123/123 124/124/124 131/131/131
f 123/123/123 131/131/131 130/130/130
f 124/124/124 125/125/125 132/132/132
f 124/124/124 132/132/132 131/131/131
f 125/125/125 126/126/126 133/133/133
f 125/125/125 133/133/133 132/132/132
f 127/127/127 128/128/128 135/135/135
f 127/127/127 135/135/135 134/134/134
f 128/128/128 129/129/129 136/136/136
f 128/128/128 136/136/136 135/135/135
f 129/129/129 130/130/130 137/137/137
f 129/129/129 137/137/137 136/136/136
f 130/130/130 131/131/131 138/138/138
f 130/130/130 138/138/138 137/137/137
f 131/131/131 132/132/132 139/139/139
f 131/131/131 139/139/139 138/138/138
f 132/132/132 133/133/133 140/140/140
f 132/132/132 140/140/140 139/139/139
f 134/134/134 135/135/135 142/142/142
f 134/134/134 142/142/142 141/141/141
f 135/135/135 136/136/136 143/143/143
f 135/135/135 143/143/143 142/142/142
f 136/136/136 137/137/137 144/144/144
f 136/136/136 144/144/144 143/143/143
f 137/137/137 138/138/138 145/145/145
f 137/137/137 145/145/145 144/144/144
f 138/138/138 139/139/139 146/146/146
f 138/138/138 146/146/146 145/145/145
f 139/139/139 140/140/140 147/147/147
f 139/139/139 147/147/147 146/146/146
f 141/141/141 142/142/142 149/149/149
f 141/141/141 149/149/149 148/148/148
f 142/142/142 143/143/143 150/150/150
f 142/142/142 150/150/150 149/149/149
f 143/143/143 144/144/144 151/151/151
f 143/143/143 151/151/151 150/150/150
f 144/144/144 145/145/145 152/152/152
f 144/144/144 152/152/152 151/151/151
f 145/145/145 146/146/146 153/153/153
f 145/145/145 153/153/153 152/152/152
f 146/146/146 147/147/147 154/154/154
f 146/146/146 154/154/154 153/153/153
f 148/148/148 149/149/149 156/156/156
f 148/148/148 156/156/156 155/155/155
f 149/149/149 150/150/150 157/157/157
f 149/149/149 157/157/157 156/156/156
f 150/150/150 151/151/151 158/158/158
f 150/150/150 158/158/158 157/157/157
f 151/151/151 152/152/152 159/159/159
f 151/151/151 159/159/159 158/158/158
f 152/152/152 153/153/153 160/160/160
f 152/152/152 160/160/160 159/159/159
f 153/153/153 154/154/154 161/161/161
f 153/153/153 161/161/161 160/160/160
f 155/155/155 156/156/156 163/163/163
f 155/155/155 163/163/163 162/162/162
f 156/156/156 157/157/157 164/164/164
f 156/156/156 164/164/164 163/163/163
f 157/157/157 158/158/158 165/165/165
f 157/157/157 165/165/165 164/164/164
f 158/158/158 159/159/159 166/166/166
f 158/158/158 166/166/166 165/165/165
f 159/159/159 160/160/160 167/167/167
f 159/159/159 167/167/167 166/166/166
f 160/160/160 161/161/161 168/168/168
f 160/160/160 168/168/168 167/167/167
f 162/162/162 163/163/163 170/170/170
f 162/162/162 170/170/170 169/169/169
f 163/163/163 164/164/164 171/171/171
f 163/163/163 171/171/171 170/170/170
f 164/164/164 165/165/165 172/172/172
f 164/164/164 172/172/172 171/171/171
f 165/165/165 166/166/166 173/173/173
f 165/165/165 173/173/173 172/172/172
f 166/166/166 167/167/167 174/174/174
f 166/166/166 174/174/174 173/173/173
f 167/167/167 168/168/168 175/175/175
f 167/167/167 175/175/175 174/174/174
f 169/169/169 170/170/170 177/177/177
f 169/169/169 177/177/177 176/176/176
f 170/170/170 171/171/171 178/178/178
f 170/170/170 178/178/178 177/177/177
f 171/171/171 172/172/172 179/179/179
f 171/171/171 179/179/179 178/178/178
f 172/172/172 173/173/173 180/180/180
f 172/172/172 180/180/180 179/179/179
f 173/173/173 174/174/174 181/181/181
f 173/173/173 181/181/181 180/180/180
f 174/174/174 175/175/175 182/182/182
f 174/174/174 182/182/182 181/181/181
f 176/176/176 177/177/177 184/184/184
f 176/176/176 184/184/184 183/183/183
f 177/177/177 178/178/178 185/185/185
f 177/177/177 185/185/185 184/184/184
f 178/178/178 179/179/179 186/186/186
f 178/178/178 186/186/186 185/185/185
f 179/179/179 180/180/180 187/187/187
f 179/179/179 187/187/187 186/186/186
f 180/180/180 181/181/181 188/188/188
f 180/180/180 188/188/188 187/187/187
f 181/181/181 182/182/182 189/189/189
f 181/181/181 189/189/189 188/188/188
f 183/183/183 184/184/184 191/191/191
f 183/183/183 191/191/191 190/190/190
f 184/184/184 185/185/185 192/192/192
f 184/184/184 192/192/192 191/191/191
f 185/185/185 186/186/186 193/193/193
f 185/185/185 193/193/193 192/192/192
f 186/186/186 187/187/187 194/194/194
f 186/186/186 194/194/194 193/193/193
f 187/187/187 188/188/188 195/195/195
f 187/187/187 195/195/195 194/194/194
f 188/188/188 189/189/189 196/196/196
f 188/188/188 196/196/196 195/195/195
f 190/190/190 191/191/191 198/198/198
f 190/190/190 198/198/198 197/197/197
f 191/191/191 192/192/192 199/199/199
f 191/191/191 199/199/199 198/198/198
f 192/192/192 193/193/193 200/200/200
f 192/192/192 200/200/200 199/199/199
f 193/193/193 194/194/194 201/201/201
f 193/193/193 201/201/201 200/200/200
f 194/194/194 195/195/195 202/202/202
f 194/194/194 202/202/202 201/201/201
f 195/195/195 196/196/196 203/203/203
f 195/195/195 203/203/203 202/202/202
f 197/197/197 198/198/198 205/205/205
f 197/197/197 205/205/205 204/204/204
f 198/198/198 199/199/199 206/206/206
f 198/198/198 206/206/206 205/205/205
f 199/199/199 200/200/200 207/207/207
f 199/199/199 207/207/207 206/206/206
f 200/200/200 201/201/201 208/208/208
f 200/200/200 208/208/208 207/207/207
f 201/201/201 202/202/202 209/209/209
f 201/201/201 209/209/209 208/208/208
f 202/202/202 203/203/203 210/210/210
f 202/202/202 210/210/210 209/209/209
f 204/204/204 205/205/205 212/212/212
f 204/204/204 212/212/212 211/211/211
f 205/205/205 206/206/206 213/213/213
f 205/205/205 213/213/213 212/212/212
f 206/206/206 207/207/207 214/214/214
f 206/206/206 214/214/214 213/213/213
f 207/207/207 208/208/208 215/215/215
f 207/207/207 215/215/215 214/214/214
f 208/208/208 209/209/209 216/216/216
f 208/208/208 216/216/216 215/215/215
f 209/209/209 210/210/210 217/217/217
f 209/209/209 217/217/217 216/216/216
f 211/211/211 212/212/212 219/219/219
f 211/211/211 219/219/219 218/218/218
f 212/212/212 213/213/213 220/220/220
f 212/212/212 220/220/220 219/219/219
f 213/213/213 214/214/214 221/221/221
f 213/213/213 221/221/221 220/220/220
f 214/214/214 215/215/215 222/222/222
f 214/214/214 222/222/222 221/221/221
f 215/215/215 216/216/216 223/223/223
f 215/215/215 223/223/223 222/222/222
f 216/216/216 217/217/217 224/224/224
f 216/216/216 224/224/224 223/223/223
f 218/218/218 219/219/219 226/226/226
f 218/218/218 226/226/226 225/225/225
f 219/219/219 220/220/220 227/227/227
f 219/219/219 227/227/227 226/226/226
f 220/220/220 221/221/221 228/228/228
f 220/220/220 228/228/228 227/227/227
f 221/221/221 222/222/222 229/229/229
f 221/221/221 229/229/229 228/228/228
f 222/222/222 223/223/223 230/230/230
f 222/222/222 230/230/230 229/229/229
f 223/223/223 224/224/224 231/231/231
f 223/223/223 231/231/231 230/230/230
f 225/225/225 226/226/226 233/233/233
f 225/225/225 233/233/233 232/232/232
f 226/226/226 227/227/227 234/234/234
f 226/226/226 234/234/234 233/233/233
f 227/227/227 228/228/228 235/235/235
f 227/227/227 235/235/235 234/234/234
f 228/228/228 229/229/229 236/236/236
f 228/228/228 236/236/236 235/235/235
f 229/229/229 230/230/230 237/237/237
f 229/229/229 237/237/237 236/236/236
f 230/230/230 231/231/231 238/238/238
f 230/230/230 238/238/238 237/237/237
f 232/232/232 233/233/233 240/240/240
f 232/232/232 240/240/240 239/239/239
f 233/233/233 234/234/234 241/241/241
f 233/233/233 241/241/241 240/240/240
f 234/234/234 235/235/235 242/242/242
f 234/234/234 242/242/242 241/241/241
f 235/235/235 236/236/236 243/243/243
f 235/235/235 243/243/243 242/242/242
f 236/236/236 237/237/237 244/244/244
f 236/236/236 244/244/244 243/243/243
f 237/237/237 238/238/238 245/245/245
f 237/237/237 245/245/245 244/244/244
f 239/239/239 240/240/240 247/247/247
f 239/239/239 247/247/247 246/246/246
f 240/240/240 241/241/241 248/248/248
f 240/240/240 248/248/248 247/247/247
f 241/241/241 242/242/242 249/249/249
f 241/241/241 249/249/249 248/248/248
f 242/242/242 243/243/243 250/250/250
f 242/242/242 250/250/250 249/249/249
f 243/243/243 244/244/244 251/251/251
f 243/243/243 251/251/251 250/250/250
f 244/244/244 245/245/245 252/252/252
f 244/244/244 252/252/252 251/251/251
f 246/246/246 247/247/247 254/254/254
f 246/246/246 254/254/254 253/253/253
f 247/247/247 248/248/248 255/255/255
f 247/247/247 255/255/255 254/254/254
f 248/248/248 249/249/249 256/256/256
f 248/248/248 256/256/256 255/255/255
f 249/249/249 250/250/250 257/257/257
f 249/249/249 257/257/257 256/256/256
f 250/250/250 251/251/251 258/258/258
f 250/250/250 258/258/258 257/257/257
f 251/251/251 252/252/252 259/259/259
f 251/251/251 259/259/259 258/258/258
f 253/253/253 254/254/254 261/261/261
f 253/253/253 261/261/261 260/260/260
f 254/254/254 255/255/255 262/262/262
f 254/254/254 262/262/262 261/261/261
f 255/255/255 256/256/256 263/263/263
f 255/255/255 263/263/263 262/262/262
f 256/256/256 257/257/257 264/264/264
f 256/256/256 264/264/264 263/263/263
f 257/257/257 258/258/258 265/265/265
f 257/257/257 265/265/265 264/264/264
f 258/258/258 259/259/259 266/266/266
f 258/258/258 266/266/266 265/265/265
f 260/260/260 261/261/261 268/268/268
f 260/260/260 268/268/268 267/267/267
f 261/261/261 262/262/262 269/269/269
f 261/261/261 269/269/269 268/268/268
f 262/262/262 263/263/263 270/270/270
f 262/262/262 270/270/270 269/269/269
f 263/263/263 264/264/264 271/271/271
f 263/263/263 271/271/271 270/270/270
f 264/264/264 265/265/265 272/272/272
f 264/264/264 272/272/272 271/271/271
f 265/265/265 266/266/266 273/273/273
f 265/265/265 273/273/273 272/272/272
f 267/267/267 268/268/268 275/275/275
f 267/267/267 275/275/275 274/274/274
f 268/268/268 269/269/269 276/276/276
f 268/268/268 276/276/276 275/275/275
f 269/269/269 270/270/270 277/277/277
f 269/269/269 277/277/277 276/276/276
f 270/270/270 271/271/271 278/278/278
f 270/270/270 278/278/278 277/277/277
f 271/271/271 272/272/272 279/279/279
f 271/271/271 279/279/279 278/278/278
f 272/272/272 273/273/273 280/280/280
f 272/272/272 280/280/280 279/279/279
f 274/274/274 275/275/275 282/282/282
f 274/274/274 282/282/282 281/281/281
f 275/275/275 276/276/276 283/283/283
f 275/275/275 283/283/283 282/282/282
f 276/276/276 277/277/277 284/284/284
f 276/276/276 284/284/284 283/283/283
f 277/277/277 278/278/278 285/285/285
f 277/277/277 285/285/285 284/284/284
f 278/278/278 279/279/279 286/286/286
f 278/278/278 286/286/286 285/285/285
f 279/279/279 280/280/280 287/287/287
f 279/279/279 287/287/287 286/286/286
f 281/281/281 282/282/282 289/289/289
f 281/281/281 289/289/289 288/288/288
f 282/282/282 283/283/283 290/290/290
f 282/282/282 290/290/290 289/289/289
f 283/283/283 284/284/284 291/291/291
f 283/283/283 291/291/291 290/290/290
f 284/284/284 285/285/285 292/292/292
f 284/284/284 292/292/292 291/291/291
f 285/285/285 286/286/286 293/293/293
f 285/285/285 293/293/293 292/292/292
f 286/286/286 287/287/287 294/294/294
f 286/286/286 294/294/294 293/293/293
f 288/288/288 289/289/289 296/296/296
f 288/288/288 296/296/296 295/295/295
f 289/289/289 290/290/290 297/297/297
f 289/289/289 297/297/297 296/296/296
f 290/290/290 291/291/291 298/298/298
f 290/290/290 298/298/298 297/297/297
f 291/291/291 292/292/292 299/299/299
f 291/291/291 299/299/299 298/298/298
f 292/292/292 293/293/293 300/300/300
f 292/292/292 300/300/300 299/299/299
f 293/293/293 294/294/294 301/301/301
f 293/293/293 301/301/301 300/300/300
f 295/295/295 296/296/296 303/303/303
f 295/295/295 303/303/303 302/302/302
f 296/296/296 297/297/297 304/304/304
f 296/296/296 304/304/304 303/303/303
f 297/297/297 298/298/298 305/305/305
f 297/297/297 305/305/305 304/304/304
f 298/298/298 299/299/299 306/306/306
f 298/298/298 306/306/306 305/305/305
f 299/299/299 300/300/300 307/307/307
f 299/299/299 307/307/307 306/306/306
f 300/300/300 301/301/301 308/308/308
f 300/300/300 308/308/308 307/307/307
f 302/302/302 303/303/303 310/310/310
f 302/302/302 310/310/310 309/309/309
f 303/303/303 304/304/304 311/311/311
f 303/303/303 311/311/311 310/310/310
f 304/304/304 305/305/305 312/312/312
f 304/304/304 312/312/312 311/311/311
f 305/305/305 306/306/306 313/313/313
f 305/305/305 313/313/313 312/312/312
f 306/306/306 307/307/307 314/314/314
f 306/306/306 314/314/314 313/313/313
f 307/307/307 308/308/308 315/315/315
f 307/307/307 315/315/315 314/314/314
f 309/309/309 310/310/310 317/317/317
f 309/309/309 317/317/317 316/316/316
f 310/310/310 311/311/311 318/318/318
f 310/310/310 318/318/318 317/317/317
f 311/311/311 312/312/312 319/319/319
f 311/311/311 319/319/319 318/318/318
f 312/312/312 313/313/313 320/320/320
f 312/312/312 320/320/320 319/319/319
f 313/313/313 314/314/314 321/321/321
f 313/313/313 321/321/321 320/320/320
f 314/314/314 315/315/315 322/322/322
f 314/314/314 322/322/322 321/321/321
f 316/316/316 317/317/317 324/324/324
f 316/316/316 324/324/324 323/323/323
f 317/317/317 318/318/318 325/325/325
f 317/317/317 325/325/325 324/324/324
f 318/318/318 319/319/319 326/326/326
f 318/318/318 326/326/326 325/325/325
f 319/319/319 320/320/320 327/327/327
f 319/319/319 327/327/327 326/326/326
f 320/320/320 321/321/321 328/328/328
f 320/320/320 328/328/328 327/327/327
f 321/321/321 322/322/322 329/329/329
f 321/321/321 329/329/329 328/328/328
f 323/323/323 324/324/324 331/331/331
f 323/323/323 331/331/331 330/330/330
f 324/324/324 325/325/325 332/332/332
f 324/324/324 332/332/332 331/331/331
f 325/325/325 326/326/326 333/333/333
f 325/325/325 333/333/333 332/332/332
f 326/326/326 327/327/327 334/334/334
f 326/326/326 334/334/334 333/333/333
f 327/327/327 328/328/328 335/335/335
f 327/327/327 335/335/335 334/334/334
f 328/328/328 329/329/329 336/336/336
f 328/328/328 336/336/336 335/335/335
f 330/330/330 331/331/331 338/338/338
f 330/330/330 338/338/338 337/337/337
f 331/331/331 332/332/332 339/339/339
f 331/331/331 339/339/339 338/338/338
f 332/332/332 333/333/333 340/340/340
f 332/332/332 340/340/340 339/339/339
f 333/333/333 334/334/334 341/341/341
f 333/333/333 341/341/341 340/340/340
f 334/334/334 335/335/335 342/342/342
f 334/334/334 342/342/342 341/341/341
f 335/335/335 336/336/336 343/343/343
f 335/335/335 343/343/343 342/342/342
f 337/337/337 338/338/338 345/345/345
f 337/337/337 345/345/345 344/344/344
f 338/338/338 339/339/339 346/346/346
f 338/338/338 346/346/346 345/345/345
f 339/339/339 340/340/340 347/347/347
f 339/339/339 347/347/347 346/346/346
f 340/340/340 341/341/341 348/348/348
f 340/340/340 348/348/348 347/347/347
f 341/341/341 342/342/342 349/349/349
f 341/341/341 349/349/349 348/348/348
f 342/342/342 343/343/343 350/350/350
f 342/342/342 350/350/350 349/349/349
f 344/344/344 345/345/345 352/352/352
f 344/344/344 352/352/352 351/351/351
f 345/345/345 346/346/346 353/353/353
f 345/345/345 353/353/353 352/352/352
f 346/346/346 347/347/347 354/354/354
f 346/346/346 354/354/354 353/353/353
f 347/347/347 348/348/348 355/355/355
f 347/347/347 355/355/355 354/354/354
f 348/348/348 349/349/349 356/356/356
f 348/348/348 356/356/356 355/355/355
f 349/349/349 350/350/350 357/357/357
f 349/349/349 357/357/357 356/356/356
f 351/351/351 352/352/352 359/359/359
f 351/351/351 359/359/359 358/358/358
f 352/352/352 353/353/353 360/360/360
f 352/352/352 360/360/360 359/359/359
f 353/353/353 354/354/354 361/361/361
f 353/353/353 361/361/361 360/360/360
f 354/354/354 355/355/355 362/362/362
f 354/354/354 362/362/362 361/361/361
f 355/355/355 356/356/356 363/363/363
f 355/355/355 363/363/363 362/362/362
f 356/356/356 357/357/357 364/364/364
f 356/356/356 364/364/364 363/363/363
f 358/358/358 359/359/359 366/366/366
f 358/358/358 366/366/366 365/365/365
f 359/359/359 360/360/360 367/367/367
f 359/359/359 367/367/367 366/366/366
f 360/360/360 361/361/361 368/368/368
f 360/360/360 368/368/368 367/367/367
f 361/361/361 362/362/362 369/369/369
f 361/361/361 369/369/369 368/368/368
f 362/362/362 363/363/363 370/370/370
f 362/362/362 370/370/370 369/369/369
f 363/363/363 364/364/364 371/371/371
f 363/363/363 371/371/371 370/370/370
f 365/365/365 366/366/366 373/373/373
f 365/365/365 373/373/373 372/372/372
f 366/366/366 367/367/367 374/374/374
f 366/366/366 374/374/374 373/373/373
f 367/367/367 368/368/368 375/375/375
f 367/367/367 375/375/375 374/374/374
f 368/368/368 369/369/369 376/376/376
f 368/368/368 376/376/376 375/375/375
f 369/369/369 370/370/370 377/377/377
f 369/369/369 377/377/377 376/376/376
f 370/370/370 371/371/371 378/378/378
f 370/370/370 378/378/378 377/377/377
f 372/372/372 373/373/373 380/380/380
f 372/372/372 380/380/380 379/379/379
f 373/373/373 374/374/374 381/381/381
f 373/373/373 381/381/381 380/380/380
f 374/374/374 375/375/375 382/382/382
f 374/374/374 382/382/382 381/381/381
f 375/375/375 376/376/376 383/383/383
f 375/375/375 383/383/383 382/382/382
f 376/376/376 377/377/377 384/384/384
f 376/376/376 384/384/384 383/383/383
f 377/377/377 378/378/378 385/385/385
f 377/377/377 385/385/385 384/384/384
f 379/379/379 380/380/380 387/387/387
f 379/379/379 387/387/387 386/386/386
f 380/380/380 381/381/381 388/388/388
f 380/380/380 388/388/388 387/387/387
f 381/381/381 382/382/382 389/389/389
f 381/381/381 389/389/389 388/388/388
f 382/382/382 383/383/383 390/390/390
f 382/382/382 390/390/390 389/389/389
f 383/383/383 384/384/384 391/391/391
f 383/383/383 391/391/391 390/390/390
f 384/384/384 385/385/385 392/392/392
f 384/384/384 392/392/392 391/391/391
f 386/386/386 387/387/387 394/394/394
f 386/386/386 394/394/394 393/393/393
f 387/387/387 388/388/388 395/395/395
f 387/387/387 395/395/395 394/394/394
f 388/388/388 389/389/389 396/396/396
f 388/388/388 396/396/396 395/395/395
f 389/389/389 390/390/390 397/397/397
f 389/389/389 397/397/397 396/396/396
f 390/390/390 391/391/391 398/398/398
f 390/390/390 398/398/398 397/397/397
f 391/391/391 392/392/392 399/399/399
f 391/391/391 399/399/399 398/398/398
f 393/393/393 394/394/394 401/401/401
f 393/393/393 401/401/401 400/400/400
f 394/394/394 395/395/395 402/402/402
f 394/394/394 402/402/402 401/401/401
f 395/395/395 396/396/396 403/403/403
f 395/395/395 403/403/403 402/402/402
f 396/396/396 397/397/397 404/404/404
f 396/396/396 404/404/404 403/403/403
f 397/397/397 398/398/398 405/405/405
f 397/397/397 405/405/405 404/404/404
f 398/398/398 399/399/399 406/406/406
f 398/398/398 406/406/406 405/405/405
f 400/400/400 401/401/401 408/408/408
f 400/400/400 408/408/408 407/407/407
f 401/401/401 402/402/402 409/409/409
f 401/401/401 409/409/409 408/408/408
f 402/402/402 403/403/403 410/410/410
f 402/402/402 410/410/410 409/409/409
f 403/403/403 404/404/404 411/411/411
f 403/403/403 411/411/411 410/410/410
f 404/404/404 405/405/405 412/412/412
f 404/404/404 412/412/412 411/411/411
f 405/405/405 406/406/406 413/413/413
f 405/405/405 413/413/413 412/412/412
f 407/407/407 408/408/408 415/415/415
f 407/407/407 415/415/415 414/414/414
f 408/408/408 409/409/409 416/416/416
f 408/408/408 416/416/416 415/415/415
f 409/409/409 410/410/410 417/417/417
f 409/409/409 417/417/417 416/416/416
f 410/410/410 411/411/411 418/418/418
f 410/410/410 418/418/418 417/417/417
f 411/411/411 412/412/412 419/419/419
f 411/411/411 419/419/419 418/418/418
f 412/412/412 413/413/413 420/420/420
f 412/412/412 420/420/420 419/419/419
f 414/414/414 415/415/415 422/422/422
f 414/414/414 422/422/422 421/421/421
f 415/415/415 416/416/416 423/423/423
f 415/415/415 423/423/423 422/422/422
f 416/416/416 417/417/417 424/424/424
f 416/416/416 424/424/424 423/423/423
f 417/417/417 418/418/418 425/425/425
f 417/417/417 425/425/425 424/424/424
f 418/418/418 419/419/419 426/426/426
f 418/418/418 426/426/426 425/425/425
f 419/419/419 420/420/420 427/427/427
f 419/419/419 427/427/427 426/426/426
f 421/421/421 422/422/422 429/429/429
f 421/421/421 429/429/429 428/428/428
f 422/422/422 423/423/423 430/430/430
f 422/422/422 430/430/430 429/429/429
f 423/423/423 424/424/424 431/431/431
f 423/423/423 431/431/431 430/430/430
f 424/424/424 425/425/425 432/432/432
f 424/424/424 432/432/432 431/431/431
f 425/425/425 426/426/426 433/433/433
f 425/425/425 433/433/433 432/432/432
f 426/426/426 427/427/427 434/434/434
f 426/426/426 434/434/434 433/433/433
f 428/428/428 429/429/429 436/436/436
f 428/428/428 436/436/436 435/435/435
f 429/429/429 430/430/430 437/437/437
f 429/429/429 437/437/437 436/436/436
f 430/430/430 431/431/431 438/438/438
f 430/430/430 438/438/438 437/437/437
f 431/431/431 432/432/432 439/439/439
f 431/431/431 439/439/439 438/438/438
f 432/432/432 433/433/433 440/440/440
f 432/432/432 440/440/440 439/439/439
f 433/433/433 434/434/434 441/441/441
f 433/433/433 441/441/441 440/440/440
f 435/435/435 436/436/436 443/443/443
f 435/435/435 443/443/443 442/442/442
f 436/436/436 437/437/437 444/444/444
f 436/436/436 444/444/444 443/443/443
f 437/437/437 438/438/438 445/445/445
f 437/437/437 445/445/445 444/444/444
f 438/438/438 439/439/439 446/446/446
f 438/438/438 446/446/446 445/445/445
f 439/439/439 440/440/440 447/447/447
f 439/439/439 447/447/447 446/446/446
f 440/440/440 441/441/441 448/448/448
f 440/440/440 448/448/448 447/447/447
f 442/442/442 443/443/443 450/450/450
f 442/442/442 450/450/450 449/449/449
f 443/443/443 444/444/444 451/451/451
f 443/443/443 451/451/451 450/450/450
f 444/444/444 445/445/445 452/452/452
f 444/444/444 452/452/452 451/451/451
f 445/445/445 446/446/446 453/453/453
f 445/445/445 453/453/453 452/452/452
f 446/446/446 447/447/447 454/454/454
f 446/446/446 454/454/454 453/453/453
f 447/447/447 448/448/448 455/455/455
f 447/447/447 455/455/455 454/454/454
