# Original VFX mesh; Unity Y-up, +Z forward
o Ripple
v 0.451573372 -0.0881674141 -0.004787366
v 0.459429741 -0.08927455 -0.004787366
v 0.4630431 -0.0312453527 -0.000451438653
v 0.485146374 -0.03152918 -0.000451438653
v 0.4718033 0.0281070042 0.003949505
v 0.499766231 0.0313177146 0.003949505
v 0.468554229 0.08854352 0.00778274
v 0.5 0.09628813 0.00778274
v 0.449459732 0.145930886 0.0104971621
v 0.482793 0.158807471 0.0104971621
v 0.415440768 0.196073115 0.0117025208
v 0.449324727 0.214399561 0.0117025208
v 0.371391118 0.23711434 0.0112255188
v 0.404618 0.260984 0.0112255188
v 0.32367292 0.270635873 0.009134737
v 0.355127782 0.29994604 0.009134737
v 0.277114153 0.3007676 0.005730766
v 0.3057693 0.3352392 0.005730766
v 0.233063161 0.331727862 0.00150299328
v 0.257985026 0.3709228 0.00150299328
v 0.1894566 0.3651191 -0.00294074719
v 0.2098174 0.408458143 -0.00294074719
v 0.142733708 0.398499638 -0.00696159061
v 0.157824263 0.44528082 -0.00696159061
v 0.09043288 0.426095366 -0.00998145
v 0.099675 0.475514382 -0.00998145
v 0.0329713076 0.441370279 -0.011566163
v 0.03592824 0.492542267 -0.011566163
v -0.0263774227 0.440150857 -0.0114878956
v -0.029992884 0.492133349 -0.0114878956
v -0.0832384 0.4226737 -0.009757902
v -0.09355884 0.4744904 -0.009757902
v -0.1345526 0.39347744 -0.0066249
v -0.151554182 0.4441427 -0.0066249
v -0.180205 0.359196037 -0.00253932248
v -0.203709 0.4077391 -0.00253932248
v -0.222865134 0.32541585 0.00191144063
v -0.252543 0.370904326 0.00191144063
v -0.266077131 0.2942328 0.00608751876
v -0.301459044 0.335795879 0.00608751876
v -0.311660439 0.26374507 0.009388494
v -0.352146924 0.3005941 0.009388494
v -0.357926518 0.22965084 0.011339806
v -0.402803153 0.261098772 0.011339806
v -0.399804145 0.18799822 0.0116609028
v -0.4482591 0.213476136 0.0116609028
v -0.4309278 0.137549773 0.010305631
v -0.4820714 0.156620711 0.010305631
v -0.446645975 0.0804929659 0.007468819
v -0.499532461 0.09286257 0.007468819
v -0.44634968 0.0211982243 0.003558342
v -0.5 0.026722135 0.003558342
v -0.433851242 -0.03618133 -0.0008636141
v -0.487276942 -0.03749372 -0.0008636141
v -0.415556639 -0.08983022 -0.005161296
v -0.467784256 -0.09781553 -0.005161296
v -0.397353321 -0.140873387 -0.008716824
v -0.447448164 -0.155217618 -0.008716824
v -0.381821841 -0.192112967 -0.0110190222
v -0.428911626 -0.212358266 -0.0110190222
v -0.3672053 -0.245650813 -0.0117369015
v -0.410502076 -0.271205544 -0.0117369015
v -0.348628432 -0.300809562 -0.0107672513
v -0.3874496 -0.3309611 -0.0107672513
v -0.320865124 -0.3536311 -0.008249479
v -0.354652 -0.38756156 -0.008249479
v -0.281151772 -0.398348 -0.004545587
v -0.309486717 -0.43515116 -0.004545587
v -0.230569616 -0.430102825 -0.000188024031
v -0.253190577 -0.468802929 -0.000188024031
v -0.173340455 -0.4474395 0.00419665268
v -0.190154374 -0.4870095 0.00419665268
v -0.114532411 -0.4531636 0.007978092
v -0.125627726 -0.492542267 0.007978092
v -0.05752879 -0.453015685 0.0106126424
v -0.06318951 -0.49112 0.0106126424
v -0.00268540974 -0.452785879 0.0117215253
v -0.00341147045 -0.488512427 0.0117215253
v 0.05211612 -0.455364764 0.0111453133
v 0.05556958 -0.487565517 0.0111453133
v 0.109434083 -0.4593034 0.008966852
v 0.115960449 -0.486683041 0.008966852
v 0.170081243 -0.459766269 0.00549933827
v 0.177892283 -0.480445355 0.00549933827
v 0.233274654 -0.453201741 0.0012412956
v 0.236996815 -0.460208446 0.0012412956
v 0.3157489 0.0636929646 0.008744795
v 0.321195334 0.0652591 0.008744795
v 0.298515081 0.100827478 0.0110360617
v 0.313528419 0.1073049 0.0110360617
v 0.284900963 0.139776915 0.0117369015
v 0.302811772 0.150382966 0.0117369015
v 0.269038737 0.179592416 0.0107463086
v 0.2879236 0.194308192 0.0107463086
v 0.246881425 0.217376173 0.00820705
v 0.265479058 0.236118332 0.00820705
v 0.216391876 0.248974219 0.004485086
v 0.233701572 0.2715461 0.004485086
v 0.178375751 0.2709271 0.000116839117
v 0.193554133 0.297017962 0.000116839117
v 0.135913521 0.282259643 -0.00426813448
v 0.148241818 0.3114533 -0.00426813448
v 0.09267684 0.285077363 -0.008037868
v 0.101551592 0.3168647 -0.008037868
v 0.05109727 0.283577621 -0.0106490534
v 0.0560299419 0.31737107 -0.0106490534
v 0.0114176264 0.281943738 -0.01172536
v 0.0120371887 0.31709367 -0.01172536
v -0.02787526 0.282210231 -0.0111116739
v -0.031819392 0.3180221 -0.0111116739
v -0.06854105 0.283221662 -0.00889644
v -0.07717716 0.318974555 -0.00889644
v -0.11092677 0.281237364 -0.00539891748
v -0.124260761 0.316202521 -0.00539891748
v -0.153170213 0.27186048 -0.00112318329
v -0.171087772 0.305319846 -0.00112318329
v -0.19178167 0.252274245 0.0033145498
v -0.214052871 0.283539027 0.0033145498
v -0.22331503 0.222621173 0.007274681
v -0.249601379 0.251048982 0.007274681
v -0.246194959 0.185841009 0.01018649
v -0.276058882 0.210852459 0.01018649
v -0.2616345 0.1461253 0.0116303172
v -0.2945511 0.167218387 0.0116303172
v -0.273060471 0.10687606 0.01139807
v -0.308431238 0.123638935 0.01139807
v -0.284282416 0.06929212 0.009523224
v -0.3214508 0.08141366 0.009523224
v -0.297355682 0.0323146656 0.00627598632
v -0.33562398 0.03959238 0.00627598632
v -0.311290473 -0.00612036 0.002124355
v -0.349937767 -0.00377489184 0.002124355
v -0.322331727 -0.04730959 -0.00233334047
v -0.360632479 -0.0498681366 -0.00233334047
v -0.3257007 -0.09055287 -0.00645461772
v -0.3629434 -0.09787072 -0.00645461772
v -0.317908227 -0.133197233 -0.009645548
v -0.353414118 -0.145016223 -0.009645548
v -0.298439473 -0.171932787 -0.0114462245
v -0.3315805 -0.187886745 -0.0114462245
v -0.2699488 -0.204585 -0.0115971323
v -0.300164521 -0.224207863 -0.0115971323
v -0.236898452 -0.231336728 -0.0100765293
v -0.263712138 -0.254072726 -0.0100765293
v -0.203399941 -0.254620671 -0.007103557
v -0.226432741 -0.279836148 -0.007103557
v -0.171413541 -0.277670383 -0.00310670072
v -0.190397516 -0.3046667 -0.00310670072
v -0.140231684 -0.30249238 0.00133801275
v -0.155021444 -0.330519468 0.00133801275
v -0.107443556 -0.32838428 0.005590012
v -0.118027084 -0.356652737 0.005590012
v -0.0707616657 -0.351863265 0.00903647
v -0.07727202 -0.379553169 0.00903647
v -0.0296368618 -0.368121028 0.0111806905
v -0.03236749 -0.394382834 0.0111806905
v 0.0142520266 -0.3732893 0.011713637
v 0.014819677 -0.397223949 0.011713637
v 0.05789441 -0.3663595 0.0105585037
v 0.0610262267 -0.386938065 0.0105585037
v 0.09872132 -0.349841028 0.007881782
v 0.103214048 -0.3655628 0.007881782
v 0.136969 -0.33031854 0.00406921934
v 0.1392054 -0.335525751 0.00406921934
v 0.204759508 -0.09124303 -0.009618618
v 0.2085251 -0.09249091 -0.009618618
v 0.214000538 -0.0549686737 -0.004829848
v 0.2260327 -0.05668049 -0.004829848
v 0.2257249 -0.0171645917 0.00131400139
v 0.241178125 -0.01658705 0.00131400139
v 0.228958175 0.023553567 0.00708946958
v 0.246316716 0.0273630563 0.00708946958
v 0.216359124 0.0622534268 0.0108764311
v 0.234430268 0.0697814 0.0108764311
v 0.189346746 0.0930215 0.0116125736
v 0.207037166 0.104445316 0.0116125736
v 0.156413868 0.115330182 0.009091397
v 0.172702551 0.130567715 0.009091397
v 0.12527281 0.13480179 0.004020136
v 0.139227167 0.153542012 0.004020136
v 0.09669802 0.157055065 -0.00217862823
v 0.107502192 0.178786919 -0.00217862823
v 0.06588786 0.18079479 -0.007766025
v 0.07287211 0.204839244 -0.007766025
v 0.0292697269 0.19752349 -0.0111746928
v 0.0319365822 0.223070011 -0.0111746928
v -0.010761275 0.198708951 -0.0114484346
v -0.0127171446 0.224856332 -0.0114484346
v -0.048097942 0.18357636 -0.008510459
v -0.0547776036 0.209376141 -0.008510459
v -0.0793989748 0.159845427 -0.00318492856
v -0.09069581 0.184346974 -0.00318492856
v -0.107432418 0.136680856 0.00303425267
v -0.123037905 0.15897578 0.00303425267
v -0.137328282 0.116817035 0.00840249
v -0.156746581 0.1360815 0.00840249
v -0.169558346 0.09543824 0.0114138983
v -0.192129433 0.110971019 0.0114138983
v -0.197312191 0.06641059 0.0112237148
v -0.222242415 0.0776655152 0.0112237148
v -0.211634666 0.0291268025 0.007885298
v -0.2380333 0.0357379168 0.007885298
v -0.209579274 -0.0109740384 0.002335125
v -0.236499712 -0.009175544 0.002335125
v -0.197184011 -0.0482224859 -0.00386987417
v -0.223667577 -0.0512002856 -0.00386987417
v -0.1840305 -0.08221822 -0.008989083
v -0.2091512 -0.08973227 -0.008989083
v -0.174553379 -0.116938613 -0.011586464
v -0.197461456 -0.128555685 -0.011586464
v -0.164533883 -0.154481187 -0.0109334188
v -0.184496656 -0.169594169 -0.0109334188
v -0.145988554 -0.1904632 -0.00721311942
v -0.16242674 -0.2083179 -0.00721311942
v -0.115306854 -0.216547877 -0.00146919047
v -0.127825424 -0.23627618 -0.00146919047
v -0.07651962 -0.227994472 0.004687093
v -0.0849327147 -0.248651743 0.004687093
v -0.0368869677 -0.2285044 0.009528774
v -0.0412372462 -0.249108523 0.009528774
v 7.038523E-05 -0.22701481 0.0116976844
v -0.0005051223 -0.246582776 0.0116976844
v 0.03665562 -0.229206353 0.0105854031
v 0.0392986536 -0.246780351 0.0105854031
v 0.07630942 -0.23202078 0.006503939
v 0.081290476 -0.2466606 0.006503939
v 0.117716409 -0.226685956 0.000598229351
v 0.123613626 -0.237312615 0.000598229351
v 0.1555133 -0.208270639 -0.005475074
v 0.158024073 -0.211341962 -0.005475074
vt 0 0
vt 1 0
vt 0 0.0238095243
vt 1 0.0238095243
vt 0 0.04761905
vt 1 0.04761905
vt 0 0.0714285746
vt 1 0.0714285746
vt 0 0.0952381
vt 1 0.0952381
vt 0 0.119047619
vt 1 0.119047619
vt 0 0.142857149
vt 1 0.142857149
vt 0 0.166666672
vt 1 0.166666672
vt 0 0.1904762
vt 1 0.1904762
vt 0 0.214285716
vt 1 0.214285716
vt 0 0.238095239
vt 1 0.238095239
vt 0 0.261904776
vt 1 0.261904776
vt 0 0.2857143
vt 1 0.2857143
vt 0 0.309523821
vt 1 0.309523821
vt 0 0.333333343
vt 1 0.333333343
vt 0 0.357142866
vt 1 0.357142866
vt 0 0.3809524
vt 1 0.3809524
vt 0 0.4047619
vt 1 0.4047619
vt 0 0.428571433
vt 1 0.428571433
vt 0 0.452380955
vt 1 0.452380955
vt 0 0.476190478
vt 1 0.476190478
vt 0 0.5
vt 1 0.5
vt 0 0.523809552
vt 1 0.523809552
vt 0 0.547619045
vt 1 0.547619045
vt 0 0.5714286
vt 1 0.5714286
vt 0 0.5952381
vt 1 0.5952381
vt 0 0.619047642
vt 1 0.619047642
vt 0 0.642857134
vt 1 0.642857134
vt 0 0.6666667
vt 1 0.6666667
vt 0 0.6904762
vt 1 0.6904762
vt 0 0.714285731
vt 1 0.714285731
vt 0 0.7380952
vt 1 0.7380952
vt 0 0.7619048
vt 1 0.7619048
vt 0 0.785714269
vt 1 0.785714269
vt 0 0.8095238
vt 1 0.8095238
vt 0 0.8333333
vt 1 0.8333333
vt 0 0.857142866
vt 1 0.857142866
vt 0 0.880952358
vt 1 0.880952358
vt 0 0.9047619
vt 1 0.9047619
vt 0 0.9285714
vt 1 0.9285714
vt 0 0.952380955
vt 1 0.952380955
vt 0 0.976190448
vt 1 0.976190448
vt 0 1
vt 1 1
vt 0 0
vt 1 0
vt 0 0.02631579
vt 1 0.02631579
vt 0 0.05263158
vt 1 0.05263158
vt 0 0.0789473653
vt 1 0.0789473653
vt 0 0.105263159
vt 1 0.105263159
vt 0 0.131578952
vt 1 0.131578952
vt 0 0.157894731
vt 1 0.157894731
vt 0 0.184210524
vt 1 0.184210524
vt 0 0.210526317
vt 1 0.210526317
vt 0 0.236842111
vt 1 0.236842111
vt 0 0.2631579
vt 1 0.2631579
vt 0 0.289473683
vt 1 0.289473683
vt 0 0.315789461
vt 1 0.315789461
vt 0 0.342105269
vt 1 0.342105269
vt 0 0.368421048
vt 1 0.368421048
vt 0 0.394736856
vt 1 0.394736856
vt 0 0.421052635
vt 1 0.421052635
vt 0 0.4473684
vt 1 0.4473684
vt 0 0.473684222
vt 1 0.473684222
vt 0 0.5
vt 1 0.5
vt 0 0.5263158
vt 1 0.5263158
vt 0 0.552631557
vt 1 0.552631557
vt 0 0.578947365
vt 1 0.578947365
vt 0 0.6052632
vt 1 0.6052632
vt 0 0.6315789
vt 1 0.6315789
vt 0 0.657894731
vt 1 0.657894731
vt 0 0.684210539
vt 1 0.684210539
vt 0 0.7105263
vt 1 0.7105263
vt 0 0.7368421
vt 1 0.7368421
vt 0 0.7631579
vt 1 0.7631579
vt 0 0.7894737
vt 1 0.7894737
vt 0 0.815789461
vt 1 0.815789461
vt 0 0.842105269
vt 1 0.842105269
vt 0 0.8684211
vt 1 0.8684211
vt 0 0.8947368
vt 1 0.8947368
vt 0 0.921052635
vt 1 0.921052635
vt 0 0.947368443
vt 1 0.947368443
vt 0 0.9736842
vt 1 0.9736842
vt 0 1
vt 1 1
vt 0 0
vt 1 0
vt 0 0.03125
vt 1 0.03125
vt 0 0.0625
vt 1 0.0625
vt 0 0.09375
vt 1 0.09375
vt 0 0.125
vt 1 0.125
vt 0 0.15625
vt 1 0.15625
vt 0 0.1875
vt 1 0.1875
vt 0 0.21875
vt 1 0.21875
vt 0 0.25
vt 1 0.25
vt 0 0.28125
vt 1 0.28125
vt 0 0.3125
vt 1 0.3125
vt 0 0.34375
vt 1 0.34375
vt 0 0.375
vt 1 0.375
vt 0 0.40625
vt 1 0.40625
vt 0 0.4375
vt 1 0.4375
vt 0 0.46875
vt 1 0.46875
vt 0 0.5
vt 1 0.5
vt 0 0.53125
vt 1 0.53125
vt 0 0.5625
vt 1 0.5625
vt 0 0.59375
vt 1 0.59375
vt 0 0.625
vt 1 0.625
vt 0 0.65625
vt 1 0.65625
vt 0 0.6875
vt 1 0.6875
vt 0 0.71875
vt 1 0.71875
vt 0 0.75
vt 1 0.75
vt 0 0.78125
vt 1 0.78125
vt 0 0.8125
vt 1 0.8125
vt 0 0.84375
vt 1 0.84375
vt 0 0.875
vt 1 0.875
vt 0 0.90625
vt 1 0.90625
vt 0 0.9375
vt 1 0.9375
vt 0 0.96875
vt 1 0.96875
vt 0 1
vt 1 1
vn -0.00344951125 -0.0742979944 0.9972301
vn -0.009931291 -0.07047376 0.9974643
vn 0.00271071866 -0.0735655352 0.9972867
vn -0.00231482252 -0.0722334 0.997385
vn 0.0104225315 -0.06514319 0.9978215
vn 0.0051914053 -0.06750412 0.9977055
vn 0.0138357049 -0.047869578 0.998757839
vn 0.0107727721 -0.05352236 0.9985085
vn 0.0107218008 -0.0253406819 0.9996214
vn 0.0109220324 -0.0329997726 0.9993956
vn 0.000275012 -0.00123754132 0.9999992
vn 0.00412143068 -0.009259328 0.999948561
vn -0.01668426 0.0205651317 0.9996493
vn -0.009607046 0.0139210271 0.999857
vn -0.0371768028 0.036106538 0.998656154
vn -0.0281552542 0.03233913 0.9990803
vn -0.05601266 0.0423312858 0.997532248
vn -0.0470598266 0.0422495231 0.9979982
vn -0.06727174 0.0387343019 0.9969826
vn -0.0606029332 0.0420882776 0.9972742
vn -0.0669886842 0.0281285848 0.9973572
vn -0.064266555 0.0336279161 0.997366
vn -0.0548872426 0.01538528 0.998374
vn -0.0566810481 0.0211714022 0.9981678
vn -0.0337750278 0.005169657 0.999416053
vn -0.03952435 0.009443954 0.999173939
vn -0.00772896735 0.000501448347 0.9999699
vn -0.0160762 0.00197592541 0.99986887
vn 0.0191569217 0.00254451321 0.999813259
vn 0.009969583 0.0006415195 0.999950051
vn 0.0430041626 0.0108321421 0.999016166
vn 0.0348206945 0.00574818533 0.999377
vn 0.06001292 0.02327441 0.9979262
vn 0.0544879548 0.0159996264 0.998386264
vn 0.06684498 0.036056675 0.9971116
vn 0.0651092 0.0283015948 0.9974767
vn 0.06195216 0.04419719 0.9971001
vn 0.06423336 0.0380704328 0.9972084
vn 0.0470802858 0.043355532 0.9979497
vn 0.0524892248 0.04072334 0.9977908
vn 0.0271958578 0.03202981 0.9991169
vn 0.03394597 0.03381265 0.998851538
vn 0.008263547 0.01219524 0.99989146
vn 0.0143080819 0.01806192 0.999734461
vn -0.00528494362 -0.01209219 0.999912858
vn -0.00158261228 -0.00347681926 0.9999927
vn -0.0115189636 -0.03649101 0.9992676
vn -0.0110197589 -0.0269599482 0.9995758
vn -0.0105995247 -0.0571669862 0.998308361
vn -0.0133262537 -0.0486237779 0.9987282
vn -0.00416370761 -0.07072827 0.997486949
vn -0.009365082 -0.0648669153 0.99785
vn 0.00491848355 -0.0741945356 0.997231662
vn -0.00133423309 -0.07225559 0.9973852
vn 0.0127100311 -0.06575323 0.997754931
vn 0.007287756 -0.0682134 0.997644067
vn 0.0150429057 -0.04627474 0.9988155
vn 0.01232623 -0.0525365 0.998542845
vn 0.009280755 -0.02023365 0.9997522
vn 0.0104586231 -0.0286043379 0.9995361
vn -0.00416247174 0.00566470576 0.999975264
vn 0.0008988021 -0.002541572 0.9999964
vn -0.02211097 0.0255768225 0.999428332
vn -0.0143306069 0.019562779 0.9997059
vn -0.04035768 0.03661037 0.9985144
vn -0.0316690877 0.0339789838 0.998920739
vn -0.05507428 0.0387017839 0.997732
vn -0.0473954231 0.03967525 0.9980879
vn -0.06315728 0.0334996469 0.9974412
vn -0.05816963 0.03746916 0.997603238
vn -0.06212303 0.0235916171 0.9977896
vn -0.061050918 0.0292965248 0.997704566
vn -0.0504133143 0.01229498 0.998652756
vn -0.05377681 0.0180156156 0.998390436
vn -0.0284950137 0.00343890232 0.999588
vn -0.03580236 0.00732677337 0.999332
vn -8.17711043E-05 0.000408263557 0.99999994
vn -0.009682939 0.00105289707 0.999952555
vn 0.0282609984 0.00452079158 0.999590337
vn 0.0188073255 0.001565111 0.999821842
vn 0.0498805754 0.0140925273 0.9986558
vn 0.0429476462 0.008479524 0.9990413
vn 0.06106515 0.0245409831 0.997832
vn 0.0582110733 0.0189639572 0.9981241
vn 0.06369093 0.0338343978 0.9973959
vn 0.06365681 0.0265178066 0.99761945
vn 0.0202183817 -0.0514279157 0.998472
vn 0.0148677565 -0.0517045334 0.9985517
vn 0.01203397 -0.02579378 0.999594867
vn 0.0141135184 -0.0352695435 0.9992782
vn -0.006367088 0.00862037949 0.99994266
vn 0.000585940259 -0.00213049282 0.9999976
vn -0.03084738 0.0352944061 0.998900831
vn -0.0204645861 0.027658172 0.9994079
vn -0.0556596071 0.0499956571 0.9971973
vn -0.04420997 0.0469764471 0.997917235
vn -0.0755812451 0.052584298 0.995752156
vn -0.06553836 0.05434299 0.9963692
vn -0.0863889754 0.0453088619 0.9952307
vn -0.0799076855 0.0509469919 0.9954995
vn -0.08469274 0.0317073055 0.995902538
vn -0.08335694 0.0395154469 0.995736
vn -0.06834093 0.0163200181 0.997528553
vn -0.0728770941 0.0240148511 0.997051835
vn -0.03795565 0.00440575 0.9992697
vn -0.04784113 0.009531282 0.998809457
vn 0.00131649093 0.000623468542 0.9999989
vn -0.0119039975 0.00126557052 0.999928355
vn 0.04033182 0.006767471 0.9991634
vn 0.0268855188 0.00235804543 0.9996357
vn 0.06987195 0.0205358211 0.997344553
vn 0.0593031421 0.0121444743 0.998166144
vn 0.08478041 0.03683793 0.9957184
vn 0.0791189447 0.0266867224 0.996507943
vn 0.08474688 0.05021446 0.9951363
vn 0.08457677 0.0408716947 0.9955784
vn 0.07247423 0.0562444329 0.9957831
vn 0.07713567 0.050019417 0.9957651
vn 0.0518808439 0.05176737 0.997310638
vn 0.05981393 0.0503814369 0.9969374
vn 0.0274711084 0.0350006223 0.9990096
vn 0.0364996232 0.0393363424 0.9985592
vn 0.00438501453 0.00640993565 0.99996984
vn 0.0120284 0.0161890741 0.9997967
vn -0.0120253228 -0.02987626 0.999481261
vn -0.008012398 -0.0163703915 0.9998338
vn -0.017931046 -0.06581812 0.9976706
vn -0.0187839121 -0.0515607856 0.9984932
vn -0.0132110463 -0.09216581 0.9956561
vn -0.01857722 -0.08048808 0.996582448
vn -0.00179346337 -0.102750607 0.994705558
vn -0.009860078 -0.0961615741 0.995317
vn 0.0104396781 -0.09657982 0.9952705
vn 0.00220513 -0.0960872 0.9953705
vn 0.0181241166 -0.07661513 0.996896
vn 0.0121728973 -0.08175066 0.9965784
vn 0.0175898578 -0.0475033969 0.998716235
vn 0.0157720372 -0.0567071 0.9982662
vn 0.00703669852 -0.01428881 0.999873161
vn 0.0103156548 -0.025310507 0.9996264
vn -0.0132627841 0.0177325457 0.9997547
vn -0.00502614863 0.007473583 0.999959469
vn -0.0402958877 0.0429881141 0.998262644
vn -0.028512504 0.0359494574 0.998946846
vn -0.0678750351 0.0565715246 0.9960887
vn -0.0551393256 0.0544391461 0.9969935
vn -0.08789905 0.05635865 0.994533658
vn -0.07737652 0.059399683 0.9952309
vn -0.0936478749 0.0446761064 0.9946025
vn -0.08803365 0.0515519641 0.9947826
vn -0.082855165 0.02750263 0.996182
vn -0.08346071 0.035774406 0.995868742
vn -0.05801014 0.0116100209 0.9982485
vn -0.06447974 0.018629048 0.997745156
vn -0.0242879484 0.002049112 0.9997029
vn -0.0349198729 0.00572750159 0.9993736
vn 0.012555494 0.00128950807 0.9999203
vn 0.000262953137 0.000530919351 0.9999999
vn 0.046984978 0.00933448 0.9988521
vn 0.03587582 0.004263385 0.9993471
vn 0.07321633 0.0226366818 0.9970591
vn 0.0666401759 0.0159224421 0.997649968
vn 0.08143639 0.03497536 0.9960647
vn 0.08422897 0.0270814653 0.9960783
vn -0.0230904147 -0.123248033 0.9921072
vn -0.0378594175 -0.114244178 0.9927311
vn -0.009755138 -0.145677954 0.989284
vn -0.0218974687 -0.1326557 0.9909203
vn 0.0146702323 -0.144462988 0.98940146
vn -0.00204026187 -0.14494586 0.9894375
vn 0.0284398068 -0.102669947 0.9943089
vn 0.0183433015 -0.1177444 0.9928745
vn 0.0171077158 -0.0381807946 0.999124348
vn 0.02008605 -0.06110556 0.9979292
vn -0.0228459816 0.0282211024 0.999340653
vn -0.005846615 0.0071949847 0.999957
vn -0.08041355 0.07419742 0.9939962
vn -0.05529133 0.06439101 0.996391833
vn -0.128342479 0.08319804 0.988234
vn -0.106351174 0.08843177 0.9903884
vn -0.13778238 0.05870183 0.9887215
vn -0.129517972 0.0743914843 0.988782644
vn -0.100643083 0.02385869 0.994636536
vn -0.109889284 0.0400856733 0.993135154
vn -0.031917695 0.0029275557 0.999486268
vn -0.05429496 0.0103719635 0.998471
vn 0.0448658131 0.00766020827 0.998963654
vn 0.018873293 0.00178914191 0.999820352
vn 0.106940687 0.0358955041 0.993617237
vn 0.0878412947 0.0184588321 0.9959634
vn 0.1343561 0.07250498 0.988277
vn 0.129726589 0.0512384437 0.9902251
vn 0.117018186 0.09221194 0.9888396
vn 0.127924457 0.07820369 0.9886958
vn 0.06652944 0.07371403 0.9950578
vn 0.08619963 0.07558345 0.9934066
vn 0.0128665492 0.0181932785 0.999751747
vn 0.030167615 0.0361872055 0.998889565
vn -0.01848093 -0.05267418 0.9984407
vn -0.0122610228 -0.02651201 0.99957335
vn -0.0205023214 -0.114540175 0.993207037
vn -0.0275779925 -0.09099639 0.9954693
vn -0.0008215035 -0.1482395 0.9889512
vn -0.0170510542 -0.136495635 0.990493953
vn 0.0235075578 -0.139541 0.989937246
vn 0.00698643643 -0.144595236 0.9894662
vn 0.03004964 -0.0863574 0.995810866
vn 0.0236362834 -0.106331155 0.9940498
vn 0.004389649 -0.0108737983 0.9999312
vn 0.0137525434 -0.0358604044 0.9992623
vn -0.0451235846 0.05055123 0.9977016
vn -0.023762295 0.032980524 0.9991735
vn -0.09556009 0.07700368 0.9924408
vn -0.07210794 0.0735924542 0.99467814
vn -0.126526684 0.07018339 0.989477336
vn -0.111001283 0.08009134 0.9905878
vn -0.12358287 0.0429358371 0.991404951
vn -0.123116285 0.05988934 0.9905835
vn -0.078624554 0.0133557646 0.996814847
vn -0.09526219 0.02775746 0.995065153
vn -0.0005278796 0.00165907759 0.99999845
vn -0.02804726 0.004309546 0.9995973
vn 0.07752499 0.0174822453 0.9968371
vn 0.05239558 0.00606606 0.998607934
vn 0.121564172 0.0491995737 0.9913635
vn 0.109853968 0.0305128545 0.9934793
vn 0.125279084 0.0737267062 0.9893783
vn 0.127752692 0.05980138 0.9900015
vn 0.11366801 0.0929223 0.9891638
vn 0.120900214 0.07421002 0.9898869
f 1/1/1 2/2/2 4/4/4
f 1/1/1 4/4/4 3/3/3
f 3/3/3 4/4/4 6/6/6
f 3/3/3 6/6/6 5/5/5
f 5/5/5 6/6/6 8/8/8
f 5/5/5 8/8/8 7/7/7
f 7/7/7 8/8/8 10/10/10
f 7/7/7 10/10/10 9/9/9
f 9/9/9 10/10/10 12/12/12
f 9/9/9 12/12/12 11/11/11
f 11/11/11 12/12/12 14/14/14
f 11/11/11 14/14/14 13/13/13
f 13/13/13 14/14/14 16/16/16
f 13/13/13 16/16/16 15/15/15
f 15/15/15 16/16/16 18/18/18
f 15/15/15 18/18/18 17/17/17
f 17/17/17 18/18/18 20/20/20
f 17/17/17 20/20/20 19/19/19
f 19/19/19 20/20/20 22/22/22
f 19/19/19 22/22/22 21/21/21
f 21/21/21 22/22/22 24/24/24
f 21/21/21 24/24/24 23/23/23
f 23/23/23 24/24/24 26/26/26
f 23/23/23 26/26/26 25/25/25
f 25/25/25 26/26/26 28/28/28
f 25/25/25 28/28/28 27/27/27
f 27/27/27 28/28/28 30/30/30
f 27/27/27 30/30/30 29/29/29
f 29/29/29 30/30/30 32/32/32
f 29/29/29 32/32/32 31/31/31
f 31/31/31 32/32/32 34/34/34
f 31/31/31 34/34/34 33/33/33
f 33/33/33 34/34/34 36/36/36
f 33/33/33 36/36/36 35/35/35
f 35/35/35 36/36/36 38/38/38
f 35/35/35 38/38/38 37/37/37
f 37/37/37 38/38/38 40/40/40
f 37/37/37 40/40/40 39/39/39
f 39/39/39 40/40/40 42/42/42
f 39/39/39 42/42/42 41/41/41
f 41/41/41 42/42/42 44/44/44
f 41/41/41 44/44/44 43/43/43
f 43/43/43 44/44/44 46/46/46
f 43/43/43 46/46/46 45/45/45
f 45/45/45 46/46/46 48/48/48
f 45/45/45 48/48/48 47/47/47
f 47/47/47 48/48/48 50/50/50
f 47/47/47 50/50/50 49/49/49
f 49/49/49 50/50/50 52/52/52
f 49/49/49 52/52/52 51/51/51
f 51/51/51 52/52/52 54/54/54
f 51/51/51 54/54/54 53/53/53
f 53/53/53 54/54/54 56/56/56
f 53/53/53 56/56/56 55/55/55
f 55/55/55 56/56/56 58/58/58
f 55/55/55 58/58/58 57/57/57
f 57/57/57 58/58/58 60/60/60
f 57/57/57 60/60/60 59/59/59
f 59/59/59 60/60/60 62/62/62
f 59/59/59 62/62/62 61/61/61
f 61/61/61 62/62/62 64/64/64
f 61/61/61 64/64/64 63/63/63
f 63/63/63 64/64/64 66/66/66
f 63/63/63 66/66/66 65/65/65
f 65/65/65 66/66/66 68/68/68
f 65/65/65 68/68/68 67/67/67
f 67/67/67 68/68/68 70/70/70
f 67/67/67 70/70/70 69/69/69
f 69/69/69 70/70/70 72/72/72
f 69/69/69 72/72/72 71/71/71
f 71/71/71 72/72/72 74/74/74
f 71/71/71 74/74/74 73/73/73
f 73/73/73 74/74/74 76/76/76
f 73/73/73 76/76/76 75/75/75
f 75/75/75 76/76/76 78/78/78
f 75/75/75 78/78/78 77/77/77
f 77/77/77 78/78/78 80/80/80
f 77/77/77 80/80/80 79/79/79
f 79/79/79 80/80/80 82/82/82
f 79/79/79 82/82/82 81/81/81
f 81/81/81 82/82/82 84/84/84
f 81/81/81 84/84/84 83/83/83
f 83/83/83 84/84/84 86/86/86
f 83/83/83 86/86/86 85/85/85
f 87/87/87 88/88/88 90/90/90
f 87/87/87 90/90/90 89/89/89
f 89/89/89 90/90/90 92/92/92
f 89/89/89 92/92/92 91/91/91
f 91/91/91 92/92/92 94/94/94
f 91/91/91 94/94/94 93/93/93
f 93/93/93 94/94/94 96/96/96
f 93/93/93 96/96/96 95/95/95
f 95/95/95 96/96/96 98/98/98
f 95/95/95 98/98/98 97/97/97
f 97/97/97 98/98/98 100/100/100
f 97/97/97 100/100/100 99/99/99
f 99/99/99 100/100/100 102/102/102
f 99/99/99 102/102/102 101/101/101
f 101/101/101 102/102/102 104/104/104
f 101/101/101 104/104/104 103/103/103
f 103/103/103 104/104/104 106/106/106
f 103/103/103 106/106/106 105/105/105
f 105/105/105 106/106/106 108/108/108
f 105/105/105 108/108/108 107/107/107
f 107/107/107 108/108/108 110/110/110
f 107/107/107 110/110/110 109/109/109
f 109/109/109 110/110/110 112/112/112
f 109/109/109 112/112/112 111/111/111
f 111/111/111 112/112/112 114/114/114
f 111/111/111 114/114/114 113/113/113
f 113/113/113 114/114/114 116/116/116
f 113/113/113 116/116/116 115/115/115
f 115/115/115 116/116/116 118/118/118
f 115/115/115 118/118/118 117/117/117
f 117/117/117 118/118/118 120/120/120
f 117/117/117 120/120/120 119/119/119
f 119/119/119 120/120/120 122/122/122
f 119/119/119 122/122/122 121/121/121
f 121/121/121 122/122/122 124/124/124
f 121/121/121 124/124/124 123/123/123
f 123/123/123 124/124/124 126/126/126
f 123/123/123 126/126/126 125/125/125
f 125/125/125 126/126/126 128/128/128
f 125/125/125 128/128/128 127/127/127
f 127/127/127 128/128/128 130/130/130
f 127/127/127 130/130/130 129/129/129
f 129/129/129 130/130/130 132/132/132
f 129/129/129 132/132/132 131/131/131
f 131/131/131 132/132/132 134/134/134
f 131/131/131 134/134/134 133/133/133
f 133/133/133 134/134/134 136/136/136
f 133/133/133 136/136/136 135/135/135
f 135/135/135 136/136/136 138/138/138
f 135/135/135 138/138/138 137/137/137
f 137/137/137 138/138/138 140/140/140
f 137/137/137 140/140/140 139/139/139
f 139/139/139 140/140/140 142/142/142
f 139/139/139 142/142/142 141/141/141
f 141/141/141 142/142/142 144/144/144
f 141/141/141 144/144/144 143/143/143
f 143/143/143 144/144/144 146/146/146
f 143/143/143 146/146/146 145/145/145
f 145/145/145 146/146/146 148/148/148
f 145/145/145 148/148/148 147/147/147
f 147/147/147 148/148/148 150/150/150
f 147/147/147 150/150/150 149/149/149
f 149/149/149 150/150/150 152/152/152
f 149/149/149 152/152/152 151/151/151
f 151/151/151 152/152/152 154/154/154
f 151/151/151 154/154/154 153/153/153
f 153/153/153 154/154/154 156/156/156
f 153/153/153 156/156/156 155/155/155
f 155/155/155 156/156/156 158/158/158
f 155/155/155 158/158/158 157/157/157
f 157/157/157 158/158/158 160/160/160
f 157/157/157 160/160/160 159/159/159
f 159/159/159 160/160/160 162/162/162
f 159/159/159 162/162/162 161/161/161
f 161/161/161 162/162/162 164/164/164
f 161/161/161 164/164/164 163/163/163
f 165/165/165 166/166/166 168/168/168
f 165/165/165 168/168/168 167/167/167
f 167/167/167 168/168/168 170/170/170
f 167/167/167 170/170/170 169/169/169
f 169/169/169 170/170/170 172/172/172
f 169/169/169 172/172/172 171/171/171
f 171/171/171 172/172/172 174/174/174
f 171/171/171 174/174/174 173/173/173
f 173/173/173 174/174/174 176/176/176
f 173/173/173 176/176/176 175/175/175
f 175/175/175 176/176/176 178/178/178
f 175/175/175 178/178/178 177/177/177
f 177/177/177 178/178/178 180/180/180
f 177/177/177 180/180/180 179/179/179
f 179/179/179 180/180/180 182/182/182
f 179/179/179 182/182/182 181/181/181
f 181/181/181 182/182/182 184/184/184
f 181/181/181 184/184/184 183/183/183
f 183/183/183 184/184/184 186/186/186
f 183/183/183 186/186/186 185/185/185
f 185/185/185 186/186/186 188/188/188
f 185/185/185 188/188/188 187/187/187
f 187/187/187 188/188/188 190/190/190
f 187/187/187 190/190/190 189/189/189
f 189/189/189 190/190/190 192/192/192
f 189/189/189 192/192/192 191/191/191
f 191/191/191 192/192/192 194/194/194
f 191/191/191 194/194/194 193/193/193
f 193/193/193 194/194/194 196/196/196
f 193/193/193 196/196/196 195/195/195
f 195/195/195 196/196/196 198/198/198
f 195/195/195 198/198/198 197/197/197
f 197/197/197 198/198/198 200/200/200
f 197/197/197 200/200/200 199/199/199
f 199/199/199 200/200/200 202/202/202
f 199/199/199 202/202/202 201/201/201
f 201/201/201 202/202/202 204/204/204
f 201/201/201 204/204/204 203/203/203
f 203/203/203 204/204/204 206/206/206
f 203/203/203 206/206/206 205/205/205
f 205/205/205 206/206/206 208/208/208
f 205/205/205 208/208/208 207/207/207
f 207/207/207 208/208/208 210/210/210
f 207/207/207 210/210/210 209/209/209
f 209/209/209 210/210/210 212/212/212
f 209/209/209 212/212/212 211/211/211
f 211/211/211 212/212/212 214/214/214
f 211/211/211 214/214/214 213/213/213
f 213/213/213 214/214/214 216/216/216
f 213/213/213 216/216/216 215/215/215
f 215/215/215 216/216/216 218/218/218
f 215/215/215 218/218/218 217/217/217
f 217/217/217 218/218/218 220/220/220
f 217/217/217 220/220/220 219/219/219
f 219/219/219 220/220/220 222/222/222
f 219/219/219 222/222/222 221/221/221
f 221/221/221 222/222/222 224/224/224
f 221/221/221 224/224/224 223/223/223
f 223/223/223 224/224/224 226/226/226
f 223/223/223 226/226/226 225/225/225
f 225/225/225 226/226/226 228/228/228
f 225/225/225 228/228/228 227/227/227
f 227/227/227 228/228/228 230/230/230
f 227/227/227 230/230/230 229/229/229
