# Original VFX mesh; Unity Y-up, +Z forward
o Rock
v -0.007856309 0.3654706 0.0335449539
v -0.007856309 0.448753685 0.0335449539
v -0.007856309 0.338975579 0.0335449539
v -0.007856309 0.328078121 0.0335449539
v -0.007856309 0.338975579 0.0335449539
v -0.007856309 0.448753685 0.0335449539
v -0.007856309 0.365470529 0.0335449539
v -0.007856309 0.282187462 0.0335449539
v -0.007856309 0.391965628 0.0335449539
v -0.007856309 0.402863026 0.0335449539
v -0.007856309 0.391965628 0.0335449539
v -0.007856309 0.282187462 0.0335449539
v -0.007856309 0.365470618 0.0335449539
v 0.18328549 0.374930561 0.0335449539
v 0.153767779 0.3662561 0.1154325
v 0.0559863225 0.252997756 0.130583391
v -0.007856317 0.349049538 0.189461842
v -0.111182235 0.4047333 0.1905965
v -0.149095371 0.321026325 0.10510435
v -0.160801589 0.301535338 0.0335449427
v -0.144220382 0.3102098 -0.03554449
v -0.1160572 0.423468143 -0.130916417
v -0.007856308 0.32741642 -0.112492152
v 0.0608613081 0.271732539 -0.0709033
v 0.14889279 0.3554396 -0.0458726063
v 0.18328549 0.374930561 0.0335449837
v 0.2908195 0.24537 0.0335449539
v 0.221233055 0.218192413 0.1496141
v 0.154608533 0.266265929 0.280485541
v -0.007856324 0.2934435 0.348652363
v -0.179930776 0.281562835 0.2950917
v -0.208116934 0.191697448 0.135007873
v -0.3449705 0.275963783 0.0335449241
v -0.329377174 0.303141326 -0.129354984
v -0.1632864 0.255067825 -0.202703118
v -0.007856306 0.2278903 -0.209285825
v 0.137964219 0.239770934 -0.188096911
v 0.3424934 0.329636335 -0.143961132
v 0.290819436 0.245369941 0.033545
v 0.34216705 0.123044193 0.0335449539
v 0.3274479 0.135292664 0.203428283
v 0.2568811 0.182205781 0.4359361
v -0.007856326 0.13376449 0.3692439
v -0.1868823 0.125691056 0.3056578
v -0.363545477 0.143052861 0.213756427
v -0.488532543 0.166117862 0.0335449167
v -0.391959131 0.1538694 -0.16106239
v -0.158468664 0.106956258 -0.195380315
v -0.007856304 0.155397564 -0.359737426
v 0.228467479 0.163471 -0.32565856
v 0.355861455 0.146109164 -0.150734112
v 0.34216705 0.123044193 0.0335450061
v 0.480153441 0.007648414 0.0335449539
v 0.426629871 0.007648414 0.253679246
v 0.226538971 0.007648415 0.389817148
v -0.007856325 0.007648418 0.353107661
v -0.223032475 0.0076484154 0.360604733
v -0.5 0.007648411 0.282891721
v -0.418989331 0.00764841633 0.0335449241
v -0.3520507 0.00764841726 -0.140842617
v -0.223032415 0.0076484154 -0.293514818
v -0.007856303 0.007648412 -0.4359361
v 0.226539 0.007648415 -0.3227273
v 0.278680623 0.00764842 -0.111630127
v 0.4801535 0.007648414 0.03354503
v 0.5 -0.159781769 0.0335449539
v 0.355861485 -0.130812377 0.217824146
v 0.149551079 -0.0961397737 0.272798359
v -0.007856329 -0.140100762 0.426827371
v -0.237385169 -0.14369382 0.382420272
v -0.391959041 -0.138572544 0.22815229
v -0.330699652 -0.09878664 0.0335449278
v -0.363545477 -0.127756029 -0.1466665
v -0.2657987 -0.162428617 -0.358518034
v -0.007856305 -0.118467629 -0.302153856
v 0.177964628 -0.114874572 -0.248896062
v 0.327447981 -0.119995825 -0.136338308
v 0.5 -0.159781769 0.0335450321
v 0.2908195 -0.230073109 0.0335449539
v 0.237877384 -0.218192458 0.158046991
v 0.137964249 -0.224474087 0.255186826
v -0.007856326 -0.308740437 0.382383972
v -0.163286433 -0.239770934 0.269792974
v -0.224761218 -0.191697463 0.143440783
v -0.344970465 -0.260666877 0.0335449241
v -0.312732875 -0.272547543 -0.120922059
v -0.179930687 -0.2662659 -0.228001788
v -0.007856307 -0.181999579 -0.175554156
v 0.154608458 -0.250969 -0.213395536
v 0.325849026 -0.299042553 -0.135528192
v 0.2908195 -0.230073109 0.033545
v 0.11790891 -0.23401165 0.0335449539
v 0.148892716 -0.340142816 0.112962529
v 0.09354954 -0.3820579 0.187678114
v -0.007856317 -0.312119544 0.17958197
v -0.08336892 -0.2825492 0.148321316
v -0.144220322 -0.294912964 0.102634378
v -0.226178035 -0.411860645 0.0335449353
v -0.149095282 -0.305729419 -0.03801438
v -0.07849391 -0.2638144 -0.0738216043
v -0.007856308 -0.333752751 -0.12237186
v 0.08867454 -0.3633231 -0.11317838
v 0.153767675 -0.3509592 -0.048342485
v 0.117908895 -0.23401165 0.0335449725
v -0.00785634853 -0.350173742 0.0335449539
v -0.00785634853 -0.402862966 0.03354493
v -0.007856331 -0.3766687 0.0335449241
v -0.007856309 -0.251593679 0.0335449278
v -0.007856288 -0.3766687 0.0335449241
v -0.00785627 -0.402863026 0.03354493
v -0.00785627 -0.350173622 0.0335449539
v -0.007856281 -0.2974844 0.0335449651
v -0.007856292 -0.323678732 0.03354498
v -0.007856309 -0.448753685 0.033545
v -0.007856327 -0.323678732 0.03354498
v -0.007856338 -0.2974844 0.0335449651
v -0.00785634853 -0.350173742 0.0335449539
vt 0 0
vt 0.0833333358 0
vt 0.166666672 0
vt 0.25 0
vt 0.333333343 0
vt 0.416666657 0
vt 0.5 0
vt 0.5833333 0
vt 0.6666667 0
vt 0.75 0
vt 0.8333333 0
vt 0.9166667 0
vt 1 0
vt 0 0.125
vt 0.0833333358 0.125
vt 0.166666672 0.125
vt 0.25 0.125
vt 0.333333343 0.125
vt 0.416666657 0.125
vt 0.5 0.125
vt 0.5833333 0.125
vt 0.6666667 0.125
vt 0.75 0.125
vt 0.8333333 0.125
vt 0.9166667 0.125
vt 1 0.125
vt 0 0.25
vt 0.0833333358 0.25
vt 0.166666672 0.25
vt 0.25 0.25
vt 0.333333343 0.25
vt 0.416666657 0.25
vt 0.5 0.25
vt 0.5833333 0.25
vt 0.6666667 0.25
vt 0.75 0.25
vt 0.8333333 0.25
vt 0.9166667 0.25
vt 1 0.25
vt 0 0.375
vt 0.0833333358 0.375
vt 0.166666672 0.375
vt 0.25 0.375
vt 0.333333343 0.375
vt 0.416666657 0.375
vt 0.5 0.375
vt 0.5833333 0.375
vt 0.6666667 0.375
vt 0.75 0.375
vt 0.8333333 0.375
vt 0.9166667 0.375
vt 1 0.375
vt 0 0.5
vt 0.0833333358 0.5
vt 0.166666672 0.5
vt 0.25 0.5
vt 0.333333343 0.5
vt 0.416666657 0.5
vt 0.5 0.5
vt 0.5833333 0.5
vt 0.6666667 0.5
vt 0.75 0.5
vt 0.8333333 0.5
vt 0.9166667 0.5
vt 1 0.5
vt 0 0.625
vt 0.0833333358 0.625
vt 0.166666672 0.625
vt 0.25 0.625
vt 0.333333343 0.625
vt 0.416666657 0.625
vt 0.5 0.625
vt 0.5833333 0.625
vt 0.6666667 0.625
vt 0.75 0.625
vt 0.8333333 0.625
vt 0.9166667 0.625
vt 1 0.625
vt 0 0.75
vt 0.0833333358 0.75
vt 0.166666672 0.75
vt 0.25 0.75
vt 0.333333343 0.75
vt 0.416666657 0.75
vt 0.5 0.75
vt 0.5833333 0.75
vt 0.6666667 0.75
vt 0.75 0.75
vt 0.8333333 0.75
vt 0.9166667 0.75
vt 1 0.75
vt 0 0.875
vt 0.0833333358 0.875
vt 0.166666672 0.875
vt 0.25 0.875
vt 0.333333343 0.875
vt 0.416666657 0.875
vt 0.5 0.875
vt 0.5833333 0.875
vt 0.6666667 0.875
vt 0.75 0.875
vt 0.8333333 0.875
vt 0.9166667 0.875
vt 1 0.875
vt 0 1
vt 0.0833333358 1
vt 0.166666672 1
vt 0.25 1
vt 0.333333343 1
vt 0.416666657 1
vt 0.5 1
vt 0.5833333 1
vt 0.6666667 1
vt 0.75 1
vt 0.8333333 1
vt 0.9166667 1
vt 1 1
vn 0 0 0
vn 0.35121718 0.909366667 0.222932547
vn -0.457849056 0.494148076 0.739048
vn 0.807333946 0.5848284 -0.07866161
vn 0.473159075 0.879143953 -0.05680243
vn -0.718851745 0.62865 -0.296734482
vn -0.379029572 0.9067117 -0.184961051
vn 0.12402676 0.980433643 0.152863592
vn -0.6173778 0.590857 0.51935786
vn 0.6550052 0.6713273 -0.346825331
vn 0.702043355 0.651344657 -0.2878979
vn -0.552571654 0.7111123 -0.434722751
vn -0.0482388 0.974684238 -0.218320251
vn 0.5405106 0.7937581 0.278919876
vn 0.271299 0.6217 0.734769344
vn 0.3086913 0.904659331 0.293770522
vn 0.5351509 0.8444962 0.0209719725
vn -0.3113376 0.928911865 0.200478464
vn -0.8194472 0.5585891 -0.128391832
vn -0.275410175 0.908105433 0.315426171
vn -0.298389018 0.8664487 0.4002881
vn -0.131857768 0.9292069 -0.3452361
vn 0.5157525 0.5880762 -0.6230296
vn 0.03185064 0.8721147 -0.488263667
vn -0.255429059 0.8490527 -0.462455869
vn 0.385526538 0.9131279 0.132539436
vn 0.7462114 0.453836143 0.4870332
vn 0.5757575 0.7349521 0.35825792
vn 0.461867452 0.8863382 0.03290937
vn -0.008203381 0.672431648 0.7401137
vn -0.722563863 0.3725154 0.582351863
vn -0.519040048 0.7375581 0.431978464
vn -0.2768083 0.872437835 0.4027771
vn -0.5404524 0.78345567 -0.306770831
vn -0.08082157 0.2754331 -0.9579167
vn -0.08853567 0.7545165 -0.6502817
vn -0.1426263 0.8460924 -0.5136005
vn 0.5321124 0.7688854 -0.354502022
vn 0.880822539 0.342232376 0.3271523
vn 0.7021308 0.697693169 0.142255425
vn 0.6777591 0.7325196 0.0637002662
vn 0.413398027 0.436234146 0.7992507
vn -0.259906948 -0.0274397638 0.965243638
vn -0.4095698 0.392959267 0.8233078
vn -0.304204434 0.7396041 0.600370944
vn -0.9221115 0.38648963 -0.0183345135
vn -0.6199372 -0.0276226159 -0.784165
vn -0.4385898 0.39620018 -0.806637764
vn -0.290140152 0.7296778 -0.619184
vn 0.380837262 0.4494705 -0.8080466
vn 0.9719742 -0.1037974 -0.210931882
vn 0.9277518 0.229472086 -0.294311553
vn 0.839788 0.5197387 0.156932667
vn 0.842232049 0.036557354 0.537874341
vn 0.125244424 -0.460454077 0.8788037
vn 0.0329591334 0.04927401 0.998241365
vn -0.173538581 0.3894466 0.9045528
vn -0.8292223 0.029778352 0.558125
vn -0.8304081 -0.456232458 -0.319803864
vn -0.8250358 -0.02169936 -0.5646635
vn -0.6374303 0.479667932 -0.602993667
vn 0.020077 -0.0607396178 -0.997951746
vn 0.6355996 -0.429215759 -0.641706347
vn 0.846507251 -0.0317062661 -0.531432152
vn 0.6006117 0.3342175 -0.726336241
vn 0.7254103 -0.511566043 0.460521579
vn 0.3624572 -0.7093414 0.6045325
vn 0.348272026 -0.442723662 0.826258063
vn 0.288837135 0.0656530261 0.955124438
vn -0.419170231 -0.3913246 0.8192444
vn -0.631196141 -0.7756232 -0.000192568827
vn -0.9172916 -0.398203552 0.0031721564
vn -0.966544569 0.00245832675 -0.256487221
vn -0.4267094 -0.3834346 -0.819083
vn 0.29129225 -0.717177868 -0.6330915
vn 0.4422244 -0.4350176 -0.7843451
vn 0.61345154 0.0811983 -0.785546958
vn 0.7991908 -0.366257548 -0.476601779
vn 0.277698755 -0.91650486 0.287927568
vn 0.5040684 -0.766213357 0.3985377
vn 0.7194036 -0.322228432 0.615327
vn -0.0246986616 -0.762965262 0.6459675
vn -0.465610772 -0.876566231 0.121812455
vn -0.5769325 -0.7800459 0.242233634
vn -0.830855846 -0.332838148 0.445979029
vn -0.5504112 -0.739120245 -0.388263822
vn 0.194960266 -0.8703629 -0.452171445
vn 0.0211933237 -0.6814634 -0.7315452
vn 0.09611422 -0.371949971 -0.9232634
vn 0.5675878 -0.7240568 -0.39190042
vn 0.284046471 -0.7950416 0.535935163
vn 0.4614945 -0.7095571 -0.532495558
vn 0.7342885 -0.652932763 -0.185739413
vn 0.2813223 -0.889840841 0.35922274
vn -0.461674273 -0.886289954 0.0367020369
vn -0.407524228 -0.9019118 0.143105283
vn -0.24938 -0.525759041 0.8132571
vn -0.2822437 -0.952158451 0.117187105
vn 0.17072624 -0.8403392 -0.5144731
vn 0.0181103125 -0.910209358 -0.4137521
vn -0.431053758 -0.577252746 -0.6935213
vn 0.0233424474 -0.87765193 -0.478729755
vn 0.2358218 -0.8169667 0.526263833
vn 0.1227172 -0.5437173 0.8302481
vn 0.424603015 -0.459705144 -0.7799894
vn 0.4390374 -0.8822863 -0.169755533
vn -0.552635431 -0.762280166 0.3369319
vn -0.199180812 -0.905290067 -0.3752025
vn -0.22667098 -0.82095474 0.524073958
vn 0.0214144085 -0.5196076 0.8541367
vn 0.179807827 -0.6363729 -0.7501324
vn 0.276918054 -0.8497189 -0.448658079
vn -0.6863469 -0.7257611 0.04689256
vn -0.186655223 -0.7906292 -0.583151162
vn -0.0464814156 -0.9716169 0.231948331
vn 0.253156543 -0.501605749 0.8272263
vn 0 0 0
f 2/2/2 15/15/15 14/14/14
f 3/3/3 16/16/16 15/15/15
f 4/4/4 17/17/17 16/16/16
f 5/5/5 18/18/18 17/17/17
f 6/6/6 19/19/19 18/18/18
f 7/7/7 20/20/20 19/19/19
f 8/8/8 21/21/21 20/20/20
f 9/9/9 22/22/22 21/21/21
f 10/10/10 23/23/23 22/22/22
f 11/11/11 24/24/24 23/23/23
f 12/12/12 25/25/25 24/24/24
f 13/13/13 26/26/26 25/25/25
f 14/14/14 15/15/15 27/27/27
f 15/15/15 28/28/28 27/27/27
f 15/15/15 16/16/16 28/28/28
f 16/16/16 29/29/29 28/28/28
f 16/16/16 17/17/17 29/29/29
f 17/17/17 30/30/30 29/29/29
f 17/17/17 18/18/18 30/30/30
f 18/18/18 31/31/31 30/30/30
f 18/18/18 19/19/19 31/31/31
f 19/19/19 32/32/32 31/31/31
f 19/19/19 20/20/20 32/32/32
f 20/20/20 33/33/33 32/32/32
f 20/20/20 21/21/21 33/33/33
f 21/21/21 34/34/34 33/33/33
f 21/21/21 22/22/22 34/34/34
f 22/22/22 35/35/35 34/34/34
f 22/22/22 23/23/23 35/35/35
f 23/23/23 36/36/36 35/35/35
f 23/23/23 24/24/24 36/36/36
f 24/24/24 37/37/37 36/36/36
f 24/24/24 25/25/25 37/37/37
f 25/25/25 38/38/38 37/37/37
f 25/25/25 26/26/26 38/38/38
f 26/26/26 39/39/39 38/38/38
f 27/27/27 28/28/28 40/40/40
f 28/28/28 41/41/41 40/40/40
f 28/28/28 29/29/29 41/41/41
f 29/29/29 42/42/42 41/41/41
f 29/29/29 30/30/30 42/42/42
f 30/30/30 43/43/43 42/42/42
f 30/30/30 31/31/31 43/43/43
f 31/31/31 44/44/44 43/43/43
f 31/31/31 32/32/32 44/44/44
f 32/32/32 45/45/45 44/44/44
f 32/32/32 33/33/33 45/45/45
f 33/33/33 46/46/46 45/45/45
f 33/33/33 34/34/34 46/46/46
f 34/34/34 47/47/47 46/46/46
f 34/34/34 35/35/35 47/47/47
f 35/35/35 48/48/48 47/47/47
f 35/35/35 36/36/36 48/48/48
f 36/36/36 49/49/49 48/48/48
f 36/36/36 37/37/37 49/49/49
f 37/37/37 50/50/50 49/49/49
f 37/37/37 38/38/38 50/50/50
f 38/38/38 51/51/51 50/50/50
f 38/38/38 39/39/39 51/51/51
f 39/39/39 52/52/52 51/51/51
f 40/40/40 41/41/41 53/53/53
f 41/41/41 54/54/54 53/53/53
f 41/41/41 42/42/42 54/54/54
f 42/42/42 55/55/55 54/54/54
f 42/42/42 43/43/43 55/55/55
f 43/43/43 56/56/56 55/55/55
f 43/43/43 44/44/44 56/56/56
f 44/44/44 57/57/57 56/56/56
f 44/44/44 45/45/45 57/57/57
f 45/45/45 58/58/58 57/57/57
f 45/45/45 46/46/46 58/58/58
f 46/46/46 59/59/59 58/58/58
f 46/46/46 47/47/47 59/59/59
f 47/47/47 60/60/60 59/59/59
f 47/47/47 48/48/48 60/60/60
f 48/48/48 61/61/61 60/60/60
f 48/48/48 49/49/49 61/61/61
f 49/49/49 62/62/62 61/61/61
f 49/49/49 50/50/50 62/62/62
f 50/50/50 63/63/63 62/62/62
f 50/50/50 51/51/51 63/63/63
f 51/51/51 64/64/64 63/63/63
f 51/51/51 52/52/52 64/64/64
f 52/52/52 65/65/65 64/64/64
f 53/53/53 54/54/54 66/66/66
f 54/54/54 67/67/67 66/66/66
f 54/54/54 55/55/55 67/67/67
f 55/55/55 68/68/68 67/67/67
f 55/55/55 56/56/56 68/68/68
f 56/56/56 69/69/69 68/68/68
f 56/56/56 57/57/57 69/69/69
f 57/57/57 70/70/70 69/69/69
f 57/57/57 58/58/58 70/70/70
f 58/58/58 71/71/71 70/70/70
f 58/58/58 59/59/59 71/71/71
f 59/59/59 72/72/72 71/71/71
f 59/59/59 60/60/60 72/72/72
f 60/60/60 73/73/73 72/72/72
f 60/60/60 61/61/61 73/73/73
f 61/61/61 74/74/74 73/73/73
f 61/61/61 62/62/62 74/74/74
f 62/62/62 75/75/75 74/74/74
f 62/62/62 63/63/63 75/75/75
f 63/63/63 76/76/76 75/75/75
f 63/63/63 64/64/64 76/76/76
f 64/64/64 77/77/77 76/76/76
f 64/64/64 65/65/65 77/77/77
f 65/65/65 78/78/78 77/77/77
f 66/66/66 67/67/67 79/79/79
f 67/67/67 80/80/80 79/79/79
f 67/67/67 68/68/68 80/80/80
f 68/68/68 81/81/81 80/80/80
f 68/68/68 69/69/69 81/81/81
f 69/69/69 82/82/82 81/81/81
f 69/69/69 70/70/70 82/82/82
f 70/70/70 83/83/83 82/82/82
f 70/70/70 71/71/71 83/83/83
f 71/71/71 84/84/84 83/83/83
f 71/71/71 72/72/72 84/84/84
f 72/72/72 85/85/85 84/84/84
f 72/72/72 73/73/73 85/85/85
f 73/73/73 86/86/86 85/85/85
f 73/73/73 74/74/74 86/86/86
f 74/74/74 87/87/87 86/86/86
f 74/74/74 75/75/75 87/87/87
f 75/75/75 88/88/88 87/87/87
f 75/75/75 76/76/76 88/88/88
f 76/76/76 89/89/89 88/88/88
f 76/76/76 77/77/77 89/89/89
f 77/77/77 90/90/90 89/89/89
f 77/77/77 78/78/78 90/90/90
f 78/78/78 91/91/91 90/90/90
f 79/79/79 80/80/80 92/92/92
f 80/80/80 93/93/93 92/92/92
f 80/80/80 81/81/81 93/93/93
f 81/81/81 94/94/94 93/93/93
f 81/81/81 82/82/82 94/94/94
f 82/82/82 95/95/95 94/94/94
f 82/82/82 83/83/83 95/95/95
f 83/83/83 96/96/96 95/95/95
f 83/83/83 84/84/84 96/96/96
f 84/84/84 97/97/97 96/96/96
f 84/84/84 85/85/85 97/97/97
f 85/85/85 98/98/98 97/97/97
f 85/85/85 86/86/86 98/98/98
f 86/86/86 99/99/99 98/98/98
f 86/86/86 87/87/87 99/99/99
f 87/87/87 100/100/100 99/99/99
f 87/87/87 88/88/88 100/100/100
f 88/88/88 101/101/101 100/100/100
f 88/88/88 89/89/89 101/101/101
f 89/89/89 102/102/102 101/101/101
f 89/89/89 90/90/90 102/102/102
f 90/90/90 103/103/103 102/102/102
f 90/90/90 91/91/91 103/103/103
f 91/91/91 104/104/104 103/103/103
f 92/92/92 93/93/93 105/105/105
f 93/93/93 94/94/94 106/106/106
f 94/94/94 95/95/95 107/107/107
f 95/95/95 96/96/96 108/108/108
f 96/96/96 97/97/97 109/109/109
f 97/97/97 98/98/98 110/110/110
f 98/98/98 99/99/99 111/111/111
f 99/99/99 100/100/100 112/112/112
f 100/100/100 101/101/101 113/113/113
f 101/101/101 102/102/102 114/114/114
f 102/102/102 103/103/103 115/115/115
f 103/103/103 104/104/104 116/116/116
