# Original VFX mesh; Unity Y-up, +Z forward
o Sand
v -0.316326529 -0.0612244867 -0.5
v 0.2142857 -0.0612244867 -0.40816322
v 0.418367326 -0.0612244867 -0.0918367356
v 0.224489778 -0.0612244867 0.428571433
v -0.0510204174 -0.0612244867 0.5
v -0.418367326 -0.0612244867 0.102040805
v -0.316326529 0.0612244867 -0.5
v 0.2142857 0.0612244867 -0.40816322
v 0.418367326 0.0612244867 -0.0918367356
v 0.224489778 0.0612244867 0.428571433
v -0.0510204174 0.0612244867 0.5
v -0.418367326 0.0612244867 0.102040805
vt 0.18 0.02000001
vt 0.7 0.110000014
vt 0.9 0.420000017
vt 0.71 0.93
vt 0.44 1
vt 0.08000001 0.61
vt 0.18 0.02000001
vt 0.7 0.110000014
vt 0.9 0.420000017
vt 0.71 0.93
vt 0.44 1
vt 0.08000001 0.61
vn -0.141519263 -0.9083699 -0.393492669
vn 0.136584908 -0.974690437 -0.176983267
vn 0.230214313 -0.972641051 0.0311568249
vn 0.148331746 -0.974805653 0.166587934
vn -0.434769 -0.6659313 0.60622716
vn -0.16577369 -0.9860191 0.0168941356
vn -0.370993674 0.895717144 -0.245060012
vn 0.09352643 0.9670759 -0.2366791
vn 0.19701834 0.9797158 -0.03661403
vn 0.244602919 0.9585891 0.145864129
vn -0.174388409 0.7585895 0.6277982
vn -0.144841209 0.9872814 0.06554857
f 6/6/6 1/1/1 2/2/2
f 8/8/8 7/7/7 12/12/12
f 6/6/6 2/2/2 3/3/3
f 9/9/9 8/8/8 12/12/12
f 6/6/6 3/3/3 4/4/4
f 10/10/10 9/9/9 12/12/12
f 6/6/6 4/4/4 5/5/5
f 11/11/11 10/10/10 12/12/12
f 1/1/1 7/7/7 8/8/8
f 1/1/1 8/8/8 2/2/2
f 2/2/2 8/8/8 9/9/9
f 2/2/2 9/9/9 3/3/3
f 3/3/3 9/9/9 10/10/10
f 3/3/3 10/10/10 4/4/4
f 4/4/4 10/10/10 11/11/11
f 4/4/4 11/11/11 5/5/5
f 5/5/5 11/11/11 12/12/12
f 5/5/5 12/12/12 6/6/6
f 6/6/6 12/12/12 7/7/7
f 6/6/6 7/7/7 1/1/1
