# Original VFX mesh; Unity Y-up, +Z forward
o Seal
v -0.175 0.00343662687 -0.5
v 0.175 0.00343662687 -0.5
v -0.175 0.0140866544 -0.416666657
v 0.175 0.0193603355 -0.416666657
v -0.175 0.03156909 -0.3333333
v 0.175 0.04082527 -0.3333333
v -0.175 0.04944712 -0.25
v 0.175 0.06041956 -0.25
v -0.175 0.0508397222 -0.166666657
v 0.175 0.0608419925 -0.166666657
v -0.175 0.0256664474 -0.08333334
v 0.175 0.03224964 -0.08333334
v -0.175 -0.0157905389 0
v 0.175 -0.01423822 0
v -0.175 -0.0483671874 0.08333331
v 0.175 -0.0522258058 0.08333331
v -0.175 -0.05251716 0.166666687
v 0.175 -0.0608419925 0.166666687
v -0.175 -0.03010312 0.25
v 0.175 -0.04085595 0.25
v -0.175 -0.000340952538 0.3333333
v 0.175 -0.0108891195 0.3333333
v -0.175 0.01910469 0.4166667
v 0.175 0.0113437464 0.4166667
v -0.154 0.0262783524 0.5
v 0.154 0.0232047811 0.5
vt 0 0
vt 1 0
vt 0 0.0833333358
vt 1 0.0833333358
vt 0 0.166666672
vt 1 0.166666672
vt 0 0.25
vt 1 0.25
vt 0 0.333333343
vt 1 0.333333343
vt 0 0.416666657
vt 1 0.416666657
vt 0 0.5
vt 1 0.5
vt 0 0.5833333
vt 1 0.5833333
vt 0 0.6666667
vt 1 0.6666667
vt 0 0.75
vt 1 0.75
vt 0 0.8333333
vt 1 0.8333333
vt 0 0.9166667
vt 1 0.9166667
vt 0 1
vt 1 1
vn 0.00743965 -0.987499058 0.157449216
vn 0 -0.9822286 0.187688619
vn 0.0184967984 -0.980715454 0.1945637
vn 0.009864159 -0.9819865 0.188693285
vn 0.0274156518 -0.976314366 0.214612484
vn 0.02205135 -0.9734246 0.227943555
vn 0.0303179529 -0.9964535 0.0784928948
vn 0.0293670278 -0.98827976 0.149802476
vn 0.0247760452 -0.978453 -0.204978168
vn 0.029321488 -0.9938852 -0.106454313
vn 0.0127702607 -0.911002338 -0.4122035
vn 0.0204757378 -0.927957237 -0.3721238
vn -0.0006552991 -0.9125741 -0.408910722
vn 0.008239827 -0.8930605 -0.449861139
vn -0.0150312074 -0.9838361 -0.178439513
vn -0.005597231 -0.9533122 -0.301934659
vn -0.0257888362 -0.9881683 0.151190192
vn -0.0195198357 -0.999392748 0.0288619772
vn -0.02898986 -0.9496323 0.3120228
vn -0.0272795185 -0.960208356 0.277949333
vn -0.02641612 -0.9611761 0.274668217
vn -0.0288110934 -0.9498411 0.311402947
vn -0.0182255656 -0.987949252 0.153701276
vn -0.0242801849 -0.977911055 0.2076061
vn -0.0099397 -0.996048868 0.0882486552
vn -0.0163572934 -0.9934085 0.113455407
f 1/1/1 2/2/2 4/4/4
f 1/1/1 4/4/4 3/3/3
f 3/3/3 4/4/4 6/6/6
f 3/3/3 6/6/6 5/5/5
f 5/5/5 6/6/6 8/8/8
f 5/5/5 8/8/8 7/7/7
f 7/7/7 8/8/8 10/10/10
f 7/7/7 10/10/10 9/9/9
f 9/9/9 10/10/10 12/12/12
f 9/9/9 12/12/12 11/11/11
f 11/11/11 12/12/12 14/14/14
f 11/11/11 14/14/14 13/13/13
f 13/13/13 14/14/14 16/16/16
f 13/13/13 16/16/16 15/15/15
f 15/15/15 16/16/16 18/18/18
f 15/15/15 18/18/18 17/17/17
f 17/17/17 18/18/18 20/20/20
f 17/17/17 20/20/20 19/19/19
f 19/19/19 20/20/20 22/22/22
f 19/19/19 22/22/22 21/21/21
f 21/21/21 22/22/22 24/24/24
f 21/21/21 24/24/24 23/23/23
f 23/23/23 24/24/24 26/26/26
f 23/23/23 26/26/26 25/25/25
