# Original VFX mesh; Unity Y-up, +Z forward
o Shard
v -0.0524999946 0 -0.5
v -0.0274999961 0.025 -0.5
v -0.00249999575 0 -0.5
v -0.0274999961 -0.025 -0.5
v -0.1725 0 -0.28
v -0.0124999974 0.09 -0.28
v 0.1475 0 -0.28
v -0.0124999974 -0.09 -0.28
v -0.0574999973 0 0.13
v 0.0575000048 0.07 0.13
v 0.1725 0 0.13
v 0.0575000048 -0.07 0.13
v 0.110500008 0 0.5
v 0.112500004 0.001 0.5
v 0.1145 0 0.5
v 0.112500004 -0.001 0.5
vt 0 0
vt 0.5 0
vt 1 0
vt 0.5 0
vt 0 0.333333343
vt 0.5 0.333333343
vt 1 0.333333343
vt 0.5 0.333333343
vt 0 0.6666667
vt 0.5 0.6666667
vt 1 0.6666667
vt 0.5 0.6666667
vt 0 1
vt 0.5 1
vt 1 1
vt 0.5 1
vn -0.616532564 0.7046087 -0.351303518
vn 0.3708568 0.8653324 -0.337142527
vn 0.597103059 -0.682403445 -0.4216556
vn -0.376847625 -0.8793112 -0.2912005
vn -0.9618956 0.2714292 0.0329103842
vn 0.0906166956 0.993073 -0.07479782
vn 0.936813533 -0.264351517 -0.2291258
vn -0.0908002257 -0.9950843 -0.039529413
vn -0.8738904 -0.386977047 0.2942183
vn -0.145914644 0.981578648 0.123338446
vn 0.91431576 0.4048783 0.0100064687
vn 0.146636218 -0.9864328 0.07381186
vn -0.515829 -0.823893666 0.2347758
vn -0.493489265 0.8389317 0.229482055
vn 0.5288095 0.8446261 0.08347009
vn 0.50519675 -0.858834445 0.08473261
f 1/1/1 5/5/5 6/6/6
f 1/1/1 6/6/6 2/2/2
f 2/2/2 6/6/6 7/7/7
f 2/2/2 7/7/7 3/3/3
f 3/3/3 7/7/7 8/8/8
f 3/3/3 8/8/8 4/4/4
f 4/4/4 8/8/8 5/5/5
f 4/4/4 5/5/5 1/1/1
f 5/5/5 9/9/9 10/10/10
f 5/5/5 10/10/10 6/6/6
f 6/6/6 10/10/10 11/11/11
f 6/6/6 11/11/11 7/7/7
f 7/7/7 11/11/11 12/12/12
f 7/7/7 12/12/12 8/8/8
f 8/8/8 12/12/12 9/9/9
f 8/8/8 9/9/9 5/5/5
f 9/9/9 13/13/13 14/14/14
f 9/9/9 14/14/14 10/10/10
f 10/10/10 14/14/14 15/15/15
f 10/10/10 15/15/15 11/11/11
f 11/11/11 15/15/15 16/16/16
f 11/11/11 16/16/16 12/12/12
f 12/12/12 16/16/16 13/13/13
f 12/12/12 13/13/13 9/9/9
f 1/1/1 2/2/2 3/3/3
f 1/1/1 3/3/3 4/4/4
f 16/16/16 15/15/15 14/14/14
f 16/16/16 14/14/14 13/13/13
