# Original VFX mesh; Unity Y-up, +Z forward
o Thorn
v 0.1696741 -3.69390851E-09 -0.491963923
v 0.135687083 0.06702368 -0.4972197
v 0.04963144 0.102686234 -0.5
v -0.0482264124 0.09030075 -0.499003768
v -0.112097718 0.03566254 -0.494697183
v -0.112096369 -0.03566256 -0.4890954
v -0.0482229926 -0.09030077 -0.484819442
v 0.0496353172 -0.102686234 -0.483870178
v 0.135689646 -0.0670236647 -0.4866918
v 0.1696741 1.45372958E-08 -0.491963923
v 0.159689814 0.006983978 -0.4047159
v 0.128168136 0.06897725 -0.40869984
v 0.0485561565 0.101963177 -0.4094486
v -0.04189476 0.09050729 -0.40661183
v -0.100861646 0.039969895 -0.4015169
v -0.100753225 -0.02600195 -0.3965478
v -0.04162023 -0.07653934 -0.3940296
v 0.0488683321 -0.08799521 -0.3951406
v 0.128371924 -0.0550092719 -0.399360985
v 0.159689814 0.006983995 -0.4047159
v 0.151431248 0.0134021584 -0.317013681
v 0.122470059 0.0702992454 -0.319509178
v 0.0494651645 0.100573555 -0.3183238
v -0.03342359 0.09005939 -0.31401214
v -0.08741166 0.04367645 -0.308591723
v -0.08723742 -0.016872149 -0.304598749
v -0.0329823866 -0.06325508 -0.303901672
v 0.049966868 -0.07376923 -0.3068266
v 0.122797534 -0.0434949063 -0.312004954
v 0.151431248 0.0134021742 -0.317013681
v 0.144890308 0.0187345743 -0.228806019
v 0.118600123 0.070441 -0.229744554
v 0.0523777381 0.09795341 -0.226825014
v -0.02279068 0.08839845 -0.221413463
v -0.07173298 0.0462469757 -0.216042042
v -0.07154854 -0.008777836 -0.2132241
v -0.0223236252 -0.050929293 -0.214278162
v 0.0529088378 -0.0604842529 -0.218711063
v 0.118946806 -0.03297182 -0.224448562
v 0.144890308 0.01873459 -0.228806019
v 0.140052766 0.0225492287 -0.1400754
v 0.11654707 0.06893975 -0.139537558
v 0.057290744 0.09362363 -0.135171443
v -0.009989518 0.085051 -0.12902002
v -0.0538125336 0.0472330973 -0.1239616
v -0.053673014 -0.00213465048 -0.122363083
v -0.009636255 -0.03995255 -0.124972411
v 0.0576924421 -0.0485251732 -0.130568683
v 0.116809286 -0.0238412768 -0.13653332
v 0.140052766 0.0225492418 -0.1400754
v 0.136895388 0.0245370772 -0.0508020334
v 0.116280787 0.06545787 -0.04901055
v 0.06418134 0.08723138 -0.04357035
v 0.004975004 0.07966952 -0.03702697
v -0.03363495 0.04631057 -0.0324421227
v -0.0335824676 0.00276357355 -0.03196111
v 0.005107881 -0.0305953678 -0.03580901
v 0.06433245 -0.03815722 -0.0421853364
v 0.116379417 -0.01638371 -0.0481065474
v 0.136895388 0.0245370883 -0.0508020334
v 0.1353805 0.0245370772 0.0390377156
v 0.117751092 0.0598079041 0.0417398065
v 0.07301037 0.07857512 0.0478065535
v 0.0220930427 0.07205734 0.0543992557
v -0.0111761307 0.0433042832 0.0584331155
v -0.0112301279 0.005769861 0.0580206439
v 0.021956332 -0.0229831822 0.0533548445
v 0.0728549 -0.029500965 0.0466188937
v 0.117649615 -0.0107337423 0.04096462
v 0.1353805 0.0245370865 0.0390377156
v 0.135446191 0.0225492269 0.129474565
v 0.120884754 0.0519597232 0.132658049
v 0.0837274939 0.06760872 0.138843551
v 0.0413607 0.0621738881 0.145136818
v 0.013608261 0.03819822 0.148593158
v 0.013455865 0.00690023042 0.1475953
v 0.04097482 -0.0170754287 0.142610162
v 0.0832886845 -0.0225102641 0.135970339
v 0.120598361 -0.0068612597 0.1307827
v 0.135446191 0.0225492343 0.129474565
v 0.136985958 0.0187345725 0.2205525
v 0.125575 0.0420264 0.223742172
v 0.0962756351 0.0544197224 0.229493648
v 0.0627973452 0.0501155667 0.235115767
v 0.0408049971 0.03112789 0.237977833
v 0.0405890644 0.00634124968 0.2367407
v 0.06225058 -0.0126464246 0.2319832
v 0.09565388 -0.0169505775 0.225931451
v 0.125169188 -0.00455724867 0.221417114
v 0.136985958 0.018734578 0.2205525
v 0.139796585 0.0134021565 0.312343419
v 0.13164641 0.0302208513 0.315055043
v 0.110589229 0.0391698964 0.3197812
v 0.08647793 0.036061924 0.324310482
v 0.07059446 0.0223511942 0.326523542
v 0.07037087 0.0044531147 0.325384855
v 0.08591179 -0.009257614 0.321427345
v 0.109945424 -0.0123655815 0.3165026
v 0.131226212 -0.00341653381 0.312915117
v 0.139796585 0.0134021612 0.312343419
v 0.14339681 0.006983973 0.404998153
v 0.138718635 0.0167395752 0.406754
v 0.126566842 0.0219304245 0.409796476
v 0.112627409 0.02012766 0.412701964
v 0.103422746 0.0121748187 0.414110929
v 0.103259809 0.00179312518 0.413364172
v 0.112214841 -0.00615971535 0.410811037
v 0.126097679 -0.007962476 0.4076462
v 0.1384124 -0.00277162623 0.405350477
v 0.14339681 0.006983976 0.404998153
v 0.144843727 -5.86106674E-09 0.499300152
v 0.144517541 0.0006863579 0.499432266
v 0.143667236 0.00105156447 0.499664783
v 0.142690629 0.000924729451 0.499889016
v 0.1420447 0.0003652005 0.5
v 0.1420317 -0.000365212356 0.49994573
v 0.1426577 -0.000924741267 0.499751657
v 0.143629789 -0.00105157611 0.499508619
v 0.1444931 -0.000686369371 0.499330372
v 0.144843727 -5.674368E-09 0.499300152
v 0.02440823 -3.69390851E-09 -0.491929054
v 0.143397346 -5.86106674E-09 0.499646932
v 0.0545974821 -3.69390851E-09 -0.191757828
v 0.0376308449 0.0434137322 -0.203973979
v -0.000492844963 0.05413604 -0.231423378
v -0.0310656745 0.0240927953 -0.2534361
v -0.03106567 -0.02409281 -0.2534361
v -0.000492848631 -0.05413605 -0.231423378
v 0.0376308523 -0.04341373 -0.203973964
v 0.0545974821 6.01496E-09 -0.191757828
v 0.0100492556 -3.69390851E-09 -0.1485525
v -0.00358470739 0.0348860361 -0.15836896
v -0.034219943 0.0435021743 -0.180426344
v -0.0587874949 0.0193602815 -0.198114991
v -0.0587874949 -0.0193602946 -0.198114991
v -0.0342199467 -0.04350218 -0.180426359
v -0.0035847 -0.0348860361 -0.15836896
v 0.0100492556 4.10786027E-09 -0.1485525
v -0.03449916 -3.69390851E-09 -0.105346918
v -0.04480038 0.0263583362 -0.112763785
v -0.067947 0.0328683071 -0.12942937
v -0.0865091458 0.0146277668 -0.142794117
v -0.08650914 -0.01462778 -0.142794117
v -0.067947 -0.0328683145 -0.12942937
v -0.0448003635 -0.0263583381 -0.112763785
v -0.03449916 2.20076157E-09 -0.105346918
v -0.0790475458 -3.69390851E-09 -0.0621413738
v -0.08601603 0.0178306382 -0.0671586543
v -0.101674072 0.0222344417 -0.07843238
v -0.114230834 0.009895253 -0.08747321
v -0.114230834 -0.009895263 -0.08747321
v -0.101674072 -0.02223445 -0.07843239
v -0.08601602 -0.0178306419 -0.0671586543
v -0.0790475458 2.93662483E-10 -0.0621413738
v -0.123596 -3.69390851E-09 -0.0189357158
v -0.127231717 0.00930294 -0.0215534456
v -0.1354011 0.0116005773 -0.02743543
v -0.14195244 0.00516273873 -0.032152418
v -0.14195244 -0.00516274758 -0.0321524143
v -0.1354011 -0.0116005847 -0.02743543
v -0.127231717 -0.009302945 -0.0215534437
v -0.123596 -1.61343672E-09 -0.0189357158
v -0.1681444 -3.69390851E-09 0.0242698528
v -0.16844736 0.0007752417 0.02405171
v -0.169128165 0.0009667115 0.0235615429
v -0.1696741 0.0004302249 0.02316846
v -0.1696741 -0.000430232438 0.0231684614
v -0.169128165 -0.0009667189 0.0235615429
v -0.16844736 -0.0007752489 0.02405171
v -0.1681444 -3.52053586E-09 0.0242698528
v 0.009534592 -3.69390851E-09 -0.224203527
v -0.168949082 -3.69390851E-09 0.0236904677
vt 0 0
vt 0.111111112 0
vt 0.222222224 0
vt 0.333333343 0
vt 0.444444448 0
vt 0.5555556 0
vt 0.6666667 0
vt 0.7777778 0
vt 0.8888889 0
vt 1 0
vt 0 0.09090909
vt 0.111111112 0.09090909
vt 0.222222224 0.09090909
vt 0.333333343 0.09090909
vt 0.444444448 0.09090909
vt 0.5555556 0.09090909
vt 0.6666667 0.09090909
vt 0.7777778 0.09090909
vt 0.8888889 0.09090909
vt 1 0.09090909
vt 0 0.181818187
vt 0.111111112 0.181818187
vt 0.222222224 0.181818187
vt 0.333333343 0.181818187
vt 0.444444448 0.181818187
vt 0.5555556 0.181818187
vt 0.6666667 0.181818187
vt 0.7777778 0.181818187
vt 0.8888889 0.181818187
vt 1 0.181818187
vt 0 0.272727281
vt 0.111111112 0.272727281
vt 0.222222224 0.272727281
vt 0.333333343 0.272727281
vt 0.444444448 0.272727281
vt 0.5555556 0.272727281
vt 0.6666667 0.272727281
vt 0.7777778 0.272727281
vt 0.8888889 0.272727281
vt 1 0.272727281
vt 0 0.363636374
vt 0.111111112 0.363636374
vt 0.222222224 0.363636374
vt 0.333333343 0.363636374
vt 0.444444448 0.363636374
vt 0.5555556 0.363636374
vt 0.6666667 0.363636374
vt 0.7777778 0.363636374
vt 0.8888889 0.363636374
vt 1 0.363636374
vt 0 0.454545468
vt 0.111111112 0.454545468
vt 0.222222224 0.454545468
vt 0.333333343 0.454545468
vt 0.444444448 0.454545468
vt 0.5555556 0.454545468
vt 0.6666667 0.454545468
vt 0.7777778 0.454545468
vt 0.8888889 0.454545468
vt 1 0.454545468
vt 0 0.545454562
vt 0.111111112 0.545454562
vt 0.222222224 0.545454562
vt 0.333333343 0.545454562
vt 0.444444448 0.545454562
vt 0.5555556 0.545454562
vt 0.6666667 0.545454562
vt 0.7777778 0.545454562
vt 0.8888889 0.545454562
vt 1 0.545454562
vt 0 0.6363636
vt 0.111111112 0.6363636
vt 0.222222224 0.6363636
vt 0.333333343 0.6363636
vt 0.444444448 0.6363636
vt 0.5555556 0.6363636
vt 0.6666667 0.6363636
vt 0.7777778 0.6363636
vt 0.8888889 0.6363636
vt 1 0.6363636
vt 0 0.727272749
vt 0.111111112 0.727272749
vt 0.222222224 0.727272749
vt 0.333333343 0.727272749
vt 0.444444448 0.727272749
vt 0.5555556 0.727272749
vt 0.6666667 0.727272749
vt 0.7777778 0.727272749
vt 0.8888889 0.727272749
vt 1 0.727272749
vt 0 0.8181818
vt 0.111111112 0.8181818
vt 0.222222224 0.8181818
vt 0.333333343 0.8181818
vt 0.444444448 0.8181818
vt 0.5555556 0.8181818
vt 0.6666667 0.8181818
vt 0.7777778 0.8181818
vt 0.8888889 0.8181818
vt 1 0.8181818
vt 0 0.909090936
vt 0.111111112 0.909090936
vt 0.222222224 0.909090936
vt 0.333333343 0.909090936
vt 0.444444448 0.909090936
vt 0.5555556 0.909090936
vt 0.6666667 0.909090936
vt 0.7777778 0.909090936
vt 0.8888889 0.909090936
vt 1 0.909090936
vt 0 1
vt 0.111111112 1
vt 0.222222224 1
vt 0.333333343 1
vt 0.444444448 1
vt 0.5555556 1
vt 0.6666667 1
vt 0.7777778 1
vt 0.8888889 1
vt 1 1
vt 0.5 0
vt 0.5 1
vt 0 0
vt 0.142857149 0
vt 0.2857143 0
vt 0.428571433 0
vt 0.5714286 0
vt 0.714285731 0
vt 0.857142866 0
vt 1 0
vt 0 0.2
vt 0.142857149 0.2
vt 0.2857143 0.2
vt 0.428571433 0.2
vt 0.5714286 0.2
vt 0.714285731 0.2
vt 0.857142866 0.2
vt 1 0.2
vt 0 0.4
vt 0.142857149 0.4
vt 0.2857143 0.4
vt 0.428571433 0.4
vt 0.5714286 0.4
vt 0.714285731 0.4
vt 0.857142866 0.4
vt 1 0.4
vt 0 0.6
vt 0.142857149 0.6
vt 0.2857143 0.6
vt 0.428571433 0.6
vt 0.5714286 0.6
vt 0.714285731 0.6
vt 0.857142866 0.6
vt 1 0.6
vt 0 0.8
vt 0.142857149 0.8
vt 0.2857143 0.8
vt 0.428571433 0.8
vt 0.5714286 0.8
vt 0.714285731 0.8
vt 0.857142866 0.8
vt 1 0.8
vt 0 1
vt 0.142857149 1
vt 0.2857143 1
vt 0.428571433 1
vt 0.5714286 1
vt 0.714285731 1
vt 0.857142866 1
vt 1 1
vt 0.5 0
vt 0.5 1
vn 0.7431435 0.331376761 -0.581315
vn 0.435876071 0.590211153 -0.6794578
vn 0.03429873 0.772978 -0.633505
vn -0.3787632 0.658409834 -0.6504113
vn -0.702561557 0.179368272 -0.6886467
vn -0.6217378 -0.481308579 -0.617886841
vn -0.241837174 -0.817400634 -0.5228489
vn 0.169192761 -0.8345271 -0.5243456
vn 0.5503195 -0.555089831 -0.6237177
vn 0.5238483 -0.3274727 -0.7863488
vn 0.888651848 0.4552348 0.05530843
vn 0.6543155 0.7553742 0.0357930437
vn 0.130895674 0.9913157 0.012627406
vn -0.375678122 0.9262022 0.03186474
vn -0.879582465 0.4658525 0.0965197161
vn -0.889903367 -0.426239729 0.162454724
vn -0.388250232 -0.906275868 0.167110577
vn 0.11966908 -0.9800228 0.158854812
vn 0.642092943 -0.752182543 0.148114786
vn 0.889145732 -0.438955843 0.129374191
vn 0.8898302 0.4543252 0.0423172042
vn 0.655912936 0.7542303 0.03024832
vn 0.132505387 0.990981042 0.0199699271
vn -0.3733078 0.9263921 0.04938625
vn -0.8759941 0.466860443 0.1211434
vn -0.886808157 -0.425685585 0.1798976
vn -0.385573953 -0.907001 0.169357046
vn 0.122188762 -0.981206357 0.149345115
vn 0.6443438 -0.7536887 0.129515544
vn 0.891550362 -0.439833552 0.108094193
vn 0.8910078 0.45286268 0.03194573
vn 0.6581342 0.752344966 0.0289208423
vn 0.135070726 0.990294039 0.03276477
vn -0.369863123 0.926292 0.0720034242
vn -0.8714648 0.46744597 0.148470491
vn -0.8835163 -0.425722867 0.195343152
vn -0.383383542 -0.908378541 0.16692996
vn 0.123846628 -0.9831202 0.13467218
vn 0.645562 -0.756180346 0.106962733
vn 0.8932996 -0.44143936 0.08454076
vn 0.892293334 0.450836 0.0236526076
vn 0.661236644 0.7495417 0.0308758281
vn 0.138908222 0.989051163 0.0498216674
vn -0.365024358 0.925758362 0.09863369
vn -0.865781963 0.467701524 0.177979589
vn -0.8801756 -0.425997883 0.2093245
vn -0.3819974 -0.9100443 0.1609268
vn 0.12430317 -0.9854348 0.116047531
vn 0.645466447 -0.7594369 0.0814164951
vn 0.8942741 -0.443572134 0.05931049
vn 0.89373 0.448291451 0.0167827178
vn 0.6654352 0.7456385 0.034919057
vn 0.144264147 0.9870886 0.06959868
vn -0.3585291 0.9247205 0.127863035
vn -0.8587366 0.467854559 0.20900628
vn -0.8768931 -0.42603147 0.22261101
vn -0.381640166 -0.9115839 0.1528578
vn 0.123326167 -0.9877983 0.0951065943
vn 0.643840969 -0.7632401 0.0541604944
vn 0.8944268 -0.445981771 0.0331804976
vn 0.895293832 0.445347726 0.0106964549
vn 0.670929551 0.740455031 0.03974945
vn 0.151338145 0.984342933 0.09036491
vn -0.350134 0.923262954 0.158087492
vn -0.8500725 0.468382031 0.24082157
vn -0.873760939 -0.425154537 0.236189708
vn -0.3824867 -0.9125817 0.144563586
vn 0.120753929 -0.9899338 0.07382111
vn 0.6404977 -0.7674936 0.0267642029
vn 0.8937934 -0.448422343 0.007122396
vn 0.8969107 0.442184061 0.00494186953
vn 0.678057969 0.733681858 0.044138
vn 0.160432562 0.9808531 0.110402137
vn -0.3394643 0.92170167 0.187696531
vn -0.839350462 0.470203668 0.272762269
vn -0.8709075 -0.4223298 0.251311928
vn -0.384773672 -0.912611663 0.138163492
vn 0.11638087 -0.9917128 0.0544163957
vn 0.635148764 -0.7723891 0.00104298757
vn 0.8925045 -0.450690866 -0.017702
vn 0.898494244 0.438985 -0.000436897477
vn 0.687756 0.72440964 0.0471432246
vn 0.1724111 0.97664243 0.128233656
vn -0.32554087 0.920695 0.215276137
vn -0.8255298 0.475221366 0.304409772
vn -0.868684769 -0.415503 0.269711018
vn -0.3891839 -0.9110413 0.136159956
vn 0.109567821 -0.99319756 0.0394148044
vn 0.626980066 -0.778755963 -0.0208604969
vn 0.8907958 -0.452652335 -0.03985868
vn 0.9000402 0.435788572 -0.00399324438
vn 0.703332663 0.709209442 0.0484273657
vn 0.190486744 0.9712365 0.142879054
vn -0.304937154 0.9216907 0.23979038
vn -0.8052992 0.488535076 0.3358969
vn -0.8684266 -0.398802429 0.2946045
vn -0.398424774 -0.9060927 0.142315775
vn 0.09766574 -0.9946946 0.03231364
vn 0.612923265 -0.7893303 -0.03581364
vn 0.8890463 -0.454234332 -0.0571651161
vn 0.9022052 0.431251347 0.006939792
vn 0.746403158 0.6635405 0.05095584
vn 0.236621529 0.959090948 0.15541783
vn -0.254927039 0.9309374 0.261472166
vn -0.7569864 0.5383069 0.3704015
vn -0.8781382 -0.33545953 0.3410868
vn -0.431633234 -0.885518134 0.171902165
vn 0.0616805926 -0.9970385 0.04593145
vn 0.5717155 -0.8198346 -0.03182124
vn 0.888206065 -0.455390275 -0.0609065443
vn 0.9050734 0.4241028 0.031288743
vn 0.8812376 0.4718223 0.0283509977
vn 0.388617277 0.9108287 0.13916792
vn -0.102208093 0.963130355 0.248864129
vn -0.6051026 0.7045584 0.370740324
vn -0.9103457 -0.06988423 0.407905668
vn -0.5721138 -0.7831828 0.243537366
vn -0.07804474 -0.992794454 0.09092996
vn 0.418142974 -0.9083647 -0.00548975961
vn 0.888851762 -0.455830574 -0.0464878976
vn -0.000239289657 -0.0782980844 -0.996929944
vn 0.2324866 -0.07613908 0.969614744
vn 0.866025567 0.4163565 0.276851833
vn 0.6223315 0.7794448 -0.07189838
vn -0.0136932619 0.8479897 -0.5298358
vn -0.453739017 0.277979642 -0.846668839
vn -0.366439939 -0.5013558 -0.7838138
vn 0.182465509 -0.9031582 -0.388602257
vn 0.7796377 -0.624863565 0.0413614772
vn 0.931983054 -0.3624465 -0.00634036958
vn 0.6290908 0.4283769 0.6486433
vn 0.41960603 0.745021164 0.5185307
vn -0.249720469 0.967625439 0.0366152
vn -0.808277249 0.4615884 -0.365546077
vn -0.8354602 -0.392033726 -0.385117978
vn -0.310799628 -0.950446963 -0.007362057
vn 0.370624542 -0.7931541 0.48326382
vn 0.629090548 -0.428377 0.6486433
vn 0.629090965 0.428376824 0.6486432
vn 0.427290976 0.736822 0.5239424
vn -0.239705428 0.969861448 0.043704845
vn -0.8034304 0.4725752 -0.3621772
vn -0.839387536 -0.380569518 -0.388066232
vn -0.320500374 -0.9471379 -0.0144674014
vn 0.362498283 -0.800492167 0.477291673
vn 0.629091 -0.4283767 0.648643136
vn 0.629091 0.428376883 0.648642957
vn 0.442102462 0.7204842 0.5342733
vn -0.220044956 0.973791957 0.05752711
vn -0.7936066 0.4938145 -0.355437458
vn -0.846678853 -0.358015418 -0.3936495
vn -0.339296937 -0.9402525 -0.0283344537
vn 0.34646973 -0.814460039 0.465417653
vn 0.629091 -0.4283766 0.6486432
vn 0.6290912 0.4283765 0.6486431
vn 0.482286185 0.672326863 0.561584055
vn -0.164146438 0.981738567 0.0961528048
vn -0.763507 0.551881135 -0.335386634
vn -0.864464939 -0.2935539 -0.408076435
vn -0.3909969 -0.917937 -0.06717946
vn 0.300366133 -0.8510948 0.430601776
vn 0.6290911 -0.428376883 0.648642957
vn 0.619177639 0.4273375 0.6587881
vn 0.6037332 0.478156 0.637866
vn 0.03676499 0.972578943 0.229648843
vn -0.6304368 0.7346296 -0.250736564
vn -0.89545536 -0.05650964 -0.441549867
vn -0.558726668 -0.8050973 -0.199105248
vn 0.126185313 -0.947429538 0.2940314
vn 0.6283311 -0.4283005 0.64942956
vn 0.584309638 -3.70808237E-08 -0.8115309
vn -0.5843057 1.91466981E-07 0.81153363
f 1/1/1 2/2/2 12/12/12
f 1/1/1 12/12/12 11/11/11
f 2/2/2 3/3/3 13/13/13
f 2/2/2 13/13/13 12/12/12
f 3/3/3 4/4/4 14/14/14
f 3/3/3 14/14/14 13/13/13
f 4/4/4 5/5/5 15/15/15
f 4/4/4 15/15/15 14/14/14
f 5/5/5 6/6/6 16/16/16
f 5/5/5 16/16/16 15/15/15
f 6/6/6 7/7/7 17/17/17
f 6/6/6 17/17/17 16/16/16
f 7/7/7 8/8/8 18/18/18
f 7/7/7 18/18/18 17/17/17
f 8/8/8 9/9/9 19/19/19
f 8/8/8 19/19/19 18/18/18
f 9/9/9 10/10/10 20/20/20
f 9/9/9 20/20/20 19/19/19
f 11/11/11 12/12/12 22/22/22
f 11/11/11 22/22/22 21/21/21
f 12/12/12 13/13/13 23/23/23
f 12/12/12 23/23/23 22/22/22
f 13/13/13 14/14/14 24/24/24
f 13/13/13 24/24/24 23/23/23
f 14/14/14 15/15/15 25/25/25
f 14/14/14 25/25/25 24/24/24
f 15/15/15 16/16/16 26/26/26
f 15/15/15 26/26/26 25/25/25
f 16/16/16 17/17/17 27/27/27
f 16/16/16 27/27/27 26/26/26
f 17/17/17 18/18/18 28/28/28
f 17/17/17 28/28/28 27/27/27
f 18/18/18 19/19/19 29/29/29
f 18/18/18 29/29/29 28/28/28
f 19/19/19 20/20/20 30/30/30
f 19/19/19 30/30/30 29/29/29
f 21/21/21 22/22/22 32/32/32
f 21/21/21 32/32/32 31/31/31
f 22/22/22 23/23/23 33/33/33
f 22/22/22 33/33/33 32/32/32
f 23/23/23 24/24/24 34/34/34
f 23/23/23 34/34/34 33/33/33
f 24/24/24 25/25/25 35/35/35
f 24/24/24 35/35/35 34/34/34
f 25/25/25 26/26/26 36/36/36
f 25/25/25 36/36/36 35/35/35
f 26/26/26 27/27/27 37/37/37
f 26/26/26 37/37/37 36/36/36
f 27/27/27 28/28/28 38/38/38
f 27/27/27 38/38/38 37/37/37
f 28/28/28 29/29/29 39/39/39
f 28/28/28 39/39/39 38/38/38
f 29/29/29 30/30/30 40/40/40
f 29/29/29 40/40/40 39/39/39
f 31/31/31 32/32/32 42/42/42
f 31/31/31 42/42/42 41/41/41
f 32/32/32 33/33/33 43/43/43
f 32/32/32 43/43/43 42/42/42
f 33/33/33 34/34/34 44/44/44
f 33/33/33 44/44/44 43/43/43
f 34/34/34 35/35/35 45/45/45
f 34/34/34 45/45/45 44/44/44
f 35/35/35 36/36/36 46/46/46
f 35/35/35 46/46/46 45/45/45
f 36/36/36 37/37/37 47/47/47
f 36/36/36 47/47/47 46/46/46
f 37/37/37 38/38/38 48/48/48
f 37/37/37 48/48/48 47/47/47
f 38/38/38 39/39/39 49/49/49
f 38/38/38 49/49/49 48/48/48
f 39/39/39 40/40/40 50/50/50
f 39/39/39 50/50/50 49/49/49
f 41/41/41 42/42/42 52/52/52
f 41/41/41 52/52/52 51/51/51
f 42/42/42 43/43/43 53/53/53
f 42/42/42 53/53/53 52/52/52
f 43/43/43 44/44/44 54/54/54
f 43/43/43 54/54/54 53/53/53
f 44/44/44 45/45/45 55/55/55
f 44/44/44 55/55/55 54/54/54
f 45/45/45 46/46/46 56/56/56
f 45/45/45 56/56/56 55/55/55
f 46/46/46 47/47/47 57/57/57
f 46/46/46 57/57/57 56/56/56
f 47/47/47 48/48/48 58/58/58
f 47/47/47 58/58/58 57/57/57
f 48/48/48 49/49/49 59/59/59
f 48/48/48 59/59/59 58/58/58
f 49/49/49 50/50/50 60/60/60
f 49/49/49 60/60/60 59/59/59
f 51/51/51 52/52/52 62/62/62
f 51/51/51 62/62/62 61/61/61
f 52/52/52 53/53/53 63/63/63
f 52/52/52 63/63/63 62/62/62
f 53/53/53 54/54/54 64/64/64
f 53/53/53 64/64/64 63/63/63
f 54/54/54 55/55/55 65/65/65
f 54/54/54 65/65/65 64/64/64
f 55/55/55 56/56/56 66/66/66
f 55/55/55 66/66/66 65/65/65
f 56/56/56 57/57/57 67/67/67
f 56/56/56 67/67/67 66/66/66
f 57/57/57 58/58/58 68/68/68
f 57/57/57 68/68/68 67/67/67
f 58/58/58 59/59/59 69/69/69
f 58/58/58 69/69/69 68/68/68
f 59/59/59 60/60/60 70/70/70
f 59/59/59 70/70/70 69/69/69
f 61/61/61 62/62/62 72/72/72
f 61/61/61 72/72/72 71/71/71
f 62/62/62 63/63/63 73/73/73
f 62/62/62 73/73/73 72/72/72
f 63/63/63 64/64/64 74/74/74
f 63/63/63 74/74/74 73/73/73
f 64/64/64 65/65/65 75/75/75
f 64/64/64 75/75/75 74/74/74
f 65/65/65 66/66/66 76/76/76
f 65/65/65 76/76/76 75/75/75
f 66/66/66 67/67/67 77/77/77
f 66/66/66 77/77/77 76/76/76
f 67/67/67 68/68/68 78/78/78
f 67/67/67 78/78/78 77/77/77
f 68/68/68 69/69/69 79/79/79
f 68/68/68 79/79/79 78/78/78
f 69/69/69 70/70/70 80/80/80
f 69/69/69 80/80/80 79/79/79
f 71/71/71 72/72/72 82/82/82
f 71/71/71 82/82/82 81/81/81
f 72/72/72 73/73/73 83/83/83
f 72/72/72 83/83/83 82/82/82
f 73/73/73 74/74/74 84/84/84
f 73/73/73 84/84/84 83/83/83
f 74/74/74 75/75/75 85/85/85
f 74/74/74 85/85/85 84/84/84
f 75/75/75 76/76/76 86/86/86
f 75/75/75 86/86/86 85/85/85
f 76/76/76 77/77/77 87/87/87
f 76/76/76 87/87/87 86/86/86
f 77/77/77 78/78/78 88/88/88
f 77/77/77 88/88/88 87/87/87
f 78/78/78 79/79/79 89/89/89
f 78/78/78 89/89/89 88/88/88
f 79/79/79 80/80/80 90/90/90
f 79/79/79 90/90/90 89/89/89
f 81/81/81 82/82/82 92/92/92
f 81/81/81 92/92/92 91/91/91
f 82/82/82 83/83/83 93/93/93
f 82/82/82 93/93/93 92/92/92
f 83/83/83 84/84/84 94/94/94
f 83/83/83 94/94/94 93/93/93
f 84/84/84 85/85/85 95/95/95
f 84/84/84 95/95/95 94/94/94
f 85/85/85 86/86/86 96/96/96
f 85/85/85 96/96/96 95/95/95
f 86/86/86 87/87/87 97/97/97
f 86/86/86 97/97/97 96/96/96
f 87/87/87 88/88/88 98/98/98
f 87/87/87 98/98/98 97/97/97
f 88/88/88 89/89/89 99/99/99
f 88/88/88 99/99/99 98/98/98
f 89/89/89 90/90/90 100/100/100
f 89/89/89 100/100/100 99/99/99
f 91/91/91 92/92/92 102/102/102
f 91/91/91 102/102/102 101/101/101
f 92/92/92 93/93/93 103/103/103
f 92/92/92 103/103/103 102/102/102
f 93/93/93 94/94/94 104/104/104
f 93/93/93 104/104/104 103/103/103
f 94/94/94 95/95/95 105/105/105
f 94/94/94 105/105/105 104/104/104
f 95/95/95 96/96/96 106/106/106
f 95/95/95 106/106/106 105/105/105
f 96/96/96 97/97/97 107/107/107
f 96/96/96 107/107/107 106/106/106
f 97/97/97 98/98/98 108/108/108
f 97/97/97 108/108/108 107/107/107
f 98/98/98 99/99/99 109/109/109
f 98/98/98 109/109/109 108/108/108
f 99/99/99 100/100/100 110/110/110
f 99/99/99 110/110/110 109/109/109
f 101/101/101 102/102/102 112/112/112
f 101/101/101 112/112/112 111/111/111
f 102/102/102 103/103/103 113/113/113
f 102/102/102 113/113/113 112/112/112
f 103/103/103 104/104/104 114/114/114
f 103/103/103 114/114/114 113/113/113
f 104/104/104 105/105/105 115/115/115
f 104/104/104 115/115/115 114/114/114
f 105/105/105 106/106/106 116/116/116
f 105/105/105 116/116/116 115/115/115
f 106/106/106 107/107/107 117/117/117
f 106/106/106 117/117/117 116/116/116
f 107/107/107 108/108/108 118/118/118
f 107/107/107 118/118/118 117/117/117
f 108/108/108 109/109/109 119/119/119
f 108/108/108 119/119/119 118/118/118
f 109/109/109 110/110/110 120/120/120
f 109/109/109 120/120/120 119/119/119
f 121/121/121 2/2/2 1/1/1
f 122/122/122 111/111/111 112/112/112
f 121/121/121 3/3/3 2/2/2
f 122/122/122 112/112/112 113/113/113
f 121/121/121 4/4/4 3/3/3
f 122/122/122 113/113/113 114/114/114
f 121/121/121 5/5/5 4/4/4
f 122/122/122 114/114/114 115/115/115
f 121/121/121 6/6/6 5/5/5
f 122/122/122 115/115/115 116/116/116
f 121/121/121 7/7/7 6/6/6
f 122/122/122 116/116/116 117/117/117
f 121/121/121 8/8/8 7/7/7
f 122/122/122 117/117/117 118/118/118
f 121/121/121 9/9/9 8/8/8
f 122/122/122 118/118/118 119/119/119
f 121/121/121 10/10/10 9/9/9
f 122/122/122 119/119/119 120/120/120
f 123/123/123 124/124/124 132/132/132
f 123/123/123 132/132/132 131/131/131
f 124/124/124 125/125/125 133/133/133
f 124/124/124 133/133/133 132/132/132
f 125/125/125 126/126/126 134/134/134
f 125/125/125 134/134/134 133/133/133
f 126/126/126 127/127/127 135/135/135
f 126/126/126 135/135/135 134/134/134
f 127/127/127 128/128/128 136/136/136
f 127/127/127 136/136/136 135/135/135
f 128/128/128 129/129/129 137/137/137
f 128/128/128 137/137/137 136/136/136
f 129/129/129 130/130/130 138/138/138
f 129/129/129 138/138/138 137/137/137
f 131/131/131 132/132/132 140/140/140
f 131/131/131 140/140/140 139/139/139
f 132/132/132 133/133/133 141/141/141
f 132/132/132 141/141/141 140/140/140
f 133/133/133 134/134/134 142/142/142
f 133/133/133 142/142/142 141/141/141
f 134/134/134 135/135/135 143/143/143
f 134/134/134 143/143/143 142/142/142
f 135/135/135 136/136/136 144/144/144
f 135/135/135 144/144/144 143/143/143
f 136/136/136 137/137/137 145/145/145
f 136/136/136 145/145/145 144/144/144
f 137/137/137 138/138/138 146/146/146
f 137/137/137 146/146/146 145/145/145
f 139/139/139 140/140/140 148/148/148
f 139/139/139 148/148/148 147/147/147
f 140/140/140 141/141/141 149/149/149
f 140/140/140 149/149/149 148/148/148
f 141/141/141 142/142/142 150/150/150
f 141/141/141 150/150/150 149/149/149
f 142/142/142 143/143/143 151/151/151
f 142/142/142 151/151/151 150/150/150
f 143/143/143 144/144/144 152/152/152
f 143/143/143 152/152/152 151/151/151
f 144/144/144 145/145/145 153/153/153
f 144/144/144 153/153/153 152/152/152
f 145/145/145 146/146/146 154/154/154
f 145/145/145 154/154/154 153/153/153
f 147/147/147 148/148/148 156/156/156
f 147/147/147 156/156/156 155/155/155
f 148/148/148 149/149/149 157/157/157
f 148/148/148 157/157/157 156/156/156
f 149/149/149 150/150/150 158/158/158
f 149/149/149 158/158/158 157/157/157
f 150/150/150 151/151/151 159/159/159
f 150/150/150 159/159/159 158/158/158
f 151/151/151 152/152/152 160/160/160
f 151/151/151 160/160/160 159/159/159
f 152/152/152 153/153/153 161/161/161
f 152/152/152 161/161/161 160/160/160
f 153/153/153 154/154/154 162/162/162
f 153/153/153 162/162/162 161/161/161
f 155/155/155 156/156/156 164/164/164
f 155/155/155 164/164/164 163/163/163
f 156/156/156 157/157/157 165/165/165
f 156/156/156 165/165/165 164/164/164
f 157/157/157 158/158/158 166/166/166
f 157/157/157 166/166/166 165/165/165
f 158/158/158 159/159/159 167/167/167
f 158/158/158 167/167/167 166/166/166
f 159/159/159 160/160/160 168/168/168
f 159/159/159 168/168/168 167/167/167
f 160/160/160 161/161/161 169/169/169
f 160/160/160 169/169/169 168/168/168
f 161/161/161 162/162/162 170/170/170
f 161/161/161 170/170/170 169/169/169
f 171/171/171 124/124/124 123/123/123
f 172/172/172 163/163/163 164/164/164
f 171/171/171 125/125/125 124/124/124
f 172/172/172 164/164/164 165/165/165
f 171/171/171 126/126/126 125/125/125
f 172/172/172 165/165/165 166/166/166
f 171/171/171 127/127/127 126/126/126
f 172/172/172 166/166/166 167/167/167
f 171/171/171 128/128/128 127/127/127
f 172/172/172 167/167/167 168/168/168
f 171/171/171 129/129/129 128/128/128
f 172/172/172 168/168/168 169/169/169
f 171/171/171 130/130/130 129/129/129
f 172/172/172 169/169/169 170/170/170
