# Original VFX mesh; Unity Y-up, +Z forward
o Vine
v -0.0143534038 0.08171627 -0.5
v -0.0240367558 0.115905009 -0.486683667
v -0.0459620766 0.124348924 -0.456885368
v -0.0636191443 0.100689583 -0.433043718
v -0.06371183 0.06274295 -0.433112
v -0.0461703464 0.0390836075 -0.45703882
v -0.0242037717 0.0475275367 -0.4868068
v -0.0143534038 0.08171628 -0.5
v 0.0348613225 0.0781438947 -0.462338179
v 0.0281190258 0.111547664 -0.4470888
v 0.00670526363 0.119797722 -0.4176405
v -0.013254974 0.09668159 -0.3961685
v -0.0167312138 0.0596062 -0.3988416
v -0.00110578246 0.03649007 -0.423646927
v 0.0218550656 0.04474013 -0.451905578
v 0.0348613225 0.0781439 -0.462338179
v 0.08145062 0.06772511 -0.423423171
v 0.07684487 0.09985309 -0.406247646
v 0.0546440929 0.107788049 -0.3780948
v 0.0315659344 0.085554786 -0.360164374
v 0.0249887314 0.0498954244 -0.365958273
v 0.0398652256 0.0276621673 -0.3911136
v 0.06499316 0.03559713 -0.4166879
v 0.08145062 0.0677251145 -0.423423171
v 0.121804416 0.05132995 -0.382509619
v 0.117804132 0.081635654 -0.3632914
v 0.093236886 0.0891205445 -0.337910235
v 0.06660236 0.06814834 -0.325478584
v 0.0579568744 0.034511555 -0.335357815
v 0.0738106444 0.0135393636 -0.360108584
v 0.102225482 0.0210242588 -0.3810931
v 0.121804416 0.05132996 -0.382509619
v 0.152543932 0.03032757 -0.3380347
v 0.146316186 0.05838503 -0.317204952
v 0.117698342 0.06531464 -0.2973836
v 0.0882402062 0.0458982773 -0.2934966
v 0.0801243857 0.0147568556 -0.308470935
v 0.09946222 -0.0046595037 -0.3310306
v 0.131691977 0.00227012183 -0.3441877
v 0.152543932 0.0303275771 -0.3380347
v 0.169242874 0.00647183275 -0.2884706
v 0.157115519 0.0326439068 -0.268856972
v 0.124248005 0.039107874 -0.259126157
v 0.09539024 0.0209962353 -0.266605645
v 0.09227271 -0.008052574 -0.285663277
v 0.117242962 -0.0261642076 -0.30194822
v 0.15149793 -0.0197002366 -0.303197622
v 0.169242874 0.00647183927 -0.2884706
v 0.166876808 -0.0182451066 -0.23662217
v 0.1486253 0.00761752436 -0.223493442
v 0.115127191 0.014005064 -0.22687462
v 0.09160722 -0.003892434 -0.2442196
v 0.09577643 -0.032597784 -0.262467235
v 0.124495313 -0.0504952781 -0.267876744
v 0.156137973 -0.04410773 -0.2563746
v 0.166876808 -0.0182451 -0.23662217
v 0.14633365 -0.0417591967 -0.188865349
v 0.126595825 -0.0148700383 -0.184380785
v 0.0966936 -0.008228966 -0.198326111
v 0.07914396 -0.0268368442 -0.220200226
v 0.08716212 -0.05668155 -0.233531445
v 0.114710286 -0.07528942 -0.228281111
v 0.1410441 -0.06864834 -0.208402827
v 0.14633365 -0.04175919 -0.188865349
v 0.112971753 -0.0621067621 -0.146447644
v 0.09551637 -0.0341399536 -0.148683891
v 0.0701478049 -0.0272327214 -0.168697909
v 0.0559691265 -0.04658636 -0.191418722
v 0.06365715 -0.0776271746 -0.199737117
v 0.08742264 -0.09698081 -0.18738915
v 0.1093697 -0.09007357 -0.1636731
v 0.112971753 -0.0621067621 -0.146447644
v 0.07073783 -0.07758867 -0.1073228
v 0.056749966 -0.04907399 -0.113876626
v 0.03500916 -0.0420314446 -0.1368862
v 0.0218866821 -0.0617642179 -0.159024835
v 0.0272640418 -0.09341312 -0.163621679
v 0.0470919572 -0.113145895 -0.147215217
v 0.06643962 -0.106103338 -0.122159861
v 0.07073783 -0.07758866 -0.1073228
v 0.0228217039 -0.08691201 -0.0699598
v 0.0122452956 -0.05838308 -0.07926341
v -0.00705777435 -0.05133702 -0.103554606
v -0.0205519013 -0.07107966 -0.124541618
v -0.0180757288 -0.102744378 -0.1264208
v -0.00149386958 -0.122487016 -0.107777081
v 0.0167072043 -0.115440942 -0.0826495662
v 0.0228217039 -0.0869120061 -0.0699598
v -0.0272138286 -0.08929823 -0.03366702
v -0.0348110758 -0.06118977 -0.0448867641
v -0.05276236 -0.0542475469 -0.0694477856
v -0.06754999 -0.07369922 -0.08885514
v -0.06803858 -0.104897261 -0.0884946957
v -0.05386022 -0.124348924 -0.06863787
v -0.03569149 -0.1174067 -0.0442372561
v -0.0272138286 -0.0892982259 -0.03366702
v -0.07538716 -0.0845480561 0.00174049044
v -0.08057495 -0.05724768 -0.0110494914
v -0.09819753 -0.05050505 -0.0351283
v -0.114984728 -0.0693975 -0.0523641
v -0.118295446 -0.09969862 -0.04977799
v -0.105636641 -0.11859107 -0.0293173511
v -0.0865406543 -0.111848429 -0.006389464
v -0.07538716 -0.08454805 0.0017404895
v -0.117610253 -0.07305816 0.0360622145
v -0.12118943 -0.04697329 0.02172873
v -0.139590338 -0.0405308641 -0.00104363624
v -0.158956751 -0.0585821532 -0.0151068289
v -0.164705321 -0.08753416 -0.009870977
v -0.152507275 -0.105585441 0.010721215
v -0.131548 -0.09914301 0.0311634131
v -0.117610253 -0.07305815 0.03606221
v -0.150141478 -0.0557880178 0.0686040148
v -0.153511047 -0.0313613452 0.05265766
v -0.174009308 -0.0253284574 0.03251494
v -0.1962006 -0.04223224 0.0233437382
v -0.20337446 -0.0693438 0.0320501551
v -0.190128818 -0.08624758 0.05207808
v -0.166437909 -0.08021469 0.0683460757
v -0.150141478 -0.05578801 0.0686040148
v -0.170432732 -0.0341799147 0.09801579
v -0.176098451 -0.0116910664 0.0810208246
v -0.199979916 -0.00613678154 0.06600404
v -0.224093884 -0.02169955 0.06427339
v -0.230282024 -0.0466602854 0.07713209
v -0.213884592 -0.062223047 0.09489727
v -0.187249139 -0.0566687547 0.104191393
v -0.170432732 -0.03417991 0.09801579
v -0.178687468 -0.0100382185 0.123383172
v -0.18945238 0.0109893773 0.108093917
v -0.2164121 0.0161827616 0.1019289
v -0.239265382 0.00163121184 0.109530494
v -0.240803257 -0.0217076559 0.125174552
v -0.219867676 -0.0362591967 0.137080774
v -0.192223534 -0.0310658086 0.136283532
v -0.178687468 -0.0100382147 0.123383172
v -0.176935017 0.0146209616 0.147858828
v -0.19213663 0.035548538 0.138444483
v -0.2188146 0.0407172181 0.142832369
v -0.236879855 0.0262348838 0.157718316
v -0.2327289 0.00300703431 0.1718929
v -0.209487483 -0.0114752939 0.174682364
v -0.184656858 -0.00630660728 0.1639862
v -0.176935017 0.0146209672 0.147858828
v -0.163952112 0.0377384946 0.176261157
v -0.179623023 0.05946921 0.173709631
v -0.202989325 0.06483625 0.1859376
v -0.2164557 0.04979813 0.203737155
v -0.209881708 0.0256788563 0.213704839
v -0.188217685 0.0106407385 0.208334818
v -0.167777091 0.0160077848 0.1916708
v -0.163952112 0.0377385 0.176261157
v -0.138077155 0.0573837273 0.208784491
v -0.151577681 0.0798178539 0.211262241
v -0.171284258 0.08535863 0.227774188
v -0.182357416 0.0698337257 0.24588649
v -0.176458865 0.0449337251 0.251960218
v -0.158030316 0.02940883 0.241421759
v -0.140948847 0.03494961 0.222206727
v -0.138077155 0.0573837347 0.208784491
v -0.10087993 0.07191622 0.243709043
v -0.111526482 0.09460256 0.249348775
v -0.128414214 0.100205623 0.2678754
v -0.138826311 0.0845061839 0.285338
v -0.134922251 0.05932626 0.288586855
v -0.11964187 0.04362683 0.275175542
v -0.104491614 0.0492298938 0.255203
v -0.10087993 0.07191623 0.243709043
v -0.0558201261 0.08012235 0.279918641
v -0.06376217 0.102644421 0.287559956
v -0.07878816 0.10820692 0.306846946
v -0.08958322 0.0926211551 0.323256135
v -0.08801843 0.06762354 0.324431032
v -0.07527213 0.052037783 0.309486955
v -0.06094253 0.0576002821 0.289677083
v -0.0558201261 0.08012236 0.279918641
v -0.0070065693 0.08131684 0.3169324
v -0.01263182 0.103338823 0.325973153
v -0.02665102 0.1087778 0.345266253
v -0.038507428 0.09353812 0.360283673
v -0.0392729267 0.0690955743 0.359716982
v -0.0283710826 0.0538558923 0.3439929
v -0.0140111977 0.0592948757 0.324951947
v -0.0070065693 0.08131685 0.3169324
v 0.04134256 0.075399965 0.354644924
v 0.03754574 0.0966188 0.364846766
v 0.023723796 0.101859413 0.383560956
v 0.0102849146 0.0871755257 0.3966954
v 0.007348859 0.0636244 0.3943595
v 0.0171265323 0.0489405133 0.37831232
v 0.03225516 0.05418114 0.3606376
v 0.04134256 0.07539997 0.354644924
v 0.08524685 0.0628658 0.393253833
v 0.08258489 0.08296155 0.4046093
v 0.06807836 0.08792479 0.422067732
v 0.0526509658 0.0740181 0.43248266
v 0.04791985 0.0517134964 0.4280114
v 0.0574476346 0.0378068052 0.4120209
v 0.0740597248 0.04277005 0.3965523
v 0.08524685 0.0628658 0.393253833
v 0.1211767 0.0447610877 0.43336004
v 0.118436649 0.06340125 0.445881933
v 0.102212906 0.06800498 0.460960269
v 0.08472226 0.0551055968 0.467240781
v 0.07913557 0.03441658 0.4599941
v 0.08965968 0.0215171911 0.4446771
v 0.10836976 0.0261209365 0.432823867
v 0.1211767 0.04476109 0.43336004
v 0.145753324 0.022597637 0.4758383
v 0.140959173 0.0396642573 0.488882452
v 0.122223943 0.0438793637 0.499635369
v 0.103655614 0.0320688933 0.5
v 0.09923653 0.013126377 0.4897017
v 0.112294361 0.001315911 0.4764953
v 0.132996276 0.005531019 0.47032553
v 0.145753324 0.02259764 0.4758383
v -0.0402939059 0.08171627 -0.464795768
v 0.122445606 0.022597637 0.4858398
v 0.140441611 -0.0113572506 -0.27108
v 0.1283305 0.005214521 -0.263759524
v 0.1187462 -0.00111533445 -0.2452402
v 0.124933891 -0.0215991717 -0.241115063
v 0.138342381 -0.027929021 -0.257084936
v 0.140441611 -0.0113572478 -0.27108
v 0.172766149 0.00261198846 -0.245417237
v 0.16360198 0.0164046772 -0.2389742
v 0.155515477 0.0111363372 -0.2240549
v 0.159681946 -0.00591236353 -0.221277252
v 0.170343429 -0.0111807 -0.234479919
v 0.172766149 0.002611991 -0.245417237
v 0.2050908 0.0112454547 -0.219754353
v 0.199577421 0.0222966578 -0.213719577
v 0.192719713 0.0180754717 -0.2025796
v 0.193994835 0.00441543432 -0.201729536
v 0.201640591 0.000194251625 -0.2123441
v 0.2050908 0.0112454556 -0.219754353
v 0.237415373 0.0112454528 -0.1940916
v 0.234974965 0.019062154 -0.1888502
v 0.229566917 0.01607644 -0.181342348
v 0.228665009 0.006414464 -0.18194367
v 0.23351562 0.00342875067 -0.189823121
v 0.237415373 0.0112454547 -0.1940916
v 0.269739777 0.00261198753 -0.168428913
v 0.2689626 0.007036065 -0.164920732
v 0.265542924 0.00534621766 -0.1606859
v 0.264206529 -0.0001222436 -0.161576822
v 0.2668003 -0.00181208993 -0.166362271
v 0.269739777 0.00261198846 -0.168428913
v 0.30206427 -0.0113572525 -0.142766148
v 0.301902771 -0.0100824926 -0.141689628
v 0.3008714 -0.0105694076 -0.140461147
v 0.300395459 -0.0121450974 -0.140778422
v 0.301132679 -0.0126320124 -0.142203018
v 0.30206427 -0.0113572525 -0.142766148
v 0.130158916 -0.0113572506 -0.255655944
v 0.301273316 -0.0113572525 -0.141579673
v 0.129905313 -0.0113572506 -0.255333155
v 0.1300321 -0.0113572506 -0.255494535
v 0.130158916 -0.0113572506 -0.255655944
v 0.130285725 -0.0113572506 -0.255817354
v 0.130412519 -0.0113572506 -0.255978733
v 0.143633664 -0.00592504768 -0.194532514
v 0.155909017 -0.000356765726 -0.210155666
v 0.16818434 0.00149932818 -0.225778818
v 0.180459678 -0.000356765726 -0.241401985
v 0.192735031 -0.00592504768 -0.257025123
v 0.165710971 -0.0004928442 -0.144357771
v 0.185960367 0.009540852 -0.170129731
v 0.206209779 0.0128854187 -0.1959017
v 0.226459175 0.009540852 -0.221673667
v 0.2467086 -0.0004928442 -0.247445628
v 0.195378646 0.00493935868 -0.103843547
v 0.21980691 0.0174511727 -0.134934068
v 0.244235173 0.0216217786 -0.1660246
v 0.2686635 0.0174511727 -0.197115123
v 0.293091744 0.00493935868 -0.228205636
v 0.233404115 0.0103715621 -0.07396642
v 0.257832378 0.0228833761 -0.105056949
v 0.282260627 0.02705398 -0.136147469
v 0.306688935 0.0228833761 -0.167238
v 0.331117183 0.0103715621 -0.198328525
v 0.2797872 0.0158037655 -0.0547264144
v 0.3000366 0.0258374624 -0.08049838
v 0.320286 0.0291820243 -0.106270351
v 0.3405354 0.0258374624 -0.132042319
v 0.360784829 0.0158037655 -0.157814279
v 0.3337608 0.0212359671 -0.0451469347
v 0.346036136 0.0268042479 -0.0607700869
v 0.358311445 0.0286603421 -0.07639324
v 0.370586783 0.0268042479 -0.0920164
v 0.382862151 0.0212359671 -0.107639551
v 0.396083266 0.0266681742 -0.04619334
v 0.396210074 0.0266681742 -0.04635473
v 0.396336883 0.0266681742 -0.04651612
v 0.3964637 0.0266681742 -0.0466775075
v 0.396590531 0.0266681742 -0.0468389
v -0.119876154 -0.07664963 0.0164396781
v -0.121975377 -0.06007788 0.00244460627
v -0.135383964 -0.0664077252 -0.0135252047
v -0.141571686 -0.08689154 -0.00940002
v -0.131987333 -0.09322138 0.009119299
v -0.119876154 -0.07664963 0.0164396781
v -0.1559975 -0.06268039 0.0364075
v -0.15842022 -0.04888768 0.02547021
v -0.169081628 -0.0541560277 0.01226748
v -0.173248008 -0.07120476 0.0150450421
v -0.16516158 -0.0764731 0.0299643967
v -0.1559975 -0.062680386 0.0364075
v -0.19211863 -0.05404693 0.056375172
v -0.19556877 -0.0429957248 0.0489648655
v -0.203214437 -0.04721691 0.0383502133
v -0.204489559 -0.0608769432 0.03920031
v -0.197631985 -0.06509813 0.0503403433
v -0.19211863 -0.0540469252 0.056375172
v -0.228239939 -0.05404693 0.07634297
v -0.232139587 -0.0462302268 0.07207439
v -0.236989975 -0.0492159426 0.0641948
v -0.236088052 -0.0588779151 0.06359353
v -0.230680227 -0.0618636273 0.0711015
v -0.228239939 -0.05404693 0.07634297
v -0.2643611 -0.06268039 0.09631067
v -0.267300516 -0.0582563169 0.09424403
v -0.269894332 -0.05994616 0.0894586
v -0.268557936 -0.06541462 0.08856767
v -0.265138239 -0.06710447 0.09280249
v -0.2643611 -0.06268039 0.09631067
v -0.3004823 -0.07664963 0.116278388
v -0.301413953 -0.07537488 0.115715295
v -0.302151233 -0.07586179 0.114290744
v -0.3016753 -0.07743747 0.113973416
v -0.3006438 -0.0779243857 0.115201853
v -0.3004823 -0.07664963 0.116278388
v -0.1301589 -0.07664963 0.00101567165
v -0.301273316 -0.07664963 0.115091942
v -0.130412519 -0.07664963 0.000692891364
v -0.13028571 -0.07664963 0.0008542815
v -0.1301589 -0.07664963 0.00101567165
v -0.130032092 -0.07664963 0.00117706181
v -0.129905283 -0.07664963 0.001338452
v -0.192735 -0.07121743 -0.000353523152
v -0.180459663 -0.06564915 0.0152696334
v -0.16818434 -0.0637930557 0.03089279
v -0.155909 -0.06564915 0.04651595
v -0.143633649 -0.07121743 0.0621391051
v -0.246708542 -0.06578522 0.009225975
v -0.22645916 -0.05575153 0.03499794
v -0.206209749 -0.052406963 0.0607699081
v -0.185960338 -0.05575153 0.0865418762
v -0.165710941 -0.06578522 0.112313844
v -0.293091744 -0.0603530221 0.0284659751
v -0.268663436 -0.04784121 0.0595565
v -0.244235173 -0.0436706021 0.09064703
v -0.21980691 -0.04784121 0.121737555
v -0.195378631 -0.0603530221 0.152828068
v -0.331117123 -0.0549208149 0.0583430976
v -0.306688875 -0.0424090028 0.0894336253
v -0.282260627 -0.038238395 0.120524146
v -0.257832348 -0.0424090028 0.151614681
v -0.23340407 -0.0549208149 0.1827052
v -0.360784829 -0.0494886152 0.0988573357
v -0.3405354 -0.03945492 0.124629304
v -0.320286 -0.0361103565 0.150401264
v -0.3000366 -0.03945492 0.17617324
v -0.2797872 -0.0494886152 0.2019452
v -0.3828621 -0.04405641 0.149032071
v -0.370586783 -0.0384881347 0.164655223
v -0.358311445 -0.03663204 0.180278376
v -0.346036136 -0.0384881347 0.195901528
v -0.333760768 -0.04405641 0.21152468
v -0.396590531 -0.03862421 0.209832728
v -0.3964637 -0.03862421 0.209994107
v -0.396336883 -0.03862421 0.2101555
v -0.396210074 -0.03862421 0.210316882
v -0.396083266 -0.03862421 0.210478276
v -0.119876139 0.0689677745 0.242263213
v -0.131987318 0.08553953 0.249583647
v -0.1415716 0.07920968 0.268102974
v -0.135383815 0.0587258674 0.272228152
v -0.12197531 0.05239603 0.256258279
v -0.119876139 0.0689677745 0.242263213
v -0.08755166 0.08293702 0.267925948
v -0.0967158154 0.0967297 0.274368972
v -0.104802221 0.09146136 0.289288342
v -0.100635745 0.0744126663 0.292065978
v -0.0899743 0.06914432 0.278863251
v -0.08755166 0.08293702 0.267925948
v -0.0552271046 0.0915704742 0.293588758
v -0.0607403964 0.102621682 0.299623579
v -0.06759789 0.0984004959 0.3107637
v -0.06632275 0.08474046 0.3116138
v -0.0586771928 0.0805192739 0.300999075
v -0.0552271046 0.0915704742 0.293588758
v -0.0229025166 0.0915704742 0.319251537
v -0.0253428426 0.09938718 0.324492961
v -0.0307507161 0.09640146 0.3320009
v -0.03165264 0.0867394954 0.33139962
v -0.0268021859 0.08375378 0.323520064
v -0.0229025166 0.0915704742 0.319251537
v 0.009422019 0.08293702 0.344914317
v 0.008644903 0.08736109 0.3484225
v 0.005225188 0.0856712461 0.3526573
v 0.00388880074 0.08020278 0.351766378
v 0.0064825844 0.07851294 0.346980959
v 0.009422019 0.08293702 0.344914317
v 0.0417465568 0.0689677745 0.3705771
v 0.04158507 0.07024253 0.371653616
v 0.0405536443 0.0697556138 0.372882038
v 0.0400776826 0.06817993 0.372564733
v 0.0408149436 0.06769302 0.371140182
v 0.0417465568 0.0689677745 0.3705771
v -0.130158827 0.0689677745 0.257687271
v 0.040955577 0.0689677745 0.371763527
v -0.130412444 0.0689677745 0.25801003
v -0.130285636 0.0689677745 0.25784865
v -0.130158827 0.0689677745 0.257687271
v -0.130032033 0.0689677745 0.257525861
v -0.129905224 0.0689677745 0.257364482
v -0.116684087 0.07439998 0.3188107
v -0.104408741 0.07996826 0.303187549
v -0.0921334 0.08182435 0.2875644
v -0.07985807 0.07996826 0.2719412
v -0.0675827339 0.07439998 0.256318063
v -0.09460679 0.07983218 0.368985444
v -0.07435738 0.08986588 0.343213469
v -0.0541079827 0.0932104439 0.3174415
v -0.0338585749 0.08986588 0.291669548
v -0.0136091746 0.07983218 0.265897572
v -0.0649391 0.0852643847 0.409499675
v -0.04051083 0.0977762 0.378409147
v -0.0160825588 0.1019468 0.347318619
v 0.008345712 0.0977762 0.316228122
v 0.0327739827 0.0852643847 0.2851376
v -0.0269136671 0.09069659 0.439376771
v -0.0024853996 0.1032084 0.408286273
v 0.02194287 0.107379012 0.377195746
v 0.04637114 0.1032084 0.346105218
v 0.07079941 0.09069659 0.31501472
v 0.0194694772 0.09612879 0.4586168
v 0.03971888 0.106162488 0.432844847
v 0.0599682853 0.109507047 0.407072872
v 0.08021769 0.106162488 0.3813009
v 0.100467093 0.09612879 0.355528951
v 0.07344305 0.101560988 0.468196273
v 0.08571838 0.107129268 0.452573121
v 0.09799372 0.108985364 0.436949968
v 0.110269047 0.107129268 0.421326816
v 0.122544385 0.101560988 0.405703664
v 0.135765523 0.1069932 0.467149854
v 0.135892317 0.1069932 0.4669885
v 0.136019126 0.1069932 0.4668271
v 0.136145934 0.1069932 0.4666657
v 0.136272743 0.1069932 0.4665043
vt 0 0
vt 0.142857149 0
vt 0.2857143 0
vt 0.428571433 0
vt 0.5714286 0
vt 0.714285731 0
vt 0.857142866 0
vt 1 0
vt 0 0.03846154
vt 0.142857149 0.03846154
vt 0.2857143 0.03846154
vt 0.428571433 0.03846154
vt 0.5714286 0.03846154
vt 0.714285731 0.03846154
vt 0.857142866 0.03846154
vt 1 0.03846154
vt 0 0.07692308
vt 0.142857149 0.07692308
vt 0.2857143 0.07692308
vt 0.428571433 0.07692308
vt 0.5714286 0.07692308
vt 0.714285731 0.07692308
vt 0.857142866 0.07692308
vt 1 0.07692308
vt 0 0.115384616
vt 0.142857149 0.115384616
vt 0.2857143 0.115384616
vt 0.428571433 0.115384616
vt 0.5714286 0.115384616
vt 0.714285731 0.115384616
vt 0.857142866 0.115384616
vt 1 0.115384616
vt 0 0.15384616
vt 0.142857149 0.15384616
vt 0.2857143 0.15384616
vt 0.428571433 0.15384616
vt 0.5714286 0.15384616
vt 0.714285731 0.15384616
vt 0.857142866 0.15384616
vt 1 0.15384616
vt 0 0.1923077
vt 0.142857149 0.1923077
vt 0.2857143 0.1923077
vt 0.428571433 0.1923077
vt 0.5714286 0.1923077
vt 0.714285731 0.1923077
vt 0.857142866 0.1923077
vt 1 0.1923077
vt 0 0.230769232
vt 0.142857149 0.230769232
vt 0.2857143 0.230769232
vt 0.428571433 0.230769232
vt 0.5714286 0.230769232
vt 0.714285731 0.230769232
vt 0.857142866 0.230769232
vt 1 0.230769232
vt 0 0.269230783
vt 0.142857149 0.269230783
vt 0.2857143 0.269230783
vt 0.428571433 0.269230783
vt 0.5714286 0.269230783
vt 0.714285731 0.269230783
vt 0.857142866 0.269230783
vt 1 0.269230783
vt 0 0.307692319
vt 0.142857149 0.307692319
vt 0.2857143 0.307692319
vt 0.428571433 0.307692319
vt 0.5714286 0.307692319
vt 0.714285731 0.307692319
vt 0.857142866 0.307692319
vt 1 0.307692319
vt 0 0.346153855
vt 0.142857149 0.346153855
vt 0.2857143 0.346153855
vt 0.428571433 0.346153855
vt 0.5714286 0.346153855
vt 0.714285731 0.346153855
vt 0.857142866 0.346153855
vt 1 0.346153855
vt 0 0.3846154
vt 0.142857149 0.3846154
vt 0.2857143 0.3846154
vt 0.428571433 0.3846154
vt 0.5714286 0.3846154
vt 0.714285731 0.3846154
vt 0.857142866 0.3846154
vt 1 0.3846154
vt 0 0.423076928
vt 0.142857149 0.423076928
vt 0.2857143 0.423076928
vt 0.428571433 0.423076928
vt 0.5714286 0.423076928
vt 0.714285731 0.423076928
vt 0.857142866 0.423076928
vt 1 0.423076928
vt 0 0.461538464
vt 0.142857149 0.461538464
vt 0.2857143 0.461538464
vt 0.428571433 0.461538464
vt 0.5714286 0.461538464
vt 0.714285731 0.461538464
vt 0.857142866 0.461538464
vt 1 0.461538464
vt 0 0.5
vt 0.142857149 0.5
vt 0.2857143 0.5
vt 0.428571433 0.5
vt 0.5714286 0.5
vt 0.714285731 0.5
vt 0.857142866 0.5
vt 1 0.5
vt 0 0.538461566
vt 0.142857149 0.538461566
vt 0.2857143 0.538461566
vt 0.428571433 0.538461566
vt 0.5714286 0.538461566
vt 0.714285731 0.538461566
vt 0.857142866 0.538461566
vt 1 0.538461566
vt 0 0.5769231
vt 0.142857149 0.5769231
vt 0.2857143 0.5769231
vt 0.428571433 0.5769231
vt 0.5714286 0.5769231
vt 0.714285731 0.5769231
vt 0.857142866 0.5769231
vt 1 0.5769231
vt 0 0.615384638
vt 0.142857149 0.615384638
vt 0.2857143 0.615384638
vt 0.428571433 0.615384638
vt 0.5714286 0.615384638
vt 0.714285731 0.615384638
vt 0.857142866 0.615384638
vt 1 0.615384638
vt 0 0.653846145
vt 0.142857149 0.653846145
vt 0.2857143 0.653846145
vt 0.428571433 0.653846145
vt 0.5714286 0.653846145
vt 0.714285731 0.653846145
vt 0.857142866 0.653846145
vt 1 0.653846145
vt 0 0.6923077
vt 0.142857149 0.6923077
vt 0.2857143 0.6923077
vt 0.428571433 0.6923077
vt 0.5714286 0.6923077
vt 0.714285731 0.6923077
vt 0.857142866 0.6923077
vt 1 0.6923077
vt 0 0.7307692
vt 0.142857149 0.7307692
vt 0.2857143 0.7307692
vt 0.428571433 0.7307692
vt 0.5714286 0.7307692
vt 0.714285731 0.7307692
vt 0.857142866 0.7307692
vt 1 0.7307692
vt 0 0.7692308
vt 0.142857149 0.7692308
vt 0.2857143 0.7692308
vt 0.428571433 0.7692308
vt 0.5714286 0.7692308
vt 0.714285731 0.7692308
vt 0.857142866 0.7692308
vt 1 0.7692308
vt 0 0.8076923
vt 0.142857149 0.8076923
vt 0.2857143 0.8076923
vt 0.428571433 0.8076923
vt 0.5714286 0.8076923
vt 0.714285731 0.8076923
vt 0.857142866 0.8076923
vt 1 0.8076923
vt 0 0.846153855
vt 0.142857149 0.846153855
vt 0.2857143 0.846153855
vt 0.428571433 0.846153855
vt 0.5714286 0.846153855
vt 0.714285731 0.846153855
vt 0.857142866 0.846153855
vt 1 0.846153855
vt 0 0.884615362
vt 0.142857149 0.884615362
vt 0.2857143 0.884615362
vt 0.428571433 0.884615362
vt 0.5714286 0.884615362
vt 0.714285731 0.884615362
vt 0.857142866 0.884615362
vt 1 0.884615362
vt 0 0.9230769
vt 0.142857149 0.9230769
vt 0.2857143 0.9230769
vt 0.428571433 0.9230769
vt 0.5714286 0.9230769
vt 0.714285731 0.9230769
vt 0.857142866 0.9230769
vt 1 0.9230769
vt 0 0.961538434
vt 0.142857149 0.961538434
vt 0.2857143 0.961538434
vt 0.428571433 0.961538434
vt 0.5714286 0.961538434
vt 0.714285731 0.961538434
vt 0.857142866 0.961538434
vt 1 0.961538434
vt 0 1
vt 0.142857149 1
vt 0.2857143 1
vt 0.428571433 1
vt 0.5714286 1
vt 0.714285731 1
vt 0.857142866 1
vt 1 1
vt 0.5 0
vt 0.5 1
vt 0 0
vt 0.2 0
vt 0.4 0
vt 0.6 0
vt 0.8 0
vt 1 0
vt 0 0.2
vt 0.2 0.2
vt 0.4 0.2
vt 0.6 0.2
vt 0.8 0.2
vt 1 0.2
vt 0 0.4
vt 0.2 0.4
vt 0.4 0.4
vt 0.6 0.4
vt 0.8 0.4
vt 1 0.4
vt 0 0.6
vt 0.2 0.6
vt 0.4 0.6
vt 0.6 0.6
vt 0.8 0.6
vt 1 0.6
vt 0 0.8
vt 0.2 0.8
vt 0.4 0.8
vt 0.6 0.8
vt 0.8 0.8
vt 1 0.8
vt 0 1
vt 0.2 1
vt 0.4 1
vt 0.6 1
vt 0.8 1
vt 1 1
vt 0.5 0
vt 0.5 1
vt 0 0
vt 0.25 0
vt 0.5 0
vt 0.75 0
vt 1 0
vt 0 0.142857149
vt 0.25 0.142857149
vt 0.5 0.142857149
vt 0.75 0.142857149
vt 1 0.142857149
vt 0 0.2857143
vt 0.25 0.2857143
vt 0.5 0.2857143
vt 0.75 0.2857143
vt 1 0.2857143
vt 0 0.428571433
vt 0.25 0.428571433
vt 0.5 0.428571433
vt 0.75 0.428571433
vt 1 0.428571433
vt 0 0.5714286
vt 0.25 0.5714286
vt 0.5 0.5714286
vt 0.75 0.5714286
vt 1 0.5714286
vt 0 0.714285731
vt 0.25 0.714285731
vt 0.5 0.714285731
vt 0.75 0.714285731
vt 1 0.714285731
vt 0 0.857142866
vt 0.25 0.857142866
vt 0.5 0.857142866
vt 0.75 0.857142866
vt 1 0.857142866
vt 0 1
vt 0.25 1
vt 0.5 1
vt 0.75 1
vt 1 1
vt 0 0
vt 0.2 0
vt 0.4 0
vt 0.6 0
vt 0.8 0
vt 1 0
vt 0 0.2
vt 0.2 0.2
vt 0.4 0.2
vt 0.6 0.2
vt 0.8 0.2
vt 1 0.2
vt 0 0.4
vt 0.2 0.4
vt 0.4 0.4
vt 0.6 0.4
vt 0.8 0.4
vt 1 0.4
vt 0 0.6
vt 0.2 0.6
vt 0.4 0.6
vt 0.6 0.6
vt 0.8 0.6
vt 1 0.6
vt 0 0.8
vt 0.2 0.8
vt 0.4 0.8
vt 0.6 0.8
vt 0.8 0.8
vt 1 0.8
vt 0 1
vt 0.2 1
vt 0.4 1
vt 0.6 1
vt 0.8 1
vt 1 1
vt 0.5 0
vt 0.5 1
vt 0 0
vt 0.25 0
vt 0.5 0
vt 0.75 0
vt 1 0
vt 0 0.142857149
vt 0.25 0.142857149
vt 0.5 0.142857149
vt 0.75 0.142857149
vt 1 0.142857149
vt 0 0.2857143
vt 0.25 0.2857143
vt 0.5 0.2857143
vt 0.75 0.2857143
vt 1 0.2857143
vt 0 0.428571433
vt 0.25 0.428571433
vt 0.5 0.428571433
vt 0.75 0.428571433
vt 1 0.428571433
vt 0 0.5714286
vt 0.25 0.5714286
vt 0.5 0.5714286
vt 0.75 0.5714286
vt 1 0.5714286
vt 0 0.714285731
vt 0.25 0.714285731
vt 0.5 0.714285731
vt 0.75 0.714285731
vt 1 0.714285731
vt 0 0.857142866
vt 0.25 0.857142866
vt 0.5 0.857142866
vt 0.75 0.857142866
vt 1 0.857142866
vt 0 1
vt 0.25 1
vt 0.5 1
vt 0.75 1
vt 1 1
vt 0 0
vt 0.2 0
vt 0.4 0
vt 0.6 0
vt 0.8 0
vt 1 0
vt 0 0.2
vt 0.2 0.2
vt 0.4 0.2
vt 0.6 0.2
vt 0.8 0.2
vt 1 0.2
vt 0 0.4
vt 0.2 0.4
vt 0.4 0.4
vt 0.6 0.4
vt 0.8 0.4
vt 1 0.4
vt 0 0.6
vt 0.2 0.6
vt 0.4 0.6
vt 0.6 0.6
vt 0.8 0.6
vt 1 0.6
vt 0 0.8
vt 0.2 0.8
vt 0.4 0.8
vt 0.6 0.8
vt 0.8 0.8
vt 1 0.8
vt 0 1
vt 0.2 1
vt 0.4 1
vt 0.6 1
vt 0.8 1
vt 1 1
vt 0.5 0
vt 0.5 1
vt 0 0
vt 0.25 0
vt 0.5 0
vt 0.75 0
vt 1 0
vt 0 0.142857149
vt 0.25 0.142857149
vt 0.5 0.142857149
vt 0.75 0.142857149
vt 1 0.142857149
vt 0 0.2857143
vt 0.25 0.2857143
vt 0.5 0.2857143
vt 0.75 0.2857143
vt 1 0.2857143
vt 0 0.428571433
vt 0.25 0.428571433
vt 0.5 0.428571433
vt 0.75 0.428571433
vt 1 0.428571433
vt 0 0.5714286
vt 0.25 0.5714286
vt 0.5 0.5714286
vt 0.75 0.5714286
vt 1 0.5714286
vt 0 0.714285731
vt 0.25 0.714285731
vt 0.5 0.714285731
vt 0.75 0.714285731
vt 1 0.714285731
vt 0 0.857142866
vt 0.25 0.857142866
vt 0.5 0.857142866
vt 0.75 0.857142866
vt 1 0.857142866
vt 0 1
vt 0.25 1
vt 0.5 1
vt 0.75 1
vt 1 1
vn 0.305908352 0.4198173 -0.8545019
vn -0.0101472018 0.814874351 -0.579548836
vn -0.493122637 0.86766094 0.06320189
vn -0.8484087 0.2683708 0.456267267
vn -0.809283137 -0.500154555 0.308068365
vn -0.425153464 -0.871547461 -0.2442323
vn 0.0264766924 -0.5947487 -0.8034757
vn 0.013194452 -0.363292247 -0.931581736
vn 0.6139902 0.430256069 -0.6617369
vn 0.4678861 0.774387836 -0.425917983
vn -0.0362411551 0.969882965 0.24085997
vn -0.5064072 0.446269155 0.737831652
vn -0.590775967 -0.4179091 0.690170765
vn -0.2172234 -0.9689119 0.118422404
vn 0.3309776 -0.7751307 -0.538169265
vn 0.524647951 -0.4332681 -0.7328187
vn 0.700666368 0.4224438 -0.574985147
vn 0.5658369 0.7535791 -0.33458513
vn 0.0374393947 0.9500825 0.3097442
vn -0.5110207 0.441408664 0.7375746
vn -0.669848859 -0.409279585 0.619510055
vn -0.3059475 -0.9516705 0.02682421
vn 0.302494347 -0.7597715 -0.5755384
vn 0.529193 -0.4287504 -0.732207537
vn 0.807637155 0.411262184 -0.422594041
vn 0.6670794 0.7204493 -0.189625621
vn 0.07931174 0.9147151 0.3962398
vn -0.559603035 0.428140551 0.7096056
vn -0.772554159 -0.398448348 0.494367361
vn -0.373999268 -0.9215689 -0.104093052
vn 0.32343632 -0.731206536 -0.6006046
vn 0.5784215 -0.4215251 -0.6983876
vn 0.90033114 0.3996767 -0.172227874
vn 0.734004557 0.6785044 0.0294797737
vn 0.0510005727 0.8676049 0.4946319
vn -0.6690649 0.404777855 0.623303235
vn -0.878402352 -0.3913031 0.2743926
vn -0.375535727 -0.8823955 -0.283462763
vn 0.420436829 -0.6940257 -0.5844324
vn 0.6829954 -0.414823383 -0.601197839
vn 0.9051781 0.394675761 0.157745689
vn 0.701384366 0.64738667 0.2982457
vn -0.08810803 0.831202865 0.5489434
vn -0.8301335 0.3809603 0.4071212
vn -0.91795826 -0.390480936 -0.0698371157
vn -0.257501036 -0.8493317 -0.460791767
vn 0.5803732 -0.6660004 -0.4686261
vn 0.821292 -0.409578741 -0.397145718
vn 0.7947903 0.3991214 0.457176715
vn 0.5542385 0.651158035 0.5184717
vn -0.285218239 0.836757064 0.467427224
vn -0.9259552 0.375045151 0.04413771
vn -0.8154965 -0.3982783 -0.419928521
vn -0.0717133358 -0.850012958 -0.5218573
vn 0.70543766 -0.6680087 -0.236901179
vn 0.9096822 -0.406431943 -0.08538904
vn 0.651224554 0.406160384 0.6410463
vn 0.390790522 0.684814036 0.6150713
vn -0.393260151 0.875573635 0.2805662
vn -0.8786864 0.381658643 -0.286786884
vn -0.6671382 -0.4177706 -0.6167612
vn 0.0425710939 -0.8865484 -0.460672915
vn 0.713324 -0.7003622 0.0257224832
vn 0.8800655 -0.411895633 0.23627691
vn 0.5518206 0.416023076 0.722785532
vn 0.30176425 0.7252802 0.6187948
vn -0.381363481 0.918539941 0.1041456
vn -0.773897648 0.395870984 -0.494336456
vn -0.5706129 -0.4338322 -0.697273731
vn 0.0543484055 -0.9283928 -0.367604524
vn 0.634045243 -0.73822993 0.230224222
vn 0.776743531 -0.421344161 0.4681224
vn 0.5093677 0.425885439 0.7477741
vn 0.288423061 0.755270839 0.588539
vn -0.308903843 0.950833857 -0.0222133864
vn -0.674410343 0.411479533 -0.613070369
vn -0.529628634 -0.441311926 -0.7243875
vn 0.00534092868 -0.957759261 -0.287521571
vn 0.530399859 -0.766023159 0.36315918
vn 0.6696966 -0.429310352 0.6059695
vn 0.510458 0.432382047 0.743289
vn 0.32190305 0.7714013 0.548924863
vn -0.219073877 0.9694116 -0.110669829
vn -0.5987288 0.42304945 -0.6801126
vn -0.5296093 -0.442092836 -0.723925352
vn -0.0709079355 -0.9724455 -0.222085536
vn 0.433847666 -0.782012641 0.447473377
vn 0.586351 -0.43388316 0.6840599
vn 0.544656 0.434746951 0.7171784
vn 0.383773059 0.7756533 0.501079142
vn -0.129607618 0.9751053 -0.179920584
vn -0.550616145 0.428883016 -0.7161573
vn -0.561184168 -0.437729776 -0.70247066
vn -0.1594652 -0.974011362 -0.160849854
vn 0.353686571 -0.787616432 0.504545569
vn 0.5309426 -0.434443265 0.7275706
vn 0.608135 0.4330844 0.6652893
vn 0.4658478 0.769691169 0.436533064
vn -0.04867937 0.9682267 -0.2452907
vn -0.5327156 0.428270519 -0.7299306
vn -0.6209799 -0.4285437 -0.6563034
vn -0.2540286 -0.9629049 -0.09101461
vn 0.2937882 -0.783235 0.5479336
vn 0.5040163 -0.4303744 0.7488294
vn 0.6999178 0.427469373 0.5721756
vn 0.5621267 0.754210651 0.339381516
vn 0.0129326554 0.947499156 -0.319496483
vn -0.5524122 0.4201486 -0.7199415
vn -0.7082087 -0.41387248 -0.5719703
vn -0.347275853 -0.9377587 0.00286147115
vn 0.261844128 -0.767585635 0.585021436
vn 0.5095091 -0.420272 0.750847459
vn 0.8124424 0.4174537 0.407025576
vn 0.6573241 0.7307483 0.18420662
vn 0.030425312 0.91173315 -0.4096546
vn -0.623236656 0.404217124 -0.66946584
vn -0.816266656 -0.3927725 -0.4236016
vn -0.4191423 -0.897325635 0.138298422
vn 0.27658692 -0.7388186 0.6145298
vn 0.558065 -0.4014481 0.726225138
vn 0.907096148 0.4003312 0.130044818
vn 0.707372 0.7046616 -0.0554686673
vn -0.0387575254 0.8669193 -0.496939272
vn -0.7496328 0.3852468 -0.5381781
vn -0.9121599 -0.367679447 -0.181041509
vn -0.4230773 -0.8483145 0.318383664
vn 0.36956957 -0.7003997 0.6106214
vn 0.6671329 -0.3734267 0.6445822
vn 0.894997954 0.377640069 -0.237416625
vn 0.6388116 0.6869099 -0.346517861
vn -0.204570264 0.8356363 -0.5097676
vn -0.8819762 0.3731909 -0.287830681
vn -0.925119042 -0.352165937 0.141894087
vn -0.307028562 -0.8170319 0.488049448
vn 0.546271265 -0.673082352 0.498545736
vn 0.827795446 -0.3559666 0.433638543
vn 0.7570082 0.376577169 -0.533974
vn 0.468333423 0.6957361 -0.5446237
vn -0.365007818 0.8443815 -0.3921597
vn -0.9251966 0.3774698 0.0390867777
vn -0.820575356 -0.3576679 0.445791155
vn -0.114679091 -0.830323458 0.545354664
vn 0.694125652 -0.6796282 0.237265661
vn 0.9247964 -0.37222752 0.0787286162
vn 0.620707035 0.399487734 -0.674635
vn 0.334477574 0.7273786 -0.5992036
vn -0.4139432 0.885549963 -0.210836977
vn -0.856938064 0.397248954 0.328405857
vn -0.672727466 -0.377449542 0.6363722
vn 0.01780341 -0.8752709 0.483305067
vn 0.7052969 -0.7075495 -0.04393183
vn 0.880329967 -0.397008628 -0.259621769
vn 0.5451373 0.419067383 -0.7260907
vn 0.285447985 0.757545233 -0.587064445
vn -0.3673549 0.9284865 -0.0544350371
vn -0.744990349 0.417509258 0.5202646
vn -0.5674063 -0.399931252 0.7197952
vn 0.04327028 -0.921377361 0.38625294
vn 0.6284186 -0.7384559 -0.244484872
vn 0.7720921 -0.414216757 -0.4819733
vn 0.5195263 0.429709524 -0.73854053
vn 0.2963353 0.7760956 -0.556651533
vn -0.28069672 0.9581452 0.05627678
vn -0.6437218 0.431897223 0.6317333
vn -0.521458864 -0.415656418 0.745191634
vn 0.001156431 -0.953371763 0.301796
vn 0.530051351 -0.762680531 -0.3706266
vn 0.668553 -0.425481856 -0.6099197
vn 0.5303968 0.433891326 -0.72829777
vn 0.342520118 0.7831112 -0.5190537
vn -0.185495213 0.9732925 0.135252625
vn -0.568988144 0.440615356 0.6943418
vn -0.520581841 -0.422887772 0.741728067
vn -0.07156163 -0.9699786 0.232423
vn 0.439189047 -0.7770522 -0.450891167
vn 0.590478361 -0.431995958 -0.6816999
vn 0.571079731 0.433172554 -0.6973016
vn 0.412002355 0.780050755 -0.470929861
vn -0.0934141651 0.97543937 0.199479058
vn -0.5224115 0.444255978 0.7278207
vn -0.5532246 -0.4230406 0.717620552
vn -0.157752424 -0.9732256 0.167171374
vn 0.365263164 -0.7813447 -0.506046832
vn 0.5409231 -0.434147269 -0.7203598
vn 0.639692247 0.4280831 -0.6383875
vn 0.49980405 0.7670677 -0.402247548
vn -0.0102190226 0.964742541 0.262996763
vn -0.5055623 0.4424784 0.740688562
vn -0.6147698 -0.4174126 0.6691971
vn -0.249368459 -0.964002848 0.09227052
vn 0.313978374 -0.7750654 -0.548353255
vn 0.5214784 -0.432087719 -0.735771954
vn 0.7348113 0.4188476 -0.533497036
vn 0.600425959 0.742959738 -0.29580307
vn 0.0540523119 0.9395893 0.338009119
vn -0.525385261 0.43374306 0.732008934
vn -0.703628838 -0.4071452 0.5823567
vn -0.336286128 -0.941716552 -0.009031266
vn 0.296551 -0.756575465 -0.5827959
vn 0.538254142 -0.425961584 -0.727213442
vn 0.8436079 0.4054946 -0.3519943
vn 0.6955407 0.7070572 -0.1276451
vn 0.0745288059 0.899152458 0.431242824
vn -0.5965718 0.416211516 0.6861998
vn -0.813068 -0.394327044 0.4282833
vn -0.39333722 -0.9062635 -0.154829934
vn 0.33518663 -0.7256392 -0.600914
vn 0.603243768 -0.416786283 -0.6799898
vn 0.972974062 0.220214814 0.0694763958
vn 0.883101463 0.4459404 0.145838767
vn 0.2744376 0.6895412 0.6702365
vn -0.414797872 0.28547 0.863973
vn -0.6708484 -0.41827324 0.612380445
vn -0.3516525 -0.929325759 0.112668954
vn 0.346618742 -0.888106048 -0.3018658
vn 0.7493837 -0.489886731 -0.4454605
vn -0.805046141 0.00303421146 -0.5932044
vn 0.339390367 -0.5091702 0.790923536
vn 0.193047658 0.509743452 -0.8383879
vn -0.36817047 0.851993263 -0.372233778
vn -0.770062447 0.308023 0.558682
vn -0.338889331 -0.756880343 0.5588257
vn 0.3259592 -0.871216357 -0.367059618
vn 0.370205164 -0.626295745 -0.6860772
vn 0.3785072 0.583964944 -0.7181347
vn 0.0569101162 0.917672753 -0.393240422
vn -0.514799356 0.6319944 0.5792796
vn -0.293447226 -0.491804957 0.819766164
vn 0.4251651 -0.904914856 -0.0190719645
vn 0.6395563 -0.5424923 -0.5446741
vn 0.4654884 0.5890835 -0.660531
vn 0.189281344 0.9282769 -0.3201168
vn -0.4325729 0.653561234 0.6210785
vn -0.371732771 -0.5045415 0.7792641
vn 0.300750077 -0.9497586 -0.0866485238
vn 0.5738544 -0.56908226 -0.588928342
vn 0.5651044 0.572173059 -0.5943693
vn 0.3582551 0.9035696 -0.234979481
vn -0.3120649 0.6596809 0.6836935
vn -0.464611053 -0.500998557 0.7301623
vn 0.121642776 -0.976402044 -0.178443372
vn 0.474315166 -0.58806926 -0.6551333
vn 0.6326232 0.5460442 -0.549202859
vn 0.5042388 0.836690247 -0.21375829
vn -0.182804137 0.674003541 0.715752661
vn -0.5326294 -0.4446619 0.7201263
vn -0.0571729764 -0.974859238 -0.215361863
vn 0.385129333 -0.584444642 -0.7142127
vn 0.674658835 0.5242655 -0.519597
vn 0.634673 0.669734836 -0.385545671
vn 0.02569224 0.79582566 0.604980648
vn -0.5294285 -0.211769938 0.8214981
vn -0.2635127 -0.9639257 -0.0375248864
vn 0.346256047 -0.5768926 -0.739798367
vn -0.782102466 -0.341256917 -0.5214015
vn 0.7821232 -0.3412319 0.521386564
vn 0.401197225 -0.9159576 -0.007894067
vn 0.2551426 -0.9628545 0.08839332
vn 0.146529227 -0.9627627 0.227194175
vn 0.08811112 -0.9168481 0.389391571
vn 0.08777592 -0.993750155 0.06896448
vn 0.380483419 -0.9237394 -0.044022873
vn 0.295137972 -0.9547969 0.0354482159
vn 0.169303432 -0.9708362 0.1697443
vn 0.07718316 -0.9422842 0.3257961
vn 0.0593943819 -0.9252274 0.3747354
vn 0.3446984 -0.933660567 -0.097267814
vn 0.279744357 -0.9599714 -0.0140739679
vn 0.1499045 -0.979725063 0.1329194
vn 0.0389906578 -0.9553468 0.292903155
vn 0.00803542 -0.9321148 0.3620741
vn 0.290086 -0.9448049 -0.152294859
vn 0.239458874 -0.9686529 -0.0661128238
vn 0.1107142 -0.989631236 0.091500625
vn -0.0137317646 -0.967624366 0.252020866
vn -0.0555933677 -0.9417481 0.331692427
vn 0.22460857 -0.952989638 -0.203375429
vn 0.1861397 -0.975332737 -0.118651137
vn 0.06457739 -0.996842861 0.04619561
vn -0.06892236 -0.9769013 0.202270731
vn -0.123916 -0.950445831 0.285127133
vn 0.160907641 -0.9575815 -0.239052922
vn 0.132783964 -0.9774804 -0.164013579
vn 0.0236427449 -0.9997156 0.00313034072
vn -0.112702325 -0.9821313 0.150719836
vn -0.1838996 -0.9551535 0.2320833
vn 0.108040325 -0.9606863 -0.255751967
vn 0.0923826545 -0.9750624 -0.2017894
vn 0.002265435 -0.9993485 -0.03601868
vn -0.130645588 -0.9863439 0.1002863
vn -0.225306749 -0.957780659 0.178586379
vn 0.0877760947 -0.99375 0.06896569
vn 0.0772193745 -0.958604634 -0.27407
vn 0.02433802 -0.9950164 -0.0966964662
vn -0.08789015 -0.995031953 0.04676416
vn -0.2503249 -0.957810044 0.141199768
vn 0.699647 0.5097431 0.5006555
vn 0.485203773 0.851993561 -0.196683243
vn -0.219528332 0.308022052 -0.9257051
vn -0.38549614 -0.756880939 -0.5277537
vn 0.21345517 -0.871216357 0.4420621
vn 0.490915239 -0.6262955 0.605604053
vn 0.5173138 0.583964 0.6255977
vn 0.341102451 0.9176727 0.203778937
vn -0.336719751 0.6319947 -0.6979989
vn -0.6438429 -0.491805136 -0.586169
vn -0.145920962 -0.904915 0.3997951
vn 0.256792367 -0.542492449 0.7998498
vn 0.430686682 0.5890842 0.683731437
vn 0.222691625 0.928276956 0.29784295
vn -0.406928957 0.6535614 -0.6381741
vn -0.5763462 -0.5045422 -0.6428547
vn -0.03568952 -0.94975847 0.310942233
vn 0.322913021 -0.569082 0.7562228
vn 0.3313023 0.572171032 0.7502394
vn 0.07911475 0.9035689 0.421074867
vn -0.51107645 0.6596819 -0.5510178
vn -0.495300055 -0.5009977 -0.7097036
vn 0.117931351 -0.976402 0.180917889
vn 0.42230913 -0.588069439 0.689803839
vn 0.2636441 0.5460377 0.7951947
vn 0.00337872282 0.836689651 0.547666848
vn -0.5903851 0.674004555 -0.444030672
vn -0.459875226 -0.4446606 -0.7686298
vn 0.220785111 -0.974859238 0.0300561879
vn 0.5111468 -0.584444344 0.6302014
vn 0.220146313 0.524263442 0.822607636
vn 0.111786388 0.6697314 0.734141469
vn -0.5683247 0.7958262 -0.20896849
vn -0.5546788 -0.21177122 -0.8046641
vn 0.13598913 -0.9639257 -0.228810057
vn 0.549715638 -0.576892138 0.6041591
vn 0.7820996 -0.341260016 -0.52140373
vn -0.782088041 -0.34125638 0.5214236
vn -0.08725044 -0.915957749 0.3916744
vn -0.146248713 -0.9628547 0.226985261
vn -0.255411923 -0.9627627 0.0886159539
vn -0.399182081 -0.91684854 -0.0065175863
vn -0.08777466 -0.993750036 0.06896707
vn -0.0472467579 -0.9237393 0.3800966
vn -0.104269393 -0.9547968 0.278371871
vn -0.204981178 -0.970836341 0.124336332
vn -0.3348073 -0.9422843 -0.00208912976
vn -0.378147721 -0.9252277 -0.0309512783
vn 0.0129529843 -0.933660567 0.35792467
vn -0.05251118 -0.959971368 0.275131851
vn -0.16461198 -0.979725 0.114200734
vn -0.293812156 -0.955346763 -0.0314151272
vn -0.353695363 -0.9321148 -0.07785675
vn 0.0793384761 -0.9448049 0.317882
vn 0.00758140767 -0.9686529 0.248302191
vn -0.115097038 -0.989631236 0.0859224945
vn -0.241616786 -0.967624366 -0.0729683042
vn -0.3091221 -0.941748261 -0.132491156
vn 0.144460663 -0.9529897 0.266348749
vn 0.07124314 -0.975332737 0.208926976
vn -0.0601626821 -0.996843 0.05181442
vn -0.180221632 -0.9769014 -0.114821412
vn -0.247714341 -0.95044595 -0.187856853
vn 0.194196224 -0.957581639 0.212897539
vn 0.12794137 -0.977480531 0.167818487
vn -0.008635101 -0.9997156 0.0222308263
vn -0.119776137 -0.9821312 -0.145161867
vn -0.181984946 -0.955153465 -0.233587742
vn 0.2229292 -0.9606863 0.165482074
vn 0.174203128 -0.9750623 0.137501776
vn 0.03446009 -0.9993486 0.0107229
vn -0.066529125 -0.986343861 -0.150663614
vn -0.1202099 -0.95778054 -0.261162579
vn -0.08775321 -0.9937517 0.06897153
vn 0.248018965 -0.958604634 0.139870062
vn 0.0881929249 -0.9950163 0.0465247557
vn -0.0246423818 -0.9950319 -0.09645928
vn -0.07796582 -0.9578099 -0.2766253
vn 0.193047628 0.5097428 -0.8383883
vn -0.368171066 0.8519933 -0.372233152
vn -0.7700622 0.308021843 0.5586829
vn -0.338888377 -0.7568812 0.5588252
vn 0.325959265 -0.871216 -0.367060184
vn 0.370205343 -0.626295865 -0.6860769
vn 0.378507555 0.5839643 -0.7181349
vn 0.0569092445 0.91767323 -0.393239319
vn -0.5147995 0.631993949 0.5792799
vn -0.293446928 -0.4918064 0.819765449
vn 0.425165683 -0.904914558 -0.01907278
vn 0.6395569 -0.5424903 -0.54467535
vn 0.465489 0.5890821 -0.660531759
vn 0.1892814 0.928276837 -0.3201168
vn -0.432572424 0.653562 0.621078
vn -0.371732682 -0.5045423 0.7792638
vn 0.300750881 -0.9497582 -0.08664963
vn 0.5738553 -0.569079936 -0.5889296
vn 0.565105259 0.5721696 -0.594371855
vn 0.3582565 0.9035684 -0.234982
vn -0.312063366 0.65968287 0.6836921
vn -0.464611083 -0.5009971 0.730163336
vn 0.121642977 -0.976402 -0.178443223
vn 0.474315673 -0.588068545 -0.6551335
vn 0.632623851 0.5460392 -0.549207
vn 0.5042393 0.8366895 -0.213760376
vn -0.182804078 0.6740036 0.715752661
vn -0.5326292 -0.444659233 0.7201279
vn -0.05717252 -0.9748592 -0.215362191
vn 0.385129929 -0.584444 -0.7142129
vn 0.6746586 0.5242636 -0.5195993
vn 0.6346739 0.6697324 -0.385548562
vn 0.0256858878 0.7958209 0.604987
vn -0.5294284 -0.211769119 0.8214983
vn -0.26351124 -0.963926 -0.03752747
vn 0.346258342 -0.576889 -0.7398001
vn -0.7821012 -0.341260761 -0.52140075
vn 0.7820993 -0.3412497 0.5214109
vn 0.401197 -0.915957749 -0.007893962
vn 0.255142 -0.9628547 0.08839375
vn 0.146529227 -0.9627627 0.227193967
vn 0.08811134 -0.916848242 0.389391273
vn 0.08777608 -0.9937495 0.06897271
vn 0.3804834 -0.9237393 -0.044022873
vn 0.2951379 -0.9547969 0.03544835
vn 0.169303417 -0.970836341 0.169744357
vn 0.07718327 -0.9422843 0.32579577
vn 0.0593944825 -0.9252275 0.3747351
vn 0.34469822 -0.933660567 -0.09726778
vn 0.279744267 -0.959971368 -0.0140740005
vn 0.14990443 -0.979725 0.132919386
vn 0.03899061 -0.9553468 0.292903066
vn 0.00803537853 -0.9321148 0.362073839
vn 0.290086031 -0.944804847 -0.15229474
vn 0.239458919 -0.9686529 -0.0661127344
vn 0.11071422 -0.9896312 0.09150063
vn -0.0137318317 -0.9676243 0.252020866
vn -0.0555934347 -0.9417482 0.3316922
vn 0.22460857 -0.952989638 -0.203375533
vn 0.186139688 -0.975332737 -0.118651107
vn 0.0645774 -0.9968429 0.0461956449
vn -0.06892238 -0.976901352 0.20227097
vn -0.123915948 -0.9504459 0.285127133
vn 0.1609076 -0.9575815 -0.239053085
vn 0.132783875 -0.9774804 -0.164013654
vn 0.023642702 -0.9997156 0.00313025643
vn -0.112702385 -0.9821312 0.150719836
vn -0.183899626 -0.955153465 0.23208347
vn 0.108040407 -0.9606862 -0.2557523
vn 0.09238261 -0.9750622 -0.201789364
vn 0.00226539513 -0.9993486 -0.03601866
vn -0.130645752 -0.9863439 0.100286312
vn -0.225307152 -0.9577806 0.178586408
vn 0.087776266 -0.993749261 0.06897745
vn 0.07721944 -0.9586045 -0.274070382
vn 0.0243380181 -0.995016456 -0.09669628
vn -0.08789035 -0.9950319 0.0467643142
vn -0.250325739 -0.957809746 0.1412001
f 1/1/1 2/2/2 10/10/10
f 1/1/1 10/10/10 9/9/9
f 2/2/2 3/3/3 11/11/11
f 2/2/2 11/11/11 10/10/10
f 3/3/3 4/4/4 12/12/12
f 3/3/3 12/12/12 11/11/11
f 4/4/4 5/5/5 13/13/13
f 4/4/4 13/13/13 12/12/12
f 5/5/5 6/6/6 14/14/14
f 5/5/5 14/14/14 13/13/13
f 6/6/6 7/7/7 15/15/15
f 6/6/6 15/15/15 14/14/14
f 7/7/7 8/8/8 16/16/16
f 7/7/7 16/16/16 15/15/15
f 9/9/9 10/10/10 18/18/18
f 9/9/9 18/18/18 17/17/17
f 10/10/10 11/11/11 19/19/19
f 10/10/10 19/19/19 18/18/18
f 11/11/11 12/12/12 20/20/20
f 11/11/11 20/20/20 19/19/19
f 12/12/12 13/13/13 21/21/21
f 12/12/12 21/21/21 20/20/20
f 13/13/13 14/14/14 22/22/22
f 13/13/13 22/22/22 21/21/21
f 14/14/14 15/15/15 23/23/23
f 14/14/14 23/23/23 22/22/22
f 15/15/15 16/16/16 24/24/24
f 15/15/15 24/24/24 23/23/23
f 17/17/17 18/18/18 26/26/26
f 17/17/17 26/26/26 25/25/25
f 18/18/18 19/19/19 27/27/27
f 18/18/18 27/27/27 26/26/26
f 19/19/19 20/20/20 28/28/28
f 19/19/19 28/28/28 27/27/27
f 20/20/20 21/21/21 29/29/29
f 20/20/20 29/29/29 28/28/28
f 21/21/21 22/22/22 30/30/30
f 21/21/21 30/30/30 29/29/29
f 22/22/22 23/23/23 31/31/31
f 22/22/22 31/31/31 30/30/30
f 23/23/23 24/24/24 32/32/32
f 23/23/23 32/32/32 31/31/31
f 25/25/25 26/26/26 34/34/34
f 25/25/25 34/34/34 33/33/33
f 26/26/26 27/27/27 35/35/35
f 26/26/26 35/35/35 34/34/34
f 27/27/27 28/28/28 36/36/36
f 27/27/27 36/36/36 35/35/35
f 28/28/28 29/29/29 37/37/37
f 28/28/28 37/37/37 36/36/36
f 29/29/29 30/30/30 38/38/38
f 29/29/29 38/38/38 37/37/37
f 30/30/30 31/31/31 39/39/39
f 30/30/30 39/39/39 38/38/38
f 31/31/31 32/32/32 40/40/40
f 31/31/31 40/40/40 39/39/39
f 33/33/33 34/34/34 42/42/42
f 33/33/33 42/42/42 41/41/41
f 34/34/34 35/35/35 43/43/43
f 34/34/34 43/43/43 42/42/42
f 35/35/35 36/36/36 44/44/44
f 35/35/35 44/44/44 43/43/43
f 36/36/36 37/37/37 45/45/45
f 36/36/36 45/45/45 44/44/44
f 37/37/37 38/38/38 46/46/46
f 37/37/37 46/46/46 45/45/45
f 38/38/38 39/39/39 47/47/47
f 38/38/38 47/47/47 46/46/46
f 39/39/39 40/40/40 48/48/48
f 39/39/39 48/48/48 47/47/47
f 41/41/41 42/42/42 50/50/50
f 41/41/41 50/50/50 49/49/49
f 42/42/42 43/43/43 51/51/51
f 42/42/42 51/51/51 50/50/50
f 43/43/43 44/44/44 52/52/52
f 43/43/43 52/52/52 51/51/51
f 44/44/44 45/45/45 53/53/53
f 44/44/44 53/53/53 52/52/52
f 45/45/45 46/46/46 54/54/54
f 45/45/45 54/54/54 53/53/53
f 46/46/46 47/47/47 55/55/55
f 46/46/46 55/55/55 54/54/54
f 47/47/47 48/48/48 56/56/56
f 47/47/47 56/56/56 55/55/55
f 49/49/49 50/50/50 58/58/58
f 49/49/49 58/58/58 57/57/57
f 50/50/50 51/51/51 59/59/59
f 50/50/50 59/59/59 58/58/58
f 51/51/51 52/52/52 60/60/60
f 51/51/51 60/60/60 59/59/59
f 52/52/52 53/53/53 61/61/61
f 52/52/52 61/61/61 60/60/60
f 53/53/53 54/54/54 62/62/62
f 53/53/53 62/62/62 61/61/61
f 54/54/54 55/55/55 63/63/63
f 54/54/54 63/63/63 62/62/62
f 55/55/55 56/56/56 64/64/64
f 55/55/55 64/64/64 63/63/63
f 57/57/57 58/58/58 66/66/66
f 57/57/57 66/66/66 65/65/65
f 58/58/58 59/59/59 67/67/67
f 58/58/58 67/67/67 66/66/66
f 59/59/59 60/60/60 68/68/68
f 59/59/59 68/68/68 67/67/67
f 60/60/60 61/61/61 69/69/69
f 60/60/60 69/69/69 68/68/68
f 61/61/61 62/62/62 70/70/70
f 61/61/61 70/70/70 69/69/69
f 62/62/62 63/63/63 71/71/71
f 62/62/62 71/71/71 70/70/70
f 63/63/63 64/64/64 72/72/72
f 63/63/63 72/72/72 71/71/71
f 65/65/65 66/66/66 74/74/74
f 65/65/65 74/74/74 73/73/73
f 66/66/66 67/67/67 75/75/75
f 66/66/66 75/75/75 74/74/74
f 67/67/67 68/68/68 76/76/76
f 67/67/67 76/76/76 75/75/75
f 68/68/68 69/69/69 77/77/77
f 68/68/68 77/77/77 76/76/76
f 69/69/69 70/70/70 78/78/78
f 69/69/69 78/78/78 77/77/77
f 70/70/70 71/71/71 79/79/79
f 70/70/70 79/79/79 78/78/78
f 71/71/71 72/72/72 80/80/80
f 71/71/71 80/80/80 79/79/79
f 73/73/73 74/74/74 82/82/82
f 73/73/73 82/82/82 81/81/81
f 74/74/74 75/75/75 83/83/83
f 74/74/74 83/83/83 82/82/82
f 75/75/75 76/76/76 84/84/84
f 75/75/75 84/84/84 83/83/83
f 76/76/76 77/77/77 85/85/85
f 76/76/76 85/85/85 84/84/84
f 77/77/77 78/78/78 86/86/86
f 77/77/77 86/86/86 85/85/85
f 78/78/78 79/79/79 87/87/87
f 78/78/78 87/87/87 86/86/86
f 79/79/79 80/80/80 88/88/88
f 79/79/79 88/88/88 87/87/87
f 81/81/81 82/82/82 90/90/90
f 81/81/81 90/90/90 89/89/89
f 82/82/82 83/83/83 91/91/91
f 82/82/82 91/91/91 90/90/90
f 83/83/83 84/84/84 92/92/92
f 83/83/83 92/92/92 91/91/91
f 84/84/84 85/85/85 93/93/93
f 84/84/84 93/93/93 92/92/92
f 85/85/85 86/86/86 94/94/94
f 85/85/85 94/94/94 93/93/93
f 86/86/86 87/87/87 95/95/95
f 86/86/86 95/95/95 94/94/94
f 87/87/87 88/88/88 96/96/96
f 87/87/87 96/96/96 95/95/95
f 89/89/89 90/90/90 98/98/98
f 89/89/89 98/98/98 97/97/97
f 90/90/90 91/91/91 99/99/99
f 90/90/90 99/99/99 98/98/98
f 91/91/91 92/92/92 100/100/100
f 91/91/91 100/100/100 99/99/99
f 92/92/92 93/93/93 101/101/101
f 92/92/92 101/101/101 100/100/100
f 93/93/93 94/94/94 102/102/102
f 93/93/93 102/102/102 101/101/101
f 94/94/94 95/95/95 103/103/103
f 94/94/94 103/103/103 102/102/102
f 95/95/95 96/96/96 104/104/104
f 95/95/95 104/104/104 103/103/103
f 97/97/97 98/98/98 106/106/106
f 97/97/97 106/106/106 105/105/105
f 98/98/98 99/99/99 107/107/107
f 98/98/98 107/107/107 106/106/106
f 99/99/99 100/100/100 108/108/108
f 99/99/99 108/108/108 107/107/107
f 100/100/100 101/101/101 109/109/109
f 100/100/100 109/109/109 108/108/108
f 101/101/101 102/102/102 110/110/110
f 101/101/101 110/110/110 109/109/109
f 102/102/102 103/103/103 111/111/111
f 102/102/102 111/111/111 110/110/110
f 103/103/103 104/104/104 112/112/112
f 103/103/103 112/112/112 111/111/111
f 105/105/105 106/106/106 114/114/114
f 105/105/105 114/114/114 113/113/113
f 106/106/106 107/107/107 115/115/115
f 106/106/106 115/115/115 114/114/114
f 107/107/107 108/108/108 116/116/116
f 107/107/107 116/116/116 115/115/115
f 108/108/108 109/109/109 117/117/117
f 108/108/108 117/117/117 116/116/116
f 109/109/109 110/110/110 118/118/118
f 109/109/109 118/118/118 117/117/117
f 110/110/110 111/111/111 119/119/119
f 110/110/110 119/119/119 118/118/118
f 111/111/111 112/112/112 120/120/120
f 111/111/111 120/120/120 119/119/119
f 113/113/113 114/114/114 122/122/122
f 113/113/113 122/122/122 121/121/121
f 114/114/114 115/115/115 123/123/123
f 114/114/114 123/123/123 122/122/122
f 115/115/115 116/116/116 124/124/124
f 115/115/115 124/124/124 123/123/123
f 116/116/116 117/117/117 125/125/125
f 116/116/116 125/125/125 124/124/124
f 117/117/117 118/118/118 126/126/126
f 117/117/117 126/126/126 125/125/125
f 118/118/118 119/119/119 127/127/127
f 118/118/118 127/127/127 126/126/126
f 119/119/119 120/120/120 128/128/128
f 119/119/119 128/128/128 127/127/127
f 121/121/121 122/122/122 130/130/130
f 121/121/121 130/130/130 129/129/129
f 122/122/122 123/123/123 131/131/131
f 122/122/122 131/131/131 130/130/130
f 123/123/123 124/124/124 132/132/132
f 123/123/123 132/132/132 131/131/131
f 124/124/124 125/125/125 133/133/133
f 124/124/124 133/133/133 132/132/132
f 125/125/125 126/126/126 134/134/134
f 125/125/125 134/134/134 133/133/133
f 126/126/126 127/127/127 135/135/135
f 126/126/126 135/135/135 134/134/134
f 127/127/127 128/128/128 136/136/136
f 127/127/127 136/136/136 135/135/135
f 129/129/129 130/130/130 138/138/138
f 129/129/129 138/138/138 137/137/137
f 130/130/130 131/131/131 139/139/139
f 130/130/130 139/139/139 138/138/138
f 131/131/131 132/132/132 140/140/140
f 131/131/131 140/140/140 139/139/139
f 132/132/132 133/133/133 141/141/141
f 132/132/132 141/141/141 140/140/140
f 133/133/133 134/134/134 142/142/142
f 133/133/133 142/142/142 141/141/141
f 134/134/134 135/135/135 143/143/143
f 134/134/134 143/143/143 142/142/142
f 135/135/135 136/136/136 144/144/144
f 135/135/135 144/144/144 143/143/143
f 137/137/137 138/138/138 146/146/146
f 137/137/137 146/146/146 145/145/145
f 138/138/138 139/139/139 147/147/147
f 138/138/138 147/147/147 146/146/146
f 139/139/139 140/140/140 148/148/148
f 139/139/139 148/148/148 147/147/147
f 140/140/140 141/141/141 149/149/149
f 140/140/140 149/149/149 148/148/148
f 141/141/141 142/142/142 150/150/150
f 141/141/141 150/150/150 149/149/149
f 142/142/142 143/143/143 151/151/151
f 142/142/142 151/151/151 150/150/150
f 143/143/143 144/144/144 152/152/152
f 143/143/143 152/152/152 151/151/151
f 145/145/145 146/146/146 154/154/154
f 145/145/145 154/154/154 153/153/153
f 146/146/146 147/147/147 155/155/155
f 146/146/146 155/155/155 154/154/154
f 147/147/147 148/148/148 156/156/156
f 147/147/147 156/156/156 155/155/155
f 148/148/148 149/149/149 157/157/157
f 148/148/148 157/157/157 156/156/156
f 149/149/149 150/150/150 158/158/158
f 149/149/149 158/158/158 157/157/157
f 150/150/150 151/151/151 159/159/159
f 150/150/150 159/159/159 158/158/158
f 151/151/151 152/152/152 160/160/160
f 151/151/151 160/160/160 159/159/159
f 153/153/153 154/154/154 162/162/162
f 153/153/153 162/162/162 161/161/161
f 154/154/154 155/155/155 163/163/163
f 154/154/154 163/163/163 162/162/162
f 155/155/155 156/156/156 164/164/164
f 155/155/155 164/164/164 163/163/163
f 156/156/156 157/157/157 165/165/165
f 156/156/156 165/165/165 164/164/164
f 157/157/157 158/158/158 166/166/166
f 157/157/157 166/166/166 165/165/165
f 158/158/158 159/159/159 167/167/167
f 158/158/158 167/167/167 166/166/166
f 159/159/159 160/160/160 168/168/168
f 159/159/159 168/168/168 167/167/167
f 161/161/161 162/162/162 170/170/170
f 161/161/161 170/170/170 169/169/169
f 162/162/162 163/163/163 171/171/171
f 162/162/162 171/171/171 170/170/170
f 163/163/163 164/164/164 172/172/172
f 163/163/163 172/172/172 171/171/171
f 164/164/164 165/165/165 173/173/173
f 164/164/164 173/173/173 172/172/172
f 165/165/165 166/166/166 174/174/174
f 165/165/165 174/174/174 173/173/173
f 166/166/166 167/167/167 175/175/175
f 166/166/166 175/175/175 174/174/174
f 167/167/167 168/168/168 176/176/176
f 167/167/167 176/176/176 175/175/175
f 169/169/169 170/170/170 178/178/178
f 169/169/169 178/178/178 177/177/177
f 170/170/170 171/171/171 179/179/179
f 170/170/170 179/179/179 178/178/178
f 171/171/171 172/172/172 180/180/180
f 171/171/171 180/180/180 179/179/179
f 172/172/172 173/173/173 181/181/181
f 172/172/172 181/181/181 180/180/180
f 173/173/173 174/174/174 182/182/182
f 173/173/173 182/182/182 181/181/181
f 174/174/174 175/175/175 183/183/183
f 174/174/174 183/183/183 182/182/182
f 175/175/175 176/176/176 184/184/184
f 175/175/175 184/184/184 183/183/183
f 177/177/177 178/178/178 186/186/186
f 177/177/177 186/186/186 185/185/185
f 178/178/178 179/179/179 187/187/187
f 178/178/178 187/187/187 186/186/186
f 179/179/179 180/180/180 188/188/188
f 179/179/179 188/188/188 187/187/187
f 180/180/180 181/181/181 189/189/189
f 180/180/180 189/189/189 188/188/188
f 181/181/181 182/182/182 190/190/190
f 181/181/181 190/190/190 189/189/189
f 182/182/182 183/183/183 191/191/191
f 182/182/182 191/191/191 190/190/190
f 183/183/183 184/184/184 192/192/192
f 183/183/183 192/192/192 191/191/191
f 185/185/185 186/186/186 194/194/194
f 185/185/185 194/194/194 193/193/193
f 186/186/186 187/187/187 195/195/195
f 186/186/186 195/195/195 194/194/194
f 187/187/187 188/188/188 196/196/196
f 187/187/187 196/196/196 195/195/195
f 188/188/188 189/189/189 197/197/197
f 188/188/188 197/197/197 196/196/196
f 189/189/189 190/190/190 198/198/198
f 189/189/189 198/198/198 197/197/197
f 190/190/190 191/191/191 199/199/199
f 190/190/190 199/199/199 198/198/198
f 191/191/191 192/192/192 200/200/200
f 191/191/191 200/200/200 199/199/199
f 193/193/193 194/194/194 202/202/202
f 193/193/193 202/202/202 201/201/201
f 194/194/194 195/195/195 203/203/203
f 194/194/194 203/203/203 202/202/202
f 195/195/195 196/196/196 204/204/204
f 195/195/195 204/204/204 203/203/203
f 196/196/196 197/197/197 205/205/205
f 196/196/196 205/205/205 204/204/204
f 197/197/197 198/198/198 206/206/206
f 197/197/197 206/206/206 205/205/205
f 198/198/198 199/199/199 207/207/207
f 198/198/198 207/207/207 206/206/206
f 199/199/199 200/200/200 208/208/208
f 199/199/199 208/208/208 207/207/207
f 201/201/201 202/202/202 210/210/210
f 201/201/201 210/210/210 209/209/209
f 202/202/202 203/203/203 211/211/211
f 202/202/202 211/211/211 210/210/210
f 203/203/203 204/204/204 212/212/212
f 203/203/203 212/212/212 211/211/211
f 204/204/204 205/205/205 213/213/213
f 204/204/204 213/213/213 212/212/212
f 205/205/205 206/206/206 214/214/214
f 205/205/205 214/214/214 213/213/213
f 206/206/206 207/207/207 215/215/215
f 206/206/206 215/215/215 214/214/214
f 207/207/207 208/208/208 216/216/216
f 207/207/207 216/216/216 215/215/215
f 217/217/217 2/2/2 1/1/1
f 218/218/218 209/209/209 210/210/210
f 217/217/217 3/3/3 2/2/2
f 218/218/218 210/210/210 211/211/211
f 217/217/217 4/4/4 3/3/3
f 218/218/218 211/211/211 212/212/212
f 217/217/217 5/5/5 4/4/4
f 218/218/218 212/212/212 213/213/213
f 217/217/217 6/6/6 5/5/5
f 218/218/218 213/213/213 214/214/214
f 217/217/217 7/7/7 6/6/6
f 218/218/218 214/214/214 215/215/215
f 217/217/217 8/8/8 7/7/7
f 218/218/218 215/215/215 216/216/216
f 219/219/219 220/220/220 226/226/226
f 219/219/219 226/226/226 225/225/225
f 220/220/220 221/221/221 227/227/227
f 220/220/220 227/227/227 226/226/226
f 221/221/221 222/222/222 228/228/228
f 221/221/221 228/228/228 227/227/227
f 222/222/222 223/223/223 229/229/229
f 222/222/222 229/229/229 228/228/228
f 223/223/223 224/224/224 230/230/230
f 223/223/223 230/230/230 229/229/229
f 225/225/225 226/226/226 232/232/232
f 225/225/225 232/232/232 231/231/231
f 226/226/226 227/227/227 233/233/233
f 226/226/226 233/233/233 232/232/232
f 227/227/227 228/228/228 234/234/234
f 227/227/227 234/234/234 233/233/233
f 228/228/228 229/229/229 235/235/235
f 228/228/228 235/235/235 234/234/234
f 229/229/229 230/230/230 236/236/236
f 229/229/229 236/236/236 235/235/235
f 231/231/231 232/232/232 238/238/238
f 231/231/231 238/238/238 237/237/237
f 232/232/232 233/233/233 239/239/239
f 232/232/232 239/239/239 238/238/238
f 233/233/233 234/234/234 240/240/240
f 233/233/233 240/240/240 239/239/239
f 234/234/234 235/235/235 241/241/241
f 234/234/234 241/241/241 240/240/240
f 235/235/235 236/236/236 242/242/242
f 235/235/235 242/242/242 241/241/241
f 237/237/237 238/238/238 244/244/244
f 237/237/237 244/244/244 243/243/243
f 238/238/238 239/239/239 245/245/245
f 238/238/238 245/245/245 244/244/244
f 239/239/239 240/240/240 246/246/246
f 239/239/239 246/246/246 245/245/245
f 240/240/240 241/241/241 247/247/247
f 240/240/240 247/247/247 246/246/246
f 241/241/241 242/242/242 248/248/248
f 241/241/241 248/248/248 247/247/247
f 243/243/243 244/244/244 250/250/250
f 243/243/243 250/250/250 249/249/249
f 244/244/244 245/245/245 251/251/251
f 244/244/244 251/251/251 250/250/250
f 245/245/245 246/246/246 252/252/252
f 245/245/245 252/252/252 251/251/251
f 246/246/246 247/247/247 253/253/253
f 246/246/246 253/253/253 252/252/252
f 247/247/247 248/248/248 254/254/254
f 247/247/247 254/254/254 253/253/253
f 255/255/255 220/220/220 219/219/219
f 256/256/256 249/249/249 250/250/250
f 255/255/255 221/221/221 220/220/220
f 256/256/256 250/250/250 251/251/251
f 255/255/255 222/222/222 221/221/221
f 256/256/256 251/251/251 252/252/252
f 255/255/255 223/223/223 222/222/222
f 256/256/256 252/252/252 253/253/253
f 255/255/255 224/224/224 223/223/223
f 256/256/256 253/253/253 254/254/254
f 257/257/257 258/258/258 263/263/263
f 257/257/257 263/263/263 262/262/262
f 258/258/258 259/259/259 264/264/264
f 258/258/258 264/264/264 263/263/263
f 259/259/259 260/260/260 265/265/265
f 259/259/259 265/265/265 264/264/264
f 260/260/260 261/261/261 266/266/266
f 260/260/260 266/266/266 265/265/265
f 262/262/262 263/263/263 268/268/268
f 262/262/262 268/268/268 267/267/267
f 263/263/263 264/264/264 269/269/269
f 263/263/263 269/269/269 268/268/268
f 264/264/264 265/265/265 270/270/270
f 264/264/264 270/270/270 269/269/269
f 265/265/265 266/266/266 271/271/271
f 265/265/265 271/271/271 270/270/270
f 267/267/267 268/268/268 273/273/273
f 267/267/267 273/273/273 272/272/272
f 268/268/268 269/269/269 274/274/274
f 268/268/268 274/274/274 273/273/273
f 269/269/269 270/270/270 275/275/275
f 269/269/269 275/275/275 274/274/274
f 270/270/270 271/271/271 276/276/276
f 270/270/270 276/276/276 275/275/275
f 272/272/272 273/273/273 278/278/278
f 272/272/272 278/278/278 277/277/277
f 273/273/273 274/274/274 279/279/279
f 273/273/273 279/279/279 278/278/278
f 274/274/274 275/275/275 280/280/280
f 274/274/274 280/280/280 279/279/279
f 275/275/275 276/276/276 281/281/281
f 275/275/275 281/281/281 280/280/280
f 277/277/277 278/278/278 283/283/283
f 277/277/277 283/283/283 282/282/282
f 278/278/278 279/279/279 284/284/284
f 278/278/278 284/284/284 283/283/283
f 279/279/279 280/280/280 285/285/285
f 279/279/279 285/285/285 284/284/284
f 280/280/280 281/281/281 286/286/286
f 280/280/280 286/286/286 285/285/285
f 282/282/282 283/283/283 288/288/288
f 282/282/282 288/288/288 287/287/287
f 283/283/283 284/284/284 289/289/289
f 283/283/283 289/289/289 288/288/288
f 284/284/284 285/285/285 290/290/290
f 284/284/284 290/290/290 289/289/289
f 285/285/285 286/286/286 291/291/291
f 285/285/285 291/291/291 290/290/290
f 287/287/287 288/288/288 293/293/293
f 287/287/287 293/293/293 292/292/292
f 288/288/288 289/289/289 294/294/294
f 288/288/288 294/294/294 293/293/293
f 289/289/289 290/290/290 295/295/295
f 289/289/289 295/295/295 294/294/294
f 290/290/290 291/291/291 296/296/296
f 290/290/290 296/296/296 295/295/295
f 297/297/297 298/298/298 304/304/304
f 297/297/297 304/304/304 303/303/303
f 298/298/298 299/299/299 305/305/305
f 298/298/298 305/305/305 304/304/304
f 299/299/299 300/300/300 306/306/306
f 299/299/299 306/306/306 305/305/305
f 300/300/300 301/301/301 307/307/307
f 300/300/300 307/307/307 306/306/306
f 301/301/301 302/302/302 308/308/308
f 301/301/301 308/308/308 307/307/307
f 303/303/303 304/304/304 310/310/310
f 303/303/303 310/310/310 309/309/309
f 304/304/304 305/305/305 311/311/311
f 304/304/304 311/311/311 310/310/310
f 305/305/305 306/306/306 312/312/312
f 305/305/305 312/312/312 311/311/311
f 306/306/306 307/307/307 313/313/313
f 306/306/306 313/313/313 312/312/312
f 307/307/307 308/308/308 314/314/314
f 307/307/307 314/314/314 313/313/313
f 309/309/309 310/310/310 316/316/316
f 309/309/309 316/316/316 315/315/315
f 310/310/310 311/311/311 317/317/317
f 310/310/310 317/317/317 316/316/316
f 311/311/311 312/312/312 318/318/318
f 311/311/311 318/318/318 317/317/317
f 312/312/312 313/313/313 319/319/319
f 312/312/312 319/319/319 318/318/318
f 313/313/313 314/314/314 320/320/320
f 313/313/313 320/320/320 319/319/319
f 315/315/315 316/316/316 322/322/322
f 315/315/315 322/322/322 321/321/321
f 316/316/316 317/317/317 323/323/323
f 316/316/316 323/323/323 322/322/322
f 317/317/317 318/318/318 324/324/324
f 317/317/317 324/324/324 323/323/323
f 318/318/318 319/319/319 325/325/325
f 318/318/318 325/325/325 324/324/324
f 319/319/319 320/320/320 326/326/326
f 319/319/319 326/326/326 325/325/325
f 321/321/321 322/322/322 328/328/328
f 321/321/321 328/328/328 327/327/327
f 322/322/322 323/323/323 329/329/329
f 322/322/322 329/329/329 328/328/328
f 323/323/323 324/324/324 330/330/330
f 323/323/323 330/330/330 329/329/329
f 324/324/324 325/325/325 331/331/331
f 324/324/324 331/331/331 330/330/330
f 325/325/325 326/326/326 332/332/332
f 325/325/325 332/332/332 331/331/331
f 333/333/333 298/298/298 297/297/297
f 334/334/334 327/327/327 328/328/328
f 333/333/333 299/299/299 298/298/298
f 334/334/334 328/328/328 329/329/329
f 333/333/333 300/300/300 299/299/299
f 334/334/334 329/329/329 330/330/330
f 333/333/333 301/301/301 300/300/300
f 334/334/334 330/330/330 331/331/331
f 333/333/333 302/302/302 301/301/301
f 334/334/334 331/331/331 332/332/332
f 335/335/335 336/336/336 341/341/341
f 335/335/335 341/341/341 340/340/340
f 336/336/336 337/337/337 342/342/342
f 336/336/336 342/342/342 341/341/341
f 337/337/337 338/338/338 343/343/343
f 337/337/337 343/343/343 342/342/342
f 338/338/338 339/339/339 344/344/344
f 338/338/338 344/344/344 343/343/343
f 340/340/340 341/341/341 346/346/346
f 340/340/340 346/346/346 345/345/345
f 341/341/341 342/342/342 347/347/347
f 341/341/341 347/347/347 346/346/346
f 342/342/342 343/343/343 348/348/348
f 342/342/342 348/348/348 347/347/347
f 343/343/343 344/344/344 349/349/349
f 343/343/343 349/349/349 348/348/348
f 345/345/345 346/346/346 351/351/351
f 345/345/345 351/351/351 350/350/350
f 346/346/346 347/347/347 352/352/352
f 346/346/346 352/352/352 351/351/351
f 347/347/347 348/348/348 353/353/353
f 347/347/347 353/353/353 352/352/352
f 348/348/348 349/349/349 354/354/354
f 348/348/348 354/354/354 353/353/353
f 350/350/350 351/351/351 356/356/356
f 350/350/350 356/356/356 355/355/355
f 351/351/351 352/352/352 357/357/357
f 351/351/351 357/357/357 356/356/356
f 352/352/352 353/353/353 358/358/358
f 352/352/352 358/358/358 357/357/357
f 353/353/353 354/354/354 359/359/359
f 353/353/353 359/359/359 358/358/358
f 355/355/355 356/356/356 361/361/361
f 355/355/355 361/361/361 360/360/360
f 356/356/356 357/357/357 362/362/362
f 356/356/356 362/362/362 361/361/361
f 357/357/357 358/358/358 363/363/363
f 357/357/357 363/363/363 362/362/362
f 358/358/358 359/359/359 364/364/364
f 358/358/358 364/364/364 363/363/363
f 360/360/360 361/361/361 366/366/366
f 360/360/360 366/366/366 365/365/365
f 361/361/361 362/362/362 367/367/367
f 361/361/361 367/367/367 366/366/366
f 362/362/362 363/363/363 368/368/368
f 362/362/362 368/368/368 367/367/367
f 363/363/363 364/364/364 369/369/369
f 363/363/363 369/369/369 368/368/368
f 365/365/365 366/366/366 371/371/371
f 365/365/365 371/371/371 370/370/370
f 366/366/366 367/367/367 372/372/372
f 366/366/366 372/372/372 371/371/371
f 367/367/367 368/368/368 373/373/373
f 367/367/367 373/373/373 372/372/372
f 368/368/368 369/369/369 374/374/374
f 368/368/368 374/374/374 373/373/373
f 375/375/375 376/376/376 382/382/382
f 375/375/375 382/382/382 381/381/381
f 376/376/376 377/377/377 383/383/383
f 376/376/376 383/383/383 382/382/382
f 377/377/377 378/378/378 384/384/384
f 377/377/377 384/384/384 383/383/383
f 378/378/378 379/379/379 385/385/385
f 378/378/378 385/385/385 384/384/384
f 379/379/379 380/380/380 386/386/386
f 379/379/379 386/386/386 385/385/385
f 381/381/381 382/382/382 388/388/388
f 381/381/381 388/388/388 387/387/387
f 382/382/382 383/383/383 389/389/389
f 382/382/382 389/389/389 388/388/388
f 383/383/383 384/384/384 390/390/390
f 383/383/383 390/390/390 389/389/389
f 384/384/384 385/385/385 391/391/391
f 384/384/384 391/391/391 390/390/390
f 385/385/385 386/386/386 392/392/392
f 385/385/385 392/392/392 391/391/391
f 387/387/387 388/388/388 394/394/394
f 387/387/387 394/394/394 393/393/393
f 388/388/388 389/389/389 395/395/395
f 388/388/388 395/395/395 394/394/394
f 389/389/389 390/390/390 396/396/396
f 389/389/389 396/396/396 395/395/395
f 390/390/390 391/391/391 397/397/397
f 390/390/390 397/397/397 396/396/396
f 391/391/391 392/392/392 398/398/398
f 391/391/391 398/398/398 397/397/397
f 393/393/393 394/394/394 400/400/400
f 393/393/393 400/400/400 399/399/399
f 394/394/394 395/395/395 401/401/401
f 394/394/394 401/401/401 400/400/400
f 395/395/395 396/396/396 402/402/402
f 395/395/395 402/402/402 401/401/401
f 396/396/396 397/397/397 403/403/403
f 396/396/396 403/403/403 402/402/402
f 397/397/397 398/398/398 404/404/404
f 397/397/397 404/404/404 403/403/403
f 399/399/399 400/400/400 406/406/406
f 399/399/399 406/406/406 405/405/405
f 400/400/400 401/401/401 407/407/407
f 400/400/400 407/407/407 406/406/406
f 401/401/401 402/402/402 408/408/408
f 401/401/401 408/408/408 407/407/407
f 402/402/402 403/403/403 409/409/409
f 402/402/402 409/409/409 408/408/408
f 403/403/403 404/404/404 410/410/410
f 403/403/403 410/410/410 409/409/409
f 411/411/411 376/376/376 375/375/375
f 412/412/412 405/405/405 406/406/406
f 411/411/411 377/377/377 376/376/376
f 412/412/412 406/406/406 407/407/407
f 411/411/411 378/378/378 377/377/377
f 412/412/412 407/407/407 408/408/408
f 411/411/411 379/379/379 378/378/378
f 412/412/412 408/408/408 409/409/409
f 411/411/411 380/380/380 379/379/379
f 412/412/412 409/409/409 410/410/410
f 413/413/413 414/414/414 419/419/419
f 413/413/413 419/419/419 418/418/418
f 414/414/414 415/415/415 420/420/420
f 414/414/414 420/420/420 419/419/419
f 415/415/415 416/416/416 421/421/421
f 415/415/415 421/421/421 420/420/420
f 416/416/416 417/417/417 422/422/422
f 416/416/416 422/422/422 421/421/421
f 418/418/418 419/419/419 424/424/424
f 418/418/418 424/424/424 423/423/423
f 419/419/419 420/420/420 425/425/425
f 419/419/419 425/425/425 424/424/424
f 420/420/420 421/421/421 426/426/426
f 420/420/420 426/426/426 425/425/425
f 421/421/421 422/422/422 427/427/427
f 421/421/421 427/427/427 426/426/426
f 423/423/423 424/424/424 429/429/429
f 423/423/423 429/429/429 428/428/428
f 424/424/424 425/425/425 430/430/430
f 424/424/424 430/430/430 429/429/429
f 425/425/425 426/426/426 431/431/431
f 425/425/425 431/431/431 430/430/430
f 426/426/426 427/427/427 432/432/432
f 426/426/426 432/432/432 431/431/431
f 428/428/428 429/429/429 434/434/434
f 428/428/428 434/434/434 433/433/433
f 429/429/429 430/430/430 435/435/435
f 429/429/429 435/435/435 434/434/434
f 430/430/430 431/431/431 436/436/436
f 430/430/430 436/436/436 435/435/435
f 431/431/431 432/432/432 437/437/437
f 431/431/431 437/437/437 436/436/436
f 433/433/433 434/434/434 439/439/439
f 433/433/433 439/439/439 438/438/438
f 434/434/434 435/435/435 440/440/440
f 434/434/434 440/440/440 439/439/439
f 435/435/435 436/436/436 441/441/441
f 435/435/435 441/441/441 440/440/440
f 436/436/436 437/437/437 442/442/442
f 436/436/436 442/442/442 441/441/441
f 438/438/438 439/439/439 444/444/444
f 438/438/438 444/444/444 443/443/443
f 439/439/439 440/440/440 445/445/445
f 439/439/439 445/445/445 444/444/444
f 440/440/440 441/441/441 446/446/446
f 440/440/440 446/446/446 445/445/445
f 441/441/441 442/442/442 447/447/447
f 441/441/441 447/447/447 446/446/446
f 443/443/443 444/444/444 449/449/449
f 443/443/443 449/449/449 448/448/448
f 444/444/444 445/445/445 450/450/450
f 444/444/444 450/450/450 449/449/449
f 445/445/445 446/446/446 451/451/451
f 445/445/445 451/451/451 450/450/450
f 446/446/446 447/447/447 452/452/452
f 446/446/446 452/452/452 451/451/451
