# Actual Vfx120MeshFactory with data-only Mesh collector; Unity math structs
v 0.5 0 0
v 0.48421592 0 0.027338888
v 0.45264766 0 0.027338887
v 0.43686357 0 -2.7597822E-09
v 0.45264766 0 -0.027338888
v 0.48421592 0 -0.027338881
v 0.5 0 0
v 0.49759236 0.04900857 0
v 0.48188427 0.047461458 0.027338888
v 0.45046803 0.044367228 0.027338887
v 0.43475994 0.04282012 -2.7597822E-09
v 0.45046803 0.044367228 -0.027338888
v 0.48188427 0.047461458 -0.027338881
v 0.49759236 0.04900857 0
v 0.49039263 0.09754516 0
v 0.4749118 0.09446584 0.027338888
v 0.44395015 0.08830718 0.027338887
v 0.42846936 0.085227855 -2.7597822E-09
v 0.44395015 0.08830718 -0.027338888
v 0.4749118 0.09446584 -0.027338881
v 0.49039263 0.09754516 0
v 0.47847018 0.14514233 0
v 0.46336576 0.14056045 0.027338888
v 0.43315682 0.13139668 0.027338887
v 0.41805238 0.1268148 -2.7597822E-09
v 0.43315682 0.13139668 -0.027338888
v 0.46336576 0.14056045 -0.027338881
v 0.47847018 0.14514233 0
v 0.46193975 0.19134173 0
v 0.44735715 0.18530142 0.027338888
v 0.4181919 0.17322077 0.027338887
v 0.4036093 0.16718045 -2.7597822E-09
v 0.4181919 0.17322077 -0.027338888
v 0.44735715 0.18530142 -0.027338881
v 0.46193975 0.19134173 0
v 0.44096062 0.23569837 0
v 0.4270403 0.2282578 0.027338888
v 0.3991996 0.21337663 0.027338887
v 0.38527927 0.20593607 -2.7597822E-09
v 0.3991996 0.21337663 -0.027338888
v 0.4270403 0.2282578 -0.027338881
v 0.44096062 0.23569837 0
v 0.41573477 0.27778512 0
v 0.4026108 0.26901594 0.027338888
v 0.37636277 0.25147757 0.027338887
v 0.36323878 0.2427084 -2.7597822E-09
v 0.37636277 0.25147757 -0.027338888
v 0.4026108 0.26901594 -0.027338881
v 0.41573477 0.27778512 0
v 0.38650522 0.31719667 0
v 0.37430394 0.30718336 0.027338888
v 0.34990135 0.28715667 0.027338887
v 0.3377001 0.27714333 -2.7597822E-09
v 0.34990135 0.28715667 -0.027338888
v 0.37430394 0.30718336 -0.027338881
v 0.38650522 0.31719667 0
v 0.35355338 0.35355338 0
v 0.34239236 0.34239236 0.027338888
v 0.32007024 0.32007024 0.027338887
v 0.30890918 0.30890918 -2.7597822E-09
v 0.32007024 0.32007024 -0.027338888
v 0.34239236 0.34239236 -0.027338881
v 0.35355338 0.35355338 0
v 0.31719664 0.38650522 0
v 0.30718333 0.37430394 0.027338888
v 0.28715664 0.34990135 0.027338887
v 0.2771433 0.3377001 -2.7597822E-09
v 0.28715664 0.34990135 -0.027338888
v 0.30718333 0.37430394 -0.027338881
v 0.31719664 0.38650522 0
v 0.2777851 0.41573483 0
v 0.2690159 0.40261084 0.027338888
v 0.25147754 0.3763628 0.027338887
v 0.24270837 0.3632388 -2.7597822E-09
v 0.25147754 0.3763628 -0.027338888
v 0.2690159 0.40261084 -0.027338881
v 0.2777851 0.41573483 0
v 0.23569833 0.44096065 0
v 0.22825776 0.4270403 0.027338888
v 0.21337658 0.39919963 0.027338887
v 0.20593601 0.38527927 -2.7597822E-09
v 0.21337658 0.39919963 -0.027338888
v 0.22825776 0.4270403 -0.027338881
v 0.23569833 0.44096065 0
v 0.19134171 0.46193975 0
v 0.18530141 0.44735715 0.027338888
v 0.17322077 0.4181919 0.027338887
v 0.16718045 0.4036093 -2.7597822E-09
v 0.17322077 0.4181919 -0.027338888
v 0.18530141 0.44735715 -0.027338881
v 0.19134171 0.46193975 0
v 0.14514232 0.47847018 0
v 0.14056043 0.46336576 0.027338888
v 0.13139667 0.43315682 0.027338887
v 0.12681478 0.41805238 -2.7597822E-09
v 0.13139667 0.43315682 -0.027338888
v 0.14056043 0.46336576 -0.027338881
v 0.14514232 0.47847018 0
v 0.09754512 0.49039266 0
v 0.0944658 0.47491184 0.027338888
v 0.088307135 0.44395018 0.027338887
v 0.08522782 0.42846936 -2.7597822E-09
v 0.088307135 0.44395018 -0.027338888
v 0.0944658 0.47491184 -0.027338881
v 0.09754512 0.49039266 0
v 0.049008567 0.49759236 0
v 0.047461454 0.48188427 0.027338888
v 0.044367224 0.45046803 0.027338887
v 0.042820115 0.43475994 -2.7597822E-09
v 0.044367224 0.45046803 -0.027338888
v 0.047461454 0.48188427 -0.027338881
v 0.049008567 0.49759236 0
v -2.1855694E-08 0.5 0
v -2.116575E-08 0.48421592 0.027338888
v -1.9785858E-08 0.45264766 0.027338887
v -1.9095912E-08 0.43686357 -2.7597822E-09
v -1.9785858E-08 0.45264766 -0.027338888
v -2.116575E-08 0.48421592 -0.027338881
v -2.1855694E-08 0.5 0
v -0.04900861 0.49759236 0
v -0.0474615 0.48188427 0.027338888
v -0.04436727 0.45046803 0.027338887
v -0.042820152 0.43475994 -2.7597822E-09
v -0.04436727 0.45046803 -0.027338888
v -0.0474615 0.48188427 -0.027338881
v -0.04900861 0.49759236 0
v -0.09754516 0.49039263 0
v -0.09446584 0.4749118 0.027338888
v -0.08830718 0.44395015 0.027338887
v -0.085227855 0.42846936 -2.7597822E-09
v -0.08830718 0.44395015 -0.027338888
v -0.09446584 0.4749118 -0.027338881
v -0.09754516 0.49039263 0
v -0.14514236 0.47847015 0
v -0.14056048 0.46336573 0.027338888
v -0.1313967 0.4331568 0.027338887
v -0.12681483 0.41805235 -2.7597822E-09
v -0.1313967 0.4331568 -0.027338888
v -0.14056048 0.46336573 -0.027338881
v -0.14514236 0.47847015 0
v -0.19134176 0.46193975 0
v -0.18530145 0.44735715 0.027338888
v -0.1732208 0.4181919 0.027338887
v -0.16718048 0.4036093 -2.7597822E-09
v -0.1732208 0.4181919 -0.027338888
v -0.18530145 0.44735715 -0.027338881
v -0.19134176 0.46193975 0
v -0.23569842 0.44096062 0
v -0.22825783 0.4270403 0.027338888
v -0.21337667 0.3991996 0.027338887
v -0.2059361 0.38527927 -2.7597822E-09
v -0.21337667 0.3991996 -0.027338888
v -0.22825783 0.4270403 -0.027338881
v -0.23569842 0.44096062 0
v -0.27778518 0.41573477 0
v -0.269016 0.40261078 0.027338888
v -0.25147763 0.37636274 0.027338887
v -0.24270844 0.36323875 -2.7597822E-09
v -0.25147763 0.37636274 -0.027338888
v -0.269016 0.40261078 -0.027338881
v -0.27778518 0.41573477 0
v -0.31719664 0.38650525 0
v -0.30718333 0.37430397 0.027338888
v -0.28715664 0.34990138 0.027338887
v -0.2771433 0.33770013 -2.7597822E-09
v -0.28715664 0.34990138 -0.027338888
v -0.30718333 0.37430397 -0.027338881
v -0.31719664 0.38650525 0
v -0.35355338 0.35355338 0
v -0.34239236 0.34239236 0.027338888
v -0.32007024 0.32007024 0.027338887
v -0.30890918 0.30890918 -2.7597822E-09
v -0.32007024 0.32007024 -0.027338888
v -0.34239236 0.34239236 -0.027338881
v -0.35355338 0.35355338 0
v -0.38650525 0.31719664 0
v -0.37430397 0.30718333 0.027338888
v -0.34990138 0.28715664 0.027338887
v -0.33770013 0.2771433 -2.7597822E-09
v -0.34990138 0.28715664 -0.027338888
v -0.37430397 0.30718333 -0.027338881
v -0.38650525 0.31719664 0
v -0.41573483 0.2777851 0
v -0.40261084 0.2690159 0.027338888
v -0.3763628 0.25147754 0.027338887
v -0.3632388 0.24270837 -2.7597822E-09
v -0.3763628 0.25147754 -0.027338888
v -0.40261084 0.2690159 -0.027338881
v -0.41573483 0.2777851 0
v -0.44096068 0.23569831 0
v -0.42704034 0.22825775 0.027338888
v -0.39919963 0.21337657 0.027338887
v -0.3852793 0.205936 -2.7597822E-09
v -0.39919963 0.21337657 -0.027338888
v -0.42704034 0.22825775 -0.027338881
v -0.44096068 0.23569831 0
v -0.4619398 0.19134164 0
v -0.4473572 0.18530133 0.027338888
v -0.41819197 0.1732207 0.027338887
v -0.40360934 0.16718037 -2.7597822E-09
v -0.41819197 0.1732207 -0.027338888
v -0.4473572 0.18530133 -0.027338881
v -0.4619398 0.19134164 0
v -0.47847018 0.14514236 0
v -0.46336576 0.14056048 0.027338888
v -0.43315682 0.1313967 0.027338887
v -0.41805238 0.12681483 -2.7597822E-09
v -0.43315682 0.1313967 -0.027338888
v -0.46336576 0.14056048 -0.027338881
v -0.47847018 0.14514236 0
v -0.49039266 0.097545154 0
v -0.47491184 0.09446583 0.027338888
v -0.44395018 0.08830717 0.027338887
v -0.42846936 0.08522785 -2.7597822E-09
v -0.44395018 0.08830717 -0.027338888
v -0.47491184 0.09446583 -0.027338881
v -0.49039266 0.097545154 0
v -0.49759236 0.04900855 0
v -0.48188427 0.047461435 0.027338888
v -0.45046803 0.04436721 0.027338887
v -0.43475994 0.0428201 -2.7597822E-09
v -0.45046803 0.04436721 -0.027338888
v -0.48188427 0.047461435 -0.027338881
v -0.49759236 0.04900855 0
v -0.5 -4.371139E-08 0
v -0.48421592 -4.23315E-08 0.027338888
v -0.45264766 -3.9571717E-08 0.027338887
v -0.43686357 -3.8191825E-08 -2.7597822E-09
v -0.45264766 -3.9571717E-08 -0.027338888
v -0.48421592 -4.23315E-08 -0.027338881
v -0.5 -4.371139E-08 0
v -0.49759236 -0.049008634 0
v -0.48188427 -0.047461517 0.027338888
v -0.45046803 -0.044367287 0.027338887
v -0.43475994 -0.042820174 -2.7597822E-09
v -0.45046803 -0.044367287 -0.027338888
v -0.48188427 -0.047461517 -0.027338881
v -0.49759236 -0.049008634 0
v -0.49039263 -0.09754524 0
v -0.4749118 -0.09446592 0.027338888
v -0.44395015 -0.088307254 0.027338887
v -0.42846936 -0.08522793 -2.7597822E-09
v -0.44395015 -0.088307254 -0.027338888
v -0.4749118 -0.09446592 -0.027338881
v -0.49039263 -0.09754524 0
v -0.47847015 -0.14514244 0
v -0.46336573 -0.14056055 0.027338888
v -0.4331568 -0.13139677 0.027338887
v -0.41805235 -0.12681489 -2.7597822E-09
v -0.4331568 -0.13139677 -0.027338888
v -0.46336573 -0.14056055 -0.027338881
v -0.47847015 -0.14514244 0
v -0.46193975 -0.19134171 0
v -0.44735715 -0.18530141 0.027338888
v -0.4181919 -0.17322077 0.027338887
v -0.4036093 -0.16718045 -2.7597822E-09
v -0.4181919 -0.17322077 -0.027338888
v -0.44735715 -0.18530141 -0.027338881
v -0.46193975 -0.19134171 0
v -0.44096062 -0.23569839 0
v -0.4270403 -0.2282578 0.027338888
v -0.3991996 -0.21337664 0.027338887
v -0.38527927 -0.20593609 -2.7597822E-09
v -0.3991996 -0.21337664 -0.027338888
v -0.4270403 -0.2282578 -0.027338881
v -0.44096062 -0.23569839 0
v -0.41573477 -0.27778515 0
v -0.40261078 -0.26901597 0.027338888
v -0.37636274 -0.2514776 0.027338887
v -0.36323875 -0.24270843 -2.7597822E-09
v -0.37636274 -0.2514776 -0.027338888
v -0.40261078 -0.26901597 -0.027338881
v -0.41573477 -0.27778515 0
v -0.3865052 -0.3171967 0
v -0.3743039 -0.30718338 0.027338888
v -0.34990132 -0.2871567 0.027338887
v -0.33770007 -0.27714336 -2.7597822E-09
v -0.34990132 -0.2871567 -0.027338888
v -0.3743039 -0.30718338 -0.027338881
v -0.3865052 -0.3171967 0
v -0.35355332 -0.35355344 0
v -0.3423923 -0.34239239 0.027338888
v -0.32007018 -0.32007027 0.027338887
v -0.30890915 -0.30890924 -2.7597822E-09
v -0.32007018 -0.32007027 -0.027338888
v -0.3423923 -0.34239239 -0.027338881
v -0.35355332 -0.35355344 0
v -0.31719667 -0.38650522 0
v -0.30718336 -0.37430394 0.027338888
v -0.28715667 -0.34990135 0.027338887
v -0.27714333 -0.3377001 -2.7597822E-09
v -0.28715667 -0.34990135 -0.027338888
v -0.30718336 -0.37430394 -0.027338881
v -0.31719667 -0.38650522 0
v -0.277785 -0.4157349 0
v -0.26901582 -0.4026109 0.027338888
v -0.25147745 -0.37636286 0.027338887
v -0.2427083 -0.36323884 -2.7597822E-09
v -0.25147745 -0.37636286 -0.027338888
v -0.26901582 -0.4026109 -0.027338881
v -0.277785 -0.4157349 0
v -0.23569834 -0.44096065 0
v -0.22825778 -0.4270403 0.027338888
v -0.2133766 -0.39919963 0.027338887
v -0.20593603 -0.38527927 -2.7597822E-09
v -0.2133766 -0.39919963 -0.027338888
v -0.22825778 -0.4270403 -0.027338881
v -0.23569834 -0.44096065 0
v -0.19134156 -0.46193984 0
v -0.18530126 -0.44735724 0.027338888
v -0.17322063 -0.418192 0.027338887
v -0.16718031 -0.40360937 -2.7597822E-09
v -0.17322063 -0.418192 -0.027338888
v -0.18530126 -0.44735724 -0.027338881
v -0.19134156 -0.46193984 0
v -0.14514227 -0.47847018 0
v -0.14056039 -0.46336576 0.027338888
v -0.13139662 -0.43315682 0.027338887
v -0.12681474 -0.41805238 -2.7597822E-09
v -0.13139662 -0.43315682 -0.027338888
v -0.14056039 -0.46336576 -0.027338881
v -0.14514227 -0.47847018 0
v -0.09754519 -0.49039263 0
v -0.09446587 -0.4749118 0.027338888
v -0.0883072 -0.44395015 0.027338887
v -0.085227884 -0.42846936 -2.7597822E-09
v -0.0883072 -0.44395015 -0.027338888
v -0.09446587 -0.4749118 -0.027338881
v -0.09754519 -0.49039263 0
v -0.049008466 -0.49759236 0
v -0.04746136 -0.48188427 0.027338888
v -0.044367135 -0.45046803 0.027338887
v -0.04282003 -0.43475994 -2.7597822E-09
v -0.044367135 -0.45046803 -0.027338888
v -0.04746136 -0.48188427 -0.027338881
v -0.049008466 -0.49759236 0
v 5.9624403E-09 -0.5 0
v 5.774217E-09 -0.48421592 0.027338888
v 5.3977693E-09 -0.45264766 0.027338887
v 5.2095457E-09 -0.43686357 -2.7597822E-09
v 5.3977693E-09 -0.45264766 -0.027338888
v 5.774217E-09 -0.48421592 -0.027338881
v 5.9624403E-09 -0.5 0
v 0.049008716 -0.49759236 0
v 0.0474616 -0.48188427 0.027338888
v 0.04436736 -0.45046803 0.027338887
v 0.042820245 -0.43475994 -2.7597822E-09
v 0.04436736 -0.45046803 -0.027338888
v 0.0474616 -0.48188427 -0.027338881
v 0.049008716 -0.49759236 0
v 0.09754521 -0.49039263 0
v 0.09446588 -0.4749118 0.027338888
v 0.08830722 -0.44395015 0.027338887
v 0.08522789 -0.42846936 -2.7597822E-09
v 0.08830722 -0.44395015 -0.027338888
v 0.09446588 -0.4749118 -0.027338881
v 0.09754521 -0.49039263 0
v 0.14514251 -0.47847012 0
v 0.14056063 -0.4633657 0.027338888
v 0.13139683 -0.43315676 0.027338887
v 0.12681495 -0.41805232 -2.7597822E-09
v 0.13139683 -0.43315676 -0.027338888
v 0.14056063 -0.4633657 -0.027338881
v 0.14514251 -0.47847012 0
v 0.1913418 -0.46193972 0
v 0.1853015 -0.44735712 0.027338888
v 0.17322084 -0.41819188 0.027338887
v 0.16718052 -0.40360928 -2.7597822E-09
v 0.17322084 -0.41819188 -0.027338888
v 0.1853015 -0.44735712 -0.027338881
v 0.1913418 -0.46193972 0
v 0.23569836 -0.44096065 0
v 0.22825779 -0.4270403 0.027338888
v 0.21337661 -0.39919963 0.027338887
v 0.20593606 -0.38527927 -2.7597822E-09
v 0.21337661 -0.39919963 -0.027338888
v 0.22825779 -0.4270403 -0.027338881
v 0.23569836 -0.44096065 0
v 0.2777852 -0.41573474 0
v 0.26901603 -0.40261075 0.027338888
v 0.25147766 -0.37636274 0.027338887
v 0.24270847 -0.36323872 -2.7597822E-09
v 0.25147766 -0.37636274 -0.027338888
v 0.26901603 -0.40261075 -0.027338881
v 0.2777852 -0.41573474 0
v 0.31719667 -0.38650522 0
v 0.30718336 -0.37430394 0.027338888
v 0.28715667 -0.34990135 0.027338887
v 0.27714333 -0.3377001 -2.7597822E-09
v 0.28715667 -0.34990135 -0.027338888
v 0.30718336 -0.37430394 -0.027338881
v 0.31719667 -0.38650522 0
v 0.3535535 -0.35355327 0
v 0.34239244 -0.34239224 0.027338888
v 0.32007033 -0.32007012 0.027338887
v 0.3089093 -0.3089091 -2.7597822E-09
v 0.32007033 -0.32007012 -0.027338888
v 0.34239244 -0.34239224 -0.027338881
v 0.3535535 -0.35355327 0
v 0.38650528 -0.31719658 0
v 0.374304 -0.30718327 0.027338888
v 0.3499014 -0.28715658 0.027338887
v 0.33770013 -0.27714327 -2.7597822E-09
v 0.3499014 -0.28715658 -0.027338888
v 0.374304 -0.30718327 -0.027338881
v 0.38650528 -0.31719658 0
v 0.41573477 -0.27778515 0
v 0.4026108 -0.26901597 0.027338888
v 0.37636277 -0.2514776 0.027338887
v 0.36323878 -0.24270843 -2.7597822E-09
v 0.37636277 -0.2514776 -0.027338888
v 0.4026108 -0.26901597 -0.027338881
v 0.41573477 -0.27778515 0
v 0.44096068 -0.23569827 0
v 0.42704034 -0.2282577 0.027338888
v 0.39919963 -0.21337654 0.027338887
v 0.3852793 -0.20593597 -2.7597822E-09
v 0.39919963 -0.21337654 -0.027338888
v 0.42704034 -0.2282577 -0.027338881
v 0.44096068 -0.23569827 0
v 0.46193978 -0.19134171 0
v 0.44735718 -0.18530141 0.027338888
v 0.41819194 -0.17322077 0.027338887
v 0.40360934 -0.16718045 -2.7597822E-09
v 0.41819194 -0.17322077 -0.027338888
v 0.44735718 -0.18530141 -0.027338881
v 0.46193978 -0.19134171 0
v 0.4784702 -0.1451422 0
v 0.4633658 -0.14056031 0.027338888
v 0.43315685 -0.13139656 0.027338887
v 0.4180524 -0.12681468 -2.7597822E-09
v 0.43315685 -0.13139656 -0.027338888
v 0.4633658 -0.14056031 -0.027338881
v 0.4784702 -0.1451422 0
v 0.49039266 -0.09754512 0
v 0.47491184 -0.0944658 0.027338888
v 0.44395018 -0.088307135 0.027338887
v 0.42846936 -0.08522782 -2.7597822E-09
v 0.44395018 -0.088307135 -0.027338888
v 0.47491184 -0.0944658 -0.027338881
v 0.49039266 -0.09754512 0
v 0.4975924 -0.049008384 0
v 0.4818843 -0.04746128 0.027338888
v 0.45046806 -0.044367064 0.027338887
v 0.43475997 -0.042819954 -2.7597822E-09
v 0.45046806 -0.044367064 -0.027338888
v 0.4818843 -0.04746128 -0.027338881
v 0.4975924 -0.049008384 0
v 0.5 0 0
v 0.48421592 0 0.027338888
v 0.45264766 0 0.027338887
v 0.43686357 0 -2.7597822E-09
v 0.45264766 0 -0.027338888
v 0.48421592 0 -0.027338881
v 0.5 0 0
vt 0 0
vt 0.16666667 0
vt 0.33333334 0
vt 0.5 0
vt 0.6666667 0
vt 0.8333333 0
vt 1 0
vt 0 0.015625
vt 0.16666667 0.015625
vt 0.33333334 0.015625
vt 0.5 0.015625
vt 0.6666667 0.015625
vt 0.8333333 0.015625
vt 1 0.015625
vt 0 0.03125
vt 0.16666667 0.03125
vt 0.33333334 0.03125
vt 0.5 0.03125
vt 0.6666667 0.03125
vt 0.8333333 0.03125
vt 1 0.03125
vt 0 0.046875
vt 0.16666667 0.046875
vt 0.33333334 0.046875
vt 0.5 0.046875
vt 0.6666667 0.046875
vt 0.8333333 0.046875
vt 1 0.046875
vt 0 0.0625
vt 0.16666667 0.0625
vt 0.33333334 0.0625
vt 0.5 0.0625
vt 0.6666667 0.0625
vt 0.8333333 0.0625
vt 1 0.0625
vt 0 0.078125
vt 0.16666667 0.078125
vt 0.33333334 0.078125
vt 0.5 0.078125
vt 0.6666667 0.078125
vt 0.8333333 0.078125
vt 1 0.078125
vt 0 0.09375
vt 0.16666667 0.09375
vt 0.33333334 0.09375
vt 0.5 0.09375
vt 0.6666667 0.09375
vt 0.8333333 0.09375
vt 1 0.09375
vt 0 0.109375
vt 0.16666667 0.109375
vt 0.33333334 0.109375
vt 0.5 0.109375
vt 0.6666667 0.109375
vt 0.8333333 0.109375
vt 1 0.109375
vt 0 0.125
vt 0.16666667 0.125
vt 0.33333334 0.125
vt 0.5 0.125
vt 0.6666667 0.125
vt 0.8333333 0.125
vt 1 0.125
vt 0 0.140625
vt 0.16666667 0.140625
vt 0.33333334 0.140625
vt 0.5 0.140625
vt 0.6666667 0.140625
vt 0.8333333 0.140625
vt 1 0.140625
vt 0 0.15625
vt 0.16666667 0.15625
vt 0.33333334 0.15625
vt 0.5 0.15625
vt 0.6666667 0.15625
vt 0.8333333 0.15625
vt 1 0.15625
vt 0 0.171875
vt 0.16666667 0.171875
vt 0.33333334 0.171875
vt 0.5 0.171875
vt 0.6666667 0.171875
vt 0.8333333 0.171875
vt 1 0.171875
vt 0 0.1875
vt 0.16666667 0.1875
vt 0.33333334 0.1875
vt 0.5 0.1875
vt 0.6666667 0.1875
vt 0.8333333 0.1875
vt 1 0.1875
vt 0 0.203125
vt 0.16666667 0.203125
vt 0.33333334 0.203125
vt 0.5 0.203125
vt 0.6666667 0.203125
vt 0.8333333 0.203125
vt 1 0.203125
vt 0 0.21875
vt 0.16666667 0.21875
vt 0.33333334 0.21875
vt 0.5 0.21875
vt 0.6666667 0.21875
vt 0.8333333 0.21875
vt 1 0.21875
vt 0 0.234375
vt 0.16666667 0.234375
vt 0.33333334 0.234375
vt 0.5 0.234375
vt 0.6666667 0.234375
vt 0.8333333 0.234375
vt 1 0.234375
vt 0 0.25
vt 0.16666667 0.25
vt 0.33333334 0.25
vt 0.5 0.25
vt 0.6666667 0.25
vt 0.8333333 0.25
vt 1 0.25
vt 0 0.265625
vt 0.16666667 0.265625
vt 0.33333334 0.265625
vt 0.5 0.265625
vt 0.6666667 0.265625
vt 0.8333333 0.265625
vt 1 0.265625
vt 0 0.28125
vt 0.16666667 0.28125
vt 0.33333334 0.28125
vt 0.5 0.28125
vt 0.6666667 0.28125
vt 0.8333333 0.28125
vt 1 0.28125
vt 0 0.296875
vt 0.16666667 0.296875
vt 0.33333334 0.296875
vt 0.5 0.296875
vt 0.6666667 0.296875
vt 0.8333333 0.296875
vt 1 0.296875
vt 0 0.3125
vt 0.16666667 0.3125
vt 0.33333334 0.3125
vt 0.5 0.3125
vt 0.6666667 0.3125
vt 0.8333333 0.3125
vt 1 0.3125
vt 0 0.328125
vt 0.16666667 0.328125
vt 0.33333334 0.328125
vt 0.5 0.328125
vt 0.6666667 0.328125
vt 0.8333333 0.328125
vt 1 0.328125
vt 0 0.34375
vt 0.16666667 0.34375
vt 0.33333334 0.34375
vt 0.5 0.34375
vt 0.6666667 0.34375
vt 0.8333333 0.34375
vt 1 0.34375
vt 0 0.359375
vt 0.16666667 0.359375
vt 0.33333334 0.359375
vt 0.5 0.359375
vt 0.6666667 0.359375
vt 0.8333333 0.359375
vt 1 0.359375
vt 0 0.375
vt 0.16666667 0.375
vt 0.33333334 0.375
vt 0.5 0.375
vt 0.6666667 0.375
vt 0.8333333 0.375
vt 1 0.375
vt 0 0.390625
vt 0.16666667 0.390625
vt 0.33333334 0.390625
vt 0.5 0.390625
vt 0.6666667 0.390625
vt 0.8333333 0.390625
vt 1 0.390625
vt 0 0.40625
vt 0.16666667 0.40625
vt 0.33333334 0.40625
vt 0.5 0.40625
vt 0.6666667 0.40625
vt 0.8333333 0.40625
vt 1 0.40625
vt 0 0.421875
vt 0.16666667 0.421875
vt 0.33333334 0.421875
vt 0.5 0.421875
vt 0.6666667 0.421875
vt 0.8333333 0.421875
vt 1 0.421875
vt 0 0.4375
vt 0.16666667 0.4375
vt 0.33333334 0.4375
vt 0.5 0.4375
vt 0.6666667 0.4375
vt 0.8333333 0.4375
vt 1 0.4375
vt 0 0.453125
vt 0.16666667 0.453125
vt 0.33333334 0.453125
vt 0.5 0.453125
vt 0.6666667 0.453125
vt 0.8333333 0.453125
vt 1 0.453125
vt 0 0.46875
vt 0.16666667 0.46875
vt 0.33333334 0.46875
vt 0.5 0.46875
vt 0.6666667 0.46875
vt 0.8333333 0.46875
vt 1 0.46875
vt 0 0.484375
vt 0.16666667 0.484375
vt 0.33333334 0.484375
vt 0.5 0.484375
vt 0.6666667 0.484375
vt 0.8333333 0.484375
vt 1 0.484375
vt 0 0.5
vt 0.16666667 0.5
vt 0.33333334 0.5
vt 0.5 0.5
vt 0.6666667 0.5
vt 0.8333333 0.5
vt 1 0.5
vt 0 0.515625
vt 0.16666667 0.515625
vt 0.33333334 0.515625
vt 0.5 0.515625
vt 0.6666667 0.515625
vt 0.8333333 0.515625
vt 1 0.515625
vt 0 0.53125
vt 0.16666667 0.53125
vt 0.33333334 0.53125
vt 0.5 0.53125
vt 0.6666667 0.53125
vt 0.8333333 0.53125
vt 1 0.53125
vt 0 0.546875
vt 0.16666667 0.546875
vt 0.33333334 0.546875
vt 0.5 0.546875
vt 0.6666667 0.546875
vt 0.8333333 0.546875
vt 1 0.546875
vt 0 0.5625
vt 0.16666667 0.5625
vt 0.33333334 0.5625
vt 0.5 0.5625
vt 0.6666667 0.5625
vt 0.8333333 0.5625
vt 1 0.5625
vt 0 0.578125
vt 0.16666667 0.578125
vt 0.33333334 0.578125
vt 0.5 0.578125
vt 0.6666667 0.578125
vt 0.8333333 0.578125
vt 1 0.578125
vt 0 0.59375
vt 0.16666667 0.59375
vt 0.33333334 0.59375
vt 0.5 0.59375
vt 0.6666667 0.59375
vt 0.8333333 0.59375
vt 1 0.59375
vt 0 0.609375
vt 0.16666667 0.609375
vt 0.33333334 0.609375
vt 0.5 0.609375
vt 0.6666667 0.609375
vt 0.8333333 0.609375
vt 1 0.609375
vt 0 0.625
vt 0.16666667 0.625
vt 0.33333334 0.625
vt 0.5 0.625
vt 0.6666667 0.625
vt 0.8333333 0.625
vt 1 0.625
vt 0 0.640625
vt 0.16666667 0.640625
vt 0.33333334 0.640625
vt 0.5 0.640625
vt 0.6666667 0.640625
vt 0.8333333 0.640625
vt 1 0.640625
vt 0 0.65625
vt 0.16666667 0.65625
vt 0.33333334 0.65625
vt 0.5 0.65625
vt 0.6666667 0.65625
vt 0.8333333 0.65625
vt 1 0.65625
vt 0 0.671875
vt 0.16666667 0.671875
vt 0.33333334 0.671875
vt 0.5 0.671875
vt 0.6666667 0.671875
vt 0.8333333 0.671875
vt 1 0.671875
vt 0 0.6875
vt 0.16666667 0.6875
vt 0.33333334 0.6875
vt 0.5 0.6875
vt 0.6666667 0.6875
vt 0.8333333 0.6875
vt 1 0.6875
vt 0 0.703125
vt 0.16666667 0.703125
vt 0.33333334 0.703125
vt 0.5 0.703125
vt 0.6666667 0.703125
vt 0.8333333 0.703125
vt 1 0.703125
vt 0 0.71875
vt 0.16666667 0.71875
vt 0.33333334 0.71875
vt 0.5 0.71875
vt 0.6666667 0.71875
vt 0.8333333 0.71875
vt 1 0.71875
vt 0 0.734375
vt 0.16666667 0.734375
vt 0.33333334 0.734375
vt 0.5 0.734375
vt 0.6666667 0.734375
vt 0.8333333 0.734375
vt 1 0.734375
vt 0 0.75
vt 0.16666667 0.75
vt 0.33333334 0.75
vt 0.5 0.75
vt 0.6666667 0.75
vt 0.8333333 0.75
vt 1 0.75
vt 0 0.765625
vt 0.16666667 0.765625
vt 0.33333334 0.765625
vt 0.5 0.765625
vt 0.6666667 0.765625
vt 0.8333333 0.765625
vt 1 0.765625
vt 0 0.78125
vt 0.16666667 0.78125
vt 0.33333334 0.78125
vt 0.5 0.78125
vt 0.6666667 0.78125
vt 0.8333333 0.78125
vt 1 0.78125
vt 0 0.796875
vt 0.16666667 0.796875
vt 0.33333334 0.796875
vt 0.5 0.796875
vt 0.6666667 0.796875
vt 0.8333333 0.796875
vt 1 0.796875
vt 0 0.8125
vt 0.16666667 0.8125
vt 0.33333334 0.8125
vt 0.5 0.8125
vt 0.6666667 0.8125
vt 0.8333333 0.8125
vt 1 0.8125
vt 0 0.828125
vt 0.16666667 0.828125
vt 0.33333334 0.828125
vt 0.5 0.828125
vt 0.6666667 0.828125
vt 0.8333333 0.828125
vt 1 0.828125
vt 0 0.84375
vt 0.16666667 0.84375
vt 0.33333334 0.84375
vt 0.5 0.84375
vt 0.6666667 0.84375
vt 0.8333333 0.84375
vt 1 0.84375
vt 0 0.859375
vt 0.16666667 0.859375
vt 0.33333334 0.859375
vt 0.5 0.859375
vt 0.6666667 0.859375
vt 0.8333333 0.859375
vt 1 0.859375
vt 0 0.875
vt 0.16666667 0.875
vt 0.33333334 0.875
vt 0.5 0.875
vt 0.6666667 0.875
vt 0.8333333 0.875
vt 1 0.875
vt 0 0.890625
vt 0.16666667 0.890625
vt 0.33333334 0.890625
vt 0.5 0.890625
vt 0.6666667 0.890625
vt 0.8333333 0.890625
vt 1 0.890625
vt 0 0.90625
vt 0.16666667 0.90625
vt 0.33333334 0.90625
vt 0.5 0.90625
vt 0.6666667 0.90625
vt 0.8333333 0.90625
vt 1 0.90625
vt 0 0.921875
vt 0.16666667 0.921875
vt 0.33333334 0.921875
vt 0.5 0.921875
vt 0.6666667 0.921875
vt 0.8333333 0.921875
vt 1 0.921875
vt 0 0.9375
vt 0.16666667 0.9375
vt 0.33333334 0.9375
vt 0.5 0.9375
vt 0.6666667 0.9375
vt 0.8333333 0.9375
vt 1 0.9375
vt 0 0.953125
vt 0.16666667 0.953125
vt 0.33333334 0.953125
vt 0.5 0.953125
vt 0.6666667 0.953125
vt 0.8333333 0.953125
vt 1 0.953125
vt 0 0.96875
vt 0.16666667 0.96875
vt 0.33333334 0.96875
vt 0.5 0.96875
vt 0.6666667 0.96875
vt 0.8333333 0.96875
vt 1 0.96875
vt 0 0.984375
vt 0.16666667 0.984375
vt 0.33333334 0.984375
vt 0.5 0.984375
vt 0.6666667 0.984375
vt 0.8333333 0.984375
vt 1 0.984375
vt 0 1
vt 0.16666667 1
vt 0.33333334 1
vt 0.5 1
vt 0.6666667 1
vt 0.8333333 1
vt 1 1
vn 1 2.1096874E-07 -5.166581E-08
vn 0.50524443 -0.008059674 0.86293864
vn -0.4944031 -0.008302683 0.8691931
vn -1 -2.5278774E-07 0
vn -0.49440292 0.008302439 -0.8691932
vn 0.5052445 0.00805989 -0.86293864
vn 1 2.1096874E-07 -5.166581E-08
vn 0.9951847 0.09801734 5.162409E-08
vn 0.5065391 0.041348547 0.861225
vn -0.4881573 -0.055973317 0.8709589
vn -0.9951847 -0.09801721 6.55075E-08
vn -0.4896972 -0.040337026 -0.87095904
vn 0.5048726 0.0582671 -0.86122507
vn 0.9951847 0.09801734 5.162409E-08
vn 0.9807853 0.19509014 -1.548723E-07
vn 0.500047 0.090798736 0.86122507
vn -0.48032045 -0.1035515 0.87095886
vn -0.98078525 -0.19509017 -8.1884375E-09
vn -0.48338562 -0.08814136 -0.8709589
vn 0.4967305 0.10747237 -0.861225
vn 0.9807853 0.19509014 -1.548723E-07
vn 0.95694035 0.2902846 -8.604014E-08
vn 0.48873937 0.13937466 0.86122507
vn -0.46785757 -0.15013249 0.8709589
vn -0.95694035 -0.29028466 -2.0471093E-07
vn -0.47241837 -0.13509695 -0.87095904
vn 0.48380452 0.15564318 -0.86122495
vn 0.95694035 0.2902846 -8.604014E-08
vn 0.92387944 0.38268363 -8.604015E-08
vn 0.47272494 0.18660866 0.86122495
vn -0.45088917 -0.19526766 0.8709589
vn -0.9238795 -0.38268343 9.8261225E-08
vn -0.45690182 -0.18075171 -0.87095904
vn 0.46621907 0.20231491 -0.861225
vn 0.92387944 0.38268363 -8.604015E-08
vn 0.88192123 0.4713969 -1.7208026E-07
vn 0.4521578 0.23204508 0.86122495
vn -0.4295785 -0.23852237 0.87095886
vn -0.8819213 -0.47139674 1.6376875E-08
vn -0.43698493 -0.22466545 -0.870959
vn 0.44414392 0.24703823 -0.8612249
vn 0.88192123 0.4713969 -1.7208026E-07
vn 0.83146966 0.5555702 3.4416054E-08
vn 0.42723614 0.27524707 0.86122495
vn -0.40413067 -0.27947986 0.87095886
vn -0.8314696 -0.55557024 -1.6376871E-08
vn -0.41285956 -0.26641566 -0.87095904
vn 0.41779128 0.2893822 -0.86122495
vn 0.83146966 0.5555702 3.4416054E-08
vn 0.7730106 0.63439316 -1.720803E-08
vn 0.39820006 0.3157979 0.86122495
vn -0.37479064 -0.3177457 0.870959
vn -0.7730104 -0.6343934 -2.4565313E-08
vn -0.38475844 -0.30560017 -0.8709589
vn 0.38741487 0.3289394 -0.8612251
vn 0.7730106 0.63439316 -1.720803E-08
vn 0.70710665 0.7071069 -8.604014E-08
vn 0.3653288 0.35330787 0.86122495
vn -0.34184152 -0.35295162 0.870959
vn -0.7071066 -0.70710695 -4.09422E-08
vn -0.35295135 -0.34184152 -0.87095904
vn 0.35330775 0.365329 -0.8612249
vn 0.70710665 0.7071069 -8.604014E-08
vn 0.63439333 0.7730104 0
vn 0.32893935 0.3874149 0.86122507
vn -0.30560035 -0.38475844 0.87095886
vn -0.6343935 -0.7730103 4.094217E-08
vn -0.3177455 -0.3747906 -0.8709591
vn 0.31579798 0.39819992 -0.861225
vn 0.63439333 0.7730104 0
vn 0.5555702 0.8314696 -3.4416065E-08
vn 0.2893823 0.4177912 0.861225
vn -0.26641563 -0.41285965 0.87095904
vn -0.5555702 -0.83146966 -1.5558024E-07
vn -0.27947995 -0.40413058 -0.8709589
vn 0.2752468 0.427236 -0.86122507
vn 0.5555702 0.8314696 -3.4416065E-08
vn 0.47139657 0.88192135 -6.883213E-08
vn 0.24703813 0.44414407 0.8612249
vn -0.22466557 -0.43698493 0.870959
vn -0.4713966 -0.88192135 9.007285E-08
vn -0.23852214 -0.4295785 -0.870959
vn 0.23204497 0.45215774 -0.861225
vn 0.47139657 0.88192135 -6.883213E-08
vn 0.3826836 0.9238795 -1.7208032E-07
vn 0.20231487 0.46621895 0.86122507
vn -0.18075176 -0.45690215 0.8709588
vn -0.38268352 -0.9238795 -4.9130637E-08
vn -0.19526759 -0.45088887 -0.8709591
vn 0.18660876 0.47272512 -0.8612248
vn 0.3826836 0.9238795 -1.7208032E-07
vn 0.29028484 0.9569403 -1.7208027E-08
vn 0.15564324 0.48380437 0.861225
vn -0.13509704 -0.47241843 0.87095904
vn -0.29028466 -0.95694035 -3.2753736E-08
vn -0.15013246 -0.46785742 -0.87095904
vn 0.13937482 0.4887394 -0.861225
vn 0.29028484 0.9569403 -1.7208027E-08
vn 0.19509013 0.9807853 0
vn 0.1074725 0.4967306 0.86122495
vn -0.088141374 -0.48338544 0.87095904
vn -0.19509019 -0.9807853 1.8014566E-07
vn -0.10355146 -0.48032027 -0.870959
vn 0.090798646 0.50004697 -0.86122507
vn 0.19509013 0.9807853 0
vn 0.09801707 0.9951847 -1.2045622E-07
vn 0.0582669 0.50487256 0.8612251
vn -0.040336944 -0.4896974 0.87095886
vn -0.098017104 -0.9951847 -1.637688E-08
vn -0.055973195 -0.48815697 -0.87095916
vn 0.041348454 0.50653917 -0.8612249
vn 0.09801707 0.9951847 -1.2045622E-07
vn 2.6887546E-09 1 -8.6040146E-08
vn 0.008500214 0.5081527 0.86122507
vn 0.00785603 -0.49129298 0.870959
vn 0 -1 -1.6376868E-08
vn -0.007856032 -0.4912928 -0.87095904
vn -0.008500209 0.5081527 -0.86122507
vn 2.6887546E-09 1 -8.6040146E-08
vn -0.09801739 0.9951847 1.7208032E-08
vn -0.041348554 0.50653917 0.86122495
vn 0.055973332 -0.48815718 0.870959
vn 0.098017216 -0.9951847 2.0471097E-07
vn 0.04033703 -0.48969725 -0.8709589
vn -0.058267117 0.5048725 -0.8612251
vn -0.09801739 0.9951847 1.7208032E-08
vn -0.19509044 0.98078525 -1.7208032E-07
vn -0.09079885 0.5000469 0.8612251
vn 0.103551745 -0.4803205 0.8709588
vn 0.19509055 -0.9807852 -1.14638134E-07
vn 0.08814147 -0.4833854 -0.870959
vn -0.10747258 0.4967306 -0.8612249
vn -0.19509044 0.98078525 -1.7208032E-07
vn -0.29028448 0.9569404 -8.604013E-08
vn -0.1393747 0.4887394 0.861225
vn 0.15013236 -0.46785754 0.87095904
vn 0.29028457 -0.95694035 -1.4739182E-07
vn 0.13509703 -0.47241843 -0.87095904
vn -0.15564305 0.48380446 -0.861225
vn -0.29028448 0.9569404 -8.604013E-08
vn -0.38268334 0.92387956 0
vn -0.18660845 0.47272494 0.86122495
vn 0.19526754 -0.45088923 0.870959
vn 0.38268313 -0.9238796 2.4565308E-08
vn 0.18075149 -0.4569019 -0.87095904
vn -0.20231478 0.4662191 -0.861225
vn -0.38268334 0.92387956 0
vn -0.47139683 0.88192123 -6.883212E-08
vn -0.2320451 0.45215774 0.861225
vn 0.23852246 -0.42957848 0.87095886
vn 0.4713969 -0.88192123 -6.550747E-08
vn 0.22466548 -0.43698484 -0.87095904
vn -0.24703823 0.4441439 -0.86122495
vn -0.47139683 0.88192123 -6.883212E-08
vn -0.5555703 0.8314696 0
vn -0.27524707 0.42723617 0.8612249
vn 0.27947974 -0.4041305 0.87095904
vn 0.5555704 -0.83146954 2.9478392E-07
vn 0.26641586 -0.41285965 -0.8709589
vn -0.28938213 0.41779092 -0.8612251
vn -0.5555703 0.8314696 0
vn -0.6343934 0.7730104 -1.3766424E-07
vn -0.31579784 0.39819974 0.8612251
vn 0.3177459 -0.37479082 0.87095886
vn 0.63439345 -0.77301025 -3.0297238E-07
vn 0.30560005 -0.38475817 -0.8709591
vn -0.32893962 0.38741502 -0.8612249
vn -0.6343934 0.7730104 -1.3766424E-07
vn -0.70710677 0.70710677 -3.4416054E-08
vn -0.35330784 0.3653289 0.861225
vn 0.3529515 -0.3418416 0.870959
vn 0.70710677 -0.7071068 1.6376868E-08
vn 0.34184152 -0.35295144 -0.87095904
vn -0.36532885 0.35330784 -0.861225
vn -0.70710677 0.70710677 -3.4416054E-08
vn -0.77301043 0.6343933 3.441606E-08
vn -0.38741493 0.32893947 0.86122507
vn 0.38475844 -0.30560023 0.8709589
vn 0.7730103 -0.6343935 1.5558025E-07
vn 0.3747906 -0.31774566 -0.87095904
vn -0.39819992 0.31579787 -0.861225
vn -0.77301043 0.6343933 3.441606E-08
vn -0.83146966 0.5555701 -5.1624095E-08
vn -0.4177912 0.28938213 0.861225
vn 0.41285983 -0.26641566 0.8709589
vn 0.8314697 -0.55557007 -4.913059E-08
vn 0.4041306 -0.27947965 -0.870959
vn -0.42723605 0.27524686 -0.861225
vn -0.83146966 0.5555701 -5.1624095E-08
vn -0.8819213 0.4713967 -6.883213E-08
vn -0.4441438 0.24703811 0.861225
vn 0.43698493 -0.22466554 0.870959
vn 0.88192135 -0.4713966 -1.719571E-07
vn 0.4295784 -0.23852223 -0.870959
vn -0.45215768 0.23204501 -0.86122507
vn -0.8819213 0.4713967 -6.883213E-08
vn -0.9238795 0.38268355 -1.3766424E-07
vn -0.46621922 0.20231499 0.8612249
vn 0.4569016 -0.18075165 0.8709591
vn 0.9238795 -0.38268352 2.374649E-07
vn 0.4508891 -0.19526768 -0.870959
vn -0.47272474 0.18660858 -0.86122507
vn -0.9238795 0.38268355 -1.3766424E-07
vn -0.95694035 0.29028457 0
vn -0.48380423 0.15564303 0.8612252
vn 0.47241876 -0.135097 0.87095886
vn 0.95694035 -0.29028454 -1.0644977E-07
vn 0.46785712 -0.15013233 -0.8709592
vn -0.48873964 0.13937478 -0.8612249
vn -0.95694035 0.29028457 0
vn -0.98078537 0.19509003 3.441606E-08
vn -0.49673057 0.107472435 0.86122495
vn 0.4833855 -0.088141315 0.870959
vn 0.98078537 -0.19509007 4.094217E-08
vn 0.48032027 -0.10355141 -0.87095904
vn -0.500047 0.09079859 -0.86122507
vn -0.98078537 0.19509003 3.441606E-08
vn -0.9951848 0.09801701 -1.2045622E-07
vn -0.5048727 0.05826687 0.86122507
vn 0.48969734 -0.040336918 0.8709589
vn 0.9951847 -0.09801704 9.007278E-08
vn 0.48815706 -0.055973157 -0.8709591
vn -0.5065391 0.04134843 -0.86122495
vn -0.9951848 0.09801701 -1.2045622E-07
vn -1 1.6132528E-09 -5.1624088E-08
vn -0.5081527 0.008500213 0.86122507
vn 0.4912929 0.007856029 0.8709589
vn 1 0 -8.188434E-09
vn 0.49129283 -0.007856032 -0.87095904
vn -0.5081528 -0.008500209 -0.861225
vn -1 1.6132528E-09 -5.1624088E-08
vn -0.9951847 -0.09801732 1.720803E-08
vn -0.50653905 -0.041348524 0.86122507
vn 0.4881573 0.055973303 0.870959
vn 0.9951847 0.09801716 6.550748E-08
vn 0.48969722 0.040337007 -0.87095904
vn -0.5048726 -0.05826708 -0.86122507
vn -0.9951847 -0.09801732 1.720803E-08
vn -0.98078525 -0.19509034 -1.8928834E-07
vn -0.500047 -0.0907988 0.86122507
vn 0.48032036 0.103551686 0.87095886
vn 0.9807852 0.19509044 -4.094217E-08
vn 0.48338553 0.08814143 -0.8709589
vn -0.49673048 -0.107472524 -0.86122495
vn -0.98078525 -0.19509034 -1.8928834E-07
vn -0.9569403 -0.29028484 -8.604013E-08
vn -0.48873952 -0.13937488 0.8612249
vn 0.46785727 0.15013249 0.8709591
vn 0.95694023 0.29028487 7.369599E-08
vn 0.47241858 0.13509719 -0.8709589
vn -0.4838042 -0.15564324 -0.8612251
vn -0.9569403 -0.29028484 -8.604013E-08
vn -0.92387944 -0.38268372 0
vn -0.4727247 -0.18660867 0.861225
vn 0.4508894 0.19526777 0.8709588
vn 0.9238795 0.3826835 -1.310151E-07
vn 0.45690167 0.18075167 -0.8709591
vn -0.4662193 -0.202315 -0.86122483
vn -0.92387944 -0.38268372 0
vn -0.88192123 -0.47139674 -3.4416058E-08
vn -0.45215783 -0.23204507 0.86122495
vn 0.42957848 0.23852246 0.8709588
vn 0.88192123 0.47139686 -2.4565301E-08
vn 0.4369849 0.22466548 -0.87095904
vn -0.44414395 -0.24703822 -0.86122495
vn -0.88192123 -0.47139674 -3.4416058E-08
vn -0.8314696 -0.55557024 3.441606E-08
vn -0.42723605 -0.27524698 0.861225
vn 0.4041306 0.2794799 0.87095886
vn 0.83146954 0.5555704 1.6376868E-08
vn 0.41285956 0.2664158 -0.870959
vn -0.41779113 -0.28938222 -0.861225
vn -0.8314696 -0.55557024 3.441606E-08
vn -0.7730104 -0.63439333 0
vn -0.39819992 -0.315798 0.861225
vn 0.37479076 0.31774577 0.8709589
vn 0.77301043 0.63439333 1.8833403E-07
vn 0.38475835 0.30560023 -0.870959
vn -0.3874148 -0.3289395 -0.86122507
vn -0.7730104 -0.63439333 0
vn -0.70710677 -0.70710677 -6.883212E-08
vn -0.36532894 -0.3533079 0.8612249
vn 0.34184155 0.3529516 0.870959
vn 0.70710677 0.70710677 1.7195737E-07
vn 0.35295174 0.34184164 -0.87095886
vn -0.35330763 -0.36532864 -0.8612251
vn -0.70710677 -0.70710677 -6.883212E-08
vn -0.6343932 -0.7730105 -6.883212E-08
vn -0.32893908 -0.38741446 0.8612253
vn 0.30560043 0.3847588 0.8709587
vn 0.6343931 0.77301055 -8.024662E-07
vn 0.31774536 0.37479043 -0.8709593
vn -0.3157982 -0.39820027 -0.8612248
vn -0.6343932 -0.7730105 -6.883212E-08
vn -0.5555701 -0.8314697 -3.4416065E-08
vn -0.28938246 -0.4177916 0.8612247
vn 0.2664154 0.4128592 0.8709593
vn 0.5555701 0.83146966 3.930447E-07
vn 0.27947998 0.40413097 -0.8709587
vn -0.2752465 -0.42723563 -0.86122537
vn -0.5555701 -0.8314697 -3.4416065E-08
vn -0.47139654 -0.88192135 -3.4416065E-08
vn -0.24703784 -0.4441436 0.8612251
vn 0.22466573 0.43698537 0.8709587
vn 0.47139657 0.88192135 -5.65002E-07
vn 0.23852195 0.429578 -0.8709593
vn -0.23204523 -0.45215824 -0.8612247
vn -0.47139654 -0.88192135 -3.4416065E-08
vn -0.38268334 -0.92387956 -1.7208032E-07
vn -0.20231505 -0.4662195 0.8612247
vn 0.18075135 0.4569016 0.87095916
vn 0.38268328 0.92387956 5.9775573E-07
vn 0.19526762 0.45088926 -0.87095886
vn -0.18660834 -0.4727247 -0.8612251
vn -0.38268334 -0.92387956 -1.7208032E-07
vn -0.2902843 -0.9569404 -5.1624085E-08
vn -0.1556429 -0.48380455 0.861225
vn 0.13509698 0.4724186 0.8709589
vn 0.29028443 0.9569404 3.2753815E-07
vn 0.15013215 0.46785745 -0.8709591
vn -0.13937464 -0.48873946 -0.861225
vn -0.2902843 -0.9569404 -5.1624085E-08
vn -0.19509009 -0.98078537 3.4416065E-08
vn -0.10747234 -0.49673012 0.8612252
vn 0.08814136 0.48338616 0.8709586
vn 0.1950901 0.9807853 -4.3398703E-07
vn 0.10355143 0.4803199 -0.87095916
vn -0.0907987 -0.5000475 -0.86122483
vn -0.19509009 -0.98078537 3.4416065E-08
vn -0.0980173 -0.9951847 -1.204562E-07
vn -0.058267076 -0.50487304 0.86122483
vn 0.040337034 0.48969698 0.87095916
vn 0.09801715 0.9951847 3.6847956E-07
vn 0.055973284 0.48815754 -0.8709588
vn -0.041348536 -0.50653875 -0.8612252
vn -0.0980173 -0.9951847 -1.204562E-07
vn -1.4519275E-08 -1 -1.204562E-07
vn -0.008500213 -0.50815237 0.86122525
vn -0.00785603 0.49129337 0.87095875
vn 0 1 -5.076829E-07
vn 0.00785603 0.49129236 -0.8709592
vn 0.008500207 -0.50815314 -0.8612248
vn -1.4519275E-08 -1 -1.204562E-07
vn 0.098017335 -0.9951847 0
vn 0.041348524 -0.50653946 0.86122483
vn -0.0559733 0.48815688 0.87095916
vn -0.09801716 0.9951847 5.404367E-07
vn -0.04033701 0.4896976 -0.87095875
vn 0.058267076 -0.50487214 -0.8612253
vn 0.098017335 -0.9951847 0
vn 0.19509065 -0.98078525 -1.5487228E-07
vn 0.09079891 -0.5000466 0.8612253
vn -0.10355192 0.48032075 0.8709586
vn -0.19509082 0.9807852 -5.0768296E-07
vn -0.08814154 0.4833851 -0.87095916
vn 0.10747274 -0.49673086 -0.8612247
vn 0.19509065 -0.98078525 -1.5487228E-07
vn 0.29028484 -0.95694035 -8.604015E-08
vn 0.13937488 -0.48873967 0.86122483
vn -0.1501324 0.46785712 0.8709592
vn -0.2902848 0.95694023 2.3746452E-07
vn -0.13509722 0.4724187 -0.8709588
vn 0.1556431 -0.483804 -0.86122525
vn 0.29028484 -0.95694035 -8.604015E-08
vn 0.3826836 -0.92387944 6.883212E-08
vn 0.18660876 -0.47272497 0.86122483
vn -0.19526759 0.45088902 0.87095904
vn -0.38268343 0.92387956 0
vn -0.18075165 0.45690197 -0.8709589
vn 0.20231487 -0.46621895 -0.86122507
vn 0.3826836 -0.92387944 6.883212E-08
vn 0.47139686 -0.8819212 -3.4416065E-08
vn 0.23204498 -0.45215744 0.8612252
vn -0.23852248 0.42957878 0.87095875
vn -0.47139683 0.8819212 -6.878286E-07
vn -0.22466536 0.43698466 -0.87095916
vn 0.24703845 -0.44414416 -0.86122465
vn 0.47139686 -0.8819212 -3.4416065E-08
vn 0.5555702 -0.83146966 -3.441606E-08
vn 0.27524713 -0.4272364 0.8612248
vn -0.27947968 0.40413037 0.8709591
vn -0.55557024 0.8314696 5.8956726E-07
vn -0.26641586 0.41285983 -0.87095886
vn 0.28938207 -0.41779098 -0.8612251
vn 0.5555702 -0.83146966 -3.441606E-08
vn 0.6343935 -0.7730103 -5.16241E-08
vn 0.31579778 -0.39819947 0.86122525
vn -0.31774628 0.374791 0.8709587
vn -0.63439363 0.7730102 -9.82612E-08
vn -0.30560002 0.38475785 -0.8709592
vn 0.32893986 -0.38741505 -0.8612248
vn 0.6343935 -0.7730103 -5.16241E-08
vn 0.70710695 -0.70710665 -6.883213E-08
vn 0.35330808 -0.36532903 0.86122483
vn -0.35295147 0.34184128 0.8709591
vn -0.70710695 0.7071066 3.9304487E-07
vn -0.3418419 0.3529518 -0.87095875
vn 0.36532864 -0.3533074 -0.8612252
vn 0.70710695 -0.70710665 -6.883213E-08
vn 0.7730105 -0.6343932 -1.7208032E-07
vn 0.38741493 -0.32893947 0.861225
vn -0.3847583 0.30560032 0.8709589
vn -0.7730104 0.6343934 -4.094227E-08
vn -0.37479076 0.31774563 -0.87095904
vn 0.3981999 -0.31579795 -0.861225
vn 0.7730105 -0.6343932 -1.7208032E-07
vn 0.8314697 -0.55557007 0
vn 0.41779098 -0.28938192 0.86122525
vn -0.41286024 0.26641577 0.8709587
vn -0.8314697 0.55557 -5.158713E-07
vn -0.40413025 0.27947953 -0.8709592
vn 0.4272366 -0.27524713 -0.8612247
vn 0.8314697 -0.55557007 0
vn 0.8819212 -0.47139695 1.720803E-08
vn 0.44414422 -0.24703836 0.8612247
vn -0.43698457 0.22466558 0.87095916
vn -0.88192123 0.47139686 4.3398697E-07
vn -0.42957884 0.23852241 -0.87095875
vn 0.45215732 -0.23204495 -0.86122525
vn 0.8819212 -0.47139695 1.720803E-08
vn 0.92387956 -0.3826834 -1.3766424E-07
vn 0.46621865 -0.20231475 0.86122525
vn -0.4569024 0.18075173 0.8709587
vn -0.9238795 0.38268343 -4.913061E-07
vn -0.45088866 0.19526756 -0.8709593
vn 0.47272536 -0.18660863 -0.86122465
vn 0.92387956 -0.3826834 -1.3766424E-07
vn 0.95694035 -0.2902845 -1.7208027E-08
vn 0.48380485 -0.15564314 0.8612247
vn -0.47241813 0.13509683 0.8709593
vn -0.9569404 0.2902843 4.4217543E-07
vn -0.4678579 0.15013239 -0.8709588
vn 0.4887391 -0.13937464 -0.8612252
vn 0.95694035 -0.2902845 -1.7208027E-08
vn 0.98078537 -0.19509006 3.441606E-08
vn 0.49673012 -0.10747234 0.8612252
vn -0.483386 0.08814144 0.8709586
vn -0.98078537 0.19509006 -4.0942166E-07
vn -0.48031974 0.10355127 -0.8709592
vn 0.5000475 -0.0907987 -0.86122483
vn 0.98078537 -0.19509006 3.441606E-08
vn 0.9951848 -0.09801708 -1.2045622E-07
vn 0.50487316 -0.058267016 0.8612247
vn -0.4896968 0.04033684 0.8709592
vn -0.9951847 0.09801711 7.5333656E-07
vn -0.48815763 0.05597332 -0.87095875
vn 0.50653857 -0.04134836 -0.86122525
vn 0.9951848 -0.09801708 -1.2045622E-07
vn 1 2.1096874E-07 -5.166581E-08
vn 0.50524443 -0.008059674 0.86293864
vn -0.4944031 -0.008302683 0.8691931
vn -1 -2.5278774E-07 0
vn -0.49440292 0.008302439 -0.8691932
vn 0.5052445 0.00805989 -0.86293864
vn 1 2.1096874E-07 -5.166581E-08
f 1/1/1 8/8/8 9/9/9
f 1/1/1 9/9/9 2/2/2
f 2/2/2 9/9/9 10/10/10
f 2/2/2 10/10/10 3/3/3
f 3/3/3 10/10/10 11/11/11
f 3/3/3 11/11/11 4/4/4
f 4/4/4 11/11/11 12/12/12
f 4/4/4 12/12/12 5/5/5
f 5/5/5 12/12/12 13/13/13
f 5/5/5 13/13/13 6/6/6
f 6/6/6 13/13/13 14/14/14
f 6/6/6 14/14/14 7/7/7
f 8/8/8 15/15/15 16/16/16
f 8/8/8 16/16/16 9/9/9
f 9/9/9 16/16/16 17/17/17
f 9/9/9 17/17/17 10/10/10
f 10/10/10 17/17/17 18/18/18
f 10/10/10 18/18/18 11/11/11
f 11/11/11 18/18/18 19/19/19
f 11/11/11 19/19/19 12/12/12
f 12/12/12 19/19/19 20/20/20
f 12/12/12 20/20/20 13/13/13
f 13/13/13 20/20/20 21/21/21
f 13/13/13 21/21/21 14/14/14
f 15/15/15 22/22/22 23/23/23
f 15/15/15 23/23/23 16/16/16
f 16/16/16 23/23/23 24/24/24
f 16/16/16 24/24/24 17/17/17
f 17/17/17 24/24/24 25/25/25
f 17/17/17 25/25/25 18/18/18
f 18/18/18 25/25/25 26/26/26
f 18/18/18 26/26/26 19/19/19
f 19/19/19 26/26/26 27/27/27
f 19/19/19 27/27/27 20/20/20
f 20/20/20 27/27/27 28/28/28
f 20/20/20 28/28/28 21/21/21
f 22/22/22 29/29/29 30/30/30
f 22/22/22 30/30/30 23/23/23
f 23/23/23 30/30/30 31/31/31
f 23/23/23 31/31/31 24/24/24
f 24/24/24 31/31/31 32/32/32
f 24/24/24 32/32/32 25/25/25
f 25/25/25 32/32/32 33/33/33
f 25/25/25 33/33/33 26/26/26
f 26/26/26 33/33/33 34/34/34
f 26/26/26 34/34/34 27/27/27
f 27/27/27 34/34/34 35/35/35
f 27/27/27 35/35/35 28/28/28
f 29/29/29 36/36/36 37/37/37
f 29/29/29 37/37/37 30/30/30
f 30/30/30 37/37/37 38/38/38
f 30/30/30 38/38/38 31/31/31
f 31/31/31 38/38/38 39/39/39
f 31/31/31 39/39/39 32/32/32
f 32/32/32 39/39/39 40/40/40
f 32/32/32 40/40/40 33/33/33
f 33/33/33 40/40/40 41/41/41
f 33/33/33 41/41/41 34/34/34
f 34/34/34 41/41/41 42/42/42
f 34/34/34 42/42/42 35/35/35
f 36/36/36 43/43/43 44/44/44
f 36/36/36 44/44/44 37/37/37
f 37/37/37 44/44/44 45/45/45
f 37/37/37 45/45/45 38/38/38
f 38/38/38 45/45/45 46/46/46
f 38/38/38 46/46/46 39/39/39
f 39/39/39 46/46/46 47/47/47
f 39/39/39 47/47/47 40/40/40
f 40/40/40 47/47/47 48/48/48
f 40/40/40 48/48/48 41/41/41
f 41/41/41 48/48/48 49/49/49
f 41/41/41 49/49/49 42/42/42
f 43/43/43 50/50/50 51/51/51
f 43/43/43 51/51/51 44/44/44
f 44/44/44 51/51/51 52/52/52
f 44/44/44 52/52/52 45/45/45
f 45/45/45 52/52/52 53/53/53
f 45/45/45 53/53/53 46/46/46
f 46/46/46 53/53/53 54/54/54
f 46/46/46 54/54/54 47/47/47
f 47/47/47 54/54/54 55/55/55
f 47/47/47 55/55/55 48/48/48
f 48/48/48 55/55/55 56/56/56
f 48/48/48 56/56/56 49/49/49
f 50/50/50 57/57/57 58/58/58
f 50/50/50 58/58/58 51/51/51
f 51/51/51 58/58/58 59/59/59
f 51/51/51 59/59/59 52/52/52
f 52/52/52 59/59/59 60/60/60
f 52/52/52 60/60/60 53/53/53
f 53/53/53 60/60/60 61/61/61
f 53/53/53 61/61/61 54/54/54
f 54/54/54 61/61/61 62/62/62
f 54/54/54 62/62/62 55/55/55
f 55/55/55 62/62/62 63/63/63
f 55/55/55 63/63/63 56/56/56
f 57/57/57 64/64/64 65/65/65
f 57/57/57 65/65/65 58/58/58
f 58/58/58 65/65/65 66/66/66
f 58/58/58 66/66/66 59/59/59
f 59/59/59 66/66/66 67/67/67
f 59/59/59 67/67/67 60/60/60
f 60/60/60 67/67/67 68/68/68
f 60/60/60 68/68/68 61/61/61
f 61/61/61 68/68/68 69/69/69
f 61/61/61 69/69/69 62/62/62
f 62/62/62 69/69/69 70/70/70
f 62/62/62 70/70/70 63/63/63
f 64/64/64 71/71/71 72/72/72
f 64/64/64 72/72/72 65/65/65
f 65/65/65 72/72/72 73/73/73
f 65/65/65 73/73/73 66/66/66
f 66/66/66 73/73/73 74/74/74
f 66/66/66 74/74/74 67/67/67
f 67/67/67 74/74/74 75/75/75
f 67/67/67 75/75/75 68/68/68
f 68/68/68 75/75/75 76/76/76
f 68/68/68 76/76/76 69/69/69
f 69/69/69 76/76/76 77/77/77
f 69/69/69 77/77/77 70/70/70
f 71/71/71 78/78/78 79/79/79
f 71/71/71 79/79/79 72/72/72
f 72/72/72 79/79/79 80/80/80
f 72/72/72 80/80/80 73/73/73
f 73/73/73 80/80/80 81/81/81
f 73/73/73 81/81/81 74/74/74
f 74/74/74 81/81/81 82/82/82
f 74/74/74 82/82/82 75/75/75
f 75/75/75 82/82/82 83/83/83
f 75/75/75 83/83/83 76/76/76
f 76/76/76 83/83/83 84/84/84
f 76/76/76 84/84/84 77/77/77
f 78/78/78 85/85/85 86/86/86
f 78/78/78 86/86/86 79/79/79
f 79/79/79 86/86/86 87/87/87
f 79/79/79 87/87/87 80/80/80
f 80/80/80 87/87/87 88/88/88
f 80/80/80 88/88/88 81/81/81
f 81/81/81 88/88/88 89/89/89
f 81/81/81 89/89/89 82/82/82
f 82/82/82 89/89/89 90/90/90
f 82/82/82 90/90/90 83/83/83
f 83/83/83 90/90/90 91/91/91
f 83/83/83 91/91/91 84/84/84
f 85/85/85 92/92/92 93/93/93
f 85/85/85 93/93/93 86/86/86
f 86/86/86 93/93/93 94/94/94
f 86/86/86 94/94/94 87/87/87
f 87/87/87 94/94/94 95/95/95
f 87/87/87 95/95/95 88/88/88
f 88/88/88 95/95/95 96/96/96
f 88/88/88 96/96/96 89/89/89
f 89/89/89 96/96/96 97/97/97
f 89/89/89 97/97/97 90/90/90
f 90/90/90 97/97/97 98/98/98
f 90/90/90 98/98/98 91/91/91
f 92/92/92 99/99/99 100/100/100
f 92/92/92 100/100/100 93/93/93
f 93/93/93 100/100/100 101/101/101
f 93/93/93 101/101/101 94/94/94
f 94/94/94 101/101/101 102/102/102
f 94/94/94 102/102/102 95/95/95
f 95/95/95 102/102/102 103/103/103
f 95/95/95 103/103/103 96/96/96
f 96/96/96 103/103/103 104/104/104
f 96/96/96 104/104/104 97/97/97
f 97/97/97 104/104/104 105/105/105
f 97/97/97 105/105/105 98/98/98
f 99/99/99 106/106/106 107/107/107
f 99/99/99 107/107/107 100/100/100
f 100/100/100 107/107/107 108/108/108
f 100/100/100 108/108/108 101/101/101
f 101/101/101 108/108/108 109/109/109
f 101/101/101 109/109/109 102/102/102
f 102/102/102 109/109/109 110/110/110
f 102/102/102 110/110/110 103/103/103
f 103/103/103 110/110/110 111/111/111
f 103/103/103 111/111/111 104/104/104
f 104/104/104 111/111/111 112/112/112
f 104/104/104 112/112/112 105/105/105
f 106/106/106 113/113/113 114/114/114
f 106/106/106 114/114/114 107/107/107
f 107/107/107 114/114/114 115/115/115
f 107/107/107 115/115/115 108/108/108
f 108/108/108 115/115/115 116/116/116
f 108/108/108 116/116/116 109/109/109
f 109/109/109 116/116/116 117/117/117
f 109/109/109 117/117/117 110/110/110
f 110/110/110 117/117/117 118/118/118
f 110/110/110 118/118/118 111/111/111
f 111/111/111 118/118/118 119/119/119
f 111/111/111 119/119/119 112/112/112
f 113/113/113 120/120/120 121/121/121
f 113/113/113 121/121/121 114/114/114
f 114/114/114 121/121/121 122/122/122
f 114/114/114 122/122/122 115/115/115
f 115/115/115 122/122/122 123/123/123
f 115/115/115 123/123/123 116/116/116
f 116/116/116 123/123/123 124/124/124
f 116/116/116 124/124/124 117/117/117
f 117/117/117 124/124/124 125/125/125
f 117/117/117 125/125/125 118/118/118
f 118/118/118 125/125/125 126/126/126
f 118/118/118 126/126/126 119/119/119
f 120/120/120 127/127/127 128/128/128
f 120/120/120 128/128/128 121/121/121
f 121/121/121 128/128/128 129/129/129
f 121/121/121 129/129/129 122/122/122
f 122/122/122 129/129/129 130/130/130
f 122/122/122 130/130/130 123/123/123
f 123/123/123 130/130/130 131/131/131
f 123/123/123 131/131/131 124/124/124
f 124/124/124 131/131/131 132/132/132
f 124/124/124 132/132/132 125/125/125
f 125/125/125 132/132/132 133/133/133
f 125/125/125 133/133/133 126/126/126
f 127/127/127 134/134/134 135/135/135
f 127/127/127 135/135/135 128/128/128
f 128/128/128 135/135/135 136/136/136
f 128/128/128 136/136/136 129/129/129
f 129/129/129 136/136/136 137/137/137
f 129/129/129 137/137/137 130/130/130
f 130/130/130 137/137/137 138/138/138
f 130/130/130 138/138/138 131/131/131
f 131/131/131 138/138/138 139/139/139
f 131/131/131 139/139/139 132/132/132
f 132/132/132 139/139/139 140/140/140
f 132/132/132 140/140/140 133/133/133
f 134/134/134 141/141/141 142/142/142
f 134/134/134 142/142/142 135/135/135
f 135/135/135 142/142/142 143/143/143
f 135/135/135 143/143/143 136/136/136
f 136/136/136 143/143/143 144/144/144
f 136/136/136 144/144/144 137/137/137
f 137/137/137 144/144/144 145/145/145
f 137/137/137 145/145/145 138/138/138
f 138/138/138 145/145/145 146/146/146
f 138/138/138 146/146/146 139/139/139
f 139/139/139 146/146/146 147/147/147
f 139/139/139 147/147/147 140/140/140
f 141/141/141 148/148/148 149/149/149
f 141/141/141 149/149/149 142/142/142
f 142/142/142 149/149/149 150/150/150
f 142/142/142 150/150/150 143/143/143
f 143/143/143 150/150/150 151/151/151
f 143/143/143 151/151/151 144/144/144
f 144/144/144 151/151/151 152/152/152
f 144/144/144 152/152/152 145/145/145
f 145/145/145 152/152/152 153/153/153
f 145/145/145 153/153/153 146/146/146
f 146/146/146 153/153/153 154/154/154
f 146/146/146 154/154/154 147/147/147
f 148/148/148 155/155/155 156/156/156
f 148/148/148 156/156/156 149/149/149
f 149/149/149 156/156/156 157/157/157
f 149/149/149 157/157/157 150/150/150
f 150/150/150 157/157/157 158/158/158
f 150/150/150 158/158/158 151/151/151
f 151/151/151 158/158/158 159/159/159
f 151/151/151 159/159/159 152/152/152
f 152/152/152 159/159/159 160/160/160
f 152/152/152 160/160/160 153/153/153
f 153/153/153 160/160/160 161/161/161
f 153/153/153 161/161/161 154/154/154
f 155/155/155 162/162/162 163/163/163
f 155/155/155 163/163/163 156/156/156
f 156/156/156 163/163/163 164/164/164
f 156/156/156 164/164/164 157/157/157
f 157/157/157 164/164/164 165/165/165
f 157/157/157 165/165/165 158/158/158
f 158/158/158 165/165/165 166/166/166
f 158/158/158 166/166/166 159/159/159
f 159/159/159 166/166/166 167/167/167
f 159/159/159 167/167/167 160/160/160
f 160/160/160 167/167/167 168/168/168
f 160/160/160 168/168/168 161/161/161
f 162/162/162 169/169/169 170/170/170
f 162/162/162 170/170/170 163/163/163
f 163/163/163 170/170/170 171/171/171
f 163/163/163 171/171/171 164/164/164
f 164/164/164 171/171/171 172/172/172
f 164/164/164 172/172/172 165/165/165
f 165/165/165 172/172/172 173/173/173
f 165/165/165 173/173/173 166/166/166
f 166/166/166 173/173/173 174/174/174
f 166/166/166 174/174/174 167/167/167
f 167/167/167 174/174/174 175/175/175
f 167/167/167 175/175/175 168/168/168
f 169/169/169 176/176/176 177/177/177
f 169/169/169 177/177/177 170/170/170
f 170/170/170 177/177/177 178/178/178
f 170/170/170 178/178/178 171/171/171
f 171/171/171 178/178/178 179/179/179
f 171/171/171 179/179/179 172/172/172
f 172/172/172 179/179/179 180/180/180
f 172/172/172 180/180/180 173/173/173
f 173/173/173 180/180/180 181/181/181
f 173/173/173 181/181/181 174/174/174
f 174/174/174 181/181/181 182/182/182
f 174/174/174 182/182/182 175/175/175
f 176/176/176 183/183/183 184/184/184
f 176/176/176 184/184/184 177/177/177
f 177/177/177 184/184/184 185/185/185
f 177/177/177 185/185/185 178/178/178
f 178/178/178 185/185/185 186/186/186
f 178/178/178 186/186/186 179/179/179
f 179/179/179 186/186/186 187/187/187
f 179/179/179 187/187/187 180/180/180
f 180/180/180 187/187/187 188/188/188
f 180/180/180 188/188/188 181/181/181
f 181/181/181 188/188/188 189/189/189
f 181/181/181 189/189/189 182/182/182
f 183/183/183 190/190/190 191/191/191
f 183/183/183 191/191/191 184/184/184
f 184/184/184 191/191/191 192/192/192
f 184/184/184 192/192/192 185/185/185
f 185/185/185 192/192/192 193/193/193
f 185/185/185 193/193/193 186/186/186
f 186/186/186 193/193/193 194/194/194
f 186/186/186 194/194/194 187/187/187
f 187/187/187 194/194/194 195/195/195
f 187/187/187 195/195/195 188/188/188
f 188/188/188 195/195/195 196/196/196
f 188/188/188 196/196/196 189/189/189
f 190/190/190 197/197/197 198/198/198
f 190/190/190 198/198/198 191/191/191
f 191/191/191 198/198/198 199/199/199
f 191/191/191 199/199/199 192/192/192
f 192/192/192 199/199/199 200/200/200
f 192/192/192 200/200/200 193/193/193
f 193/193/193 200/200/200 201/201/201
f 193/193/193 201/201/201 194/194/194
f 194/194/194 201/201/201 202/202/202
f 194/194/194 202/202/202 195/195/195
f 195/195/195 202/202/202 203/203/203
f 195/195/195 203/203/203 196/196/196
f 197/197/197 204/204/204 205/205/205
f 197/197/197 205/205/205 198/198/198
f 198/198/198 205/205/205 206/206/206
f 198/198/198 206/206/206 199/199/199
f 199/199/199 206/206/206 207/207/207
f 199/199/199 207/207/207 200/200/200
f 200/200/200 207/207/207 208/208/208
f 200/200/200 208/208/208 201/201/201
f 201/201/201 208/208/208 209/209/209
f 201/201/201 209/209/209 202/202/202
f 202/202/202 209/209/209 210/210/210
f 202/202/202 210/210/210 203/203/203
f 204/204/204 211/211/211 212/212/212
f 204/204/204 212/212/212 205/205/205
f 205/205/205 212/212/212 213/213/213
f 205/205/205 213/213/213 206/206/206
f 206/206/206 213/213/213 214/214/214
f 206/206/206 214/214/214 207/207/207
f 207/207/207 214/214/214 215/215/215
f 207/207/207 215/215/215 208/208/208
f 208/208/208 215/215/215 216/216/216
f 208/208/208 216/216/216 209/209/209
f 209/209/209 216/216/216 217/217/217
f 209/209/209 217/217/217 210/210/210
f 211/211/211 218/218/218 219/219/219
f 211/211/211 219/219/219 212/212/212
f 212/212/212 219/219/219 220/220/220
f 212/212/212 220/220/220 213/213/213
f 213/213/213 220/220/220 221/221/221
f 213/213/213 221/221/221 214/214/214
f 214/214/214 221/221/221 222/222/222
f 214/214/214 222/222/222 215/215/215
f 215/215/215 222/222/222 223/223/223
f 215/215/215 223/223/223 216/216/216
f 216/216/216 223/223/223 224/224/224
f 216/216/216 224/224/224 217/217/217
f 218/218/218 225/225/225 226/226/226
f 218/218/218 226/226/226 219/219/219
f 219/219/219 226/226/226 227/227/227
f 219/219/219 227/227/227 220/220/220
f 220/220/220 227/227/227 228/228/228
f 220/220/220 228/228/228 221/221/221
f 221/221/221 228/228/228 229/229/229
f 221/221/221 229/229/229 222/222/222
f 222/222/222 229/229/229 230/230/230
f 222/222/222 230/230/230 223/223/223
f 223/223/223 230/230/230 231/231/231
f 223/223/223 231/231/231 224/224/224
f 225/225/225 232/232/232 233/233/233
f 225/225/225 233/233/233 226/226/226
f 226/226/226 233/233/233 234/234/234
f 226/226/226 234/234/234 227/227/227
f 227/227/227 234/234/234 235/235/235
f 227/227/227 235/235/235 228/228/228
f 228/228/228 235/235/235 236/236/236
f 228/228/228 236/236/236 229/229/229
f 229/229/229 236/236/236 237/237/237
f 229/229/229 237/237/237 230/230/230
f 230/230/230 237/237/237 238/238/238
f 230/230/230 238/238/238 231/231/231
f 232/232/232 239/239/239 240/240/240
f 232/232/232 240/240/240 233/233/233
f 233/233/233 240/240/240 241/241/241
f 233/233/233 241/241/241 234/234/234
f 234/234/234 241/241/241 242/242/242
f 234/234/234 242/242/242 235/235/235
f 235/235/235 242/242/242 243/243/243
f 235/235/235 243/243/243 236/236/236
f 236/236/236 243/243/243 244/244/244
f 236/236/236 244/244/244 237/237/237
f 237/237/237 244/244/244 245/245/245
f 237/237/237 245/245/245 238/238/238
f 239/239/239 246/246/246 247/247/247
f 239/239/239 247/247/247 240/240/240
f 240/240/240 247/247/247 248/248/248
f 240/240/240 248/248/248 241/241/241
f 241/241/241 248/248/248 249/249/249
f 241/241/241 249/249/249 242/242/242
f 242/242/242 249/249/249 250/250/250
f 242/242/242 250/250/250 243/243/243
f 243/243/243 250/250/250 251/251/251
f 243/243/243 251/251/251 244/244/244
f 244/244/244 251/251/251 252/252/252
f 244/244/244 252/252/252 245/245/245
f 246/246/246 253/253/253 254/254/254
f 246/246/246 254/254/254 247/247/247
f 247/247/247 254/254/254 255/255/255
f 247/247/247 255/255/255 248/248/248
f 248/248/248 255/255/255 256/256/256
f 248/248/248 256/256/256 249/249/249
f 249/249/249 256/256/256 257/257/257
f 249/249/249 257/257/257 250/250/250
f 250/250/250 257/257/257 258/258/258
f 250/250/250 258/258/258 251/251/251
f 251/251/251 258/258/258 259/259/259
f 251/251/251 259/259/259 252/252/252
f 253/253/253 260/260/260 261/261/261
f 253/253/253 261/261/261 254/254/254
f 254/254/254 261/261/261 262/262/262
f 254/254/254 262/262/262 255/255/255
f 255/255/255 262/262/262 263/263/263
f 255/255/255 263/263/263 256/256/256
f 256/256/256 263/263/263 264/264/264
f 256/256/256 264/264/264 257/257/257
f 257/257/257 264/264/264 265/265/265
f 257/257/257 265/265/265 258/258/258
f 258/258/258 265/265/265 266/266/266
f 258/258/258 266/266/266 259/259/259
f 260/260/260 267/267/267 268/268/268
f 260/260/260 268/268/268 261/261/261
f 261/261/261 268/268/268 269/269/269
f 261/261/261 269/269/269 262/262/262
f 262/262/262 269/269/269 270/270/270
f 262/262/262 270/270/270 263/263/263
f 263/263/263 270/270/270 271/271/271
f 263/263/263 271/271/271 264/264/264
f 264/264/264 271/271/271 272/272/272
f 264/264/264 272/272/272 265/265/265
f 265/265/265 272/272/272 273/273/273
f 265/265/265 273/273/273 266/266/266
f 267/267/267 274/274/274 275/275/275
f 267/267/267 275/275/275 268/268/268
f 268/268/268 275/275/275 276/276/276
f 268/268/268 276/276/276 269/269/269
f 269/269/269 276/276/276 277/277/277
f 269/269/269 277/277/277 270/270/270
f 270/270/270 277/277/277 278/278/278
f 270/270/270 278/278/278 271/271/271
f 271/271/271 278/278/278 279/279/279
f 271/271/271 279/279/279 272/272/272
f 272/272/272 279/279/279 280/280/280
f 272/272/272 280/280/280 273/273/273
f 274/274/274 281/281/281 282/282/282
f 274/274/274 282/282/282 275/275/275
f 275/275/275 282/282/282 283/283/283
f 275/275/275 283/283/283 276/276/276
f 276/276/276 283/283/283 284/284/284
f 276/276/276 284/284/284 277/277/277
f 277/277/277 284/284/284 285/285/285
f 277/277/277 285/285/285 278/278/278
f 278/278/278 285/285/285 286/286/286
f 278/278/278 286/286/286 279/279/279
f 279/279/279 286/286/286 287/287/287
f 279/279/279 287/287/287 280/280/280
f 281/281/281 288/288/288 289/289/289
f 281/281/281 289/289/289 282/282/282
f 282/282/282 289/289/289 290/290/290
f 282/282/282 290/290/290 283/283/283
f 283/283/283 290/290/290 291/291/291
f 283/283/283 291/291/291 284/284/284
f 284/284/284 291/291/291 292/292/292
f 284/284/284 292/292/292 285/285/285
f 285/285/285 292/292/292 293/293/293
f 285/285/285 293/293/293 286/286/286
f 286/286/286 293/293/293 294/294/294
f 286/286/286 294/294/294 287/287/287
f 288/288/288 295/295/295 296/296/296
f 288/288/288 296/296/296 289/289/289
f 289/289/289 296/296/296 297/297/297
f 289/289/289 297/297/297 290/290/290
f 290/290/290 297/297/297 298/298/298
f 290/290/290 298/298/298 291/291/291
f 291/291/291 298/298/298 299/299/299
f 291/291/291 299/299/299 292/292/292
f 292/292/292 299/299/299 300/300/300
f 292/292/292 300/300/300 293/293/293
f 293/293/293 300/300/300 301/301/301
f 293/293/293 301/301/301 294/294/294
f 295/295/295 302/302/302 303/303/303
f 295/295/295 303/303/303 296/296/296
f 296/296/296 303/303/303 304/304/304
f 296/296/296 304/304/304 297/297/297
f 297/297/297 304/304/304 305/305/305
f 297/297/297 305/305/305 298/298/298
f 298/298/298 305/305/305 306/306/306
f 298/298/298 306/306/306 299/299/299
f 299/299/299 306/306/306 307/307/307
f 299/299/299 307/307/307 300/300/300
f 300/300/300 307/307/307 308/308/308
f 300/300/300 308/308/308 301/301/301
f 302/302/302 309/309/309 310/310/310
f 302/302/302 310/310/310 303/303/303
f 303/303/303 310/310/310 311/311/311
f 303/303/303 311/311/311 304/304/304
f 304/304/304 311/311/311 312/312/312
f 304/304/304 312/312/312 305/305/305
f 305/305/305 312/312/312 313/313/313
f 305/305/305 313/313/313 306/306/306
f 306/306/306 313/313/313 314/314/314
f 306/306/306 314/314/314 307/307/307
f 307/307/307 314/314/314 315/315/315
f 307/307/307 315/315/315 308/308/308
f 309/309/309 316/316/316 317/317/317
f 309/309/309 317/317/317 310/310/310
f 310/310/310 317/317/317 318/318/318
f 310/310/310 318/318/318 311/311/311
f 311/311/311 318/318/318 319/319/319
f 311/311/311 319/319/319 312/312/312
f 312/312/312 319/319/319 320/320/320
f 312/312/312 320/320/320 313/313/313
f 313/313/313 320/320/320 321/321/321
f 313/313/313 321/321/321 314/314/314
f 314/314/314 321/321/321 322/322/322
f 314/314/314 322/322/322 315/315/315
f 316/316/316 323/323/323 324/324/324
f 316/316/316 324/324/324 317/317/317
f 317/317/317 324/324/324 325/325/325
f 317/317/317 325/325/325 318/318/318
f 318/318/318 325/325/325 326/326/326
f 318/318/318 326/326/326 319/319/319
f 319/319/319 326/326/326 327/327/327
f 319/319/319 327/327/327 320/320/320
f 320/320/320 327/327/327 328/328/328
f 320/320/320 328/328/328 321/321/321
f 321/321/321 328/328/328 329/329/329
f 321/321/321 329/329/329 322/322/322
f 323/323/323 330/330/330 331/331/331
f 323/323/323 331/331/331 324/324/324
f 324/324/324 331/331/331 332/332/332
f 324/324/324 332/332/332 325/325/325
f 325/325/325 332/332/332 333/333/333
f 325/325/325 333/333/333 326/326/326
f 326/326/326 333/333/333 334/334/334
f 326/326/326 334/334/334 327/327/327
f 327/327/327 334/334/334 335/335/335
f 327/327/327 335/335/335 328/328/328
f 328/328/328 335/335/335 336/336/336
f 328/328/328 336/336/336 329/329/329
f 330/330/330 337/337/337 338/338/338
f 330/330/330 338/338/338 331/331/331
f 331/331/331 338/338/338 339/339/339
f 331/331/331 339/339/339 332/332/332
f 332/332/332 339/339/339 340/340/340
f 332/332/332 340/340/340 333/333/333
f 333/333/333 340/340/340 341/341/341
f 333/333/333 341/341/341 334/334/334
f 334/334/334 341/341/341 342/342/342
f 334/334/334 342/342/342 335/335/335
f 335/335/335 342/342/342 343/343/343
f 335/335/335 343/343/343 336/336/336
f 337/337/337 344/344/344 345/345/345
f 337/337/337 345/345/345 338/338/338
f 338/338/338 345/345/345 346/346/346
f 338/338/338 346/346/346 339/339/339
f 339/339/339 346/346/346 347/347/347
f 339/339/339 347/347/347 340/340/340
f 340/340/340 347/347/347 348/348/348
f 340/340/340 348/348/348 341/341/341
f 341/341/341 348/348/348 349/349/349
f 341/341/341 349/349/349 342/342/342
f 342/342/342 349/349/349 350/350/350
f 342/342/342 350/350/350 343/343/343
f 344/344/344 351/351/351 352/352/352
f 344/344/344 352/352/352 345/345/345
f 345/345/345 352/352/352 353/353/353
f 345/345/345 353/353/353 346/346/346
f 346/346/346 353/353/353 354/354/354
f 346/346/346 354/354/354 347/347/347
f 347/347/347 354/354/354 355/355/355
f 347/347/347 355/355/355 348/348/348
f 348/348/348 355/355/355 356/356/356
f 348/348/348 356/356/356 349/349/349
f 349/349/349 356/356/356 357/357/357
f 349/349/349 357/357/357 350/350/350
f 351/351/351 358/358/358 359/359/359
f 351/351/351 359/359/359 352/352/352
f 352/352/352 359/359/359 360/360/360
f 352/352/352 360/360/360 353/353/353
f 353/353/353 360/360/360 361/361/361
f 353/353/353 361/361/361 354/354/354
f 354/354/354 361/361/361 362/362/362
f 354/354/354 362/362/362 355/355/355
f 355/355/355 362/362/362 363/363/363
f 355/355/355 363/363/363 356/356/356
f 356/356/356 363/363/363 364/364/364
f 356/356/356 364/364/364 357/357/357
f 358/358/358 365/365/365 366/366/366
f 358/358/358 366/366/366 359/359/359
f 359/359/359 366/366/366 367/367/367
f 359/359/359 367/367/367 360/360/360
f 360/360/360 367/367/367 368/368/368
f 360/360/360 368/368/368 361/361/361
f 361/361/361 368/368/368 369/369/369
f 361/361/361 369/369/369 362/362/362
f 362/362/362 369/369/369 370/370/370
f 362/362/362 370/370/370 363/363/363
f 363/363/363 370/370/370 371/371/371
f 363/363/363 371/371/371 364/364/364
f 365/365/365 372/372/372 373/373/373
f 365/365/365 373/373/373 366/366/366
f 366/366/366 373/373/373 374/374/374
f 366/366/366 374/374/374 367/367/367
f 367/367/367 374/374/374 375/375/375
f 367/367/367 375/375/375 368/368/368
f 368/368/368 375/375/375 376/376/376
f 368/368/368 376/376/376 369/369/369
f 369/369/369 376/376/376 377/377/377
f 369/369/369 377/377/377 370/370/370
f 370/370/370 377/377/377 378/378/378
f 370/370/370 378/378/378 371/371/371
f 372/372/372 379/379/379 380/380/380
f 372/372/372 380/380/380 373/373/373
f 373/373/373 380/380/380 381/381/381
f 373/373/373 381/381/381 374/374/374
f 374/374/374 381/381/381 382/382/382
f 374/374/374 382/382/382 375/375/375
f 375/375/375 382/382/382 383/383/383
f 375/375/375 383/383/383 376/376/376
f 376/376/376 383/383/383 384/384/384
f 376/376/376 384/384/384 377/377/377
f 377/377/377 384/384/384 385/385/385
f 377/377/377 385/385/385 378/378/378
f 379/379/379 386/386/386 387/387/387
f 379/379/379 387/387/387 380/380/380
f 380/380/380 387/387/387 388/388/388
f 380/380/380 388/388/388 381/381/381
f 381/381/381 388/388/388 389/389/389
f 381/381/381 389/389/389 382/382/382
f 382/382/382 389/389/389 390/390/390
f 382/382/382 390/390/390 383/383/383
f 383/383/383 390/390/390 391/391/391
f 383/383/383 391/391/391 384/384/384
f 384/384/384 391/391/391 392/392/392
f 384/384/384 392/392/392 385/385/385
f 386/386/386 393/393/393 394/394/394
f 386/386/386 394/394/394 387/387/387
f 387/387/387 394/394/394 395/395/395
f 387/387/387 395/395/395 388/388/388
f 388/388/388 395/395/395 396/396/396
f 388/388/388 396/396/396 389/389/389
f 389/389/389 396/396/396 397/397/397
f 389/389/389 397/397/397 390/390/390
f 390/390/390 397/397/397 398/398/398
f 390/390/390 398/398/398 391/391/391
f 391/391/391 398/398/398 399/399/399
f 391/391/391 399/399/399 392/392/392
f 393/393/393 400/400/400 401/401/401
f 393/393/393 401/401/401 394/394/394
f 394/394/394 401/401/401 402/402/402
f 394/394/394 402/402/402 395/395/395
f 395/395/395 402/402/402 403/403/403
f 395/395/395 403/403/403 396/396/396
f 396/396/396 403/403/403 404/404/404
f 396/396/396 404/404/404 397/397/397
f 397/397/397 404/404/404 405/405/405
f 397/397/397 405/405/405 398/398/398
f 398/398/398 405/405/405 406/406/406
f 398/398/398 406/406/406 399/399/399
f 400/400/400 407/407/407 408/408/408
f 400/400/400 408/408/408 401/401/401
f 401/401/401 408/408/408 409/409/409
f 401/401/401 409/409/409 402/402/402
f 402/402/402 409/409/409 410/410/410
f 402/402/402 410/410/410 403/403/403
f 403/403/403 410/410/410 411/411/411
f 403/403/403 411/411/411 404/404/404
f 404/404/404 411/411/411 412/412/412
f 404/404/404 412/412/412 405/405/405
f 405/405/405 412/412/412 413/413/413
f 405/405/405 413/413/413 406/406/406
f 407/407/407 414/414/414 415/415/415
f 407/407/407 415/415/415 408/408/408
f 408/408/408 415/415/415 416/416/416
f 408/408/408 416/416/416 409/409/409
f 409/409/409 416/416/416 417/417/417
f 409/409/409 417/417/417 410/410/410
f 410/410/410 417/417/417 418/418/418
f 410/410/410 418/418/418 411/411/411
f 411/411/411 418/418/418 419/419/419
f 411/411/411 419/419/419 412/412/412
f 412/412/412 419/419/419 420/420/420
f 412/412/412 420/420/420 413/413/413
f 414/414/414 421/421/421 422/422/422
f 414/414/414 422/422/422 415/415/415
f 415/415/415 422/422/422 423/423/423
f 415/415/415 423/423/423 416/416/416
f 416/416/416 423/423/423 424/424/424
f 416/416/416 424/424/424 417/417/417
f 417/417/417 424/424/424 425/425/425
f 417/417/417 425/425/425 418/418/418
f 418/418/418 425/425/425 426/426/426
f 418/418/418 426/426/426 419/419/419
f 419/419/419 426/426/426 427/427/427
f 419/419/419 427/427/427 420/420/420
f 421/421/421 428/428/428 429/429/429
f 421/421/421 429/429/429 422/422/422
f 422/422/422 429/429/429 430/430/430
f 422/422/422 430/430/430 423/423/423
f 423/423/423 430/430/430 431/431/431
f 423/423/423 431/431/431 424/424/424
f 424/424/424 431/431/431 432/432/432
f 424/424/424 432/432/432 425/425/425
f 425/425/425 432/432/432 433/433/433
f 425/425/425 433/433/433 426/426/426
f 426/426/426 433/433/433 434/434/434
f 426/426/426 434/434/434 427/427/427
f 428/428/428 435/435/435 436/436/436
f 428/428/428 436/436/436 429/429/429
f 429/429/429 436/436/436 437/437/437
f 429/429/429 437/437/437 430/430/430
f 430/430/430 437/437/437 438/438/438
f 430/430/430 438/438/438 431/431/431
f 431/431/431 438/438/438 439/439/439
f 431/431/431 439/439/439 432/432/432
f 432/432/432 439/439/439 440/440/440
f 432/432/432 440/440/440 433/433/433
f 433/433/433 440/440/440 441/441/441
f 433/433/433 441/441/441 434/434/434
f 435/435/435 442/442/442 443/443/443
f 435/435/435 443/443/443 436/436/436
f 436/436/436 443/443/443 444/444/444
f 436/436/436 444/444/444 437/437/437
f 437/437/437 444/444/444 445/445/445
f 437/437/437 445/445/445 438/438/438
f 438/438/438 445/445/445 446/446/446
f 438/438/438 446/446/446 439/439/439
f 439/439/439 446/446/446 447/447/447
f 439/439/439 447/447/447 440/440/440
f 440/440/440 447/447/447 448/448/448
f 440/440/440 448/448/448 441/441/441
f 442/442/442 449/449/449 450/450/450
f 442/442/442 450/450/450 443/443/443
f 443/443/443 450/450/450 451/451/451
f 443/443/443 451/451/451 444/444/444
f 444/444/444 451/451/451 452/452/452
f 444/444/444 452/452/452 445/445/445
f 445/445/445 452/452/452 453/453/453
f 445/445/445 453/453/453 446/446/446
f 446/446/446 453/453/453 454/454/454
f 446/446/446 454/454/454 447/447/447
f 447/447/447 454/454/454 455/455/455
f 447/447/447 455/455/455 448/448/448
