# Actual Vfx120MeshFactory with data-only Mesh collector; Unity math structs
v -0.0010975309 0.3627362 0.04044373
v 0.17614403 0.34057263 0.04044373
v 0.15181775 0.3392848 0.11791892
v 0.08281293 0.32247072 0.16798453
v -0.0010975386 0.33673033 0.1942275
v -0.09086961 0.34499705 0.17689395
v -0.15098652 0.33257008 0.116385594
v -0.17266852 0.32967648 0.04044372
v -0.15026274 0.3309643 -0.035131518
v -0.091593325 0.34777838 -0.097106524
v -0.0010975288 0.33351874 -0.1118733
v 0.08353673 0.32525203 -0.08819708
v 0.15109406 0.33767903 -0.03666474
v 0.17614403 0.34057263 0.04044373
v 0.31142166 0.24873973 0.04044373
v 0.25456324 0.23496434 0.16997536
v 0.16181566 0.25933123 0.2880658
v -0.001097546 0.2731066 0.34156126
v -0.16888154 0.2670847 0.29546914
v -0.24214599 0.2215349 0.1625719
v -0.3330998 0.26424673 0.040443707
v -0.3036087 0.2780221 -0.11282493
v -0.16044503 0.25365523 -0.20175862
v -0.0010975273 0.23987985 -0.22403918
v 0.15337934 0.24590178 -0.19435516
v 0.31602603 0.2914515 -0.1202282
v 0.31142166 0.24873973 0.04044373
v 0.36343104 0.120177835 0.04044373
v 0.34243375 0.13077614 0.21449535
v 0.25880426 0.17136891 0.4354848
v -0.0010975482 0.12945385 0.38502726
v -0.1868353 0.122468114 0.3227582
v -0.3622675 0.13749084 0.22343194
v -0.47867683 0.15744843 0.040443692
v -0.38685292 0.14685011 -0.15500101
v -0.16224967 0.10625735 -0.20450161
v -0.0010975256 0.14817241 -0.3539653
v 0.23421884 0.15515816 -0.31722805
v 0.3670193 0.14013538 -0.14606413
v 0.36343104 0.120177835 0.04044373
v 0.49361423 -1.7211365E-08 0.04044373
v 0.43935555 -1.769425E-08 0.26360118
v 0.23651676 -1.6533535E-08 0.40160874
v -0.001097547 -1.2843119E-08 0.36439508
v -0.21922876 -1.5177873E-08 0.3719951
v -0.5 -2.0042323E-08 0.2932147
v -0.41787675 -1.4500038E-08 0.0404437
v -0.3500188 -1.4017157E-08 -0.13633882
v -0.2192287 -1.5177873E-08 -0.29110765
v -0.0010975244 -1.8868286E-08 -0.4354848
v 0.23651685 -1.6533527E-08 -0.32072097
v 0.2893745 -1.1669082E-08 -0.106725074
v 0.49361423 -1.7211365E-08 0.04044373
v 0.5 -0.16520195 0.04044373
v 0.36701936 -0.14013545 0.22695173
v 0.16593416 -0.11013411 0.29432577
v -0.0010975505 -0.14817245 0.43485287
v -0.2305342 -0.15128145 0.3891789
v -0.38685307 -0.14685017 0.23588835
v -0.3421079 -0.11242437 0.040443704
v -0.36226743 -0.13749088 -0.14254466
v -0.2551197 -0.16749221 -0.3456607
v -0.0010975263 -0.12945385 -0.30413973
v 0.19051991 -0.12634487 -0.2508074
v 0.34243396 -0.13077621 -0.13360786
v 0.5 -0.16520195 0.04044373
v 0.31142166 -0.24873973 0.04044373
v 0.26299968 -0.24271785 0.17424972
v 0.15337922 -0.24590178 0.2752427
v -0.0010975468 -0.2886136 0.35865876
v -0.16044508 -0.25365523 0.28264603
v -0.25058246 -0.22928843 0.16684628
v -0.3330998 -0.26424673 0.040443707
v -0.29517227 -0.27026862 -0.10855056
v -0.16888145 -0.26708466 -0.21458168
v -0.0010975276 -0.22437288 -0.20694177
v 0.16181582 -0.25933126 -0.2071783
v 0.3075896 -0.28369805 -0.11595383
v 0.31142166 -0.24873973 0.04044373
v 0.16643828 -0.32192305 0.04044373
v 0.15109394 -0.33767903 0.1175522
v 0.08838945 -0.34390166 0.17646065
v -0.0010975385 -0.33351877 0.19276068
v -0.08674048 -0.32912883 0.17061782
v -0.15026271 -0.33096436 0.116018884
v -0.18237409 -0.34832612 0.04044372
v -0.1509864 -0.3325701 -0.035498153
v -0.086016715 -0.32634753 -0.088630304
v -0.0010975288 -0.3367304 -0.11333995
v 0.08766579 -0.34112033 -0.0944731
v 0.1518177 -0.3392848 -0.03703138
v 0.16643828 -0.32192305 0.04044373
v -0.0010975309 -0.3627362 0.04044373
vt 0.5 0
vt 0 0.125
vt 0.083333336 0.125
vt 0.16666667 0.125
vt 0.25 0.125
vt 0.33333334 0.125
vt 0.41666666 0.125
vt 0.5 0.125
vt 0.5833333 0.125
vt 0.6666667 0.125
vt 0.75 0.125
vt 0.8333333 0.125
vt 0.9166667 0.125
vt 1 0.125
vt 0 0.25
vt 0.083333336 0.25
vt 0.16666667 0.25
vt 0.25 0.25
vt 0.33333334 0.25
vt 0.41666666 0.25
vt 0.5 0.25
vt 0.5833333 0.25
vt 0.6666667 0.25
vt 0.75 0.25
vt 0.8333333 0.25
vt 0.9166667 0.25
vt 1 0.25
vt 0 0.375
vt 0.083333336 0.375
vt 0.16666667 0.375
vt 0.25 0.375
vt 0.33333334 0.375
vt 0.41666666 0.375
vt 0.5 0.375
vt 0.5833333 0.375
vt 0.6666667 0.375
vt 0.75 0.375
vt 0.8333333 0.375
vt 0.9166667 0.375
vt 1 0.375
vt 0 0.5
vt 0.083333336 0.5
vt 0.16666667 0.5
vt 0.25 0.5
vt 0.33333334 0.5
vt 0.41666666 0.5
vt 0.5 0.5
vt 0.5833333 0.5
vt 0.6666667 0.5
vt 0.75 0.5
vt 0.8333333 0.5
vt 0.9166667 0.5
vt 1 0.5
vt 0 0.625
vt 0.083333336 0.625
vt 0.16666667 0.625
vt 0.25 0.625
vt 0.33333334 0.625
vt 0.41666666 0.625
vt 0.5 0.625
vt 0.5833333 0.625
vt 0.6666667 0.625
vt 0.75 0.625
vt 0.8333333 0.625
vt 0.9166667 0.625
vt 1 0.625
vt 0 0.75
vt 0.083333336 0.75
vt 0.16666667 0.75
vt 0.25 0.75
vt 0.33333334 0.75
vt 0.41666666 0.75
vt 0.5 0.75
vt 0.5833333 0.75
vt 0.6666667 0.75
vt 0.75 0.75
vt 0.8333333 0.75
vt 0.9166667 0.75
vt 1 0.75
vt 0 0.875
vt 0.083333336 0.875
vt 0.16666667 0.875
vt 0.25 0.875
vt 0.33333334 0.875
vt 0.41666666 0.875
vt 0.5 0.875
vt 0.5833333 0.875
vt 0.6666667 0.875
vt 0.75 0.875
vt 0.8333333 0.875
vt 0.9166667 0.875
vt 1 0.875
vt 0.5 1
vn -5.81543E-08 1 8.723145E-09
vn 0.35315588 0.9308781 0.09352471
vn 0.36199474 0.8714114 0.33106208
vn 0.28093743 0.9064328 0.3153628
vn 0.15571241 0.9393014 0.3057232
vn -0.15265514 0.9412898 0.3011147
vn -0.5068933 0.8509625 0.13755728
vn -0.36797634 0.91107595 0.18583322
vn -0.29697135 0.9547909 -0.013500851
vn -0.14963084 0.9267799 -0.34451342
vn 0.08541874 0.8616623 -0.50024164
vn 0.13537526 0.88317347 -0.449086
vn 0.09321534 0.9389737 -0.3311182
vn 0.35315588 0.9308781 0.09352471
vn 0.7760082 0.5830443 0.24056329
vn 0.6425968 0.699711 0.31220785
vn 0.4181169 0.86611956 0.27388883
vn -0.053192977 0.7238964 0.68785506
vn -0.5157141 0.55452865 0.6530979
vn -0.5408655 0.70739776 0.4550309
vn -0.44406816 0.8562036 0.26404315
vn -0.49177375 0.8005041 -0.34256655
vn -0.20059702 0.4704339 -0.8593327
vn -0.12911244 0.6985513 -0.70381546
vn 0.06031368 0.83110255 -0.55283886
vn 0.5141214 0.79142296 -0.33064896
vn 0.7760082 0.5830443 0.24056329
vn 0.89443755 0.43588042 -0.09994878
vn 0.70383555 0.6965244 0.13953242
vn 0.3994848 0.46619117 0.78935266
vn -0.23477706 0.04351919 0.9710745
vn -0.3778493 0.3519441 0.85636747
vn -0.38932192 0.700217 0.5984351
vn -0.8995762 0.43502736 -0.038907144
vn -0.66058475 0.052793883 -0.7488929
vn -0.45470312 0.36296067 -0.8133293
vn -0.26139557 0.68134356 -0.6836982
vn 0.4079169 0.46958387 -0.78300375
vn 0.9631227 -0.013713409 -0.2687126
vn 0.89443755 0.43588042 -0.09994878
vn 0.83666635 0.4496408 -0.3127502
vn 0.8396268 0.028036347 0.54243964
vn 0.14760341 -0.42376786 0.8936632
vn 0.020413356 0.036576767 0.9991223
vn -0.18146858 0.36375153 0.9136487
vn -0.83228636 0.022311931 0.5538967
vn -0.8513815 -0.422664 -0.31065214
vn -0.82940996 -0.015779378 -0.55841744
vn -0.6367769 0.43956715 -0.6334792
vn 0.011413013 -0.046139367 -0.9988699
vn 0.6395778 -0.40133443 -0.65564543
vn 0.8426698 -0.023845883 -0.5379024
vn 0.83666635 0.4496408 -0.3127502
vn 0.85330695 -0.5200722 -0.037311777
vn 0.42531458 -0.67247736 0.6057075
vn 0.35604012 -0.39460054 0.8470689
vn 0.23671065 -0.01508765 0.971463
vn -0.3838364 -0.42359096 0.82051224
vn -0.67750454 -0.7316645 0.07519785
vn -0.9291143 -0.36808595 -0.035486955
vn -0.95203227 -0.07549706 -0.29653782
vn -0.42309293 -0.42662305 -0.7993655
vn 0.2394898 -0.6740331 -0.6988018
vn 0.48340935 -0.38596898 -0.785712
vn 0.64318097 0.00066603126 -0.76571393
vn 0.85330695 -0.5200722 -0.037311777
vn 0.43565315 -0.86718374 0.24124418
vn 0.5082658 -0.70689374 0.4919016
vn 0.57212454 -0.5068435 0.6448125
vn -0.0035940835 -0.77917653 0.6267943
vn -0.4080513 -0.8458979 0.3434398
vn -0.6236314 -0.7370566 0.26044458
vn -0.8107444 -0.5420426 0.22109565
vn -0.54863584 -0.7791714 -0.3031347
vn 0.0061664963 -0.8399865 -0.5425724
vn 0.05723868 -0.65692073 -0.7517838
vn 0.22634073 -0.55173206 -0.8027214
vn 0.5185021 -0.76202166 -0.38791558
vn 0.43565315 -0.86718374 0.24124418
vn 0.39621487 -0.91325045 0.09480268
vn 0.4114485 -0.88993424 0.19679192
vn 0.2345527 -0.91824067 0.31909123
vn -0.17684637 -0.94697505 0.2682603
vn -0.30625194 -0.8985496 0.31435385
vn -0.34213763 -0.8511318 0.39814138
vn -0.3138317 -0.9494109 -0.011336814
vn -0.17798993 -0.94246656 -0.28297764
vn -0.048969414 -0.8986798 -0.43586296
vn -0.11434164 -0.8323464 -0.5423335
vn 0.1273454 -0.9302154 -0.34421268
vn 0.31088123 -0.9488235 0.055559415
vn 0.39621487 -0.91325045 0.09480268
vn 6.6877504E-08 -1 1.4538588E-09
f 1/1/1 3/3/3 2/2/2
f 80/80/80 81/81/81 93/93/93
f 1/1/1 4/4/4 3/3/3
f 81/81/81 82/82/82 93/93/93
f 1/1/1 5/5/5 4/4/4
f 82/82/82 83/83/83 93/93/93
f 1/1/1 6/6/6 5/5/5
f 83/83/83 84/84/84 93/93/93
f 1/1/1 7/7/7 6/6/6
f 84/84/84 85/85/85 93/93/93
f 1/1/1 8/8/8 7/7/7
f 85/85/85 86/86/86 93/93/93
f 1/1/1 9/9/9 8/8/8
f 86/86/86 87/87/87 93/93/93
f 1/1/1 10/10/10 9/9/9
f 87/87/87 88/88/88 93/93/93
f 1/1/1 11/11/11 10/10/10
f 88/88/88 89/89/89 93/93/93
f 1/1/1 12/12/12 11/11/11
f 89/89/89 90/90/90 93/93/93
f 1/1/1 13/13/13 12/12/12
f 90/90/90 91/91/91 93/93/93
f 1/1/1 14/14/14 13/13/13
f 91/91/91 92/92/92 93/93/93
f 2/2/2 3/3/3 15/15/15
f 3/3/3 16/16/16 15/15/15
f 3/3/3 4/4/4 16/16/16
f 4/4/4 17/17/17 16/16/16
f 4/4/4 5/5/5 17/17/17
f 5/5/5 18/18/18 17/17/17
f 5/5/5 6/6/6 18/18/18
f 6/6/6 19/19/19 18/18/18
f 6/6/6 7/7/7 19/19/19
f 7/7/7 20/20/20 19/19/19
f 7/7/7 8/8/8 20/20/20
f 8/8/8 21/21/21 20/20/20
f 8/8/8 9/9/9 21/21/21
f 9/9/9 22/22/22 21/21/21
f 9/9/9 10/10/10 22/22/22
f 10/10/10 23/23/23 22/22/22
f 10/10/10 11/11/11 23/23/23
f 11/11/11 24/24/24 23/23/23
f 11/11/11 12/12/12 24/24/24
f 12/12/12 25/25/25 24/24/24
f 12/12/12 13/13/13 25/25/25
f 13/13/13 26/26/26 25/25/25
f 13/13/13 14/14/14 26/26/26
f 14/14/14 27/27/27 26/26/26
f 15/15/15 16/16/16 28/28/28
f 16/16/16 29/29/29 28/28/28
f 16/16/16 17/17/17 29/29/29
f 17/17/17 30/30/30 29/29/29
f 17/17/17 18/18/18 30/30/30
f 18/18/18 31/31/31 30/30/30
f 18/18/18 19/19/19 31/31/31
f 19/19/19 32/32/32 31/31/31
f 19/19/19 20/20/20 32/32/32
f 20/20/20 33/33/33 32/32/32
f 20/20/20 21/21/21 33/33/33
f 21/21/21 34/34/34 33/33/33
f 21/21/21 22/22/22 34/34/34
f 22/22/22 35/35/35 34/34/34
f 22/22/22 23/23/23 35/35/35
f 23/23/23 36/36/36 35/35/35
f 23/23/23 24/24/24 36/36/36
f 24/24/24 37/37/37 36/36/36
f 24/24/24 25/25/25 37/37/37
f 25/25/25 38/38/38 37/37/37
f 25/25/25 26/26/26 38/38/38
f 26/26/26 39/39/39 38/38/38
f 26/26/26 27/27/27 39/39/39
f 27/27/27 40/40/40 39/39/39
f 28/28/28 29/29/29 41/41/41
f 29/29/29 42/42/42 41/41/41
f 29/29/29 30/30/30 42/42/42
f 30/30/30 43/43/43 42/42/42
f 30/30/30 31/31/31 43/43/43
f 31/31/31 44/44/44 43/43/43
f 31/31/31 32/32/32 44/44/44
f 32/32/32 45/45/45 44/44/44
f 32/32/32 33/33/33 45/45/45
f 33/33/33 46/46/46 45/45/45
f 33/33/33 34/34/34 46/46/46
f 34/34/34 47/47/47 46/46/46
f 34/34/34 35/35/35 47/47/47
f 35/35/35 48/48/48 47/47/47
f 35/35/35 36/36/36 48/48/48
f 36/36/36 49/49/49 48/48/48
f 36/36/36 37/37/37 49/49/49
f 37/37/37 50/50/50 49/49/49
f 37/37/37 38/38/38 50/50/50
f 38/38/38 51/51/51 50/50/50
f 38/38/38 39/39/39 51/51/51
f 39/39/39 52/52/52 51/51/51
f 39/39/39 40/40/40 52/52/52
f 40/40/40 53/53/53 52/52/52
f 41/41/41 42/42/42 54/54/54
f 42/42/42 55/55/55 54/54/54
f 42/42/42 43/43/43 55/55/55
f 43/43/43 56/56/56 55/55/55
f 43/43/43 44/44/44 56/56/56
f 44/44/44 57/57/57 56/56/56
f 44/44/44 45/45/45 57/57/57
f 45/45/45 58/58/58 57/57/57
f 45/45/45 46/46/46 58/58/58
f 46/46/46 59/59/59 58/58/58
f 46/46/46 47/47/47 59/59/59
f 47/47/47 60/60/60 59/59/59
f 47/47/47 48/48/48 60/60/60
f 48/48/48 61/61/61 60/60/60
f 48/48/48 49/49/49 61/61/61
f 49/49/49 62/62/62 61/61/61
f 49/49/49 50/50/50 62/62/62
f 50/50/50 63/63/63 62/62/62
f 50/50/50 51/51/51 63/63/63
f 51/51/51 64/64/64 63/63/63
f 51/51/51 52/52/52 64/64/64
f 52/52/52 65/65/65 64/64/64
f 52/52/52 53/53/53 65/65/65
f 53/53/53 66/66/66 65/65/65
f 54/54/54 55/55/55 67/67/67
f 55/55/55 68/68/68 67/67/67
f 55/55/55 56/56/56 68/68/68
f 56/56/56 69/69/69 68/68/68
f 56/56/56 57/57/57 69/69/69
f 57/57/57 70/70/70 69/69/69
f 57/57/57 58/58/58 70/70/70
f 58/58/58 71/71/71 70/70/70
f 58/58/58 59/59/59 71/71/71
f 59/59/59 72/72/72 71/71/71
f 59/59/59 60/60/60 72/72/72
f 60/60/60 73/73/73 72/72/72
f 60/60/60 61/61/61 73/73/73
f 61/61/61 74/74/74 73/73/73
f 61/61/61 62/62/62 74/74/74
f 62/62/62 75/75/75 74/74/74
f 62/62/62 63/63/63 75/75/75
f 63/63/63 76/76/76 75/75/75
f 63/63/63 64/64/64 76/76/76
f 64/64/64 77/77/77 76/76/76
f 64/64/64 65/65/65 77/77/77
f 65/65/65 78/78/78 77/77/77
f 65/65/65 66/66/66 78/78/78
f 66/66/66 79/79/79 78/78/78
f 67/67/67 68/68/68 80/80/80
f 68/68/68 81/81/81 80/80/80
f 68/68/68 69/69/69 81/81/81
f 69/69/69 82/82/82 81/81/81
f 69/69/69 70/70/70 82/82/82
f 70/70/70 83/83/83 82/82/82
f 70/70/70 71/71/71 83/83/83
f 71/71/71 84/84/84 83/83/83
f 71/71/71 72/72/72 84/84/84
f 72/72/72 85/85/85 84/84/84
f 72/72/72 73/73/73 85/85/85
f 73/73/73 86/86/86 85/85/85
f 73/73/73 74/74/74 86/86/86
f 74/74/74 87/87/87 86/86/86
f 74/74/74 75/75/75 87/87/87
f 75/75/75 88/88/88 87/87/87
f 75/75/75 76/76/76 88/88/88
f 76/76/76 89/89/89 88/88/88
f 76/76/76 77/77/77 89/89/89
f 77/77/77 90/90/90 89/89/89
f 77/77/77 78/78/78 90/90/90
f 78/78/78 91/91/91 90/90/90
f 78/78/78 79/79/79 91/91/91
f 79/79/79 92/92/92 91/91/91
